<svg width="78" height="77" viewBox="0 0 78 77" fill="none" xmlns="http://www.w3.org/2000/svg">
<path d="M77.977 41.8853C77.8141 43.9993 76.8584 45.8884 75.2863 47.2046C73.8146 48.4366 71.9652 49.0109 70.0783 48.8217C67.5049 48.5636 65.2383 46.8801 64.1211 44.4566L61.7823 44.2501L59.4741 44.8971C59.2947 44.9474 59.1499 45.0895 59.0868 45.2771C58.4161 47.2727 57.4587 49.157 56.2388 50.8831L57.0557 53.0794L59.6339 55.868C61.1003 55.9171 62.464 56.5635 63.4419 57.6907C65.2113 59.7302 65.1378 62.8559 63.2742 64.8064C62.2514 65.8769 60.8736 66.4636 59.4 66.4479C57.945 66.436 56.5444 65.8168 55.557 64.7487C54.5897 63.7026 54.0945 62.3381 54.156 60.9335L51.5774 58.1445L49.4169 57.1423C46.1943 59.0261 42.5348 60.0448 38.7917 60.0992L37.379 62.3522L36.8808 64.828C38.8657 66.451 39.7931 68.9719 39.2627 71.4554C38.4668 75.1821 34.6292 77.6097 30.7088 76.866C28.735 76.4919 27.0556 75.3943 25.98 73.7758C24.9725 72.2596 24.6244 70.4558 25.0003 68.6968C25.5011 66.3515 27.2013 64.4597 29.5142 63.6156L30.0646 60.8805L29.6268 58.2145C27.6327 57.3225 25.7936 56.1399 24.1459 54.6906L22.5265 54.9791L20.6966 56.3596C20.4351 57.7494 19.6329 58.9728 18.4409 59.7725C16.2165 61.2652 13.2253 60.8569 11.4832 58.8229C10.5201 57.6985 10.0773 56.2713 10.2364 54.8045C10.3934 53.3581 11.1494 52.0261 12.3105 51.1501C13.5112 50.2443 15.0382 49.8988 16.4997 50.1797L18.0331 49.0229L18.7209 47.6155C18.7513 47.5532 18.7521 47.4814 18.7232 47.4186C17.4116 44.5666 16.7466 41.5216 16.7466 38.3684C16.7466 37.7848 16.7708 37.1914 16.8184 36.605C16.8257 36.5145 16.79 36.4317 16.7225 36.3838L14.1331 34.5387L11.1775 33.609C9.36272 35.0131 6.96311 35.4371 4.75444 34.7072C4.71026 34.6925 4.6667 34.6768 4.62329 34.6607L4.58676 34.6473C3.9783 34.428 3.66276 33.7571 3.88181 33.1487C4.10087 32.5404 4.77146 32.2245 5.38038 32.4437L5.43518 32.4637C5.45361 32.4704 5.47203 32.4775 5.4903 32.4836C7.10331 33.0169 8.87074 32.6202 10.1031 31.4484C10.324 31.2384 10.614 31.1261 10.91 31.1261C11.0274 31.1261 11.1459 31.1438 11.2613 31.1802L15.0129 32.3604C15.1301 32.3972 15.2408 32.4523 15.3411 32.5237L18.0815 34.4763C18.8163 34.9996 19.2268 35.8882 19.1528 36.7952C19.1103 37.3187 19.0886 37.848 19.0886 38.3685C19.0886 41.1816 19.6816 43.8974 20.8512 46.4403C21.1748 47.1443 21.1655 47.9475 20.8253 48.6438L20.0143 50.3032C19.9334 50.4689 19.8146 50.6128 19.6675 50.7238L17.4631 52.387C17.1592 52.6162 16.7628 52.6835 16.4007 52.5673C15.4864 52.2744 14.4848 52.4436 13.7212 53.0198C13.0643 53.5152 12.6539 54.2389 12.565 55.0573C12.4763 55.8748 12.724 56.6711 13.2622 57.2995C14.2161 58.4132 15.9178 58.6454 17.1363 57.8279C17.8874 57.3237 18.3615 56.519 18.4369 55.6197C18.4647 55.2878 18.6325 54.9833 18.8986 54.7827L21.3402 52.9406C21.4873 52.8296 21.6585 52.755 21.84 52.7227L24.3 52.2842C24.6621 52.2196 25.0327 52.3289 25.3019 52.5787C27.0158 54.1691 28.9746 55.4241 31.1244 56.3089C31.4999 56.4635 31.7685 56.8013 31.8342 57.202L32.4107 60.7118C32.4336 60.8514 32.431 60.994 32.4032 61.1326L31.6739 64.7573C31.5853 65.1974 31.2529 65.5482 30.8181 65.6602C29.0073 66.1267 27.6558 67.4777 27.2911 69.1857C27.0481 70.3229 27.2754 71.4927 27.9312 72.4795C28.6549 73.5685 29.7965 74.3092 31.1457 74.5649C33.827 75.0727 36.4408 73.4587 36.973 70.9662C37.3542 69.1813 36.5601 67.3553 34.9499 66.3142C34.5459 66.053 34.3428 65.5713 34.4377 65.0998L35.1258 61.6805C35.1538 61.5418 35.2065 61.4094 35.2816 61.2895L36.973 58.5914C37.2997 58.0704 37.8616 57.7594 38.4793 57.7594H38.4799C42.0044 57.7594 45.4584 56.7988 48.4688 54.9814C48.9735 54.6768 49.5928 54.6423 50.1256 54.8892L52.7731 56.1173C52.9118 56.1816 53.0365 56.2725 53.1402 56.3846L56.2316 59.7284C56.4743 59.9907 56.5837 60.3493 56.5291 60.7025C56.3903 61.5993 56.6629 62.4946 57.2769 63.1586C57.8354 63.7627 58.5964 64.099 59.4196 64.1059C60.2396 64.106 61.0096 63.7869 61.5812 63.1884C62.6187 62.1025 62.6592 60.3618 61.6732 59.2255C61.0549 58.5129 60.1603 58.145 59.2185 58.2157C58.8623 58.2427 58.5131 58.1052 58.2707 57.8429L55.1793 54.4991C55.0755 54.387 54.9947 54.2556 54.9415 54.1124L53.9365 51.41C53.7299 50.8547 53.8159 50.2358 54.1663 49.7544C55.3312 48.154 56.2399 46.3966 56.8671 44.5307C57.1773 43.6074 57.9157 42.9012 58.8423 42.6416L61.3566 41.937C61.4927 41.8987 61.6346 41.8857 61.7756 41.8981L65.0408 42.1865C65.5002 42.2271 65.8928 42.5332 66.0441 42.9688C66.7202 44.9163 68.3957 46.2989 70.3125 46.4911C71.5661 46.6169 72.7993 46.2323 73.7835 45.4084C74.8682 44.5004 75.5285 43.1851 75.6424 41.7051C75.7177 40.7271 75.541 39.745 75.1313 38.8649C74.8583 38.2786 75.1122 37.5821 75.6987 37.309C76.2852 37.0361 76.9816 37.29 77.2545 37.8764C77.833 39.1208 78.083 40.5069 77.977 41.8853Z" fill="#1D006E"/>
<path d="M72.0834 36.0869C71.7548 35.9787 71.4156 35.9066 71.0756 35.8724C69.0491 35.6696 67.1551 36.7917 66.2484 38.732C66.04 39.1779 65.5745 39.4463 65.0844 39.4026L62.0192 39.1319C61.8782 39.1194 61.7408 39.0816 61.6134 39.0201L59.2997 37.9039C58.4231 37.4811 57.8183 36.6457 57.682 35.6696C57.479 34.2171 57.1091 32.7875 56.5828 31.4209C56.2687 30.6051 56.3308 29.7037 56.7535 28.9482L57.5775 27.4746C57.6675 27.3138 57.7941 27.1764 57.9473 27.0738L60.2405 25.5353C60.5564 25.3233 60.9559 25.2781 61.3113 25.414C62.2077 25.757 63.2172 25.6436 64.0118 25.1106C64.6949 24.6524 65.145 23.9526 65.279 23.1404C65.4128 22.3291 65.2098 21.5202 64.707 20.8628C63.8161 19.6978 62.1302 19.3718 60.8682 20.1207C60.0903 20.5824 59.5723 21.3598 59.4472 22.2535C59.401 22.5834 59.2165 22.8781 58.9398 23.0635L56.3998 24.7676C56.2468 24.8703 56.0716 24.9354 55.8888 24.9576L54.2901 25.152C53.396 25.261 52.5044 24.9626 51.8448 24.3338C50.5645 23.114 49.1268 22.0749 47.5719 21.2457C46.6676 20.7635 46.0655 19.8227 46.0009 18.7906L45.798 15.5518C45.7906 15.4311 45.8016 15.3098 45.8313 15.1926L46.8363 11.204C46.9389 10.7966 47.252 10.4754 47.6563 10.3624C49.02 9.98097 50.0817 8.89303 50.4269 7.52328C50.6897 6.4803 50.5236 5.40142 49.9588 4.48555C49.3946 3.57014 48.5043 2.93702 47.4521 2.70266C45.4906 2.26548 43.4665 3.41759 42.8451 5.32508C42.3758 6.76603 42.7549 8.3194 43.8342 9.37924C44.131 9.67058 44.2509 10.0976 44.1493 10.5009L43.138 14.5138C43.1085 14.6311 43.0609 14.7432 42.997 14.8459L41.438 17.3536C40.8062 18.3702 39.7054 18.9768 38.4813 18.9768C38.4805 18.9768 38.4798 18.9768 38.4788 18.9768C37.2126 18.9768 35.9449 19.1006 34.7109 19.3448C33.5346 19.5777 32.345 19.2021 31.5287 18.3407L29.4674 16.1654C29.3842 16.0775 29.3151 15.9774 29.2624 15.8684L26.9551 11.0812C26.7988 10.757 26.8004 10.3786 26.9593 10.0558C27.3635 9.2345 27.3682 8.29223 26.9721 7.47035C26.6146 6.72856 25.9847 6.18397 25.1988 5.93681C24.4134 5.6898 23.5832 5.77771 22.8613 6.18396C21.5914 6.89859 21.0298 8.51488 21.5825 9.8634C21.9512 10.7626 22.7044 11.4043 23.6491 11.6241C23.9943 11.7044 24.2847 11.9369 24.4387 12.2561L26.761 17.0741C26.8135 17.1831 26.8489 17.2996 26.8656 17.4193L27.3206 20.6538C27.4616 21.6557 27.065 22.6704 26.2859 23.3021C24.531 24.7253 23.0493 26.4235 21.8817 28.3499C21.3702 29.1938 20.4334 29.724 19.4367 29.7334L16.2078 29.7642C16.0846 29.7657 15.9625 29.7471 15.8453 29.7103L12.3101 28.5982C11.8681 28.459 11.5496 28.0725 11.4977 27.612C11.2945 25.8054 10.0438 24.2859 8.31153 23.741C5.92253 22.9894 3.34539 24.3143 2.56769 26.6949C2.25855 27.6412 2.26854 28.6455 2.59689 29.5991C2.80736 30.2107 2.48229 30.8771 1.87071 31.0875C1.25898 31.2983 0.592763 30.9728 0.382295 30.3614C-0.113116 28.9218 -0.127324 27.4025 0.341388 25.9676C1.29286 23.0553 4.02692 21.189 6.94973 21.1892C7.63422 21.1892 8.32964 21.2916 9.01428 21.5071C11.3797 22.2517 13.1499 24.1977 13.6947 26.5792L16.3718 27.4214L19.4151 27.3925C19.6071 27.3906 19.7851 27.2927 19.8794 27.1369C21.1871 24.9793 22.8464 23.0773 24.8114 21.4838C24.9561 21.3665 25.0292 21.1737 25.002 20.9807L24.5725 17.9269L22.5548 13.7405C21.1418 13.2404 19.9917 12.1558 19.4162 10.752C18.4066 8.28942 19.3942 5.44811 21.7134 4.14315C23.0049 3.41619 24.4927 3.25974 25.9017 3.70285C27.2909 4.13956 28.4504 5.14225 29.0826 6.45377C29.7065 7.74827 29.7767 9.20811 29.2951 10.5409L31.2937 14.6875L33.2295 16.7302C33.4897 17.0049 33.8737 17.1236 34.257 17.0477C35.6403 16.774 37.061 16.6351 38.4932 16.6351H38.4941C38.891 16.6351 39.2484 16.4416 39.4498 16.1173L40.9125 13.7647L41.7256 10.5379C40.3716 8.88539 39.9449 6.66938 40.6189 4.59983C41.4683 1.99194 43.9597 0.269321 46.6237 0.269478C47.0671 0.269478 47.5157 0.317253 47.9619 0.416553C49.6366 0.789558 51.0541 1.79802 51.9531 3.25646C52.8525 4.71537 53.1171 6.43393 52.6984 8.09535C52.2061 10.0492 50.7998 11.6427 48.9529 12.3907L48.1474 15.5877L48.3388 18.6442C48.353 18.8714 48.4817 19.0764 48.6743 19.1791C50.4165 20.1083 52.0268 21.2721 53.4609 22.6382C53.6119 22.782 53.8113 22.8506 54.008 22.8268L55.3284 22.6663L57.232 21.3892C57.57 20.0161 58.4389 18.839 59.6733 18.1065C61.9771 16.7395 64.9409 17.3127 66.5677 19.4402C67.4672 20.6163 67.8302 22.0657 67.5899 23.5215C67.353 24.957 66.5244 26.2451 65.3166 27.0554C64.0677 27.8932 62.5238 28.1535 61.0801 27.7922L59.485 28.8623L58.7979 30.0911C58.7162 30.2372 58.7056 30.4151 58.7687 30.579C59.3592 32.1124 59.774 33.7161 60.0017 35.3453C60.0294 35.5444 60.1476 35.7122 60.3175 35.7942L62.4386 36.8175L64.5209 37.0014C65.9683 34.6059 68.5509 33.265 71.3095 33.5418C71.8186 33.5929 72.3253 33.7006 72.8157 33.8619C73.4301 34.0641 73.764 34.7259 73.5618 35.3403C73.3596 35.9552 72.6976 36.289 72.0834 36.0869Z" fill="#1D006E"/>
<path d="M42.2412 54.3304C41.0136 54.6188 39.7478 54.7649 38.479 54.7649C29.438 54.7649 22.0824 47.4094 22.0824 38.3682C22.0824 29.327 29.4378 21.9716 38.479 21.9716C47.5203 21.9716 54.8757 29.327 54.8757 38.3682C54.8757 44.0212 52.0202 49.2034 47.2373 52.2312C46.6907 52.5772 45.9672 52.4145 45.6215 51.8682C45.2755 51.3217 45.4382 50.5983 45.9847 50.2523C50.0855 47.6565 52.5337 43.2137 52.5337 38.3682C52.5337 30.6185 46.2289 24.3136 38.479 24.3136C30.7292 24.3136 24.4244 30.6184 24.4244 38.3682C24.4244 46.1181 30.7292 52.4229 38.479 52.4229C39.5678 52.4229 40.6534 52.2975 41.7058 52.0504C42.3355 51.902 42.9657 52.293 43.1135 52.9225C43.2614 53.5522 42.8708 54.1824 42.2412 54.3304Z" fill="#1D006E"/>
<path d="M12.8601 64.8783C15.8968 64.8783 18.3671 67.3486 18.3671 70.3852C18.3671 73.4219 15.8968 75.8922 12.8601 75.8922C9.82349 75.8922 7.35315 73.4217 7.35315 70.3851C7.35315 67.3486 9.82349 64.8783 12.8601 64.8783ZM12.8601 73.5501C14.6052 73.5501 16.0251 72.1302 16.0251 70.3851C16.0251 68.64 14.6052 67.2201 12.8601 67.2201C11.115 67.2201 9.69515 68.64 9.69515 70.3851C9.69515 72.1302 11.115 73.5501 12.8601 73.5501Z" fill="#1D006E"/>
<path d="M11.6759 17.2654C9.45096 17.2654 7.64075 15.4553 7.64075 13.2304C7.64075 11.0055 9.4508 9.19534 11.6759 9.19534C13.9008 9.19534 15.7108 11.0054 15.7108 13.2304C15.7108 15.4552 13.9008 17.2654 11.6759 17.2654ZM11.6759 11.5373C10.7423 11.5373 9.98275 12.2968 9.98275 13.2304C9.98275 14.164 10.7422 14.9234 11.6759 14.9234C12.6094 14.9234 13.3688 14.164 13.3688 13.2304C13.3688 12.2968 12.6094 11.5373 11.6759 11.5373Z" fill="#1D006E"/>
<path d="M64.2594 13.9151C61.2877 13.9151 58.87 11.4975 58.87 8.52568C58.87 5.55384 61.2876 3.13627 64.2594 3.13627C67.2312 3.13627 69.6488 5.55384 69.6488 8.52568C69.6488 11.4975 67.2311 13.9151 64.2594 13.9151ZM64.2594 5.47843C62.5791 5.47843 61.212 6.84538 61.212 8.52584C61.212 10.2063 62.5789 11.5733 64.2594 11.5733C65.9399 11.5733 67.3068 10.2063 67.3068 8.52584C67.3068 6.84538 65.9397 5.47843 64.2594 5.47843Z" fill="#1D006E"/>
<path d="M38.9096 42.5671C38.9096 45.3814 36.6201 47.671 33.8057 47.671C30.9914 47.671 28.7019 45.3814 28.7019 42.5671C28.7019 39.7528 30.9914 37.4633 33.8057 37.4633C36.6201 37.4633 38.9096 39.753 38.9096 42.5671ZM33.8057 39.8053C32.2828 39.8053 31.0439 41.0442 31.0439 42.5671C31.0439 44.09 32.2828 45.329 33.8057 45.329C35.3287 45.329 36.5676 44.09 36.5676 42.5671C36.5676 41.0442 35.3287 39.8053 33.8057 39.8053Z" fill="#1D006E"/>
<path d="M36.9633 26.5038C39.085 26.5038 40.8112 28.23 40.8112 30.3517C40.8112 32.4734 39.085 34.1996 36.9633 34.1996C34.8416 34.1996 33.1154 32.4734 33.1154 30.3517C33.1154 28.2299 34.8414 26.5038 36.9633 26.5038ZM36.9633 31.8575C37.7936 31.8575 38.4692 31.1819 38.4692 30.3516C38.4692 29.5213 37.7936 28.8457 36.9633 28.8457C36.1329 28.8457 35.4574 29.5213 35.4574 30.3516C35.4574 31.1819 36.1328 31.8575 36.9633 31.8575Z" fill="#1D006E"/>
<path d="M41.949 38.3682C41.949 36.483 43.4827 34.9493 45.3678 34.9493C47.253 34.9493 48.7867 36.483 48.7867 38.3682C48.7867 40.2533 47.253 41.787 45.3678 41.787C43.4827 41.787 41.949 40.2535 41.949 38.3682ZM45.3678 39.4452C45.9616 39.4452 46.4447 38.9621 46.4447 38.3684C46.4447 37.7746 45.9616 37.2915 45.3678 37.2915C44.7741 37.2915 44.291 37.7746 44.291 38.3684C44.291 38.9621 44.7739 39.4452 45.3678 39.4452Z" fill="#1D006E"/>
</svg>
