<svg width="86" height="64" viewBox="0 0 86 64" fill="none" xmlns="http://www.w3.org/2000/svg">
<path d="M75.8747 28.4189C72.9483 26.9559 67.4616 26.939 67.2295 26.939C66.5338 26.939 65.9697 27.503 65.9697 28.1987C65.9697 28.8945 66.5338 29.4585 67.2295 29.4585C68.6453 29.4587 72.756 29.6767 74.7479 30.6726C74.9288 30.7631 75.121 30.8058 75.3103 30.8058C75.7724 30.8058 76.2173 30.5505 76.438 30.1092C76.7493 29.4869 76.497 28.7302 75.8747 28.4189Z" fill="#1D006E"/>
<path d="M82.1555 46.3552L76.9527 44.8687C76.7281 44.8045 76.5712 44.5965 76.5712 44.3629V42.6263C76.9945 42.333 77.3983 42.0048 77.7757 41.6384C79.6049 39.8633 80.6122 37.4824 80.6122 34.934V32.5376L81.1153 31.5316C81.6674 30.4272 81.9592 29.1908 81.9592 27.9562V21.4642C81.9592 20.7685 81.3951 20.2045 80.6994 20.2045H68.5766C64.1684 20.2045 60.582 23.7909 60.582 28.1991V28.2742C60.582 29.3008 60.8247 30.3289 61.2837 31.2471L61.9289 32.5374V34.595C61.9289 37.856 63.5359 40.7818 65.9699 42.5425L65.9702 44.3626C65.9702 44.6432 65.9702 44.7595 64.93 45.0568L62.3913 45.7821L55.0476 43.1117C55.0739 42.7652 54.957 42.4128 54.7042 42.1472L52.3575 39.6818V35.543C52.6056 35.3386 52.8502 35.1286 53.0872 34.9066C56.0476 32.1317 57.7455 28.214 57.7455 24.1581V20.8528C58.6394 18.9076 59.0924 16.8491 59.0924 14.7292V1.25977C59.0924 0.564039 58.5284 0 57.8326 0H38.975C32.3385 0 26.9395 5.39919 26.9395 12.0355V14.7295C26.9395 16.8494 27.3925 18.9079 28.2864 20.8532V23.697C28.2864 28.4062 30.3803 32.6488 33.6744 35.4458V39.6819L31.3277 42.1474C31.0749 42.4129 30.958 42.7653 30.9844 43.1119L23.2334 45.9302C22.6718 46.1345 22.1499 46.4111 21.676 46.7462L20.4589 46.1377C24.082 44.5606 25.2297 42.3426 25.2848 42.2324C25.4622 41.8778 25.4622 41.4602 25.2848 41.1056C24.3766 39.2892 24.2666 35.9599 24.1783 33.2849C24.1489 32.3943 24.121 31.5529 24.0677 30.8038C23.6382 24.7613 19.0446 20.2045 13.3824 20.2045C7.72018 20.2045 3.1264 24.7611 2.69707 30.8038C2.64383 31.5531 2.61595 32.3945 2.58655 33.2852C2.4982 35.9601 2.38801 39.2891 1.47997 41.1055C1.3026 41.4601 1.3026 41.8776 1.47997 42.2322C1.53507 42.3424 2.68044 44.5559 6.31075 46.1348L2.93005 47.8251C1.1227 48.7294 0 50.546 0 52.5665V61.8735C0 62.5692 0.564039 63.1332 1.25977 63.1332C1.95549 63.1332 2.51953 62.5692 2.51953 61.8735V52.5665C2.51953 51.5063 3.1086 50.553 4.05678 50.0789L8.26658 47.9741L9.73093 49.3657C10.7549 50.3387 12.0684 50.825 13.3824 50.825C14.6961 50.825 16.0103 50.3384 17.0339 49.3657L18.4981 47.9742L19.8707 48.6605C19.2244 49.6947 18.8575 50.9075 18.8575 52.1778V61.8738C18.8575 62.5695 19.4216 63.1336 20.1173 63.1336C20.813 63.1336 21.377 62.5695 21.377 61.8738V52.1778C21.377 50.4484 22.469 48.8893 24.0944 48.2982L32.2665 45.3267L35.6683 50.4298C36.1032 51.0822 36.8001 51.5006 37.5803 51.5778C37.6673 51.5864 37.7538 51.5906 37.8402 51.5906C38.5285 51.5906 39.1878 51.3197 39.6806 50.827L41.756 48.7516V61.874C41.756 62.5697 42.3201 63.1337 43.0158 63.1337C43.7115 63.1337 44.2756 62.5697 44.2756 61.874V48.7516L46.351 50.827C46.8436 51.3198 47.5029 51.5908 48.1914 51.5908C48.2776 51.5908 48.3643 51.5866 48.4511 51.578C49.2315 51.5007 49.9284 51.0823 50.3632 50.4299L53.7653 45.327L61.9371 48.2986C63.5624 48.8897 64.6545 50.4487 64.6545 52.1781V61.8741C64.6545 62.5699 65.2186 63.1339 65.9143 63.1339C66.61 63.1339 67.1741 62.5699 67.1741 61.8741V52.1781C67.1741 50.4266 66.4782 48.7838 65.3108 47.5689L65.622 47.4801C65.936 47.3904 66.3643 47.2676 66.7943 47.0568L70.0107 50.2732V61.8741C70.0107 62.5699 70.5748 63.1339 71.2705 63.1339C71.9662 63.1339 72.5303 62.5699 72.5303 61.8741V50.2732L75.7243 47.0791C75.8942 47.1655 76.0725 47.2384 76.2603 47.2919L81.4633 48.7785C82.6509 49.1178 83.4805 50.2174 83.4805 51.4527V61.8741C83.4805 62.5699 84.0445 63.1339 84.7402 63.1339C85.436 63.1339 86 62.5699 86 61.8741V51.4527C86 49.0981 84.4191 47.002 82.1555 46.3552ZM8.08182 44.1301C5.72538 43.2822 4.54339 42.1518 4.03881 41.5345C4.38281 40.6352 4.60587 39.6052 4.75688 38.5179C5.45159 40.1837 6.61511 41.6057 8.08182 42.6202V44.1301ZM15.2986 47.5395C14.2241 48.5604 12.5409 48.5603 11.4667 47.5394L10.2951 46.4261C10.4928 46.0557 10.6015 45.6358 10.6015 45.1959V43.8531C11.4803 44.1277 12.4146 44.2759 13.3827 44.2759C14.3497 44.2759 15.2835 44.1271 16.1638 43.854L16.1636 45.1957C16.1636 45.6358 16.2721 46.0559 16.47 46.4264L15.2986 47.5395ZM13.3831 41.7564C9.62125 41.7564 6.56103 38.696 6.56103 34.9343C6.56103 34.2386 5.99699 33.6745 5.30126 33.6745C5.23071 33.6745 5.16185 33.6818 5.09449 33.693C5.09819 33.5847 5.10172 33.4762 5.10541 33.3688C5.13346 32.5026 5.1605 31.6844 5.21039 30.9827C5.3713 28.7191 6.27582 26.6333 7.7573 25.1091C9.25205 23.5712 11.2499 22.7243 13.3827 22.7243C15.5156 22.7243 17.5133 23.5712 19.0082 25.1091C20.4897 26.6333 21.3942 28.7191 21.5551 30.9827C21.6048 31.6843 21.632 32.5023 21.6606 33.3683C21.6631 33.4427 21.6656 33.5182 21.6681 33.5931C20.2975 31.4814 18.1808 29.9251 15.4457 29.0463C12.919 28.2345 10.7458 28.2848 10.6541 28.2871C10.3242 28.2964 10.0111 28.4344 9.78216 28.6719L7.50921 31.0292C7.0263 31.5301 7.04075 32.3276 7.54163 32.8105C8.04251 33.2934 8.84003 33.2788 9.32294 32.7781L11.2143 30.8167C12.8431 30.8963 18.0832 31.5057 20.1211 35.9933C19.6083 39.3003 16.766 41.7564 13.3831 41.7564ZM18.683 44.1343L18.6832 42.6318C20.1487 41.6228 21.3139 40.2035 22.0091 38.5251C22.1601 39.6099 22.383 40.6375 22.7263 41.5348C22.2246 42.1462 21.0371 43.2867 18.683 44.1343ZM30.806 23.6969V20.5713C30.806 20.3817 30.7631 20.1944 30.6807 20.0236C29.8701 18.3449 29.459 16.5637 29.459 14.7295V12.0356C29.459 6.78846 33.728 2.5197 38.975 2.5197H56.5729V14.7297C56.5729 16.5639 56.1619 18.345 55.3512 20.0237C55.2688 20.1945 55.2259 20.3818 55.2259 20.5715V24.1584C55.2259 27.5701 53.8545 30.7344 51.3642 33.0687C51.0533 33.3599 50.7306 33.6331 50.397 33.8875C50.3896 33.8926 50.3826 33.8981 50.3753 33.9033C48.0424 35.6745 45.1849 36.5354 42.2008 36.3421C35.8111 35.9283 30.806 30.374 30.806 23.6969ZM37.8991 49.0452C37.8904 49.0539 37.8701 49.0746 37.8289 49.0702C37.7879 49.0662 37.7718 49.0422 37.7649 49.0318L33.847 43.1549L35.1078 41.8301L41.0514 45.8928L37.8991 49.0452ZM43.016 44.1837L36.1939 39.5205V37.169C37.9591 38.1232 39.9356 38.72 42.0377 38.856C42.3698 38.8775 42.6998 38.8881 43.0289 38.8881C45.4377 38.8881 47.756 38.3123 49.838 37.2194V39.5205L43.016 44.1837ZM48.267 49.0321C48.2601 49.0425 48.244 49.0665 48.203 49.0706C48.1618 49.0758 48.1417 49.0541 48.1328 49.0455L44.9805 45.8933L50.9241 41.8304L52.185 43.1552L48.267 49.0321ZM71.2705 47.9692L68.4117 45.1105C68.4615 44.8839 68.4898 44.6358 68.4896 44.3622L68.4894 43.8306C69.2827 44.091 70.1189 44.2455 70.9841 44.2714C71.0812 44.2744 71.1774 44.2757 71.2742 44.2757C72.2303 44.2757 73.1635 44.1313 74.0517 43.8556V44.3629C74.0517 44.6142 74.0833 44.8604 74.1427 45.0971L71.2705 47.9692ZM76.0211 39.8304C74.686 41.1261 72.9221 41.8104 71.0599 41.753C67.4143 41.6437 64.4484 38.4326 64.4484 34.5953V32.2403C64.4484 32.0446 64.4029 31.8517 64.3154 31.6769L63.5372 30.1205C63.2522 29.5502 63.1015 28.912 63.1015 28.2743V28.1993C63.1015 25.1802 65.5577 22.7242 68.5766 22.7242H79.4396V27.9564C79.4396 28.8019 79.2398 29.6487 78.8617 30.405L78.2257 31.6769C78.1382 31.8519 78.0927 32.0446 78.0927 32.2403V34.9341C78.0927 36.7952 77.357 38.534 76.0211 39.8304Z" fill="#1D006E"/>
<path d="M79.3525 52.5317C78.6568 52.5317 78.0928 53.0958 78.0928 53.7915V61.8733C78.0928 62.569 78.6568 63.1331 79.3525 63.1331C80.0483 63.1331 80.6123 62.569 80.6123 61.8733V53.7915C80.6123 53.0959 80.0483 52.5317 79.3525 52.5317Z" fill="#1D006E"/>
<path d="M6.64746 54.1968C5.95173 54.1968 5.3877 54.7608 5.3877 55.4565V61.8731C5.3877 62.5688 5.95173 63.1329 6.64746 63.1329C7.34319 63.1329 7.90723 62.5688 7.90723 61.8731V55.4565C7.90723 54.761 7.34319 54.1968 6.64746 54.1968Z" fill="#1D006E"/>
<path d="M53.3354 15.1859C48.5707 10.4213 38.602 11.3322 34.5368 11.9449C33.2564 12.1379 32.3271 13.2215 32.3271 14.5214V17.4236C32.3271 18.1193 32.8912 18.6833 33.5869 18.6833C34.2826 18.6833 34.8467 18.1193 34.8467 17.4236V14.5212C34.8467 14.4784 34.8749 14.4418 34.9125 14.4361C36.5363 14.1913 39.7584 13.8138 43.0968 14.0363C47.0253 14.2978 49.8707 15.284 51.5539 16.9674C52.0459 17.4593 52.8435 17.4593 53.3354 16.9674C53.8273 16.4754 53.8273 15.6777 53.3354 15.1859Z" fill="#1D006E"/>
<path d="M28.1992 55.2256C27.5035 55.2256 26.9395 55.7896 26.9395 56.4854V61.8733C26.9395 62.569 27.5035 63.133 28.1992 63.133C28.8949 63.133 29.459 62.569 29.459 61.8733V56.4854C29.459 55.7898 28.8949 55.2256 28.1992 55.2256Z" fill="#1D006E"/>
<path d="M57.833 55.2256C57.1373 55.2256 56.5732 55.7896 56.5732 56.4854V61.8733C56.5732 62.569 57.1373 63.133 57.833 63.133C58.5287 63.133 59.0928 62.569 59.0928 61.8733V56.4854C59.0928 55.7898 58.5287 55.2256 57.833 55.2256Z" fill="#1D006E"/>
</svg>
