<svg width="512" height="512" viewBox="0 0 512 512" fill="none" xmlns="http://www.w3.org/2000/svg">
<path d="M512 309.169V202.831L462.769 186.093C459.815 177.231 455.877 168.37 451.938 159.508L474.584 113.231L398.769 37.416L352.492 60.062C344.615 55.139 335.754 52.185 325.907 49.231L309.169 0H202.831L186.093 49.231C177.231 52.185 168.37 56.123 159.508 60.062L113.231 37.416L37.416 113.231L60.062 159.508C55.139 167.385 52.185 176.246 49.231 186.093L0 202.831V309.169L49.231 325.907C52.185 334.769 56.123 343.63 60.062 352.492L37.416 398.769L113.231 474.584L159.508 451.938C168.37 455.876 177.231 459.815 186.093 462.769L202.831 512H309.169L325.907 462.769C334.769 459.815 343.63 455.877 352.492 451.938L398.769 474.584L474.584 398.769L451.938 352.492C455.876 343.63 459.815 334.769 462.769 325.907L512 309.169ZM256 401.723C175.262 401.723 110.277 336.738 110.277 256C110.277 175.262 175.262 110.277 256 110.277C336.738 110.277 401.723 175.262 401.723 256C401.723 336.738 336.738 401.723 256 401.723Z" fill="white"/>
<path d="M256 301.292C292.978 301.292 322.954 271.315 322.954 234.338C322.954 197.36 292.978 167.384 256 167.384C219.022 167.384 189.046 197.36 189.046 234.338C189.046 271.315 219.022 301.292 256 301.292Z" fill="white"/>
<path d="M311.461 295C279.953 320.6 234.661 321.585 202.169 295C179.523 306.815 160.815 325.523 149 348.169C175.585 377.707 213.985 395.431 256.323 395.431C298.661 395.431 337.061 376.723 363.646 348.169C352.815 325.523 334.107 306.815 311.461 295Z" fill="white"/>
</svg>
