<svg width="29" height="29" viewBox="0 0 29 29" fill="none" xmlns="http://www.w3.org/2000/svg">
<path d="M16.8874 14.1728C16.8874 15.6712 15.6729 16.8857 14.1745 16.8857C12.6762 16.8857 11.4617 15.6712 11.4617 14.1728C11.4617 12.6745 12.6762 11.46 14.1745 11.46C15.6729 11.46 16.8874 12.6745 16.8874 14.1728Z" fill="white"/>
<path d="M20.5185 9.37419C20.3881 9.02081 20.18 8.70095 19.9097 8.4384C19.6472 8.16806 19.3275 7.96001 18.9739 7.8296C18.6871 7.71822 18.2563 7.58565 17.4628 7.54953C16.6045 7.51039 16.3471 7.50195 14.174 7.50195C12.0008 7.50195 11.7434 7.51017 10.8852 7.54932C10.0917 7.58565 9.66072 7.71822 9.37417 7.8296C9.02057 7.96001 8.7007 8.16806 8.43837 8.4384C8.16803 8.70095 7.95998 9.02059 7.82936 9.37419C7.71798 9.66097 7.58541 10.092 7.54929 10.8855C7.51014 11.7436 7.50171 12.001 7.50171 14.1743C7.50171 16.3474 7.51014 16.6047 7.54929 17.4631C7.58541 18.2566 7.71798 18.6874 7.82936 18.9742C7.95998 19.3278 8.16782 19.6474 8.43815 19.91C8.7007 20.1803 9.02035 20.3883 9.37395 20.5188C9.66072 20.6303 10.0917 20.7629 10.8852 20.799C11.7434 20.8382 12.0005 20.8464 14.1738 20.8464C16.3473 20.8464 16.6047 20.8382 17.4626 20.799C18.2561 20.7629 18.6871 20.6303 18.9739 20.5188C19.6837 20.245 20.2447 19.684 20.5185 18.9742C20.6299 18.6874 20.7625 18.2566 20.7988 17.4631C20.8379 16.6047 20.8462 16.3474 20.8462 14.1743C20.8462 12.001 20.8379 11.7436 20.7988 10.8855C20.7627 10.092 20.6301 9.66097 20.5185 9.37419ZM14.174 18.3533C11.8658 18.3533 9.99464 16.4823 9.99464 14.1741C9.99464 11.8658 11.8658 9.99489 14.174 9.99489C16.4821 9.99489 18.3532 11.8658 18.3532 14.1741C18.3532 16.4823 16.4821 18.3533 14.174 18.3533ZM18.5185 10.8063C17.9791 10.8063 17.5418 10.369 17.5418 9.82966C17.5418 9.29028 17.9791 8.85299 18.5185 8.85299C19.0578 8.85299 19.4951 9.29028 19.4951 9.82966C19.4949 10.369 19.0578 10.8063 18.5185 10.8063Z" fill="white"/>
<path d="M14.1734 0C6.34685 0 0 6.34685 0 14.1734C0 22 6.34685 28.3468 14.1734 28.3468C22 28.3468 28.3468 22 28.3468 14.1734C28.3468 6.34685 22 0 14.1734 0ZM22.263 17.5288C22.2236 18.3952 22.0858 18.9867 21.8847 19.5044C21.4619 20.5977 20.5977 21.4619 19.5044 21.8847C18.9869 22.0858 18.3952 22.2234 17.529 22.263C16.6612 22.3025 16.3839 22.312 14.1736 22.312C11.9631 22.312 11.6861 22.3025 10.818 22.263C9.95184 22.2234 9.36012 22.0858 8.84259 21.8847C8.29932 21.6803 7.80753 21.36 7.40094 20.9459C6.987 20.5395 6.66671 20.0475 6.46234 19.5044C6.26121 18.9869 6.12344 18.3952 6.08408 17.529C6.04407 16.6609 6.03477 16.3837 6.03477 14.1734C6.03477 11.9631 6.04407 11.6859 6.08386 10.818C6.12323 9.95162 6.26077 9.36012 6.4619 8.84238C6.66628 8.29932 6.98679 7.80731 7.40094 7.40094C7.80731 6.98679 8.29932 6.66649 8.84238 6.46212C9.36012 6.26099 9.95162 6.12344 10.818 6.08386C11.6859 6.04429 11.9631 6.03477 14.1734 6.03477C16.3837 6.03477 16.6609 6.04429 17.5288 6.08408C18.3952 6.12344 18.9867 6.26099 19.5044 6.4619C20.0475 6.66628 20.5395 6.98679 20.9461 7.40094C21.36 7.80753 21.6805 8.29932 21.8847 8.84238C22.086 9.36012 22.2236 9.95162 22.2632 10.818C22.3027 11.6859 22.312 11.9631 22.312 14.1734C22.312 16.3837 22.3027 16.6609 22.263 17.5288Z" fill="white"/>
</svg>
