<svg width="29" height="29" viewBox="0 0 29 29" fill="none" xmlns="http://www.w3.org/2000/svg">
<path d="M14.1734 0.132812C6.34685 0.132812 0 6.47966 0 14.3062C0 22.1328 6.34685 28.4796 14.1734 28.4796C22 28.4796 28.3468 22.1328 28.3468 14.3062C28.3468 6.47966 22 0.132812 14.1734 0.132812ZM10.0548 21.559H6.60291V11.174H10.0548V21.559ZM8.32895 9.75592H8.30646C7.14812 9.75592 6.39897 8.95854 6.39897 7.96197C6.39897 6.94291 7.17105 6.16758 8.35188 6.16758C9.53271 6.16758 10.2594 6.94291 10.2819 7.96197C10.2819 8.95854 9.53271 9.75592 8.32895 9.75592ZM22.5015 21.559H19.0501V16.0033C19.0501 14.6071 18.5503 13.6548 17.3013 13.6548C16.3478 13.6548 15.7799 14.2971 15.5303 14.9172C15.439 15.1391 15.4167 15.4492 15.4167 15.7595V21.559H11.9651C11.9651 21.559 12.0103 12.1483 11.9651 11.174H15.4167V12.6444C15.8754 11.9368 16.6962 10.9303 18.5276 10.9303C20.7986 10.9303 22.5015 12.4145 22.5015 15.6043V21.559Z" fill="white"/>
</svg>
