<svg width="29" height="29" viewBox="0 0 29 29" fill="none" xmlns="http://www.w3.org/2000/svg">
<path d="M14.1734 0C6.34685 0 0 6.34685 0 14.1734C0 22 6.34685 28.3468 14.1734 28.3468C22 28.3468 28.3468 22 28.3468 14.1734C28.3468 6.34685 22 0 14.1734 0ZM20.6448 11.0509C20.6511 11.1904 20.6541 11.3306 20.6541 11.4713C20.6541 15.7701 17.382 20.7272 11.398 20.7274H11.3982H11.398C9.56082 20.7274 7.85122 20.1889 6.41151 19.2661C6.66606 19.2962 6.92515 19.3111 7.18749 19.3111C8.71175 19.3111 10.1145 18.7912 11.228 17.9185C9.80391 17.8922 8.60318 16.9516 8.18881 15.659C8.38713 15.697 8.59107 15.7178 8.8002 15.7178C9.09714 15.7178 9.38478 15.6778 9.65814 15.6032C8.16956 15.3051 7.04821 13.9896 7.04821 12.4143C7.04821 12.3996 7.04821 12.3864 7.04864 12.3728C7.48702 12.6165 7.98833 12.7631 8.52208 12.7796C7.64857 12.1967 7.07438 11.2004 7.07438 10.0716C7.07438 9.47561 7.2355 8.91721 7.51492 8.43644C9.1192 10.4049 11.5168 11.6995 14.2206 11.8355C14.1648 11.5972 14.136 11.3489 14.136 11.0937C14.136 9.29784 15.593 7.84083 17.3895 7.84083C18.3253 7.84083 19.1705 8.23639 19.7642 8.86876C20.5053 8.72256 21.2013 8.45179 21.83 8.07916C21.5867 8.83848 21.0711 9.47561 20.3994 9.87852C21.0575 9.7998 21.6846 9.62527 22.2675 9.36618C21.8321 10.0187 21.28 10.5918 20.6448 11.0509Z" fill="white"/>
</svg>
