<svg width="30" height="30" viewBox="0 0 30 30" fill="none" xmlns="http://www.w3.org/2000/svg">
<path d="M30 18.1154V11.8846L27.1154 10.9039C26.9423 10.3846 26.7115 9.86543 26.4807 9.34617L27.8077 6.63463L23.3654 2.19234L20.6538 3.51926C20.1923 3.2308 19.6731 3.05771 19.0961 2.88463L18.1154 0H11.8846L10.9039 2.88463C10.3846 3.05771 9.86543 3.28846 9.34617 3.51926L6.63463 2.19234L2.19234 6.63463L3.51926 9.34617C3.2308 9.80771 3.05771 10.3269 2.88463 10.9039L0 11.8846V18.1154L2.88463 19.0961C3.05771 19.6154 3.28846 20.1346 3.51926 20.6538L2.19234 23.3654L6.63463 27.8077L9.34617 26.4807C9.86543 26.7115 10.3846 26.9423 10.9039 27.1154L11.8846 30H18.1154L19.0961 27.1154C19.6154 26.9423 20.1346 26.7115 20.6538 26.4807L23.3654 27.8077L27.8077 23.3654L26.4807 20.6538C26.7115 20.1346 26.9423 19.6154 27.1154 19.0961L30 18.1154ZM15 23.5385C10.2693 23.5385 6.46154 19.7307 6.46154 15C6.46154 10.2693 10.2693 6.46154 15 6.46154C19.7307 6.46154 23.5385 10.2693 23.5385 15C23.5385 19.7307 19.7307 23.5385 15 23.5385Z" fill="white"/>
</svg>
