<?xml version="1.0" encoding="UTF-8"?>
<svg width="493px" height="355px" viewBox="0 0 493 355" version="1.1" xmlns="http://www.w3.org/2000/svg" xmlns:xlink="http://www.w3.org/1999/xlink">
    <!-- Generator: Sketch 63.1 (92452) - https://sketch.com -->
    <title>undraw_growth_analytics_8btt</title>
    <desc>Created with Sketch.</desc>
    <defs>
        <linearGradient x1="50.0076061%" y1="100.018553%" x2="50.0076061%" y2="-0.0145695178%" id="linearGradient-1">
            <stop stop-color="#808080" stop-opacity="0.25" offset="0%"></stop>
            <stop stop-color="#808080" stop-opacity="0.12" offset="54%"></stop>
            <stop stop-color="#808080" stop-opacity="0.1" offset="100%"></stop>
        </linearGradient>
        <linearGradient x1="50.0178361%" y1="99.9902032%" x2="50.0178361%" y2="-0.00902640557%" id="linearGradient-2">
            <stop stop-color="#808080" stop-opacity="0.25" offset="0%"></stop>
            <stop stop-color="#808080" stop-opacity="0.12" offset="54%"></stop>
            <stop stop-color="#808080" stop-opacity="0.1" offset="100%"></stop>
        </linearGradient>
    </defs>
    <g id="Landing" stroke="none" stroke-width="1" fill="none" fill-rule="evenodd">
        <g id="Light" transform="translate(-383.000000, -153.000000)">
            <g id="undraw_growth_analytics_8btt" transform="translate(383.000000, 153.000000)">
                <path d="M198.825749,26.3776049 L191.382792,31.1093369 L195.90036,22.8756428 C194.621155,21.8532833 193.038328,21.2870367 191.401975,21.2663735 L191.282082,21.2663735 C190.765083,21.2757156 190.248285,21.2387393 189.73786,21.1558863 L187.215311,22.755548 L188.294348,20.7859946 C186.506327,20.1594376 184.961978,18.9824126 183.882286,17.4233424 L179.369514,20.3056157 L182.237354,15.1031123 C179.599708,11.9326116 176.041284,9.98227334 172.123181,9.98227334 C167.428171,9.98227334 163.246304,12.7828823 160.546313,17.1399188 C158.920689,19.8035589 155.987876,21.3825984 152.873161,21.2711773 L152.623784,21.2711773 C147.439611,21.2711773 143.23856,27.1606225 143.23856,34.4191475 C143.23856,41.6776725 147.439611,47.5671177 152.623784,47.5671177 C153.762249,47.5628627 154.882775,47.2826721 155.889669,46.7504736 C159.270652,44.9874831 163.711488,44.9538566 167.25073,46.5246955 C170.324177,47.8985795 173.835862,47.8985795 176.909309,46.5246955 C180.515113,44.9592836 184.621616,45.0381517 188.164864,46.740866 C189.164457,47.2633926 190.274463,47.5384782 191.401975,47.5430988 C196.586148,47.5430988 200.787198,41.6584574 200.787198,34.3951286 C200.81335,31.6003295 200.138938,28.8436368 198.825749,26.3776049 Z" id="Path" fill="#ECEFF1" fill-rule="nonzero" opacity="0.200000003"></path>
                <path d="M184.798268,45.6167794 C182.089839,45.1021091 179.289714,45.4081825 176.755846,46.4958728 C173.684025,47.8695455 170.173884,47.8695455 167.102062,46.4958728 C163.465702,44.898264 159.312706,44.9790404 155.741002,46.7168471 C154.735292,47.2527015 153.614246,47.534671 152.475117,47.538295 C147.86643,47.538295 144.039446,42.8930311 143.23856,36.7633965 C144.158834,36.0903316 144.940497,35.245368 145.540506,34.2750338 C148.240496,29.9179973 152.422364,27.1221922 157.117374,27.1221922 C161.812383,27.1221922 165.946294,29.8843708 168.627101,34.1981732 C170.265619,36.8454315 173.166941,38.4415661 176.276274,38.4062923 L176.396167,38.4062923 C180.07928,38.3822733 183.254047,41.3269959 184.798268,45.6167794 Z" id="Path" fill="#CFD8DC" fill-rule="nonzero" opacity="0.03"></path>
                <path d="M135.301644,231.191949 L132.285136,229.313667 C131.997393,229.135927 131.714446,228.943775 131.426702,228.761231 C144.649588,226.482662 154.53319,215.333455 155.228307,201.911807 C155.923424,188.490159 147.244632,176.376354 134.328113,172.739445 L134.47678,184.585589 L127.97858,171.697023 L127.897053,171.697023 C112.062508,170.960853 98.6282724,183.217802 97.8854377,199.07862 C97.8566634,199.631055 97.8854377,200.16908 97.8854377,200.711908 C95.6266537,198.12747 93.5692899,195.355683 92.2121012,192.319689 C89.4641537,186.175643 89.4114008,179.214953 89.6272082,170.750677 C90.058823,153.985453 90.7829767,137.085724 91.7229377,120.24364 C105.740585,118.680364 116.547125,107.147025 117.216984,93.0349797 C117.25535,92.1558863 117.240963,91.2912043 117.216984,90.4265223 C117.216984,90.2103518 117.216984,89.9989851 117.183414,89.7828146 C117.125866,88.9469553 117.049134,88.1207037 116.91965,87.3040595 C116.91965,87.1695535 116.871693,87.0398512 116.847714,86.9101488 C116.732617,86.2184032 116.588745,85.5362652 116.425691,84.8637348 C116.363346,84.609134 116.301002,84.3593369 116.233862,84.1095399 C116.032442,83.3745602 115.811839,82.6684032 115.55287,81.9382273 C115.466547,81.7028417 115.365837,81.4578484 115.274718,81.2368742 C115.073298,80.7132612 114.852695,80.194452 114.617704,79.6852503 C114.493016,79.4162382 114.373123,79.147226 114.243638,78.8830176 C114.205272,78.8157645 114.181294,78.7437077 114.142928,78.6764547 L114.142928,78.6764547 C107.888476,66.3104836 93.7143955,60.1771722 80.4386089,64.0921516 L80.6304377,79.5123139 L74.2041732,66.7726658 C63.3591923,72.9847393 57.8017299,85.5348773 60.4836187,97.7571042 L60.4548444,97.7571042 C60.4980058,97.9636671 60.5603502,98.1606225 60.6083074,98.3623816 C60.6994261,98.7418809 60.7953405,99.1165765 60.9008463,99.491272 C61.0351265,99.9716509 61.1885895,100.45203 61.3468482,100.932409 C61.4667412,101.287889 61.5818385,101.638566 61.7161187,101.989242 C61.9127432,102.498444 62.1333463,102.993234 62.3539494,103.488024 C62.4834339,103.776252 62.5985311,104.074087 62.737607,104.35751 C63.1020817,105.100496 63.4985279,105.825868 63.9269455,106.533627 C64.0756128,106.783424 64.243463,107.014005 64.4065175,107.258999 C64.7134436,107.739378 65.0203696,108.219756 65.3656615,108.666509 C65.5718774,108.949932 65.7924805,109.223748 66.0082879,109.497564 C66.3248054,109.896279 66.6461187,110.290189 66.9674319,110.669689 C67.2024222,110.943505 67.4470039,111.207713 67.6915856,111.467118 C68.0464689,111.841813 68.4061479,112.202097 68.780214,112.552774 C69.0295914,112.78816 69.259786,113.033153 69.533142,113.254127 C69.9551654,113.633627 70.3963716,113.989107 70.8423735,114.339783 C71.0677724,114.517524 71.2883755,114.700068 71.51857,114.873004 C72.1995623,115.353383 72.8997374,115.833762 73.6238911,116.314141 C73.7581712,116.395805 73.9068385,116.463058 74.0411187,116.544723 C74.6501751,116.900203 75.2640272,117.241272 75.8970623,117.548714 C76.1704183,117.683221 76.44857,117.803315 76.7267218,117.928214 C77.2446595,118.158796 77.767393,118.384574 78.3045136,118.591137 L79.2636576,118.927402 C79.7911868,119.105142 80.3283074,119.273275 80.8702237,119.407781 C81.1867412,119.494249 81.5080545,119.585521 81.8293677,119.662382 C82.4144455,119.801691 83.0139105,119.916982 83.6181712,120.022666 L83.7332685,120.046685 C83.3400195,127.15309 82.9883333,134.261096 82.6782101,141.370704 C79.2212582,134.255035 72.9882847,128.881953 65.4487436,126.518189 C57.9092025,124.154424 49.7302686,125.009147 42.8401654,128.880853 L47.914037,142.81184 L37.4737549,132.771922 C31.8766309,137.898526 28.5405915,145.041438 28.1988327,152.630785 C28.0655991,155.292533 28.3110407,157.959732 28.9277821,160.552233 C31.6204411,172.021527 41.0275929,180.683682 52.6633204,182.40804 C64.2990478,184.132398 75.807165,178.569785 81.6998833,168.372801 C81.6998833,169.093369 81.6519261,169.813938 81.6327432,170.53931 C81.4409144,178.004398 81.2011284,187.294926 84.9178113,195.591069 C87.4355642,201.211502 91.4831518,205.779905 95.4683949,209.872733 C98.0724708,212.534032 100.772461,215.113667 103.539591,217.606834 C106.263968,221.270303 109.81746,224.233785 113.907938,226.253654 C118.45428,229.760419 123.163677,233.060622 128.031333,236.106225 L131.071819,237.998917 C133.805379,239.694655 136.60608,241.43843 139.349232,243.249459 C138.86966,243.201421 138.390088,243.148579 137.910516,243.12456 C125.422088,242.541738 113.991762,250.117794 109.644543,261.859337 L127.590126,276.458051 L107.860535,271.875237 C107.871344,281.759421 112.946847,290.946027 121.302159,296.204433 C129.657472,301.46284 140.122635,302.056736 149.017403,297.777267 L147.708171,299.434574 C146.825759,300.53304 145.954536,301.625101 145.094504,302.710758 C133.421722,317.520839 130.175019,331.576725 135.953862,342.293978 L142.984387,338.494181 C137.335029,328.060352 145.789883,314.705819 151.338531,307.682679 C152.182578,306.616238 153.039413,305.543392 153.909037,304.464141 C161.366381,295.183221 169.81644,284.662923 169.610224,271.759946 C169.288911,252.299797 150.446527,240.597767 135.301644,231.191949 Z" id="Path" fill="#ECEFF1" fill-rule="nonzero" opacity="0.200000003"></path>
                <path d="M265.236877,209.930379 L268.996722,207.58613 C269.356401,207.360352 269.706488,207.105751 270.066167,206.894384 C253.500735,204.040985 241.144247,190.033382 240.356683,173.21502 C240.084522,167.602355 241.144587,162.005014 243.449922,156.882138 C247.803276,147.166606 256.234648,139.885831 266.469377,137.00406 L266.282344,151.785318 L274.372724,135.707037 L274.468638,135.707037 C294.229001,134.786172 310.994396,150.082996 311.918414,169.876387 C311.951984,170.563329 311.918414,171.235859 311.918414,171.913194 C314.743093,168.689851 317.304008,165.231123 318.996897,161.445737 C322.430632,153.759675 322.497772,145.112855 322.224416,134.54452 C321.687296,113.624019 320.7857,92.5449932 319.610749,71.5332206 C302.12092,69.583867 288.638063,55.1924822 287.805535,37.5848444 C287.757578,36.4895805 287.771965,35.408728 287.805535,34.3326793 C287.805535,34.0636671 287.819922,33.7946549 287.848696,33.5256428 C287.915837,32.4832206 288.016547,31.450406 288.17001,30.4368065 C288.193988,30.2686739 288.232354,30.1053451 288.261128,29.9564276 C288.408197,29.0917456 288.585639,28.2398737 288.793453,27.4008119 C288.870185,27.0885656 288.946916,26.7715156 289.028444,26.4400541 C289.282617,25.5273342 289.555973,24.6194181 289.877286,23.735521 C289.982792,23.4376861 290.107481,23.1542625 290.222578,22.8612314 C290.481547,22.2031123 290.754903,21.5594046 291.047442,20.9397158 C291.200905,20.6082544 291.349572,20.2719892 291.527014,19.9405277 C291.565379,19.8588633 291.603745,19.7675913 291.646907,19.6859269 C299.44313,4.25133279 317.133257,-3.40209225 333.695778,1.49397835 L333.455992,20.709134 L341.474436,4.81820027 C355.004342,12.5677903 361.932809,28.2288074 358.575973,43.4742896 L358.614339,43.4742896 C358.561586,43.7288904 358.480058,43.9546685 358.42251,44.2284844 C358.307412,44.7088633 358.187519,45.1892422 358.058035,45.6359946 C357.890185,46.2364682 357.698356,46.8225304 357.501732,47.4085927 C357.353064,47.8505413 357.209193,48.2924899 357.02216,48.7296346 C356.777578,49.3637348 356.504222,49.9834235 356.22607,50.5983085 C356.063016,50.9585927 355.919144,51.3284844 355.746498,51.6839648 C355.266926,52.6110961 354.787354,53.5190122 354.264621,54.3981055 C354.082383,54.7103518 353.871372,55.0033829 353.674747,55.3060217 C353.291089,55.9016915 352.902636,56.4877537 352.485409,57.0594046 C352.22644,57.414885 351.953084,57.7511502 351.684523,58.097023 C351.291274,58.5774019 350.89323,59.0866035 350.471206,59.5621786 C350.177069,59.8824312 349.874938,60.2138926 349.564815,60.5565629 C349.128405,61.0369418 348.672811,61.4692828 348.212422,61.9112314 C347.9007,62.2042625 347.593774,62.5020974 347.253278,62.785521 C346.720953,63.2658999 346.174241,63.6982409 345.613142,64.1353857 C345.33499,64.3563599 345.061634,64.5917456 344.773891,64.8031123 C343.925049,65.4276049 343.052228,66.0232747 342.145837,66.5757104 C341.977986,66.67659 341.795749,66.7630582 341.623103,66.8639378 C340.871774,67.3122914 340.101261,67.730221 339.311566,68.1177267 C338.97107,68.2858593 338.620982,68.4299729 338.275691,68.5981055 C337.628268,68.8911367 336.976051,69.1697564 336.309446,69.4243572 C335.916196,69.5732747 335.522947,69.7125846 335.129698,69.8470907 C334.467889,70.0728687 333.801284,70.2746279 333.125088,70.4619756 C332.727043,70.5724628 332.328998,70.6829499 331.921362,70.7838295 C331.187617,70.9567659 330.44428,71.1008796 329.691352,71.2305819 L329.542685,71.2594046 C330.04144,80.1271989 330.481047,88.9965945 330.861508,97.8675913 C335.175147,88.9905344 342.952944,82.2886239 352.360187,79.3427774 C361.767431,76.3969309 371.971137,77.4679948 380.564348,82.3033153 L374.27716,99.6786198 L387.297539,87.1551421 C394.281474,93.5492941 398.44399,102.46028 398.869611,111.928281 C399.033795,115.237286 398.728625,118.552892 397.96322,121.776049 C394.612563,136.095553 382.873751,146.914591 368.349344,149.069583 C353.824936,151.224575 339.459181,144.278682 332.108395,131.546955 C332.108395,132.445264 332.170739,133.35318 332.194718,134.251488 C332.434504,143.566035 332.731839,155.157578 328.099173,165.504939 C324.957977,172.523275 319.903288,178.215765 314.906148,183.322192 C311.65465,186.646414 308.297646,189.863351 304.835136,192.973004 C301.431428,197.540795 296.993553,201.233722 291.886693,203.747903 C286.213356,208.124154 280.338599,212.241001 274.267218,216.045602 L270.478599,218.41387 C267.068842,220.527537 263.577558,222.703654 260.148619,224.961434 C260.752879,224.903789 261.347549,224.836536 261.961401,224.807713 C277.536774,224.078963 291.794838,233.522638 297.224329,248.163735 L274.8475,266.418133 L299.46393,260.706428 C299.44663,273.037324 293.112441,284.496365 282.688099,291.055208 C272.263757,297.614051 259.208332,298.354673 248.111362,293.016712 C248.667665,293.708457 249.219173,294.400203 249.775477,295.087145 C250.873696,296.456225 251.971916,297.820501 253.041362,299.175169 C267.601167,317.645737 271.653551,335.203586 264.440788,348.558119 L255.674212,343.816779 C262.69035,330.798512 252.134971,314.138972 245.214747,305.386468 C244.164484,304.055819 243.090243,302.715562 242.011206,301.370501 C232.70751,289.793369 222.161722,276.669418 222.420691,260.571922 C222.818735,236.259946 246.336946,221.661231 265.236877,209.930379 Z" id="Path" fill="#ECEFF1" fill-rule="nonzero" opacity="0.200000003"></path>
                <path d="M421.38072,90.412111 L421.38072,258.823342 C421.38072,259.741928 421.016426,260.622891 420.367979,261.272429 C419.719532,261.921967 418.840049,262.286874 417.923006,262.286874 L75.2256615,262.286874 C74.3090591,262.286874 73.4300683,261.921815 72.7823824,261.272138 C72.1346966,260.622462 71.7727399,259.741486 71.7727399,258.823342 L71.7727399,90.412111 C71.7727399,89.4939672 72.1346966,88.6129916 72.7823824,87.9633149 C73.4300683,87.3136383 74.3090591,86.9485792 75.2256615,86.9485792 L417.923006,86.9485792 C419.832649,86.9485792 421.38072,88.4992552 421.38072,90.412111 Z" id="Path" fill="#3B4049" fill-rule="nonzero"></path>
                <path d="M421.38072,89.2592016 L421.38072,97.0365359 L71.7727432,97.0365359 L71.7727432,89.2592016 C71.7727432,87.9830801 72.8055064,86.9485792 74.0794844,86.9485792 L419.073979,86.9485792 C420.347957,86.9485792 421.38072,87.9830801 421.38072,89.2592016 Z" id="Path" fill="#CBCEDA" fill-rule="nonzero"></path>
                <ellipse id="Oval" fill="#6C63FF" fill-rule="nonzero" cx="79.4458949" cy="91.7523681" rx="2.39785992" ry="2.40189445"></ellipse>
                <ellipse id="Oval" fill="#6C63FF" fill-rule="nonzero" cx="86.1599027" cy="91.7523681" rx="2.39785992" ry="2.40189445"></ellipse>
                <ellipse id="Oval" fill="#6C63FF" fill-rule="nonzero" cx="92.8739105" cy="91.7523681" rx="2.39785992" ry="2.40189445"></ellipse>
                <path d="M365.184475,209.911164 L365.184475,238.820365 L127.700428,238.950068 L127.484621,181.160487 C129.992782,188.563126 136.184056,189.893775 147.084728,176.837077 C173.724951,144.968742 209.937432,136.581326 237.968414,135.702233 C257.151294,135.096955 276.291012,139.064885 294.557909,146.947903 C302.144737,150.22889 332.127578,153.759675 351.914718,155.335318 C359.361438,155.92338 365.110059,162.139411 365.126926,169.621786 L365.184475,209.911164 Z" id="Path" fill="#000000" fill-rule="nonzero" opacity="0.2"></path>
                <path d="M365.184475,181.640866 L365.184475,239.094181 L127.484621,239.094181 L127.484621,226.60433 C134.280156,224.889378 159.697471,218.293775 171.883395,200.077808 C186.462383,178.268606 206.278298,172.532882 221.610214,171.932409 C232.117636,171.514479 242.577101,174.219012 252.56179,179.618471 C263.793366,185.69046 285.446041,193.016238 301.89536,171.749865 C320.090321,148.235318 348.039776,167.613802 355.12785,174.737821 C357.65999,177.255007 365.184475,181.640866 365.184475,181.640866 Z" id="Path" fill="#000000" fill-rule="nonzero" opacity="0.2"></path>
                <polyline id="Path" stroke="#4A4D52" points="127.484621 120.709608 127.484621 238.191069 365.184475 238.191069"></polyline>
                <line x1="157.433891" y1="238.191069" x2="157.433891" y2="166.57138" id="Path" stroke="#4A4D52"></line>
                <line x1="186.284942" y1="238.191069" x2="186.284942" y2="147.41387" id="Path" stroke="#4A4D52"></line>
                <line x1="215.135992" y1="238.191069" x2="215.135992" y2="138.301083" id="Path" stroke="#4A4D52"></line>
                <line x1="243.987043" y1="238.191069" x2="243.987043" y2="135.476455" id="Path" stroke="#4A4D52"></line>
                <line x1="272.838093" y1="238.191069" x2="272.838093" y2="138.618133" id="Path" stroke="#4A4D52"></line>
                <line x1="301.689144" y1="238.191069" x2="301.689144" y2="150.238498" id="Path" stroke="#4A4D52"></line>
                <line x1="330.540195" y1="238.191069" x2="330.540195" y2="156.204804" id="Path" stroke="#4A4D52"></line>
                <ellipse id="Oval" fill="#FFFFFF" fill-rule="nonzero" cx="157.275632" cy="165.629838" rx="5.33284047" ry="5.34181326"></ellipse>
                <ellipse id="Oval" fill="#FFFFFF" fill-rule="nonzero" cx="186.126683" cy="147.41387" rx="5.33284047" ry="5.34181326"></ellipse>
                <ellipse id="Oval" fill="#FFFFFF" fill-rule="nonzero" cx="214.977733" cy="138.618133" rx="5.33284047" ry="5.34181326"></ellipse>
                <ellipse id="Oval" fill="#FFFFFF" fill-rule="nonzero" cx="243.823988" cy="135.476455" rx="5.33284047" ry="5.34181326"></ellipse>
                <ellipse id="Oval" fill="#FFFFFF" fill-rule="nonzero" cx="272.675039" cy="138.618133" rx="5.33284047" ry="5.34181326"></ellipse>
                <ellipse id="Oval" fill="#FFFFFF" fill-rule="nonzero" cx="301.526089" cy="150.550744" rx="5.33284047" ry="5.34181326"></ellipse>
                <ellipse id="Oval" fill="#FFFFFF" fill-rule="nonzero" cx="330.37714" cy="156.8341" rx="5.33284047" ry="5.34181326"></ellipse>
                <ellipse id="Oval" fill="#ECEFF1" fill-rule="nonzero" opacity="0.100000001" cx="246.5" cy="344.912043" rx="246.5" ry="10.0879567"></ellipse>
                <path d="M27.594572,169.439242 C27.5753488,169.855358 27.4408418,170.257895 27.2061187,170.601759 C29.1244066,170.544114 30.8268872,169.280717 32.5965078,168.680244 C32.2799903,170.544114 32.5965078,172.753857 32.8362938,174.339107 C33.0675746,175.876665 33.4498907,177.387585 33.9776751,178.849865 C35.1909922,184.071583 37.4018191,189.206834 39.3824514,194.221989 C40.2362889,196.209827 40.879248,198.282028 41.3007393,200.404465 C42.6483366,208.49885 37.9868969,216.329026 37.1044844,224.481055 C37.0372755,224.930102 37.0372755,225.386677 37.1044844,225.835724 C37.0251637,225.919682 36.954471,226.011415 36.8934728,226.10954 C33.637179,231.115088 34.0592023,239.492896 34.6442802,245.420771 C35.229358,251.348647 37.1044844,257.065156 38.8741051,262.757645 C39.4013217,264.326664 39.8132542,265.932211 40.1066051,267.561434 C40.3877734,269.792204 40.4327835,272.046492 40.2408852,274.286739 C39.6558074,284.715765 38.1883171,295.236062 39.919572,305.511367 C41.1808463,313.000474 43.9335895,319.812246 44.2357198,327.397429 C44.4640102,326.837601 44.8263542,326.342664 45.2907782,325.956292 L45.808716,345.877605 C45.7603248,346.255013 45.9001668,346.632144 46.1827821,346.886401 C46.5520525,347.121786 47.0316245,346.886401 47.468035,346.823951 C48.7341051,346.67023 49.5445817,348.048917 50.3838327,349.004871 C51.645107,350.446008 53.5873735,351.128146 55.4912743,351.277064 C57.4078885,351.348933 59.3257989,351.174578 61.1981809,350.758254 C62.0757977,350.599729 63.0061673,350.417185 63.6631809,349.797497 C64.3448301,349.101729 64.6547397,348.122266 64.4976362,347.160217 C64.12357,344.225101 60.9679864,342.553383 59.3806031,340.050609 C57.5054767,337.091475 57.9418872,333.128349 56.1099222,330.135589 C55.4816829,329.112382 54.6136576,328.2477 54.0525584,327.186062 C53.7695205,326.531947 53.5464016,325.853425 53.3859533,325.158863 C53.9553429,325.330919 54.4954023,325.588446 54.9877237,325.922666 C54.8150778,324.366238 54.6376362,322.805007 54.4649903,321.243775 L54.3882588,320.571245 C54.1532685,318.462382 53.9086868,316.358322 53.7360409,314.244655 C53.1461673,307.288769 55.1172082,300.472192 53.7360409,293.626793 C53.4482977,292.185656 53.9086868,290.68207 54.3355058,289.264953 C56.7603456,281.192011 58.2393757,272.863909 58.7427724,264.448579 C58.9154183,261.479838 58.9106226,258.616779 59.8601751,255.801759 C60.9727821,260.34134 64.4113132,263.920162 66.5741829,268.085047 C67.907393,270.679093 68.7370525,273.513329 70.1901556,276.040122 C70.8903307,277.269892 71.7439689,278.442016 72.1899708,279.77747 C72.8805545,281.867118 72.5160798,284.134506 72.1899708,286.315426 C70.6313619,297.60433 70.8135992,309.094993 71.3123541,320.479973 C70.8387056,324.836408 69.8386718,329.119108 68.3342121,333.234032 C67.7395428,334.857713 67.0921206,336.750406 68.0128988,338.215562 C68.4012524,338.752777 68.8898248,339.209545 69.4516148,339.560622 C70.8146879,340.531802 72.2477366,341.400464 73.7389883,342.159472 C74.181946,342.45087 74.7145024,342.573582 75.2400486,342.505345 C75.5660686,342.391804 75.8732214,342.229872 76.1512354,342.024966 C77.3165953,341.323613 78.8224514,341.4341 80.1077043,341.885656 C81.3929572,342.337212 82.5535214,343.091407 83.8004086,343.634235 C86.4143972,344.759927 89.3317435,344.966483 92.077821,344.220298 C93.2383852,343.898444 94.4756809,343.283559 94.8353599,342.145061 C95.1950389,341.006563 94.5332296,339.805616 93.6172471,339.056225 C92.7012646,338.306834 91.5694747,337.903315 90.5192121,337.355683 C88.2174255,336.153298 86.3380859,334.274148 85.1336187,331.970636 C84.4098961,330.451436 83.841118,328.862937 83.4359339,327.229296 C82.8796304,325.26935 82.3249254,323.309405 81.7718191,321.349459 C82.0876671,321.557536 82.3889049,321.787054 82.6734144,322.036401 C83.4551167,312.332747 84.2464105,302.600271 86.3229572,293.088769 C87.3156712,288.539581 88.6105156,283.932747 88.106965,279.306698 C87.8432004,276.875981 87.0854767,274.526928 86.3661187,272.187483 C84.1281161,264.888926 82.1682652,257.513509 80.4865661,250.061231 C81.1135154,249.35898 81.6017245,248.543929 81.9252821,247.659337 C82.4648948,246.014134 82.7605832,244.298522 82.8028988,242.567321 C83.6073515,230.890817 83.5752979,219.171575 82.7069844,207.499662 C82.4863813,204.540528 82.1410895,201.432476 80.9805253,198.742355 L81.6615175,198.742355 C80.8510409,198.742355 79.5274222,190.681597 79.3691634,189.783288 C78.8272471,186.670433 78.4483852,183.538363 77.887286,180.430311 C77.61393,178.917118 77.3070039,177.403924 76.928142,175.91475 C76.6691732,174.925169 75.6332977,168.781123 74.8084339,168.094181 C74.719736,168.020198 74.6192141,167.961732 74.5110992,167.921245 C74.0973198,166.540667 73.1908976,165.360849 71.964572,164.606631 C70.6361576,163.85724 69.05357,163.833221 67.5045525,163.953315 C67.0665435,163.31281 66.6285344,162.680311 66.1905253,162.055819 C65.3857201,161.021108 64.7703457,159.851719 64.3729475,158.601894 C64.2488726,158.078526 64.1750026,157.54448 64.1523444,157.007037 C64.1523444,156.646752 64.1283658,156.286468 64.1139786,155.926184 C64.1139786,155.74364 64.1139786,155.5659 64.1139786,155.383356 C64.0972422,155.024274 64.058806,154.666537 63.9988813,154.312111 L63.9988813,154.312111 C63.9509241,154.01908 63.8789883,153.735656 63.8022568,153.447429 C63.7686868,153.327334 63.7255253,153.202436 63.6871595,153.082341 C63.4665564,152.356969 63.2075875,151.641204 63.0157588,150.911028 C62.4258852,148.552368 62.7232198,146.078417 62.8143385,143.6477 C62.9054572,141.216982 62.7471984,138.642152 61.3756226,136.614953 C60.3733171,135.125778 58.766751,133.996888 58.2296304,132.291543 C57.9754572,131.479702 57.9898444,130.586198 57.6157782,129.817591 C57.1299373,128.963153 56.353874,128.311936 55.42893,127.982544 C54.3450973,127.502165 52.1678405,126.868065 51.0024805,127.430108 C50.7840483,127.538778 50.5911581,127.692695 50.4365856,127.881664 C49.2040856,127.944114 47.9619942,128.112246 46.8781615,127.569418 C46.0437062,127.151488 45.4394455,126.358863 44.6289689,125.902503 C42.7106809,124.826455 40.2648638,125.902503 38.5575875,127.30521 C35.8436675,129.532161 33.8604117,132.524602 32.8650681,135.894384 C32.1073444,138.493234 31.8004183,141.529229 29.6279572,143.167321 C28.7263619,143.844655 27.5657977,144.21935 26.908784,145.127267 C26.4617562,145.866201 26.2138863,146.708722 26.1894261,147.572395 C25.9640272,149.541949 25.7769942,151.569147 26.2997276,153.481055 C26.6929767,154.922192 27.4650875,156.209608 27.9446595,157.612314 C29.250288,161.665338 28.0752303,166.108785 24.9377432,168.982882 C25.7302628,169.475682 26.6834227,169.639405 27.594572,169.439242 L27.594572,169.439242 Z M73.710214,227.723613 C75.031295,227.007146 75.9750832,225.749568 76.295107,224.279296 C76.3478599,224.466644 76.3910214,224.653992 76.4389786,224.84134 C77.0542598,227.349726 76.9293101,229.983092 76.0792996,232.421719 C75.4427034,230.78282 74.6493126,229.209456 73.710214,227.723613 L73.710214,227.723613 Z M74.669358,217.088024 C73.8704668,215.941035 73.1952889,214.712398 72.6551556,213.422733 C71.9166148,211.347497 72.084465,209.099323 72.2619066,206.879973 C72.3567113,205.205024 72.5876708,203.540603 72.9524903,201.903248 C73.1643628,206.99995 73.7429488,212.074708 74.6837451,217.088024 L74.669358,217.088024 Z" id="Shape" fill="url(#linearGradient-1)" fill-rule="nonzero"></path>
                <path d="M56.1099222,129.250744 C57.0206452,129.580304 57.7830277,130.226351 58.2584047,131.07138 C58.6228794,131.835183 58.6132879,132.723884 58.8626654,133.53092 C59.3901946,135.231461 60.9727821,136.355548 61.9511089,137.85433 C63.2843191,139.867118 63.4425778,142.432341 63.3514591,144.843843 C63.2603405,147.255345 62.9725973,149.719689 63.5528794,152.049526 C63.8358268,153.188024 64.3249903,154.278484 64.5120233,155.436198 C64.7518093,156.848512 64.5503891,158.318471 64.9004767,159.706766 C65.2898237,160.946924 65.8954518,162.108173 66.6892802,163.136671 L69.8112938,167.709878 C68.4171257,167.374141 67.044618,166.953835 65.7013619,166.451286 C66.1161539,167.757799 66.8868133,168.922388 67.9265759,169.813938 L65.6677918,167.075778 C65.2100258,166.446113 64.6411693,165.905604 63.9892899,165.48092 C63.1596304,165.000541 62.1813035,164.933288 61.2509339,164.74594 C59.4573346,164.380853 57.6685311,163.463329 56.7909144,161.863667 C55.6255545,159.71157 56.3688911,157.01184 55.7214689,154.657984 C55.2418969,152.938227 54.0621498,151.52111 53.2468774,149.931055 C51.405321,146.342625 51.5156226,142.105683 50.9401362,138.104127 C50.6955545,136.40839 50.3166926,134.741475 50.3071012,133.002503 C50.3071012,131.739107 50.4317899,129.327605 51.7458171,128.679093 C52.9015856,128.141069 55.0404767,128.794384 56.1099222,129.250744 Z" id="Path" fill="#3F3D56" fill-rule="nonzero"></path>
                <path d="M81.2490856,318.832273 L83.6469455,327.368606 C84.0437522,328.991627 84.6028823,330.570448 85.315856,332.081123 C86.4856427,334.365218 88.3269416,336.234766 90.5911479,337.437348 C91.6222276,337.980176 92.7396304,338.398106 93.63643,339.128281 C94.5332296,339.858457 95.175856,341.083424 94.8305642,342.197903 C94.4852724,343.312382 93.2623638,343.941678 92.1209825,344.263532 C89.4157311,345.00438 86.5388664,344.79588 83.9682588,343.672666 C82.7453502,343.129838 81.6039689,342.380447 80.3426946,341.933694 C79.0814202,341.486942 77.5947471,341.371651 76.4533658,342.073004 C76.1800864,342.277135 75.8777917,342.439062 75.5565661,342.553383 C75.0391484,342.624125 74.5137693,342.502811 74.0794844,342.212314 C72.6117046,341.457801 71.2025926,340.59389 69.8640467,339.627876 C69.3181431,339.277591 68.8457281,338.823962 68.4732879,338.292422 C67.5621012,336.851286 68.2047276,334.92977 68.7850097,333.339716 C70.3267208,329.079849 71.3304235,324.643539 71.7727432,320.1341 C71.755659,319.730419 71.914991,319.339311 72.2091537,319.062855 C72.4216545,318.951146 72.660004,318.89809 72.8997374,318.909134 L83.1433949,318.428755" id="Path" fill="#575A89" fill-rule="nonzero"></path>
                <path d="M54.7287549,327.378214 C55.2802626,328.430244 56.1386965,329.299729 56.7525486,330.313329 C58.5509436,333.286874 58.1241245,337.225981 59.9704767,340.1659 C61.5290856,342.654263 64.6319163,344.321177 65.0011868,347.237077 C65.1548781,348.190445 64.8509888,349.160611 64.1811187,349.855142 C63.5336965,350.455616 62.617714,350.633356 61.7544844,350.787077 C59.9161972,351.203295 58.031587,351.3777 56.1482879,351.305886 C54.2731615,351.156969 52.364465,350.465223 51.1271693,349.043302 C50.2975097,348.082544 49.506216,346.723072 48.2497374,346.881597 C47.8181226,346.934438 47.348142,347.174628 46.9836673,346.939242 C46.7082446,346.684662 46.5725007,346.312528 46.6191926,345.940054 L46.0532977,324.097226 C47.8660798,323.900271 51.0072763,323.179702 52.7673054,323.804195 C54.2827529,324.337415 54.0381712,326.047564 54.7287549,327.378214 Z" id="Path" fill="#575A89" fill-rule="nonzero"></path>
                <path d="M72.6263813,226.407375 C77.048035,231.917321 78.3572665,239.214276 79.7767996,246.14134 C81.6055674,255.076387 83.8531615,263.912156 86.5195817,272.648647 C87.2293482,274.973681 87.9582977,277.308322 88.2316537,279.724628 C88.7112257,284.326658 87.4547471,288.904668 86.4764202,293.425034 C84.4382393,302.883694 83.6613327,312.558525 82.8940175,322.204533 C79.7406248,319.512811 75.1779954,319.270714 71.758356,321.613667 C71.2404183,309.983694 71.005428,298.233627 72.5784241,286.694926 C72.8757588,284.528417 73.2354377,282.27544 72.5784241,280.200203 C72.1372179,278.86475 71.3027626,277.707037 70.6073833,276.486874 C69.1686673,273.969689 68.3629864,271.154668 67.0537549,268.575034 C64.9484339,264.434168 61.5674514,260.888972 60.4740272,256.363802 C59.5388619,259.169215 59.5436576,262.013058 59.3758074,264.962585 C58.8887572,273.334976 57.4404954,281.623301 55.0596595,289.663667 C54.6376362,291.075981 54.1868385,292.54594 54.469786,293.987077 C55.8125875,300.79885 53.8751167,307.572192 54.469786,314.489648 C54.6424319,316.588904 54.8774222,318.683356 55.1076167,320.777808 L55.1843482,321.450338 L55.702286,326.100406 C53.7839981,324.788972 51.7554086,324.976319 49.4390759,325.096414 C48.6573838,325.096803 47.8817125,325.233343 47.1467218,325.499932 C46.2055989,325.880224 45.4594195,326.627659 45.0797665,327.570365 C44.8016148,320.028417 42.0920331,313.255074 40.8547374,305.814005 C39.1522568,295.572327 40.5909728,285.109675 41.1712549,274.743099 C41.3594504,272.510743 41.3144464,270.264806 41.0369747,268.041813 C40.7480036,266.41349 40.342519,264.808088 39.8236576,263.238024 C38.087607,257.579161 36.2412549,251.896279 35.6657685,246.00203 C35.0902821,240.107781 34.6778502,231.782815 37.8765953,226.786874 C38.8645136,225.249662 41.2959436,225.941407 42.8305739,224.942219 C44.0397542,224.18317 45.3698252,223.637248 46.7630642,223.328146 C55.1507782,221.377808 64.0516342,225.667591 72.6263813,226.407375 Z" id="Path" fill="#3C354C" fill-rule="nonzero"></path>
                <path d="M57.4862938,158.030244 C57.6733268,160.129499 58.1145331,162.603451 60.0232296,163.487348 C61.1070623,163.967727 62.3635409,163.799594 63.5336965,163.991746 C65.7493191,164.35203 67.5716926,166.057375 68.5979767,168.055751 C69.6242607,170.054127 69.979144,172.326319 70.21893,174.560081 C70.5162646,177.36069 70.612179,180.396685 69.0775486,182.755345 C67.8402529,184.676861 65.7205447,185.824966 63.4953307,186.415832 C59.0206082,187.590552 54.2560912,186.710335 50.4941342,184.013938 C48.7181973,182.626039 47.108881,181.036584 45.6984144,179.277402 C42.5140564,175.564073 39.3057198,171.495264 38.6535019,166.643437 C38.5767704,166.091001 38.5815661,165.423275 39.0323638,165.096617 C39.3439223,164.920633 39.7037966,164.849884 40.0586479,164.894858 L43.1135214,164.9477 C43.8856323,164.9477 44.7584533,164.9477 45.2859825,164.366441 C45.8135117,163.785183 45.7655545,163.045399 45.7655545,162.334438 L45.5593385,153.452233 C45.5141099,153.137526 45.5876365,152.817233 45.7655545,152.553924 C45.958458,152.377244 46.2050591,152.270655 46.4657296,152.251286 C48.1490272,151.967862 49.9090564,152.251286 51.5539883,151.794926 C53.1221887,151.362585 55.582393,149.561164 56.7333658,151.410622 C57.6925097,153.000677 57.328035,156.23843 57.4862938,158.030244 Z" id="Path" fill="#FFC1C7" fill-rule="nonzero"></path>
                <path d="M57.4862938,158.030244 C57.6733268,160.129499 58.1145331,162.603451 60.0232296,163.487348 C61.1070623,163.967727 62.3635409,163.799594 63.5336965,163.991746 C65.7493191,164.35203 67.5716926,166.057375 68.5979767,168.055751 C69.6242607,170.054127 69.979144,172.326319 70.21893,174.560081 C70.5162646,177.36069 70.612179,180.396685 69.0775486,182.755345 C67.8402529,184.676861 65.7205447,185.824966 63.4953307,186.415832 C59.0206082,187.590552 54.2560912,186.710335 50.4941342,184.013938 C48.7181973,182.626039 47.108881,181.036584 45.6984144,179.277402 C42.5140564,175.564073 39.3057198,171.495264 38.6535019,166.643437 C38.5767704,166.091001 38.5815661,165.423275 39.0323638,165.096617 C39.3439223,164.920633 39.7037966,164.849884 40.0586479,164.894858 L43.1135214,164.9477 C43.8856323,164.9477 44.7584533,164.9477 45.2859825,164.366441 C45.8135117,163.785183 45.7655545,163.045399 45.7655545,162.334438 L45.5593385,153.452233 C45.5141099,153.137526 45.5876365,152.817233 45.7655545,152.553924 C45.958458,152.377244 46.2050591,152.270655 46.4657296,152.251286 C48.1490272,151.967862 49.9090564,152.251286 51.5539883,151.794926 C53.1221887,151.362585 55.582393,149.561164 56.7333658,151.410622 C57.6925097,153.000677 57.328035,156.23843 57.4862938,158.030244 Z" id="Path" fill="#000000" fill-rule="nonzero" opacity="0.1"></path>
                <ellipse id="Oval" fill="#FFC1C7" fill-rule="nonzero" cx="49.7987549" cy="145.761367" rx="11.6679864" ry="11.6876184"></ellipse>
                <path d="M62.344358,178.27341 C64.2290759,178.307037 66.3583755,177.793031 67.2695623,176.121313 C67.8930058,174.987618 67.7922957,173.608931 67.6724027,172.321516 L66.9962062,165.115832 C68.8281712,164.923681 70.7992121,164.760352 72.3961868,165.668268 C74.5206907,166.874019 75.2736187,169.544926 75.5229961,171.975643 C75.9689981,176.539242 75.2448444,181.146076 75.4942218,185.724087 C75.7052335,189.567118 76.5924416,193.535047 75.4606518,197.219553 C74.9810798,198.756766 74.1849903,200.173884 73.6670525,201.696685 C73.0196304,203.6182 72.8517802,205.683829 72.7079086,207.715832 C72.5304669,209.896752 72.3626167,212.154533 73.0915661,214.220162 C73.7006226,215.949526 74.8899611,217.405074 75.7388035,219.023951 C77.1295623,221.704465 77.4268969,225.316915 75.335963,227.493031 C73.4176751,229.4818 70.2620914,229.563464 67.581284,228.934168 C64.9004767,228.304871 62.3059922,227.103924 59.5724319,226.988633 C54.7191634,226.78207 50.3934241,229.93816 45.6648444,230.961367 C45.0309447,231.131394 44.3666856,231.154394 43.7225778,231.02862 C43.1527075,230.843892 42.6224272,230.553865 42.1591732,230.173545 L39.559893,228.300068 C39.0404306,227.988872 38.6081537,227.550909 38.3034144,227.027064 C38.0857142,226.444447 38.0293737,225.813699 38.1403599,225.201624 C39.0131809,217.092828 43.5930934,209.31069 42.2694747,201.264344 C41.8579508,199.154834 41.2279018,197.094069 40.3895525,195.115494 C37.094893,186.670433 33.1432198,177.898714 34.423677,168.920433 C34.7018288,166.931664 35.2869066,164.899662 36.6536868,163.429702 C38.0204669,161.959743 40.3320039,161.229567 42.1016245,162.17111 C43.8712451,163.112652 44.4994844,165.207104 45.2811868,167.02774 C46.7876089,170.566959 49.1792674,173.657522 52.2253891,176.001218 C53.510642,176.990798 55.069251,178.254195 56.7525486,178.297429 C58.5077821,178.359878 60.42607,178.23498 62.344358,178.27341 Z" id="Path" fill="#26A69A" fill-rule="nonzero"></path>
                <path d="M79.2444747,196.431732 C82.0739494,199.578214 82.6302529,204.117794 82.9419747,208.335521 C83.7995711,219.940547 83.8300212,231.592056 83.0330934,243.201421 C82.9925447,244.923391 82.7034029,246.630418 82.1746595,248.269418 C81.5703988,249.878687 80.4386089,251.367862 78.84643,252.01157 C77.8249416,252.424696 76.4006128,252.314208 75.9402237,251.310217 C75.5182004,250.392693 76.1464397,249.388701 76.621216,248.475981 C77.7117855,246.425124 78.0769054,244.064784 77.6570914,241.779499 C77.0768093,242.202233 76.8705934,242.966035 76.6979475,243.667388 L75.7723735,247.568065 C74.5206907,247.385521 74.0507101,245.853112 73.8540856,244.604127 C73.4896109,242.336739 73.1395233,239.920433 74.0459144,237.81157 C74.5254864,236.687483 75.3407588,235.731529 75.8251265,234.607442 C77.048035,231.782815 77.527607,228.554668 76.7411089,225.576319 C74.0898316,215.521077 72.9328163,205.129266 73.3073735,194.735995 C75.1235926,195.766204 77.1589636,196.347541 79.2444747,196.431732 L79.2444747,196.431732 Z" id="Path" fill="#FFC1C7" fill-rule="nonzero"></path>
                <path d="M81.9156907,199.597429 C78.4331477,199.632554 74.9677129,200.090657 71.5953016,200.961705 C71.1492996,198.76157 71.365107,196.484574 71.5953016,194.236401 L73.0819747,178.864276 C73.1922763,177.725778 72.9812646,167.26793 75.1825,169.117388 C75.9929767,169.799526 77.014465,175.909946 77.2686381,176.894723 C77.6522957,178.37429 77.9544261,179.873072 78.2277821,181.381461 C78.7792899,184.470298 79.153356,187.587957 79.6664981,190.681597 C79.8151654,191.59912 81.1196012,199.597429 81.9156907,199.597429 Z" id="Path" fill="#009688" fill-rule="nonzero"></path>
                <path d="M54.2491829,130.903248 C54.2634952,130.537505 54.1807563,130.174498 54.0093969,129.851218 C53.7023185,129.466271 53.2484242,129.227619 52.757714,129.193099 C51.0696206,128.92889 49.2232685,129.611028 47.7030253,128.837618 C46.8781615,128.419689 46.2930837,127.636671 45.4921984,127.180311 C43.5739105,126.109066 41.1760506,127.180311 39.5215272,128.578214 C36.8492279,130.799219 34.9017238,133.770563 33.9297179,137.109743 C33.1815856,139.694181 32.8794553,142.715765 30.7453599,144.344249 C29.8581518,145.016779 28.7167704,145.391475 28.0693482,146.294587 C27.6336752,147.02188 27.3909914,147.848724 27.3643774,148.696482 C27.1437743,150.656428 26.9567412,152.674019 27.4698833,154.576319 C27.8583366,156.017456 28.6160603,157.285656 29.0908366,158.678755 C30.3884766,162.715877 29.2304134,167.140413 26.122286,170.020501 C26.9006662,170.508562 27.8393259,170.670731 28.7359533,170.472057 C28.7158039,170.885049 28.5849289,171.284972 28.3570914,171.62977 C31.085856,171.543302 33.4597374,168.877199 36.1309533,169.458457 C38.17393,169.900406 39.3105156,172.009269 40.8307588,173.445602 C42.7922082,175.290257 45.8374903,176.063667 48.2976946,174.968403 C50.7578988,173.873139 52.2541634,170.760284 51.2086965,168.271922 C50.019358,165.44249 46.3506323,164.323207 45.0797665,161.546617 C44.096644,159.384912 44.8255934,156.853315 44.6001946,154.485047 C44.4227529,152.453045 43.5451362,150.555548 42.9984241,148.585995 C42.4517121,146.616441 42.2742704,144.368268 43.3868774,142.658119 C44.5666245,140.837483 46.8254086,140.131326 48.8827724,139.458796 C53.5298249,137.945602 54.4218288,135.601353 54.2491829,130.903248 Z" id="Path" fill="#3F3D56" fill-rule="nonzero"></path>
                <path d="M51.3813424,172.921989 C51.7122471,171.288701 52.0431518,169.559337 51.4532782,167.993302 C50.3646498,165.111028 46.7918385,164.183897 44.3220428,162.315223 C42.8912247,161.225927 41.7918321,159.758713 41.1472763,158.078281 C40.7012743,156.896549 40.63893,155.272869 41.7419455,154.667591 C42.1711707,154.465873 42.6459903,154.381356 43.1183171,154.422598 C46.954893,154.51387 50.49893,156.608322 53.4482977,159.091881 C55.1651654,160.533018 56.8053016,162.185521 57.6493482,164.260758 C58.1851302,165.756413 58.508014,167.320183 58.6084922,168.906022 L59.2271401,174.137348 C59.6327037,177.140211 59.8728534,180.16317 59.946522,183.19249 C59.948377,184.925455 59.839451,186.656761 59.6203891,188.375778 C59.4669261,189.59594 59.2367315,190.859337 58.5221693,191.858525 C57.1937549,193.722395 54.6280447,194.140325 52.3404864,194.202774 C51.4754349,194.252162 50.6075924,194.197326 49.7555934,194.039445 C45.9525875,193.213194 43.0655642,187.876184 45.9477918,184.580785 C47.1707004,183.182882 49.0026654,183.139648 49.7028405,181.218133 C50.6044358,178.667321 50.8346304,175.578484 51.3813424,172.921989 Z" id="Path" fill="#FFC1C7" fill-rule="nonzero"></path>
                <path d="M48.2881031,173.839513 L51.3142023,178.753789 C51.4942127,179.00707 51.61994,179.29493 51.6834728,179.599256 C51.765,180.23816 51.2902237,180.805007 50.9113619,181.32862 C48.3216732,184.864208 48.9930739,189.73525 49.7603891,194.049053 C41.3317368,191.382019 35.1720732,184.116135 33.910535,175.352706 C33.5316732,172.782679 32.9226167,168.550541 35.2005837,166.878823 C40.6629086,162.84364 45.7175973,169.62659 48.2881031,173.839513 Z" id="Path" fill="#26A69A" fill-rule="nonzero"></path>
                <path d="M63.5336965,163.991746 C62.3635409,163.799594 61.1070623,163.991746 60.0232296,163.487348 C58.1049416,162.603451 57.6733268,160.124696 57.4862938,158.030244 C57.4862938,157.833288 57.4623152,157.621922 57.4527237,157.396143 C58.1370848,156.693682 58.8799064,156.050855 59.673142,155.474628 C60.3887338,155.054729 61.1497698,154.717892 61.9415175,154.470636 L64.0612257,153.726049 C64.2636938,154.28815 64.4239964,154.864605 64.5407977,155.450609 C64.7805837,156.862923 64.5791634,158.332882 64.929251,159.721177 C65.3185981,160.961335 65.9242261,162.122585 66.7180545,163.151083 L69.8400681,167.72429 C69.2741732,167.589783 68.7130739,167.440866 68.1567704,167.277537 C67.068142,165.62023 65.4519844,164.303992 63.5336965,163.991746 Z" id="Path" fill="#3F3D56" fill-rule="nonzero"></path>
                <path d="M486.765564,184.225304 C486.209261,181.520771 485.168589,178.941137 484.54035,176.260622 C484.28238,174.861004 483.934771,173.479463 483.499679,172.12456 C483.277633,171.535685 482.999812,170.969457 482.670019,170.433627 L482.967354,170.155007 C481.979436,168.483288 481.94107,166.388836 481.475885,164.486536 C481.073045,162.848444 480.27216,161.349662 479.787792,159.735589 C479.116391,157.497023 479.025272,154.97023 477.639309,153.120771 C477.092597,152.390595 476.378035,151.818945 475.768979,151.14161 C475.068804,150.3682 474.517296,149.460284 473.807529,148.701286 C471.74537,146.50115 468.637743,145.819012 465.697967,145.501962 C462.758191,145.184912 459.717704,145.189716 457.008123,143.96475 C455.871537,143.450744 454.672607,142.715765 453.483268,142.802233 C452.814977,142.157188 452.200661,141.458293 451.646508,140.712585 C450.742218,139.614827 449.921444,138.450643 449.191099,137.229838 C449.76277,136.260868 450.204577,135.220714 450.505126,134.136198 L450.701751,133.996888 C451.473862,133.410825 452.140467,132.647023 452.898191,132.075372 C453.564796,131.594993 454.42323,131.090595 454.495165,130.235521 C454.567101,129.380447 453.79499,128.727131 453.315418,128.020974 C451.584163,125.489378 453.497656,121.526252 451.723239,119.023478 C450.836031,117.769689 449.287014,117.294114 447.886663,116.684032 C445.968375,115.838566 444.256304,114.623207 442.352403,113.801759 C440.448502,112.980311 438.247267,112.533559 436.328979,113.32138 C432.74178,114.810555 431.451732,119.92659 427.806984,121.262043 C427.411758,121.342231 427.055176,121.553832 426.795088,121.862517 C426.349086,122.592693 425.759212,126.892084 425.864718,127.780785 C426.003794,128.957713 426.286741,129.538972 427.097218,129.952097 C427.097218,130.201894 427.097218,130.456495 427.097218,130.711096 C427.097218,136.826319 431.327043,141.903924 436.904465,142.95115 C437.439386,143.51549 437.894432,144.150716 438.256858,144.839039 C438.539331,145.568514 438.701309,146.339203 438.73643,147.120839 C438.536127,147.024919 438.315691,146.97878 438.093804,146.986333 C437.368938,147.089699 436.773006,147.611311 436.57356,148.316982 C436.374691,149.022523 436.295261,149.756457 436.33857,150.488295 C436.400314,150.946352 436.244094,151.40691 435.916547,151.732476 C435.740409,151.838782 435.541452,151.90137 435.336265,151.91502 C434.595802,152.054035 433.845086,152.131161 433.091868,152.145602 C431.844981,152.145602 430.506975,151.833356 429.408755,152.443437 C428.310535,153.053518 427.81178,154.364953 427.284251,155.551488 C426.519858,157.249318 425.513452,158.827002 424.296518,160.235183 C422.953716,161.79161 421.284805,163.266373 420.905944,165.327199 C420.901168,165.375118 420.901168,165.423394 420.905944,165.471313 C419.855681,165.951691 418.78144,167.104601 418.028512,167.685859 C416.584233,168.805691 415.19655,169.996906 413.870623,171.255074 C412.523025,172.556901 410.705447,174.170974 409.870992,175.909946 C409.445616,176.653701 408.878587,177.306556 408.202082,177.831461 C406.835302,178.720162 405.070477,178.249391 403.531051,177.749797 C399.26286,176.37111 394.970691,174.978011 390.990243,172.869147 C390.794184,172.733444 390.555589,172.673695 390.318842,172.701015 C390.1886,172.74196 390.072343,172.818486 389.983142,172.921989 C389.950707,172.872002 389.915482,172.823888 389.877636,172.777876 C388.803395,171.615359 387.115302,171.538498 386.520632,169.761096 C386.355749,169.197122 386.238638,168.620225 386.170545,168.036536 C385.794637,166.337221 385.186226,164.698054 384.362558,163.165494 C384.242353,162.849391 384.036392,162.573205 383.767889,162.368065 C383.243395,162.11377 382.611935,162.314069 382.329173,162.824425 C382.053657,163.326672 381.946087,163.904148 382.022247,164.472124 C382.060613,165.096617 382.151732,165.821989 381.720117,166.268742 C381.546562,166.432237 381.335877,166.550946 381.106265,166.614614 C379.720302,167.066171 378.195263,166.662652 376.900418,165.985318 C375.605574,165.307984 374.440214,164.366441 373.159757,163.650677 C372.483087,163.279377 371.784863,162.948928 371.068823,162.661096 C370.330282,162.353654 369.303998,162.151894 368.891566,162.858051 C368.560661,163.424899 368.891566,164.150271 369.275224,164.688295 C369.91802,165.617392 370.66637,166.468562 371.505233,167.224696 C373.999008,169.458457 377.140204,170.702639 380.065593,172.259066 C382.616164,173.61807 385.025827,175.227215 387.259173,177.062855 C387.172841,177.342249 387.119721,177.63087 387.100914,177.922733 C387.103263,179.069731 387.587116,180.162848 388.434125,180.934709 C389.262611,181.67264 390.19497,182.284468 391.201255,182.750541 C396.278324,185.392625 401.393758,187.965855 406.547558,190.47023 C406.87522,190.66086 407.239918,190.778808 407.617004,190.816103 C408.662471,190.840122 409.329076,189.706428 410.168327,189.053112 C411.007578,188.399797 412.086615,188.217253 413.098512,187.876184 C414.896907,187.256495 416.455516,186.079567 417.994942,184.91705 L422.900963,181.198917 C425.370759,179.330244 427.902899,177.355886 429.97465,175.050068 C430.236196,175.600723 430.608444,176.091346 431.068074,176.491204 C430.665233,177.389513 431.504484,178.321448 431.705905,179.291813 C431.777375,179.929695 431.795022,180.572477 431.758658,181.213329 C431.844431,182.148594 432.0048,183.075483 432.23823,183.985115 C432.474186,185.47029 432.583285,186.972914 432.564339,188.476658 C432.564339,190.15318 432.617091,191.83931 432.64107,193.511028 C432.67464,195.682341 432.70821,197.877673 432.252617,199.996143 C431.633969,202.878417 430.118521,205.616576 430.238414,208.57571 C430.325222,209.127936 430.270771,209.693195 430.080156,210.218606 C428.828473,212.620501 427.840554,215.267388 426.492957,217.630853 C426.09488,218.205 425.772498,218.828242 425.533813,219.485115 C425.366145,220.171044 425.433712,220.89353 425.725642,221.536333 C425.19147,222.49504 424.890777,223.566518 424.848025,224.663599 C424.756907,227.37774 425.845535,229.947767 426.368268,232.623478 C426.84784,235.078214 426.84784,237.595399 426.919776,240.098173 C427.289047,251.809811 429.576605,263.386942 430.051381,275.093775 C430.275459,280.491393 430.115195,285.898144 429.571809,291.272936 C429.221722,294.741272 428.703784,298.2 428.511955,301.687551 C427.960447,311.583356 430.022607,321.383085 432.070379,331.086739 C432.689859,330.357828 433.558619,329.886744 434.506605,329.765697 C434.257228,330.726455 433.926323,331.97544 433.581031,332.897767 C433.080808,332.967417 432.600595,333.140847 432.171089,333.406969 C430.976955,334.170771 430.569319,335.736806 429.87394,337.005007 C428.353696,339.767185 425.365963,341.184303 422.91535,343.0818 C421.740399,343.989716 420.555856,345.378011 420.925126,346.852774 C425.169339,348.087348 429.792412,349.182612 433.87357,347.48207 C435.532889,346.795129 437.086702,345.656631 438.865914,345.598985 C440.218307,345.555751 441.599475,346.146617 442.894319,345.743099 C443.215442,345.656639 443.496752,345.461427 443.690409,345.190663 C443.842781,344.894177 443.915501,344.563073 443.90142,344.229905 C444.011722,341.971608 444.002117,339.709035 443.872646,337.451759 C443.762344,335.530244 443.958969,334.089107 442.40036,333.820095 C442.012717,332.854565 441.725064,331.851721 441.541926,330.827334 C441.541926,330.639986 441.498765,330.443031 441.474786,330.246076 C441.903909,330.249486 442.332465,330.214115 442.755243,330.140392 C443.016221,330.096025 443.274114,330.035054 443.527354,329.957848 C443.445827,329.626387 443.373891,329.290122 443.306751,328.95866 C443.172471,328.290934 443.066965,327.623207 442.980642,326.95548 C442.894319,326.287754 442.831975,325.610419 442.784018,324.937889 C442.784018,324.59682 442.745652,324.260555 442.731265,323.919486 C442.70249,323.242152 442.692899,322.564817 442.697695,321.882679 C442.70249,321.200541 442.697695,320.523207 442.745652,319.841069 C442.793609,319.158931 442.812792,318.476793 442.860749,317.794655 C442.975846,316.08931 443.143696,314.383965 443.311547,312.693031 C443.80071,307.725913 444.293071,302.761998 444.788628,297.801286 C444.9325,296.312111 445.081167,294.818133 445.10035,293.324154 C445.118764,292.430459 445.077107,291.536535 444.975661,290.648444 C444.721488,288.496346 444.045292,286.325034 444.016518,284.201759 C444.00774,283.847428 444.020552,283.49289 444.054883,283.140122 C444.088295,282.78399 444.147599,282.430775 444.232325,282.083288 C444.275486,281.891137 444.333035,281.698985 444.390584,281.511637 C444.510477,281.132138 444.644757,280.762246 444.76465,280.382747 C444.826994,280.195399 444.884543,280.003248 444.937296,279.811096 C445.133204,278.999653 445.250444,278.171159 445.287383,277.337145 C445.287383,277.058525 445.320953,276.779905 445.33534,276.501286 L445.925214,264.789648 C446.021128,262.911367 446.179387,260.884168 446.913132,259.207645 C447.228534,258.467701 447.690201,257.799365 448.270321,257.242896 C448.121654,256.844181 448.270321,256.171651 448.682753,256.065968 C449.165723,262.044551 449.106332,268.054694 448.505311,274.02253 C448.2943,275.896008 447.982578,277.755074 447.896255,279.63816 C447.714018,283.788633 448.63,287.895873 448.951313,292.036739 C449.272626,296.177605 448.951313,300.443369 448.951313,304.646685 C448.917743,311.876387 449.713833,319.08207 450.505126,326.263735 L450.984698,326.580785 C450.984698,327.214885 451.056634,327.906631 451.047043,328.5023 C451.031108,328.709345 451.052221,328.917577 451.109387,329.117185 L450.907967,329.117185 C449.965899,329.197458 449.123312,329.736185 448.653979,330.558322 C448.179038,331.38076 447.834438,332.272068 447.63249,333.200406 C447.397292,333.885449 447.299506,334.610284 447.344747,335.333288 C447.526984,336.702368 448.687549,337.735183 448.994475,339.080244 C449.555574,341.515765 447.172101,344.143437 448.255934,346.382003 C448.946518,347.823139 450.687364,348.221854 452.207607,348.471651 C454.528735,348.85115 457.171177,349.153789 458.998346,347.611773 C460.003301,346.738534 460.573419,345.46635 460.556955,344.133829 C460.556955,342.375643 459.516284,340.809608 459.060691,339.118674 C458.418064,336.745602 459.377208,333.555886 458.365311,331.365359 C458.282945,331.134527 458.155817,330.922291 457.991245,330.740866 L458.336537,330.740866 C458.25501,329.938633 458.173482,329.131597 458.08716,328.338972 L458.89284,327.925846 C459.7225,327.507916 460.681644,327.190866 461.544874,327.517524 C461.22356,323.391069 461.132442,318.832273 462.081994,314.816306 C462.820535,311.645805 464.144154,308.638633 464.758006,305.43931 C465.237578,302.80203 465.271148,300.092693 465.280739,297.407375 C465.280739,292.421042 465.280739,287.401083 464.446284,282.515629 C464.110584,280.555683 463.631012,278.5477 463.995486,276.587754 C464.235272,275.295535 464.82035,274.104195 465.165642,272.835995 C465.971323,269.872057 465.381449,266.687145 465.861021,263.646346 C467.002403,256.383018 467.606663,248.802639 468.474689,241.505683 C468.907162,237.370292 469.05458,233.209961 468.915895,229.054263 L468.915895,229.006225 L470.637558,225.643572 C471.870058,223.241678 473.121741,220.801353 473.869874,218.221719 C474.128283,218.584194 474.336397,218.980115 474.488521,219.398647 L482.056167,206.803112 C482.547272,206.058055 482.936019,205.25017 483.211936,204.401218 C483.384582,203.791137 483.44213,203.152233 483.571615,202.532544 C483.912111,200.923275 484.727383,199.47253 485.379601,197.973748 C487.228745,193.639299 487.712299,188.842552 486.765564,184.225304 Z M475.44287,190.547091 C475.091015,192.616703 474.610508,194.662292 474.004154,196.671922 C473.006644,200.121042 471.850875,203.512517 470.695107,206.908796 L469.702393,209.791069 C469.359685,210.95158 468.845655,212.054233 468.177354,213.062449 C468.024568,213.314268 467.888399,213.575833 467.769718,213.845467 C466.743434,210.002436 467.856041,205.679026 467.621051,201.581394 C467.443609,198.48295 466.484465,195.336468 467.203823,192.3341 C467.683395,190.311705 468.891916,188.572733 469.740759,186.680041 C470.532053,184.921854 471.026012,183.005142 471.918016,181.309405 C471.918016,181.343031 471.918016,181.371854 471.951586,181.400677 C472.745024,183.489096 473.695714,185.514116 474.795447,187.458254 C475.10416,187.897427 475.339056,188.384236 475.490827,188.899391 C475.589703,189.448572 475.57829,190.011987 475.457257,190.556698 L475.44287,190.547091 Z" id="Shape" fill="url(#linearGradient-2)" fill-rule="nonzero"></path>
                <path d="M386.395944,169.746685 C386.223569,169.182178 386.101598,168.603449 386.031469,168.017321 C385.719747,166.29276 384.923658,164.702706 384.141955,163.131867 C384.01761,162.81011 383.802699,162.531424 383.523307,162.329635 C382.983478,162.089072 382.349218,162.283769 382.036634,162.785995 C381.752838,163.28712 381.640025,163.867315 381.715321,164.438498 C381.758482,165.072598 381.854397,165.79797 381.408395,166.244723 C381.222929,166.409675 381.001049,166.52821 380.760973,166.590595 C379.322257,167.046955 377.725282,166.638633 376.368093,165.961299 C375.010905,165.283965 373.802383,164.332815 372.464377,163.61705 C371.756617,163.245457 371.028058,162.915049 370.282325,162.62747 C369.510214,162.315223 368.440768,162.113464 368.009154,162.824425 C367.663862,163.391272 368.009154,164.116644 368.407198,164.659472 C369.08012,165.596641 369.86259,166.449775 370.737918,167.200677 C373.337198,169.444046 376.622267,170.693031 379.67714,172.254263 C383.099479,174.003869 386.289498,176.176086 389.172665,178.720162 C389.452056,178.388102 389.619861,177.976286 389.652237,177.543234 C389.882432,176.318268 390.894329,173.839513 389.87284,172.777876 C388.755438,171.610555 387.014591,171.533694 386.395944,169.746685 Z" id="Path" fill="#A0616A" fill-rule="nonzero"></path>
                <path d="M434.492218,334.703992 C437.052465,336.705604 440.296624,337.616808 443.522558,337.240392 C444.193959,337.158728 444.961274,336.918539 445.181877,336.279635 C445.262424,335.891761 445.218791,335.488322 445.057189,335.126725 C444.549988,333.917951 444.159746,332.663216 443.891829,331.37977 C443.723979,330.212449 443.76714,328.824154 442.817588,328.122801 C441.446012,327.109202 437.858813,327.162043 436.966809,328.732882 C436.755798,329.069147 435.412996,335.477402 434.492218,334.703992 Z" id="Path" fill="#3C354C" fill-rule="nonzero"></path>
                <path d="M453.814173,329.035521 C453.747134,329.292732 453.794757,329.566425 453.944715,329.785751 C454.094673,330.005077 454.332224,330.148474 454.595875,330.178823 C456.798176,330.861927 459.082279,331.244868 461.386615,331.317321 L460.907043,326.696076 C460.925856,326.487027 460.852117,326.280242 460.705338,326.130442 C460.558559,325.980643 460.353536,325.902927 460.144523,325.917862 C458.820905,325.696888 456.039387,324.798579 454.768521,325.259743 C453.339397,325.778552 453.842947,327.656834 453.814173,329.035521 Z" id="Path" fill="#3C354C" fill-rule="nonzero"></path>
                <path d="M440.419728,144.709337 C440.791834,145.679176 440.975762,146.711233 440.961644,147.750135 C441.081537,151.473072 440.443706,155.493843 437.854018,158.16475 C440.760224,157.295264 444.026109,157.818877 446.769261,156.521854 C448.040126,155.92138 449.109572,154.965426 450.298911,154.220839 C452.418619,152.894993 454.888414,152.251286 457.094446,151.069553 C459.300477,149.887821 461.343453,147.894249 461.468142,145.396279 C460.508998,144.387483 458.969572,144.243369 457.713093,143.633288 C456.3607,142.970365 455.358395,141.759811 454.404047,140.59249 C453.278062,139.305631 452.291053,137.903136 451.459475,136.40839 C450.624103,134.902677 450.288214,133.169938 450.500331,131.460487 C448.049718,131.902436 446.270506,134.044926 443.954173,134.962449 C443.052578,135.31793 442.079047,135.481258 441.20143,135.889581 C439.949747,136.466035 437.412811,138.425981 437.364854,139.963194 C437.36965,141.639716 439.76751,143.22977 440.419728,144.709337 Z" id="Path" fill="#A0616A" fill-rule="nonzero"></path>
                <path d="M440.419728,144.709337 C440.791834,145.679176 440.975762,146.711233 440.961644,147.750135 C441.081537,151.473072 440.443706,155.493843 437.854018,158.16475 C440.760224,157.295264 444.026109,157.818877 446.769261,156.521854 C448.040126,155.92138 449.109572,154.965426 450.298911,154.220839 C452.418619,152.894993 454.888414,152.251286 457.094446,151.069553 C459.300477,149.887821 461.343453,147.894249 461.468142,145.396279 C460.508998,144.387483 458.969572,144.243369 457.713093,143.633288 C456.3607,142.970365 455.358395,141.759811 454.404047,140.59249 C453.278062,139.305631 452.291053,137.903136 451.459475,136.40839 C450.624103,134.902677 450.288214,133.169938 450.500331,131.460487 C448.049718,131.902436 446.270506,134.044926 443.954173,134.962449 C443.052578,135.31793 442.079047,135.481258 441.20143,135.889581 C439.949747,136.466035 437.412811,138.425981 437.364854,139.963194 C437.36965,141.639716 439.76751,143.22977 440.419728,144.709337 Z" id="Path" fill="#000000" fill-rule="nonzero" opacity="0.1"></path>
                <path d="M471.970768,241.726658 C471.064377,249.047632 470.436138,256.656834 469.242004,263.944181 C468.762432,266.994587 469.357101,270.189107 468.51785,273.167456 C468.158171,274.44046 467.558706,275.636604 467.294942,276.928823 C466.91608,278.898376 467.414835,280.911164 467.774514,282.880717 C468.656926,287.804601 468.656926,292.843775 468.642539,297.849323 C468.642539,300.544249 468.642539,303.263194 468.100623,305.910081 C467.457996,309.123816 466.076829,312.155007 465.304718,315.3159 C464.312004,319.351083 464.407918,323.92429 464.743619,328.065156 C463.842023,327.738498 462.825331,328.065156 461.971693,328.473478 C461.118054,328.8818 460.254825,329.434235 459.300477,329.496685 C458.010428,329.616779 456.797111,328.934641 455.684504,328.271719 C454.830866,327.767321 454.087529,327.310961 453.238687,326.792152 C452.409027,319.586468 451.579368,312.351962 451.612938,305.093437 C451.612938,300.87571 451.943842,296.648376 451.612938,292.440257 C451.282033,288.232138 450.318093,284.158525 450.514718,279.998444 C450.605837,278.105751 450.92715,276.241881 451.142957,274.363599 C451.852724,268.282003 451.756809,262.450203 451.32999,256.344587 C450.912763,256.450271 450.744912,257.122801 450.898375,257.521516 C450.289244,258.074323 449.799609,258.746251 449.45966,259.495873 C448.692344,261.177199 448.52929,263.214005 448.42858,265.097091 L447.809932,276.851962 C447.793406,277.970168 447.65511,279.083229 447.3975,280.17138 C447.181693,280.94479 446.855584,281.674966 446.658959,282.45318 C445.953988,285.2682 447.085778,288.169689 447.445457,291.047158 C447.737996,293.449053 447.488619,295.850947 447.244037,298.224019 L445.704611,313.17341 C445.143512,318.611299 444.5968,324.164479 445.704611,329.506292 C445.776547,329.837754 445.848482,330.174019 445.934805,330.510284 C445.670094,330.58707 445.401059,330.648026 445.129125,330.692828 C444.174673,330.827231 443.206144,330.827231 442.251693,330.692828 C441.359689,330.601556 440.458093,330.447835 439.575681,330.342152 C437.455973,330.101962 435.34106,330.01069 433.935914,331.615156 C431.797023,321.901894 429.648541,312.039716 430.219232,302.110284 C430.420652,298.613126 430.957772,295.139986 431.327043,291.65724 C431.902345,286.266997 432.075471,280.841278 431.844981,275.425237 C431.365409,263.675169 428.967549,252.054804 428.569504,240.299932 C428.487977,237.792355 428.497568,235.260758 427.998813,232.801218 C427.452101,230.135115 426.315516,227.51705 426.406634,224.812517 C426.497753,222.107984 428.468794,219.105616 431.202354,219.254533 C438.746021,219.672463 445.637471,215.502774 453.161955,214.791813 C456.576508,214.465156 460.048609,213.979973 463.429591,214.590054 C466.810574,215.200135 470.177169,217.116847 471.505584,220.287348 C472.224942,222.011908 472.28249,223.923816 472.335243,225.787686 C472.488706,231.110284 472.627782,236.447294 471.970768,241.726658 Z" id="Path" fill="#575A89" fill-rule="nonzero"></path>
                <path d="M434.07499,333.944993 C432.828103,334.713599 432.401284,336.284438 431.67713,337.557442 C430.089747,340.329229 426.972529,341.75115 424.411615,343.653451 C423.183911,344.570974 421.946615,345.959269 422.335068,347.44364 C426.766313,348.678214 431.590807,349.778281 435.863794,348.072936 C437.595049,347.381191 439.220798,346.237889 441.076741,346.180244 C442.491479,346.137009 443.954173,346.732679 445.282588,346.324357 C445.617748,346.246108 445.913804,346.05011 446.117043,345.771922 C446.272737,345.476335 446.348774,345.145184 446.337646,344.811164 C446.453544,342.543331 446.442337,340.27077 446.304076,338.004195 C446.169796,335.789648 446.46713,334.223613 443.944582,334.319689 C441.047967,334.444587 436.587947,332.393369 434.07499,333.944993 Z" id="Path" fill="#CBCEDA" fill-rule="nonzero"></path>
                <path d="M455.310438,330.005886 C454.786785,329.796189 454.233145,329.671329 453.670302,329.635995 C452.700691,329.712163 451.825724,330.247665 451.315603,331.077131 C450.820069,331.897627 450.460527,332.793128 450.250953,333.728823 C450.00607,334.413304 449.904848,335.141045 449.953619,335.866509 C450.140652,337.240392 451.353969,338.268403 451.675282,339.623072 C452.255564,342.0682 449.756994,344.70548 450.898375,346.953654 C451.622529,348.39479 453.440107,348.798309 455.02749,349.048106 C457.454125,349.432409 460.211663,349.735047 462.12036,348.183424 C463.15888,347.327039 463.757659,346.048083 463.750962,344.700677 C463.72213,342.932882 462.662276,341.362043 462.182704,339.661502 C461.516099,337.259608 462.518405,334.079499 461.458551,331.884168 C460.55216,330.005886 457.243113,330.625575 455.310438,330.005886 Z" id="Path" fill="#CBCEDA" fill-rule="nonzero"></path>
                <ellipse id="Oval" fill="#A0616A" fill-rule="nonzero" cx="441.230204" cy="130.533356" rx="12.4640759" ry="12.4850474"></ellipse>
                <path d="M447.838706,150.992693 C446.494588,150.420166 444.999627,150.307053 443.584903,150.670839 L442.448317,148.686874 C441.968745,147.812585 441.254183,146.823004 440.251877,146.861434 C439.506272,146.958002 438.885711,147.481953 438.664494,148.201691 C438.456168,148.90712 438.371788,149.643443 438.415117,150.377808 C438.48197,150.84197 438.31917,151.309688 437.978706,151.631597 C437.792142,151.733854 437.586343,151.796025 437.374446,151.814141 C436.599762,151.95083 435.81577,152.027915 435.029339,152.044723 C433.724903,152.044723 432.329348,151.727673 431.192763,152.342558 C430.056177,152.957442 429.528648,154.264073 428.97714,155.46502 C428.172944,157.175282 427.122697,158.758159 425.859922,160.163126 C424.454776,161.724357 422.71393,163.203924 422.315885,165.269553 C422.148035,166.148647 422.944125,166.801962 423.57716,167.436062 C426.094912,169.938836 429.605379,171.476049 431.470914,174.502436 C431.907325,175.208593 432.262208,176.006022 432.933609,176.491204 C432.516381,177.39912 433.413181,178.331055 433.600214,179.306225 C433.673836,179.943954 433.691488,180.586922 433.652967,181.22774 C433.736233,182.166499 433.896634,183.096782 434.132539,184.009134 C434.378021,185.498176 434.491961,187.005998 434.473035,188.515088 L434.554562,193.568674 C434.588132,195.749594 434.621702,197.949729 434.146926,200.077808 C433.499504,202.960081 431.916916,205.72226 432.041605,208.686198 C432.134088,209.241784 432.077824,209.812 431.878551,210.338701 C430.569319,212.740595 429.538239,215.401894 428.133093,217.774966 C427.731894,218.35067 427.409323,218.977511 427.173949,219.638836 C426.799883,221.007916 427.567198,222.492287 428.698988,223.347361 C429.830778,224.202436 431.259903,224.553112 432.650661,224.817321 C445.570331,227.296076 458.983959,224.312923 471.193862,219.413058 C471.515075,219.312262 471.8133,219.149023 472.071479,218.932679 C472.963482,218.063194 472.263307,216.598038 471.754961,215.464344 C469.836673,211.241813 471.366508,206.337145 471.093152,201.725507 C470.910914,198.617456 469.903813,195.480582 470.661537,192.444587 C471.141109,190.417388 472.421566,188.668809 473.308774,186.776116 C474.267918,184.724899 474.805039,182.452706 476.061518,180.579229 C477.002372,179.291742 478.103047,178.129488 479.336994,177.120501 L487.130039,170.164614 C486.098959,168.488092 486.055798,166.384032 485.57143,164.476928 C485.149407,162.834032 484.310156,161.325643 483.806605,159.71157 C483.10643,157.463396 483.010516,154.907781 481.562208,153.06793 C480.991518,152.33295 480.248181,151.761299 479.61035,151.083965 C478.881401,150.305751 478.305914,149.397835 477.562578,148.634032 C475.4093,146.42429 472.162597,145.722936 469.098132,145.425101 C466.033667,145.127267 462.863696,145.112855 460.02463,143.883085 C458.633872,143.282612 457.147198,142.374696 455.708482,142.826252 C454.567101,143.181732 453.833356,144.301015 453.368171,145.41069 C452.902986,146.520365 452.576877,147.716509 451.814358,148.64364 C450.874397,149.748512 449.210282,150.478687 447.838706,150.992693 Z" id="Path" fill="#3C354C" fill-rule="nonzero"></path>
                <path d="M410.753405,175.91475 C410.302332,176.663263 409.709293,177.316052 409.007763,177.836265 C407.569047,178.724966 405.741877,178.254195 404.135311,177.754601 C399.680088,176.366306 395.196089,174.973207 391.0382,172.854736 C390.832387,172.716632 390.583979,172.656982 390.338025,172.686604 C390.145812,172.748464 389.977986,172.869501 389.858453,173.032476 C389.204531,173.758559 388.60352,174.530753 388.060058,175.343099 C387.486043,176.096635 387.12494,176.990958 387.014591,177.932341 C387.021549,179.092258 387.526483,180.193081 388.400554,180.953924 C389.268115,181.695146 390.237075,182.308235 391.277986,182.77456 C396.582053,185.426252 401.921287,188.009089 407.295691,190.523072 C407.640103,190.714923 408.020671,190.832721 408.413093,190.868945 C409.506518,190.892963 410.201897,189.754465 411.074718,189.10115 C411.947539,188.447835 413.093716,188.265291 414.134387,187.919418 C416.014309,187.299729 417.64965,186.117997 419.25142,184.950677 L424.373249,181.222936 C428.862043,177.95636 433.576235,174.396752 435.537685,169.213464 L429.303249,167.157442 C427.432918,166.537754 425.466673,165.596211 423.524407,165.235927 C422.085691,164.957307 420.354436,166.859608 419.275399,167.671448 C417.758351,168.798219 416.300127,170.002356 414.906498,171.279093 C413.525331,172.547294 411.626226,174.170974 410.753405,175.91475 Z" id="Path" fill="#3C354C" fill-rule="nonzero"></path>
                <path d="M469.764737,216.924696 C468.004708,217.626049 466.009689,216.569215 464.144154,216.881461 C463.26958,217.07712 462.435539,217.423325 461.679154,217.904668 L456.231216,220.955074 C455.895516,221.137618 455.531041,221.584371 455.82358,221.82456 C455.908006,221.880573 456.0055,221.913678 456.106527,221.920636 C457.924105,222.156022 459.62179,221.046346 461.429776,220.738904 C462.224202,220.630489 463.027288,220.59992 463.827636,220.647632 C463.959704,220.639806 464.09196,220.659432 464.216089,220.705277 C464.486549,220.860403 464.643434,221.157863 464.61893,221.46908 C464.61893,221.776522 464.527811,222.074357 464.51822,222.3818 C464.572779,223.089939 464.849782,223.762591 465.309514,224.303315 C467.043315,226.796148 468.967363,229.150648 471.064377,231.34567 C471.596151,230.671961 472.055861,229.944203 472.435953,229.174357 L474.229553,225.811705 C476.090292,222.343369 477.994193,218.745332 478.291527,214.820636 C476.948726,214.393099 474.454951,212.975981 473.068988,213.720568 C471.683025,214.465156 471.361712,216.41069 469.764737,216.924696 Z" id="Path" fill="#A0616A" fill-rule="nonzero"></path>
                <path d="M439.652412,128.539783 C443.162879,128.914479 446.36642,130.57659 449.507617,132.209878 C448.970496,133.055345 449.651488,134.270704 450.605837,134.558931 C451.560185,134.847158 452.605652,134.438836 453.416128,133.84797 C454.226605,133.257104 454.89321,132.493302 455.708482,131.926455 C456.408658,131.446076 457.300661,130.936874 457.377393,130.0818 C457.454125,129.226725 456.648444,128.568606 456.144893,127.857645 C454.336907,125.316441 456.336722,121.338904 454.485574,118.826522 C453.555204,117.56793 451.939047,117.092355 450.505126,116.47747 C448.519698,115.632003 446.711712,114.41184 444.721488,113.571177 C442.731265,112.730514 440.438911,112.293369 438.4343,113.090798 C434.684047,114.584777 433.341245,119.720027 429.533444,121.060284 C429.123815,121.141137 428.751704,121.353648 428.473589,121.665562 C427.994018,122.395737 427.394553,126.714344 427.514446,127.603045 C427.696683,129.087415 428.104319,129.635047 429.562218,130.076996 C432.679436,131.008931 436.314591,128.179499 439.652412,128.539783 Z" id="Path" fill="#3F3D56" fill-rule="nonzero"></path>
                <path d="M485.101449,168.372801 C486.22937,169.399264 487.107127,170.671277 487.66716,172.090934 C488.122,173.448199 488.484113,174.834893 488.750992,176.241407 C489.408006,178.941137 490.491839,181.525575 491.072121,184.234912 C492.060153,188.864125 491.556413,193.68798 489.633405,198.012179 C488.952412,199.520568 488.098774,200.971313 487.743891,202.590189 C487.609611,203.209878 487.547267,203.853586 487.369825,204.463667 C487.076681,205.315108 486.670172,206.123029 486.161304,206.865562 L478.296323,219.54276 C477.685867,218.046419 476.463268,216.884745 474.939319,216.353045 C473.425788,215.841429 471.803389,215.74359 470.239514,216.069621 C470.824591,215.147294 471.08356,214.114479 471.67823,213.187348 C472.004914,212.695012 472.3043,212.185039 472.575029,211.659743 C472.842946,211.089716 473.076751,210.504219 473.275204,209.90636 L474.306284,206.99046 C475.514805,203.584574 476.704144,200.178687 477.763998,196.719959 C478.40242,194.705625 478.90865,192.651626 479.279446,190.57111 C479.395137,190.042114 479.408162,189.495765 479.317811,188.96184 C479.157146,188.435048 478.910859,187.938399 478.588862,187.491881 C477.444845,185.547411 476.45238,183.517384 475.620311,181.419892 C474.996868,179.954736 474.368628,178.307037 474.929728,176.817862 C475.286596,176.029456 475.814075,175.330436 476.473949,174.771448 C479.088401,172.305935 481.984273,170.158191 485.101449,168.372801 L485.101449,168.372801 Z" id="Path" fill="#3C354C" fill-rule="nonzero"></path>
                <path d="M445.13392,330.683221 L445.709407,329.496685 C444.606391,324.164479 445.153103,318.611299 445.709407,313.163802 L447.248833,298.214411 C447.493414,295.812517 447.728405,293.410622 447.450253,291.037551 C447.090574,288.155277 445.958784,285.273004 446.663755,282.443572 C446.860379,281.665359 447.186488,280.935183 447.402296,280.161773 C447.659905,279.073622 447.798201,277.960561 447.814728,276.842355 L448.433375,265.087483 C448.534086,263.204398 448.69714,261.167591 449.464455,259.486265 L449.464455,259.164411 L447.488619,242.130176 L442.270875,330.683221 L445.13392,330.683221 Z" id="Path" fill="#000000" fill-rule="nonzero" opacity="0.1"></path>
                <path d="M400.250778,338.028214 C401.689494,335.381326 400.058949,332.133965 398.193414,329.775304 C396.327879,327.416644 394.0643,324.971516 394.112257,321.949932 C394.184193,317.626522 398.764105,315.07571 402.423239,312.779499 C405.14028,311.080596 407.64535,309.06317 409.885379,306.769959 C410.82416,305.888261 411.600186,304.847483 412.177733,303.695535 C412.935457,302.004601 412.916274,300.083085 412.868317,298.233627 C412.705263,292.065562 412.399935,285.9023 411.952335,279.743843" id="Path" stroke="#3F3D56" stroke-width="1.9200001"></path>
                <path d="M418.910924,279.407578 C418.807295,277.11267 417.541409,275.029501 415.55392,273.883221 L414.048064,276.871177 L414.096021,273.253924 C413.375706,273.04246 412.625479,272.951567 411.875603,272.984912 C408.17714,273.16863 405.32545,276.317129 405.501754,280.022161 C405.678057,283.727192 408.815783,286.589725 412.514923,286.420243 C416.214063,286.25076 419.07781,283.113261 418.91572,279.407578 L418.910924,279.407578 Z" id="Path" fill="#57B894" fill-rule="nonzero"></path>
                <path d="M406.907237,325.038769 C405.452184,327.863703 402.221278,329.282387 399.161312,328.439989 C396.101345,327.597591 394.048069,324.724189 394.238692,321.551162 C394.429314,318.378134 396.811772,315.77211 399.950507,315.303359 C403.089242,314.834608 406.12699,316.631155 407.233346,319.610487 L403.0275,323.054804 L407.65537,321.983559 C407.650622,323.046885 407.394232,324.093929 406.907237,325.038769 L406.907237,325.038769 Z" id="Path" fill="#57B894" fill-rule="nonzero"></path>
                <path d="M403.583804,311.948444 C400.11756,312.193692 397.037252,309.749141 396.482764,306.313015 C395.928275,302.876889 398.082849,299.584738 401.449708,298.723613 L401.411342,301.500203 L402.936381,298.47862 L402.936381,298.47862 C404.719956,298.391244 406.464803,299.019179 407.785059,300.223563 C409.105316,301.427946 409.892202,303.109544 409.971702,304.896482 C410.011102,305.674449 409.913706,306.453299 409.683959,307.197497 C408.855267,309.911971 406.414366,311.813003 403.583804,311.948444 L403.583804,311.948444 Z" id="Path" fill="#57B894" fill-rule="nonzero"></path>
                <path d="M419.922821,301.058254 C417.090575,301.162529 414.497994,299.474117 413.443874,296.838857 C412.389755,294.203597 413.101153,291.189123 415.221683,289.305585 C417.342213,287.422047 420.415113,287.07516 422.900963,288.438701 L421.711625,291.705277 L424.157442,289.351421 C425.468134,290.553852 426.249377,292.2278 426.329903,294.006292 C426.361832,294.630811 426.305321,295.256712 426.162053,295.865359 C425.479294,298.801423 422.929422,300.923675 419.922821,301.058254 Z" id="Path" fill="#57B894" fill-rule="nonzero"></path>
                <path d="M418.004533,281.204195 C416.45072,281.372327 414.940068,281.85751 413.381459,281.953586 C411.82285,282.049662 410.110778,281.67977 409.12286,280.464411 C408.595331,279.811096 408.32677,278.984844 407.880768,278.26908 C407.45481,277.60413 406.871694,277.054683 406.183084,276.669418 C405.075169,278.989231 405.384905,281.738811 406.981036,283.752991 C408.577168,285.767171 411.180231,286.69329 413.687145,286.138894 C416.194058,285.584498 418.16589,283.646654 418.767053,281.146549 C418.514478,281.156157 418.260305,281.175372 418.004533,281.204195 Z" id="Path" fill="#000000" fill-rule="nonzero" opacity="0.1"></path>
                <path d="M419.922821,301.058254 C417.561407,301.178272 415.311048,300.04524 413.998352,298.075344 C412.685655,296.105449 412.504161,293.589126 413.520535,291.450677 C414.054587,291.810332 414.513876,292.270395 414.872928,292.805345 C415.3525,293.530717 415.645039,294.37138 416.206138,295.034303 C417.256401,296.268877 419.045204,296.672395 420.670953,296.600338 C422.296702,296.528281 423.864903,296.062314 425.466673,295.913396 C425.692072,295.913396 425.917471,295.87977 426.147665,295.874966 C425.462683,298.802283 422.921181,300.918535 419.922821,301.058254 Z" id="Path" fill="#000000" fill-rule="nonzero" opacity="0.1"></path>
                <path d="M403.583804,311.948444 C401.245098,312.067051 399.013664,310.956523 397.695349,309.01791 C396.377034,307.079296 396.162326,304.592715 397.128765,302.456157 C397.687164,302.821459 398.174654,303.285354 398.567481,303.825237 C399.090214,304.56502 399.416323,305.420095 400.030175,306.102233 C401.166761,307.365629 403.075457,307.812382 404.792325,307.773951 C406.509193,307.735521 408.067802,307.327199 409.722325,307.197497 C408.888911,309.924788 406.428708,311.828877 403.583804,311.948444 L403.583804,311.948444 Z" id="Path" fill="#000000" fill-rule="nonzero" opacity="0.1"></path>
                <path d="M406.907237,325.038769 C405.390912,328.433358 401.414452,329.953924 398.025564,328.435047 C394.636677,326.916171 393.118665,322.93302 394.63499,319.53843 C395.190526,319.902317 395.688427,320.347619 396.112072,320.859472 C396.754698,321.637686 397.176722,322.526387 397.915263,323.261367 C399.291634,324.616035 401.512053,325.182882 403.492685,325.226116 C404.63357,325.23153 405.773768,325.16897 406.907237,325.038769 L406.907237,325.038769 Z" id="Path" fill="#000000" fill-rule="nonzero" opacity="0.1"></path>
                <path d="M390.098239,334.977808 C390.098239,334.977808 395.411897,334.814479 397.013667,333.671177 C398.615438,332.527876 405.166391,331.168403 405.578823,332.998647 C405.991255,334.82889 413.563696,342.125846 407.569047,342.154668 C401.574397,342.183491 393.632685,341.222733 392.030914,340.233153 C390.429144,339.243572 390.098239,334.977808 390.098239,334.977808 Z" id="Path" fill="#656380" fill-rule="nonzero"></path>
                <path d="M407.674553,341.520568 C401.675107,341.568606 393.738191,340.559811 392.141216,339.599053 C390.923103,338.854465 390.438735,336.193166 390.275681,334.963396 L390.098239,334.963396 C390.098239,334.963396 390.43394,339.257984 392.016527,340.247564 C393.599115,341.237145 401.555214,342.202706 407.55466,342.16908 C409.285914,342.16908 409.880584,341.539783 409.847014,340.627064 C409.621615,341.165088 408.964601,341.506157 407.674553,341.520568 Z" id="Path" fill="#000000" fill-rule="nonzero" opacity="0.2"></path>
                <path d="M28.0070039,343.312382 C26.5682879,340.665494 28.1988327,337.418133 30.0643677,335.059472 C31.9299027,332.700812 34.1934825,330.255683 34.1455253,327.2341 C34.0735895,322.91069 29.493677,320.359878 25.8345428,318.063667 C23.1175024,316.364764 20.6124323,314.347337 18.3724027,312.054127 C17.433622,311.172429 16.6575964,310.131651 16.0800486,308.979702 C15.3223249,307.288769 15.3415078,305.367253 15.389465,303.517794 C15.5525195,297.349729 15.857847,291.186468 16.3054475,285.028011" id="Path" stroke="#3F3D56" stroke-width="1.9200001"></path>
                <path d="M9.34685798,284.691746 C9.45048671,282.396838 10.7163729,280.313669 12.7038619,279.167388 L14.2097179,282.155345 L14.1617607,278.538092 C14.8820762,278.326628 15.6323034,278.235735 16.382179,278.26908 C20.0806419,278.452798 22.9323325,281.601297 22.7560286,285.306328 C22.5797247,289.01136 19.4419993,291.873893 15.742859,291.70441 C12.0437187,291.534928 9.17997183,288.397429 9.34206226,284.691746 L9.34685798,284.691746 Z" id="Path" fill="#57B894" fill-rule="nonzero"></path>
                <path d="M21.3505447,330.322936 C22.8055981,333.147871 26.0365041,334.566555 29.0964706,333.724157 C32.1564371,332.881759 34.2097128,330.008357 34.0190903,326.835329 C33.8284677,323.662302 31.4460106,321.056278 28.3072756,320.587527 C25.1685405,320.118775 22.1307925,321.915323 21.0244358,324.894655 L25.2302821,328.319756 L20.6215425,327.248512 C20.6173655,328.316767 20.8672457,329.370664 21.3505447,330.322936 L21.3505447,330.322936 Z" id="Path" fill="#57B894" fill-rule="nonzero"></path>
                <path d="M24.6739786,317.232612 C28.1402217,317.47786 31.2205296,315.033309 31.7750184,311.597183 C32.3295071,308.161057 30.1749327,304.868906 26.8080739,304.007781 L26.8464397,306.784371 L25.3214008,303.762788 L25.3214008,303.762788 C23.5378261,303.675411 21.7929793,304.303347 20.4727228,305.507731 C19.1524663,306.712114 18.3655803,308.393712 18.2860798,310.18065 C18.2466803,310.958617 18.3440759,311.737467 18.573823,312.481664 C19.4025152,315.196139 21.8434158,317.097171 24.6739786,317.232612 L24.6739786,317.232612 Z" id="Path" fill="#57B894" fill-rule="nonzero"></path>
                <path d="M8.33496109,306.342422 C11.1672068,306.446697 13.7597881,304.758285 14.8139077,302.123025 C15.8680274,299.487765 15.1566287,296.47329 13.0360989,294.589753 C10.915569,292.706215 7.84266866,292.359327 5.35681907,293.722869 L6.54615759,296.989445 L4.10034047,294.635589 C2.78609845,295.836395 2.00130762,297.510553 1.91828794,299.29046 C1.88635827,299.914978 1.94286923,300.54088 2.08613813,301.149526 C2.76986771,304.088899 5.32473587,306.212045 8.33496109,306.342422 Z" id="Path" fill="#57B894" fill-rule="nonzero"></path>
                <path d="M10.253249,286.488363 C11.8070623,286.656495 13.317714,287.141678 14.876323,287.237754 C16.4349319,287.333829 18.1470039,286.963938 19.1349222,285.748579 C19.6624514,285.095264 19.9310117,284.269012 20.3770136,283.553248 C20.8029725,282.888298 21.3860882,282.338851 22.0746984,281.953586 C23.1826131,284.273398 22.8728774,287.022979 21.2767456,289.037159 C19.6806139,291.051339 17.0775514,291.977458 14.5706375,291.423062 C12.0637237,290.868665 10.0918918,288.930822 9.49072957,286.430717 C9.74330415,286.440325 9.9974773,286.45954 10.253249,286.488363 Z" id="Path" fill="#000000" fill-rule="nonzero" opacity="0.1"></path>
                <path d="M8.33496109,306.342422 C10.6963753,306.46244 12.9467342,305.329407 14.2594305,303.359512 C15.5721269,301.389617 15.7536214,298.873294 14.7372471,296.734844 C14.2031953,297.0945 13.7439057,297.554563 13.3848541,298.089513 C12.9052821,298.814885 12.6127432,299.655548 12.051644,300.318471 C11.0013813,301.553045 9.21257782,301.956563 7.58682879,301.884506 C5.96107977,301.812449 4.39287938,301.346482 2.79110895,301.197564 C2.56571012,301.197564 2.34031128,301.163938 2.11011673,301.159134 C2.79509861,304.08645 5.33660129,306.202703 8.33496109,306.342422 Z" id="Path" fill="#000000" fill-rule="nonzero" opacity="0.1"></path>
                <path d="M24.6739786,317.232612 C27.0126837,317.351219 29.2441177,316.240691 30.5624328,314.302078 C31.880748,312.363464 32.0954557,309.876883 31.1290175,307.740325 C30.5706178,308.105627 30.0831283,308.569522 29.6903016,309.109405 C29.1675681,309.849188 28.8414591,310.704263 28.2515856,311.386401 C27.115,312.649797 25.2063035,313.096549 23.4894358,313.058119 C21.7725681,313.019689 20.2139591,312.611367 18.5594358,312.481664 C19.389907,315.200934 21.8380354,317.103109 24.6739786,317.232612 L24.6739786,317.232612 Z" id="Path" fill="#000000" fill-rule="nonzero" opacity="0.1"></path>
                <path d="M21.3505447,330.322936 C22.86687,333.717526 26.8433304,335.238091 30.2322178,333.719215 C33.6211052,332.200339 35.1391169,328.217188 33.6227918,324.822598 C33.0672559,325.186485 32.5693555,325.631787 32.1457101,326.14364 C31.5030837,326.921854 31.0810603,327.810555 30.3425195,328.545535 C28.9661479,329.900203 26.7457296,330.46705 24.7650973,330.510284 C23.6242117,330.515697 22.4840145,330.453138 21.3505447,330.322936 Z" id="Path" fill="#000000" fill-rule="nonzero" opacity="0.1"></path>
                <path d="M38.1595428,340.261976 C38.1595428,340.261976 32.8458852,340.098647 31.2441148,338.955345 C29.6423444,337.812043 23.0913911,336.452571 22.6789591,338.282815 C22.2665272,340.113058 14.6940856,347.410014 20.6887354,347.438836 C26.6833852,347.467659 34.6250973,346.506901 36.2268677,345.517321 C37.8286381,344.52774 38.1595428,340.261976 38.1595428,340.261976 Z" id="Path" fill="#656380" fill-rule="nonzero"></path>
                <path d="M20.5832296,346.804736 C26.5826751,346.852774 34.5195914,345.843978 36.1165661,344.883221 C37.334679,344.138633 37.8190467,341.477334 37.9821012,340.247564 L38.1595428,340.247564 C38.1595428,340.247564 37.8238424,344.542152 36.2412549,345.531732 C34.6586673,346.521313 26.7025681,347.486874 20.7031226,347.453248 C18.9718677,347.453248 18.3771984,346.823951 18.4107685,345.911231 C18.6361673,346.449256 19.2931809,346.790325 20.5832296,346.804736 Z" id="Path" fill="#000000" fill-rule="nonzero" opacity="0.2"></path>
            </g>
        </g>
    </g>
</svg>