<svg width="293" height="261" viewBox="0 0 293 261" fill="none" xmlns="http://www.w3.org/2000/svg">
<path d="M93.7362 50.017L90.9326 50.8756L89.0508 46.5246L84.7954 47.2754L82.8556 44.2502L81.3198 45.2327L83.9175 49.2782L87.949 48.5673L89.9067 53.0941L94.1242 51.8001L93.7362 50.017Z" fill="#50BFA5"/>
<path d="M273.497 206.508L270.694 207.366L268.812 203.015L264.559 203.766L262.617 200.741L261.083 201.723L263.679 205.769L267.71 205.058L269.668 209.585L273.885 208.291L273.497 206.508Z" fill="#50BFA5"/>
<path d="M76.4627 258.019C76.4627 258.019 61.5046 207.396 60.3048 196.23C59.1049 185.064 67.4679 188.522 67.4679 188.522C67.4679 188.522 60.4328 167.244 65.5201 162.194C70.6075 157.145 75.1989 166.557 75.1989 166.557C75.1989 166.557 76.7387 140.727 82.162 140.719C92.2667 140.701 92.0688 168.888 92.0688 168.888C92.0688 168.888 94.6464 157.853 100.058 160.879C108.217 165.441 96.5162 187.556 96.5162 187.556C96.5162 187.556 106.915 187.556 110.564 192.799C117.116 202.19 76.4627 258.019 76.4627 258.019Z" fill="#03BE92"/>
<path d="M81.3515 251.32C81.3515 251.32 38.231 244.12 28.8522 236.49C19.4734 228.86 28.7562 225.422 28.7562 225.422C28.7562 225.422 7.09496 214.334 7.34493 206.794C7.59489 199.254 18.3575 203.086 18.3575 203.086C18.3575 203.086 0.105844 182.307 4.4253 178.357C12.4743 171.007 33.5756 192.611 33.5756 192.611C33.5756 192.611 27.3104 182.337 33.9076 180.71C43.8603 178.258 51.2034 203.591 51.2034 203.591C51.2034 203.591 49.3376 193.587 56.2027 194.919C68.5112 197.311 81.3515 251.32 81.3515 251.32Z" fill="#03BE92"/>
<path d="M56.2019 194.919C49.3228 193.677 51.2025 203.591 51.2025 203.591C51.2025 203.591 43.8634 178.258 33.9107 180.71C27.3116 182.337 33.5788 192.611 33.5788 192.611C33.5788 192.611 12.4774 171.007 4.42847 178.357L81.2187 251.332C79.8429 244.361 67.7344 197.001 56.2019 194.919Z" fill="#008B6B"/>
<path d="M93.6225 257.258C93.6225 257.258 70.9134 234.199 59.4789 231.797C48.0443 229.395 50.0981 237.52 50.0981 237.52C50.0981 237.52 27.411 217.707 22.1516 222.508C16.8923 227.308 22.5816 231.943 22.5816 231.943C22.5816 231.943 3.68198 228.6 0.98432 234.792C-3.17315 244.307 27.9089 249.486 27.9089 249.486C27.9089 249.486 14.8846 250.387 17.9102 256.355C22.4536 265.353 93.6225 257.258 93.6225 257.258Z" fill="#355389"/>
<path d="M0.975098 234.792C3.68075 228.602 22.5724 231.943 22.5724 231.943C22.5724 231.943 16.8851 227.308 22.1424 222.508C27.3997 217.707 49.3869 234.822 49.3869 234.822C49.3869 234.822 44.2036 224.928 55.6381 227.33C67.0727 229.732 93.6213 257.258 93.6213 257.258L0.975098 234.792Z" fill="#466EB6"/>
<path d="M129.776 19.4305C122.131 20.6865 119.861 30.7044 126.216 35.1852C127.352 36.0009 128.157 37.1971 128.484 38.5558L129.64 43.2143C129.793 43.8335 130.175 44.3721 130.709 44.7229C131.242 45.0736 131.889 45.2109 132.519 45.1073L135.415 44.6321C136.046 44.5288 136.614 44.1919 137.007 43.6885C137.4 43.1851 137.588 42.5524 137.535 41.9164C137.135 37.1061 136.637 35.3609 138.203 33.2164C142.774 26.9384 137.419 18.1685 129.776 19.4305Z" fill="#F7CC7F"/>
<path d="M130.553 39.7999C130.055 35.6765 129.353 31.3255 129.119 30.0914C124.738 30.3331 126.401 25.7225 128.423 27.5974C129.001 28.1306 129.273 28.8554 129.453 29.6501C130.91 29.518 132.327 29.1057 133.626 28.4361C133.556 27.4197 133.456 26.649 133.74 25.998C134.17 25.0156 135.416 24.748 135.924 25.7065C136.019 25.8901 136.075 26.0909 136.09 26.2967C136.104 26.5026 136.077 26.7094 136.01 26.9046C135.716 27.7173 134.832 28.2544 134.06 28.6737C134.29 31.9505 134.61 35.2532 135.012 38.5039L134.598 38.5559C134.198 35.361 133.888 32.1082 133.658 28.8834C132.369 29.5242 130.971 29.9223 129.537 30.0575C129.837 31.637 130.499 35.8782 130.967 39.7479L130.553 39.7999ZM127.037 29.119C127.437 29.5383 128.079 29.718 129.037 29.6801C128.873 28.9792 128.637 28.3482 128.147 27.901C127.053 26.8926 126.385 28.4161 127.037 29.119ZM134.122 26.1578C133.884 26.7029 133.974 27.4038 134.03 28.2085C134.654 27.853 135.382 27.4097 135.618 26.7568C135.782 26.2995 135.598 25.6546 135.13 25.5348C135.08 25.5288 134.29 25.7804 134.122 26.1578Z" fill="#FAE0B2"/>
<path d="M128.451 38.4409C128.451 38.4788 128.475 38.5168 128.485 38.5567L129.641 43.2152C129.795 43.8344 130.176 44.373 130.71 44.7238C131.244 45.0745 131.89 45.2118 132.52 45.1082L135.416 44.633C136.047 44.5297 136.615 44.1928 137.008 43.6894C137.401 43.186 137.589 42.5533 137.536 41.9173C137.358 39.7787 137.16 38.2452 137.136 37.0132L128.451 38.4409Z" fill="#96D9C9"/>
<path d="M124.109 15.9525L121.823 11.7792C121.771 11.6832 121.738 11.5778 121.726 11.4691C121.714 11.3604 121.724 11.2504 121.755 11.1454C121.786 11.0405 121.837 10.9426 121.906 10.8575C121.974 10.7723 122.059 10.7014 122.155 10.649C122.251 10.5965 122.357 10.5635 122.466 10.5518C122.575 10.5401 122.685 10.5499 122.79 10.5807C122.895 10.6114 122.993 10.6626 123.078 10.7312C123.164 10.7998 123.235 10.8845 123.287 10.9805L125.579 15.1518C125.685 15.3456 125.71 15.5736 125.647 15.7855C125.585 15.9975 125.441 16.176 125.247 16.282C125.053 16.3879 124.824 16.4125 124.612 16.3503C124.4 16.2881 124.221 16.1443 124.115 15.9505L124.109 15.9525Z" fill="#FAE0B2"/>
<path d="M119.116 26.0313L114.132 25.596C114.023 25.5864 113.917 25.5555 113.82 25.505C113.723 25.4544 113.636 25.3853 113.566 25.3015C113.496 25.2177 113.443 25.1208 113.41 25.0165C113.377 24.9122 113.365 24.8024 113.374 24.6935C113.384 24.5845 113.415 24.4785 113.465 24.3815C113.516 24.2845 113.585 24.1984 113.669 24.1281C113.753 24.0579 113.85 24.0048 113.955 23.9719C114.059 23.9391 114.169 23.9271 114.278 23.9367L119.26 24.372C119.48 24.391 119.684 24.4967 119.826 24.6658C119.968 24.8349 120.038 25.0535 120.018 25.2735C119.999 25.4936 119.893 25.697 119.724 25.8391C119.555 25.9812 119.336 26.0504 119.116 26.0313Z" fill="#FAE0B2"/>
<path d="M114.179 41.2829C114.023 41.1268 113.936 40.9153 113.936 40.6948C113.936 40.4743 114.023 40.2628 114.179 40.1067C115.405 38.8949 116.744 37.803 118.179 36.846C118.362 36.7329 118.583 36.6954 118.794 36.7413C119.005 36.7872 119.19 36.913 119.309 37.0923C119.429 37.2715 119.475 37.4902 119.437 37.7023C119.399 37.9144 119.279 38.1035 119.104 38.2297C117.758 39.1291 116.5 40.154 115.347 41.2908C115.19 41.4425 114.98 41.5266 114.761 41.5251C114.543 41.5236 114.334 41.4366 114.179 41.2829Z" fill="#FAE0B2"/>
<path d="M136.418 15.7267C136.311 15.6997 136.211 15.6519 136.123 15.5859C136.035 15.52 135.961 15.4373 135.905 15.3425C135.849 15.2478 135.813 15.143 135.798 15.0341C135.783 14.9253 135.79 14.8145 135.818 14.7083C136.383 12.5942 136.727 10.4275 136.846 8.24266C136.867 8.02909 136.97 7.83182 137.133 7.692C137.296 7.55218 137.506 7.48059 137.721 7.49218C137.936 7.50377 138.137 7.59764 138.284 7.7542C138.431 7.91077 138.512 8.11794 138.51 8.33252C138.387 10.6321 138.025 12.9127 137.43 15.1376C137.373 15.3489 137.234 15.5291 137.045 15.6394C136.856 15.7496 136.63 15.781 136.418 15.7267Z" fill="#FAE0B2"/>
<path d="M141.549 22.1232C141.517 22.0185 141.506 21.9085 141.517 21.7996C141.528 21.6907 141.56 21.585 141.612 21.4886C141.664 21.3921 141.734 21.3068 141.819 21.2376C141.904 21.1683 142.002 21.1164 142.107 21.0849L147.286 19.5274C147.391 19.4958 147.501 19.4852 147.61 19.4961C147.72 19.5071 147.825 19.5394 147.922 19.5912C148.019 19.643 148.104 19.7133 148.174 19.7982C148.243 19.883 148.295 19.9806 148.327 20.0855C148.358 20.1904 148.369 20.3005 148.358 20.4095C148.347 20.5185 148.315 20.6242 148.263 20.7208C148.211 20.8173 148.141 20.9026 148.056 20.972C147.971 21.0413 147.873 21.0932 147.768 21.1248L142.586 22.6843C142.481 22.7156 142.371 22.7259 142.262 22.7147C142.153 22.7034 142.047 22.6708 141.951 22.6187C141.855 22.5665 141.769 22.496 141.7 22.4109C141.631 22.3259 141.58 22.2282 141.549 22.1232Z" fill="#FAE0B2"/>
<path d="M150.06 35.8862C149.983 35.8862 149.907 35.8755 149.834 35.8543C148.035 35.3494 146.296 34.6538 144.646 33.7796C144.55 33.7283 144.464 33.6585 144.394 33.5742C144.324 33.4899 144.272 33.3926 144.24 33.288C144.208 33.1835 144.196 33.0736 144.207 32.9647C144.217 32.8558 144.249 32.75 144.3 32.6534C144.352 32.5568 144.422 32.4712 144.506 32.4015C144.591 32.3319 144.688 32.2795 144.793 32.2474C144.897 32.2154 145.007 32.2042 145.117 32.2146C145.226 32.225 145.331 32.2567 145.428 32.308C146.973 33.1282 148.601 33.7802 150.286 34.2528C150.479 34.3079 150.646 34.4307 150.755 34.5988C150.865 34.7668 150.91 34.9688 150.883 35.1675C150.855 35.3662 150.757 35.5484 150.606 35.6804C150.454 35.8125 150.261 35.8855 150.06 35.8862Z" fill="#FAE0B2"/>
<path d="M225.93 72.6818L223.316 66.5117L216.745 65.1638C216.576 65.1295 216.421 65.0487 216.296 64.9306C216.17 64.8125 216.081 64.6618 216.037 64.4955C215.994 64.3293 215.997 64.1541 216.048 63.9899C216.099 63.8257 216.195 63.679 216.325 63.5664L221.396 59.1734L220.648 52.5141C220.628 52.3423 220.657 52.1682 220.731 52.012C220.806 51.8557 220.923 51.7235 221.069 51.6305C221.215 51.5375 221.384 51.4876 221.557 51.4864C221.731 51.4851 221.901 51.5327 222.048 51.6235L227.796 55.082L233.899 52.3144C234.056 52.2436 234.229 52.2179 234.4 52.2404C234.57 52.2629 234.731 52.3327 234.864 52.4418C234.997 52.5509 235.097 52.6949 235.152 52.8577C235.207 53.0205 235.216 53.1954 235.177 53.3627L233.659 59.9023L238.182 64.8503C238.298 64.9771 238.376 65.1336 238.408 65.3023C238.439 65.471 238.423 65.6452 238.36 65.8051C238.298 65.965 238.192 66.1043 238.055 66.2072C237.917 66.3102 237.753 66.3728 237.582 66.3879L230.897 66.9629L227.582 72.7876C227.496 72.9369 227.37 73.0593 227.218 73.1408C227.066 73.2223 226.895 73.2596 226.723 73.2486C226.551 73.2376 226.385 73.1786 226.245 73.0784C226.105 72.9782 225.996 72.8408 225.93 72.6818Z" fill="#F7CC7F"/>
<path d="M267.53 51.5138L266.454 55.8329L259.303 54.8744L256.953 60.9966L251.484 61.1543L251.562 63.9179L258.877 63.7082L261.105 57.9055L268.546 58.9039L270.162 52.4024L267.53 51.5138Z" fill="#F48C7F"/>
<path d="M203.811 258.584H78.0972C73.2979 258.584 69.4023 254.553 69.4023 249.581V244.227C69.4023 239.255 73.2959 235.224 78.0972 235.224H203.811C198.06 241.733 197.962 251.681 203.581 258.315L203.811 258.584Z" fill="#B75742"/>
<path d="M201.872 237.898H132.145C127.345 237.898 123.452 241.93 123.452 246.904C123.452 251.876 127.343 255.908 132.145 255.908H201.878C200.28 253.175 199.437 250.068 199.436 246.904C199.435 243.74 200.276 240.632 201.872 237.898Z" fill="#FAE0B2"/>
<path d="M159.647 218.997C159.685 218.914 159.701 218.823 159.693 218.732C159.685 218.641 159.653 218.553 159.601 218.479C159.548 218.404 159.477 218.344 159.394 218.305C159.312 218.267 159.22 218.25 159.129 218.258H92.6072C87.3939 218.258 83.1685 222.052 83.1685 226.743C83.1685 231.427 87.3939 235.225 92.6072 235.225H159.147C159.571 235.225 159.851 234.826 159.665 234.484C158.371 232.108 157.693 229.447 157.689 226.743C157.686 224.038 158.359 221.376 159.647 218.997Z" fill="#86B1F2"/>
<path d="M159.229 219.847H126.261C120.142 219.847 115.18 223.03 115.18 226.956C115.18 230.881 120.142 234.064 126.261 234.064H159.445C158.33 231.866 157.731 229.444 157.694 226.981C157.657 224.517 158.181 222.078 159.229 219.847Z" fill="#F7CC7F"/>
<path d="M150.713 223.208H146.42C145.496 223.208 144.748 223.518 144.748 223.899V223.961H150.713V223.208Z" fill="#B75742"/>
<path d="M154.378 224.941C154.378 223.983 153.256 223.208 151.872 223.208H146.363C147.41 223.208 148.262 223.795 148.262 224.522L148.236 243.11L151.28 240.714L154.384 243.11L154.378 224.941Z" fill="#F47458"/>
<path d="M147.416 217.65H108.711C105.28 217.65 102.498 214.351 102.498 210.284C102.498 206.217 105.28 202.92 108.711 202.92H147.416C144.459 207.001 144.343 212.992 147.14 217.231L147.416 217.65Z" fill="#FAE0B2"/>
<path d="M102.5 210.282C102.5 206.214 105.349 202.918 108.861 202.918H148.154C148.249 202.91 148.337 202.865 148.399 202.793C148.46 202.721 148.491 202.627 148.484 202.532C148.489 202.438 148.458 202.346 148.396 202.275C148.335 202.204 148.248 202.16 148.154 202.153H85.8218C81.9443 202.153 78.8027 205.793 78.8027 210.282C78.8027 214.771 81.9443 218.411 85.8218 218.411H148.154C148.248 218.403 148.335 218.359 148.396 218.288C148.458 218.217 148.489 218.125 148.484 218.031C148.491 217.937 148.46 217.844 148.398 217.772C148.336 217.7 148.248 217.656 148.154 217.648H108.861C105.349 217.65 102.5 214.349 102.5 210.282Z" fill="#466EB6"/>
<path d="M140.654 206.535H136.361C135.439 206.535 134.689 206.839 134.689 207.214V207.274H140.654V206.535Z" fill="#184655"/>
<path d="M144.318 208.237C144.318 207.298 143.197 206.535 141.813 206.535H136.303C137.353 206.535 138.203 207.114 138.203 207.825L138.177 226.054L141.221 223.71L144.324 226.054L144.318 208.237Z" fill="#3C8F7C"/>
<path d="M209.087 93.9429L214.8 92.4413L210.929 144.017L204.074 144.246L207.531 95.8159C207.562 95.3805 207.729 94.9657 208.008 94.6298C208.287 94.2938 208.664 94.0536 209.087 93.9429Z" fill="#184655"/>
<path d="M211.437 145.488C211.304 145.503 211.17 145.503 211.037 145.488C209.904 145.355 209.062 144.228 209.162 142.972L212.961 94.4742C213.059 93.2183 214.057 92.3077 215.193 92.4415C216.329 92.5753 217.169 93.7015 217.071 94.9595L213.271 143.456C213.191 144.568 212.401 145.401 211.437 145.488Z" fill="#F7CC7F"/>
<path d="M158.85 148.071V148.177C159.03 150.15 160.562 151.625 162.27 151.474L210.532 147.162C212.242 147.011 213.481 145.287 213.303 143.313C213.303 143.231 213.283 143.149 213.271 143.067L158.85 148.071Z" fill="#F7CC7F"/>
<path d="M192.45 200.163C189.29 201.912 179.632 198.845 179.632 198.566C179.494 201.202 168.817 226.998 168.817 226.998V234.937C168.817 234.937 190.814 235.984 190.5 234.043C190.186 232.102 189 233.364 184.611 229.698C184.223 229.372 178.06 227.945 179.728 224.307C183.093 216.97 190.226 204.742 192.45 200.163Z" fill="#FFC977"/>
<path d="M168.103 235.221H192.186C193.054 235.133 193.258 234.422 192.95 233.997C192.318 233.114 187.703 231.03 184.601 229.648C179.202 230.277 169.699 228.202 168.829 226.972C166.541 230.039 167.619 235.123 168.103 235.221Z" fill="#3C8F7C"/>
<path d="M162.821 181.641C162.495 180.665 183.554 171.741 184.496 172.761C186.164 174.559 173.097 208.418 173.097 208.418L188.105 212.997C188.105 212.997 203.703 173.886 203.054 166.731C202.404 159.577 194.587 151.45 177.657 156.651C160.727 161.853 162.821 181.641 162.821 181.641Z" fill="#355389"/>
<path d="M206.424 204.614C202.869 203.969 198.261 203.785 194.572 203.721C195.008 207 197.117 223.815 196.731 224.849C195.76 227.384 193.997 229.539 191.702 230.993C191.702 230.993 208.054 245.726 209.04 244.025C210.026 242.323 208.312 242.551 207.24 236.938C207.144 236.439 204.78 228.603 204.64 224.378C204.368 216.317 206.302 209.091 206.424 204.614Z" fill="#FFC977"/>
<path d="M201.168 149.601C198.887 148.385 192.97 148.343 186.452 148.764C173.757 149.606 161.221 152.063 149.149 156.076L141.074 158.744L141.102 150.471C141.102 150.471 115.393 146.176 114.505 152.538C113.16 162.123 114.831 181.571 123.396 185.912C150.003 199.397 187.288 164.429 187.422 169.003C187.604 175.148 192.792 198.013 194.117 208.023C197.807 208.087 204.144 208.085 206.892 207.454C207.42 187.847 207.67 153.061 201.168 149.601Z" fill="#466EB6"/>
<path d="M191.204 231.337L209.586 245.998C210.316 246.479 210.92 246.064 210.956 245.537C211.028 244.452 208.78 239.92 207.258 236.889C202.677 233.955 196.637 226.306 196.745 224.806C194.808 226.435 190.894 230.952 191.204 231.337Z" fill="#3C8F7C"/>
<path d="M149.597 69.6309C148.979 63.994 148.329 58.337 143.652 54.2056C139.865 50.863 135.053 50.2959 130.29 52.085C116.801 57.1529 123.751 69.1137 106.553 81.1744C101.207 84.9224 95.3182 87.4863 91.2947 92.5322C85.6614 99.5949 87.7892 108.091 92.9205 113.764C117.481 140.905 144.9 104.251 146.868 95.4455C148.333 88.906 149.995 73.2591 149.597 69.6309Z" fill="black"/>
<path d="M144.609 101.324C143.368 99.0474 142.009 96.8366 140.538 94.7005C138.456 91.0064 133.081 89.1375 133.081 89.1375C133.081 89.1375 131.281 89.1754 129.217 89.2752C129.143 89.5332 129.006 89.7685 128.817 89.9601C128.041 90.5412 123.594 89.7924 120.722 91.7393C111.094 99.9801 113.757 139.926 114.523 152.542L143.846 152.819C143.846 152.819 140.15 125.663 146.107 118.698C150.257 113.84 147.587 106.801 144.609 101.324Z" fill="#50BFA5"/>
<path d="M131.39 75.6258C131.39 75.6258 129.776 87.1193 128.653 89.9128C127.529 92.7064 134.852 98.6788 140.929 100.496C147.006 102.313 139.069 94.3278 139.329 91.3406C139.589 88.3533 140.687 74.218 140.687 74.218L131.39 75.6258Z" fill="#FFC977"/>
<path d="M140.376 78.2735C140.554 75.9352 140.682 74.22 140.682 74.22L131.393 75.6317C131.393 75.6317 131.159 76.9815 130.899 78.8905C134.665 81.069 138.051 80.3781 140.376 78.2735Z" fill="#EEA334"/>
<path d="M134.306 54.631C131.883 55.3044 129.781 56.8198 128.379 58.9041C126.117 62.3486 124.567 72.4823 132.012 77.2247C139.457 81.9671 145.25 75.2639 145.346 68.7304C145.442 62.1968 144.045 53.4788 134.306 54.631Z" fill="#FFC977"/>
<path d="M147.055 66.6923C146.419 68.2678 145.157 69.2462 144.239 68.8768C143.321 68.5074 143.089 66.9299 143.723 65.3545C144.357 63.779 145.619 62.7986 146.539 63.168C147.458 63.5374 147.688 65.1069 147.055 66.6923Z" fill="#FFC977"/>
<path d="M135.403 54.415C135.403 54.415 130.736 64.8722 126.634 65.7968C122.533 66.7213 122.591 71.9868 122.591 71.9868C122.591 71.9868 122.683 59.8363 126.526 57.0508C130.37 54.2652 135.403 54.415 135.403 54.415Z" fill="black"/>
<path d="M128.263 67.9804C128.801 69.6776 128.307 71.3489 127.159 71.7144C126.011 72.0798 124.639 70.9975 124.099 69.2982C123.559 67.599 124.053 65.9296 125.203 65.5642C126.353 65.1988 127.723 66.2811 128.263 67.9804Z" fill="#FFC977"/>
<path d="M180.712 143.462C178.952 142.827 176.334 142.747 176.378 142.515C176.554 141.577 184.327 144.588 183.277 143.218C182.691 142.456 176.878 139.754 175.46 140.199C174.088 140.633 165.082 143.156 165.082 143.156L140.463 137.396C140.463 137.396 134.249 123.296 133.642 111.182C128.506 111.875 125.009 113.143 120.545 115.617C122.697 127.198 127.93 145.98 133.713 149.504C136.147 150.986 165.204 147.729 165.204 147.729C165.204 147.729 171.603 147.278 172.653 146.876C173.452 146.571 175.488 145.423 176.6 145.107C179.126 144.394 183.627 146.188 183.641 145.692C183.651 145.333 182.509 144.111 180.712 143.462Z" fill="#FFC977"/>
<path d="M133.793 98.2406C133.555 94.5126 132.141 90.9144 128.17 89.7562C125.708 89.0374 122.947 89.7243 120.971 91.3297C118.631 93.2387 117.971 96.2997 117.989 99.1971C118.013 105.787 118.461 112.6 119.667 119.077C124.138 116.611 129.35 115.116 134.487 114.415C134.483 114.383 134.105 103.165 133.793 98.2406Z" fill="#96D9C9"/>
<path d="M57.5173 105.275L19.3502 98.1782C18.982 98.1094 18.6562 97.8974 18.4443 97.5889C18.2325 97.2804 18.1519 96.9006 18.2203 96.5329L23.0017 70.896C23.0341 70.7133 23.1026 70.5389 23.2033 70.3829C23.3039 70.2269 23.4346 70.0925 23.5878 69.9875C23.741 69.8825 23.9136 69.809 24.0955 69.7712C24.2775 69.7335 24.4651 69.7324 24.6475 69.7678L62.8146 76.8644C63.1827 76.9328 63.5085 77.1443 63.7203 77.4525C63.9322 77.7607 64.0129 78.1403 63.9445 78.5078L59.1631 104.147C59.0946 104.514 58.8828 104.839 58.5742 105.051C58.2655 105.263 57.8854 105.343 57.5173 105.275Z" fill="#FFBD46"/>
<path d="M39.3522 75.9617L27.7337 73.8032C27.3655 73.7343 27.0397 73.5224 26.8279 73.2139C26.616 72.9054 26.5355 72.5256 26.6038 72.1578L27.3318 68.2581C27.3654 68.076 27.4347 67.9023 27.5357 67.747C27.6367 67.5917 27.7674 67.4578 27.9202 67.353C28.0731 67.2482 28.2452 67.1746 28.4266 67.1363C28.6081 67.098 28.7953 67.0958 28.9775 67.1299L40.5921 69.2864C40.9601 69.3548 41.2859 69.5663 41.4978 69.8745C41.7097 70.1827 41.7903 70.5623 41.7219 70.9298L40.992 74.8355C40.9593 75.0175 40.8908 75.1911 40.7905 75.3464C40.6902 75.5017 40.56 75.6356 40.4075 75.7403C40.255 75.8451 40.0832 75.9186 39.9021 75.9566C39.7209 75.9946 39.534 75.9963 39.3522 75.9617Z" fill="#FFBD46"/>
<path d="M59.2527 104.294C59.1561 104.632 58.9367 104.921 58.6374 105.106C58.3382 105.291 57.9807 105.357 57.6349 105.292L19.2198 98.1539C18.875 98.0893 18.5666 97.8991 18.3544 97.6201C18.1423 97.3411 18.0416 96.9933 18.0719 96.6443L20.0717 73.6632C20.0887 73.4671 20.1467 73.2768 20.2418 73.1045C20.3369 72.9322 20.4671 72.7816 20.624 72.6625C20.7809 72.5435 20.9611 72.4586 21.1528 72.4132C21.3446 72.3678 21.5438 72.3631 21.7375 72.3992L64.4241 80.3345C64.6168 80.3707 64.7999 80.4465 64.9617 80.5572C65.1236 80.6679 65.2605 80.811 65.364 80.9773C65.4674 81.1437 65.5351 81.3298 65.5626 81.5237C65.5901 81.7176 65.577 81.9151 65.5239 82.1037L59.2527 104.294Z" fill="#FAE0B2"/>
<path d="M234.312 20.32L227.777 22.1012L226.369 14.1938L228.507 13.8145L229.498 19.3835L233.74 18.2274L234.312 20.32Z" fill="#50BFA5"/>
<path d="M26.0942 128.928C27.73 128.796 30.2437 129.517 31.3716 130.278C31.5395 130.438 32.8354 130.953 34.1832 133.179L33.8792 133.379C32.4574 131.895 31.5035 131.562 30.3637 131.22C28.4879 130.739 26.5962 131.099 26.4402 131.183L26.0942 128.928Z" fill="#355389"/>
<path d="M34.0303 133.286C34.0303 133.286 24.0576 134.948 24.9875 142.727C25.9174 150.507 36.438 156.557 45.8268 151.755C58.4592 145.283 53.4699 128.828 44.479 127.556C35.4881 126.284 34.0303 133.286 34.0303 133.286Z" fill="#F9512D"/>
<path d="M38.2584 129.861C38.2584 129.861 40.858 127.195 46.5613 129.621C52.2646 132.047 52.6745 143.369 47.5872 142.706C42.4998 142.043 34.1889 131.494 38.2584 129.861Z" fill="#F48C7F"/>
<path d="M106.865 26.5182L65.8499 41.1328C65.215 41.3589 64.5162 41.3239 63.9072 41.0355C63.2982 40.7472 62.8288 40.2291 62.6023 39.5953L55.0332 18.3993C54.9209 18.0854 54.8716 17.7525 54.8881 17.4196C54.9047 17.0867 54.9869 16.7603 55.1299 16.4591C55.2729 16.1579 55.474 15.8879 55.7216 15.6643C55.9692 15.4408 56.2586 15.2682 56.573 15.1565L97.5838 0.545897C98.2186 0.319831 98.9174 0.354813 99.5265 0.643148C100.135 0.931483 100.605 1.44956 100.831 2.08343L108.4 23.2754C108.627 23.9088 108.593 24.6061 108.305 25.2142C108.017 25.8222 107.499 26.2912 106.865 26.5182Z" fill="#1C76FF"/>
<path d="M79.6794 21.0695C80.2196 22.5816 80.2986 24.2197 79.9065 25.7766C79.5143 27.3336 78.6686 28.7394 77.4762 29.8164C76.2839 30.8934 74.7984 31.5931 73.2078 31.8271C71.6172 32.0611 69.9928 31.8188 68.54 31.1309C67.0873 30.4431 65.8714 29.3405 65.0463 27.9626C64.2211 26.5847 63.8237 24.9935 63.9043 23.39C63.9848 21.7866 64.5398 20.2431 65.4989 18.9546C66.458 17.6661 67.7783 16.6906 69.2927 16.1514C71.3232 15.4284 73.5582 15.5403 75.506 16.4626C77.4539 17.3849 78.955 19.042 79.6794 21.0695Z" fill="white"/>
<path d="M73.1862 19.9347C73.3463 20.3811 73.3702 20.8649 73.2548 21.3248C73.1394 21.7847 72.89 22.2001 72.5381 22.5184C72.1862 22.8367 71.7477 23.0437 71.278 23.113C70.8082 23.1823 70.3285 23.111 69.8994 22.9079C69.4703 22.7049 69.1112 22.3793 68.8675 21.9724C68.6238 21.5655 68.5065 21.0955 68.5304 20.622C68.5543 20.1485 68.7183 19.6927 69.0018 19.3123C69.2852 18.9319 69.6753 18.644 70.1226 18.4851C70.7214 18.2723 71.3803 18.3055 71.9547 18.5773C72.529 18.849 72.9719 19.3373 73.1862 19.9347Z" fill="#86B1F2"/>
<path d="M71.3082 24.7498L73.1728 24.0857C73.8822 23.8331 74.663 23.8722 75.3435 24.1944C76.024 24.5166 76.5484 25.0955 76.8014 25.8038L77.0903 26.6126L69.8764 29.1818L69.5875 28.3731C69.3345 27.6647 69.3736 26.8851 69.6963 26.2056C70.019 25.5261 70.5988 25.0025 71.3082 24.7498Z" fill="#86B1F2"/>
<path d="M80.6885 16.6401C80.4443 16.6403 80.2079 16.5542 80.021 16.3972C79.8342 16.2402 79.7089 16.0224 79.6673 15.7821C79.6256 15.5418 79.6704 15.2945 79.7936 15.084C79.9168 14.8734 80.1105 14.7131 80.3406 14.6313L98.2703 8.24159C98.5261 8.16224 98.8028 8.18474 99.0424 8.30439C99.282 8.42404 99.4659 8.63156 99.5558 8.88355C99.6457 9.13554 99.6346 9.41248 99.5247 9.65643C99.4148 9.90038 99.2146 10.0925 98.9662 10.1925L81.0365 16.5722C80.9253 16.6148 80.8076 16.6378 80.6885 16.6401Z" fill="white"/>
<path d="M85.5303 21.1035C85.2862 21.1032 85.0501 21.0168 84.8636 20.8596C84.6771 20.7025 84.5522 20.4846 84.5108 20.2445C84.4695 20.0043 84.5144 19.7573 84.6376 19.547C84.7608 19.3366 84.9544 19.1765 85.1843 19.0947L99.1826 14.1027C99.3107 14.0571 99.4466 14.0371 99.5825 14.0439C99.7184 14.0507 99.8516 14.0842 99.9746 14.1424C100.097 14.2006 100.208 14.2825 100.299 14.3832C100.39 14.484 100.461 14.6018 100.506 14.7297C100.552 14.8577 100.572 14.9934 100.565 15.1291C100.559 15.2648 100.525 15.3978 100.467 15.5206C100.408 15.6433 100.326 15.7534 100.225 15.8445C100.125 15.9356 100.007 16.006 99.8785 16.0516L85.8802 21.0436C85.7679 21.0835 85.6495 21.1038 85.5303 21.1035Z" fill="white"/>
<path d="M170.591 186.358H71.5556C70.8242 186.358 70.0998 186.502 69.424 186.781C68.7482 187.06 68.1342 187.47 67.617 187.986C67.0997 188.503 66.6895 189.116 66.4097 189.791C66.1299 190.466 65.9861 191.189 65.9863 191.919V196.596C65.9861 197.326 66.1299 198.049 66.4095 198.724C66.6892 199.399 67.0992 200.012 67.6162 200.528C68.1332 201.044 68.7471 201.454 69.4226 201.734C70.0982 202.013 70.8223 202.157 71.5536 202.157H170.591L170.539 202.103C168.501 199.984 167.367 197.158 167.377 194.22C167.387 191.282 168.539 188.464 170.591 186.358Z" fill="#F47458"/>
<path d="M168.836 188.696H115.894C114.417 188.696 113.001 189.281 111.956 190.324C110.912 191.367 110.325 192.782 110.325 194.257C110.325 194.987 110.469 195.71 110.749 196.384C111.029 197.059 111.439 197.672 111.956 198.188C112.473 198.704 113.087 199.114 113.763 199.393C114.439 199.672 115.163 199.816 115.894 199.816H168.836C167.879 198.118 167.377 196.203 167.377 194.256C167.377 192.308 167.879 190.393 168.836 188.696Z" fill="#FAE0B2"/>
<path d="M251.645 186.813L244.138 168.007C243.957 167.553 243.964 167.046 244.157 166.596C244.35 166.147 244.714 165.793 245.168 165.611L272.183 154.86C272.408 154.77 272.649 154.726 272.892 154.729C273.134 154.732 273.374 154.783 273.597 154.879C273.819 154.974 274.021 155.113 274.19 155.287C274.36 155.46 274.493 155.665 274.583 155.891L282.09 174.696C282.18 174.921 282.224 175.162 282.221 175.404C282.218 175.646 282.167 175.886 282.071 176.108C281.975 176.331 281.836 176.532 281.663 176.701C281.489 176.87 281.283 177.003 281.058 177.093L254.043 187.843C253.818 187.933 253.577 187.978 253.335 187.975C253.092 187.971 252.853 187.92 252.63 187.825C252.408 187.729 252.206 187.59 252.037 187.417C251.868 187.243 251.735 187.038 251.645 186.813Z" fill="#FAE0B2"/>
<path d="M277.13 175.938L270.383 159.039C270.331 158.908 270.333 158.763 270.389 158.633C270.444 158.504 270.549 158.402 270.679 158.35C270.744 158.324 270.813 158.312 270.883 158.313C270.952 158.314 271.021 158.329 271.085 158.356C271.149 158.384 271.207 158.424 271.255 158.474C271.303 158.524 271.342 158.583 271.367 158.648L278.114 175.546C278.166 175.677 278.164 175.822 278.109 175.951C278.053 176.08 277.949 176.181 277.818 176.233C277.688 176.285 277.542 176.283 277.413 176.228C277.284 176.172 277.182 176.068 277.13 175.938Z" fill="#466EB6"/>
<path d="M273.914 173.719L268.377 159.845C268.325 159.715 268.327 159.569 268.383 159.44C268.438 159.311 268.543 159.209 268.673 159.156C268.738 159.131 268.807 159.118 268.877 159.119C268.946 159.12 269.015 159.135 269.079 159.163C269.143 159.19 269.201 159.23 269.249 159.28C269.297 159.33 269.335 159.389 269.361 159.454L274.9 173.32C274.952 173.45 274.95 173.595 274.895 173.724C274.839 173.853 274.735 173.955 274.604 174.007C274.475 174.059 274.329 174.059 274.2 174.005C274.071 173.951 273.968 173.848 273.914 173.719Z" fill="#466EB6"/>
<path d="M273.115 177.535L266.36 160.636C266.308 160.506 266.31 160.36 266.365 160.231C266.421 160.102 266.525 160 266.656 159.947C266.787 159.896 266.933 159.899 267.062 159.954C267.191 160.01 267.293 160.115 267.345 160.245L274.091 177.144C274.143 177.274 274.14 177.42 274.085 177.548C274.029 177.677 273.925 177.779 273.795 177.831C273.665 177.88 273.521 177.877 273.394 177.822C273.267 177.766 273.167 177.663 273.115 177.535Z" fill="#466EB6"/>
<path d="M269.559 174.479L264.36 161.436C264.308 161.305 264.31 161.16 264.365 161.03C264.421 160.901 264.525 160.799 264.656 160.747C264.786 160.696 264.932 160.698 265.06 160.753C265.189 160.809 265.291 160.913 265.343 161.043L270.543 174.088C270.595 174.218 270.593 174.363 270.537 174.492C270.482 174.621 270.377 174.723 270.247 174.775C270.116 174.826 269.971 174.824 269.842 174.768C269.713 174.713 269.611 174.609 269.559 174.479Z" fill="#466EB6"/>
<path d="M276.95 157.236L276.814 156.897C276.803 156.868 276.787 156.841 276.766 156.818C276.745 156.795 276.72 156.776 276.691 156.763C276.663 156.75 276.632 156.742 276.601 156.741C276.57 156.74 276.539 156.744 276.51 156.755L273.946 157.776C273.888 157.801 273.843 157.847 273.82 157.906C273.796 157.964 273.797 158.029 273.822 158.087L273.958 158.426C273.968 158.456 273.985 158.483 274.006 158.506C274.027 158.529 274.052 158.548 274.08 158.561C274.109 158.574 274.139 158.581 274.17 158.583C274.201 158.584 274.233 158.579 274.262 158.568L276.826 157.548C276.883 157.523 276.929 157.476 276.952 157.418C276.975 157.359 276.974 157.294 276.95 157.236Z" fill="#355389"/>
<path d="M277.525 158.692L277.389 158.352C277.378 158.323 277.362 158.296 277.341 158.273C277.32 158.25 277.295 158.231 277.266 158.218C277.238 158.205 277.208 158.197 277.176 158.196C277.145 158.195 277.114 158.2 277.085 158.211L274.521 159.231C274.493 159.243 274.467 159.261 274.445 159.283C274.424 159.306 274.407 159.332 274.395 159.361C274.384 159.39 274.379 159.421 274.379 159.452C274.38 159.483 274.387 159.514 274.399 159.542L274.535 159.882C274.546 159.911 274.562 159.938 274.583 159.961C274.604 159.984 274.629 160.003 274.658 160.016C274.686 160.029 274.717 160.037 274.748 160.038C274.779 160.039 274.81 160.034 274.839 160.024L277.403 159.003C277.431 158.991 277.457 158.973 277.479 158.951C277.5 158.928 277.517 158.902 277.529 158.873C277.54 158.844 277.546 158.813 277.545 158.782C277.544 158.751 277.537 158.72 277.525 158.692Z" fill="#355389"/>
<path d="M278.11 160.142L277.974 159.803C277.963 159.773 277.947 159.746 277.926 159.723C277.905 159.7 277.88 159.682 277.852 159.668C277.823 159.655 277.793 159.648 277.762 159.646C277.73 159.645 277.699 159.65 277.67 159.661L275.106 160.681C275.049 160.706 275.003 160.753 274.98 160.811C274.957 160.87 274.958 160.935 274.982 160.993L275.118 161.332C275.129 161.362 275.145 161.389 275.166 161.412C275.187 161.435 275.212 161.453 275.241 161.466C275.269 161.48 275.3 161.487 275.331 161.488C275.362 161.49 275.393 161.485 275.422 161.474L277.986 160.454C278.044 160.429 278.089 160.382 278.112 160.323C278.136 160.265 278.135 160.2 278.11 160.142Z" fill="#355389"/>
<path d="M278.691 161.604L278.555 161.265C278.544 161.235 278.528 161.208 278.507 161.185C278.486 161.162 278.46 161.144 278.432 161.13C278.403 161.117 278.372 161.11 278.341 161.109C278.31 161.107 278.278 161.112 278.249 161.123L275.685 162.14C275.657 162.152 275.631 162.17 275.609 162.192C275.588 162.215 275.571 162.241 275.559 162.27C275.548 162.299 275.543 162.33 275.543 162.361C275.544 162.392 275.551 162.423 275.563 162.451L275.699 162.791C275.71 162.82 275.726 162.847 275.747 162.87C275.768 162.893 275.793 162.912 275.822 162.925C275.85 162.938 275.881 162.945 275.912 162.947C275.943 162.948 275.974 162.943 276.003 162.932L278.567 161.912C278.624 161.887 278.668 161.841 278.692 161.783C278.715 161.726 278.715 161.662 278.691 161.604Z" fill="#355389"/>
<path d="M279.268 163.059L279.132 162.72C279.122 162.691 279.106 162.664 279.085 162.641C279.064 162.618 279.038 162.599 279.01 162.586C278.982 162.573 278.951 162.565 278.92 162.564C278.889 162.563 278.858 162.567 278.828 162.578L276.265 163.599C276.207 163.624 276.162 163.67 276.138 163.729C276.115 163.787 276.116 163.852 276.141 163.91L276.277 164.25C276.287 164.279 276.303 164.306 276.324 164.329C276.345 164.352 276.371 164.371 276.399 164.384C276.427 164.397 276.458 164.404 276.489 164.406C276.52 164.407 276.551 164.402 276.581 164.391L279.146 163.371C279.204 163.346 279.249 163.299 279.272 163.24C279.294 163.182 279.293 163.117 279.268 163.059Z" fill="#355389"/>
<path d="M279.853 164.515L279.717 164.175C279.706 164.146 279.69 164.119 279.669 164.096C279.648 164.073 279.623 164.054 279.595 164.041C279.566 164.028 279.536 164.02 279.505 164.019C279.473 164.018 279.442 164.023 279.413 164.034L276.849 165.054C276.821 165.066 276.795 165.084 276.773 165.106C276.751 165.128 276.734 165.155 276.722 165.184C276.711 165.213 276.705 165.244 276.706 165.275C276.706 165.306 276.713 165.337 276.725 165.365L276.861 165.705C276.872 165.734 276.888 165.761 276.909 165.784C276.93 165.807 276.955 165.826 276.984 165.839C277.012 165.852 277.043 165.86 277.074 165.861C277.105 165.862 277.136 165.857 277.165 165.847L279.729 164.826C279.787 164.801 279.832 164.754 279.855 164.696C279.879 164.638 279.878 164.572 279.853 164.515Z" fill="#355389"/>
<path d="M280.432 165.97L280.296 165.63C280.286 165.601 280.269 165.574 280.248 165.551C280.227 165.528 280.202 165.509 280.174 165.496C280.145 165.483 280.115 165.476 280.084 165.474C280.052 165.473 280.021 165.478 279.992 165.489L277.428 166.509C277.4 166.521 277.374 166.539 277.352 166.561C277.33 166.584 277.313 166.61 277.302 166.639C277.29 166.668 277.285 166.699 277.286 166.73C277.287 166.761 277.294 166.792 277.306 166.821L277.44 167.16C277.451 167.189 277.467 167.216 277.488 167.239C277.509 167.262 277.535 167.281 277.563 167.294C277.591 167.307 277.622 167.315 277.653 167.316C277.684 167.317 277.715 167.313 277.744 167.302L280.31 166.281C280.339 166.269 280.364 166.251 280.386 166.229C280.408 166.206 280.425 166.18 280.436 166.151C280.447 166.122 280.453 166.091 280.452 166.06C280.451 166.029 280.445 165.998 280.432 165.97Z" fill="#355389"/>
<path d="M281.015 167.426L280.879 167.085C280.857 167.026 280.813 166.978 280.756 166.952C280.699 166.925 280.634 166.922 280.575 166.943L278.012 167.965C277.983 167.977 277.957 167.995 277.935 168.017C277.913 168.04 277.896 168.066 277.884 168.095C277.873 168.124 277.867 168.155 277.868 168.186C277.868 168.217 277.875 168.248 277.888 168.277L278.024 168.616C278.034 168.646 278.05 168.673 278.071 168.696C278.092 168.719 278.118 168.737 278.146 168.75C278.174 168.764 278.205 168.771 278.236 168.772C278.267 168.774 278.298 168.769 278.327 168.758L280.891 167.738C280.949 167.713 280.994 167.666 281.018 167.607C281.041 167.549 281.04 167.484 281.015 167.426Z" fill="#355389"/>
<path d="M281.597 168.882L281.461 168.541C281.439 168.482 281.395 168.435 281.338 168.408C281.281 168.382 281.216 168.379 281.157 168.399L278.594 169.42C278.536 169.445 278.491 169.493 278.468 169.551C278.445 169.61 278.447 169.675 278.472 169.733L278.606 170.073C278.628 170.132 278.672 170.18 278.729 170.206C278.787 170.233 278.852 170.236 278.911 170.214L281.475 169.194C281.504 169.182 281.529 169.164 281.551 169.141C281.573 169.119 281.59 169.093 281.601 169.064C281.612 169.035 281.618 169.004 281.617 168.973C281.616 168.942 281.61 168.911 281.597 168.882Z" fill="#355389"/>
<path d="M282.179 170.338L282.043 169.996C282.021 169.938 281.977 169.89 281.92 169.863C281.863 169.837 281.798 169.834 281.739 169.854L279.175 170.875C279.117 170.9 279.072 170.947 279.049 171.006C279.026 171.065 279.026 171.13 279.051 171.188L279.187 171.528C279.198 171.557 279.214 171.584 279.235 171.607C279.256 171.63 279.281 171.649 279.31 171.662C279.338 171.675 279.369 171.683 279.4 171.684C279.431 171.685 279.462 171.68 279.491 171.67L282.055 170.649C282.113 170.624 282.158 170.577 282.181 170.519C282.205 170.461 282.204 170.395 282.179 170.338Z" fill="#355389"/>
<path d="M282.757 171.793L282.621 171.452C282.599 171.393 282.555 171.345 282.498 171.319C282.441 171.292 282.376 171.289 282.317 171.31L279.757 172.322C279.7 172.348 279.655 172.394 279.632 172.453C279.609 172.511 279.611 172.576 279.636 172.634L279.769 172.975C279.792 173.034 279.836 173.082 279.893 173.109C279.951 173.135 280.016 173.138 280.075 173.117L282.639 172.096C282.694 172.071 282.737 172.025 282.759 171.968C282.781 171.912 282.78 171.849 282.757 171.793Z" fill="#355389"/>
<path d="M283.337 173.248L283.201 172.907C283.179 172.848 283.135 172.8 283.078 172.774C283.021 172.747 282.956 172.744 282.897 172.765L280.334 173.785C280.276 173.81 280.23 173.857 280.207 173.915C280.184 173.974 280.185 174.039 280.21 174.097L280.346 174.438C280.367 174.497 280.411 174.545 280.468 174.572C280.525 174.598 280.59 174.601 280.65 174.58L283.213 173.56C283.271 173.535 283.316 173.488 283.34 173.429C283.363 173.371 283.362 173.306 283.337 173.248Z" fill="#355389"/>
<path d="M290.422 171.749L279.699 186.995C279.675 187.028 279.657 187.065 279.645 187.105L278.559 190.455C278.531 190.54 278.531 190.631 278.559 190.716C278.587 190.801 278.641 190.875 278.714 190.927C278.787 190.979 278.874 191.006 278.964 191.005C279.053 191.004 279.14 190.974 279.211 190.92L282.081 188.76C282.116 188.734 282.147 188.702 282.173 188.666L292.921 173.383C292.955 173.336 292.978 173.283 292.99 173.227C293.002 173.171 293.003 173.114 292.992 173.058C292.981 173.001 292.958 172.948 292.926 172.901C292.894 172.854 292.852 172.814 292.803 172.783L291.004 171.633C290.911 171.572 290.798 171.55 290.689 171.572C290.58 171.594 290.484 171.657 290.422 171.749Z" fill="#B75742"/>
<path d="M282.157 188.682L282.131 188.72L279.357 190.804L278.603 190.299L279.639 187.124C280.447 187.568 281.419 188.023 282.157 188.682Z" fill="#F7CC7F"/>
<path d="M181.805 6.72192C183.349 7.95195 186.033 11.9136 189.458 14.6872C191.458 16.3125 193.006 15.8992 195.563 16.2067C207.698 17.6724 204.41 20.1484 205.866 20.4C205.452 21.3505 201.667 29.3856 200.965 30.997C200.313 32.4926 199.187 33.1615 197.555 32.9359C195.045 32.5904 192.512 32.3368 190.042 31.7977C183.709 30.4259 180.185 27.263 175.644 23.4231C174.444 22.4028 174.144 21.1328 174.768 19.6911C177.676 12.9779 181.489 7.33893 181.805 6.72192Z" fill="#466EB6"/>
<path d="M207.177 30.0461C207.123 32.6858 207.325 33.215 206.19 32.8156C205.503 32.5655 204.835 32.2686 204.19 31.9271C203.734 31.6914 203.718 31.3819 204.088 31.0105C204.626 30.4714 205.18 29.9462 205.718 29.4131C205.534 28.8989 205.536 28.3367 205.724 27.8239C205.911 27.3111 206.273 26.8801 206.746 26.6056C206.946 26.4898 206.8 26.7354 208.489 22.8516C202.89 22.1627 198.956 21.7015 192.139 20.8648C190.353 20.655 188.669 19.9259 187.294 18.7682C182.423 14.7 177.556 10.6299 172.696 6.55777C172.036 6.00665 171.952 5.19595 172.476 4.57295C172.876 4.09771 173.408 4.07375 173.98 4.14564C175.535 4.34532 190.792 6.23229 192.341 6.414C194.333 6.63112 196.213 7.43855 197.741 8.73228C202.525 12.7259 207.316 16.7195 212.113 20.7131C212.771 21.2622 212.947 21.7654 212.713 22.3744C212.459 23.0433 211.913 23.3728 211.069 23.1731C210.469 23.0413 210.197 23.225 209.989 23.7821C209.049 26.3081 208.389 26.8672 208.619 27.7897C208.791 28.5045 207.943 29.7366 207.177 30.0461Z" fill="#86B1F2"/>
<path d="M232.491 209.424L235.271 212.072C241.848 218.334 247.211 225.755 251.091 233.961L251.517 234.861C251.517 234.861 258.798 235.504 259.813 228.931C253.493 221.839 248.12 213.96 243.83 205.488L242.512 202.415L232.491 209.424Z" fill="#466EB6"/>
<path d="M242.504 202.405C242.862 202.918 240.905 204.895 238.143 206.82C235.381 208.745 232.832 209.917 232.476 209.416C232.12 208.914 234.075 206.904 236.849 204.977C239.623 203.05 242.148 201.893 242.504 202.405Z" fill="#86B1F2"/>
<path d="M242.518 202.426C242.518 202.426 236.975 207.111 234.691 207.588L235.397 208.546C236.347 208.027 237.267 207.454 238.153 206.831C240.881 204.918 242.818 202.965 242.518 202.426Z" fill="#355389"/>
<path d="M249.924 216.027C249.924 216.826 249.624 220.318 243.816 221.774C244.199 222.293 244.574 222.818 244.942 223.347C248.618 222.261 250.272 220.376 251.013 218.942C251.131 218.717 251.273 218.411 251.367 218.176C250.877 217.465 250.396 216.749 249.924 216.027Z" fill="#B75742"/>
<path d="M244.336 220.742L235.791 220.436L237.817 222.153L236.605 224.346L244.694 222.287L244.336 220.742Z" fill="#B75742"/>
<path d="M245.115 222.727L242.08 228.009L244.216 227.196L245.037 228.873L246.463 223.318L245.115 222.727Z" fill="#B75742"/>
<path d="M246.276 224.159C245.723 224.212 245.166 224.1 244.676 223.837C244.186 223.573 243.786 223.17 243.527 222.679C243.268 222.187 243.161 221.63 243.221 221.078C243.28 220.525 243.503 220.003 243.861 219.578C244.219 219.153 244.695 218.844 245.23 218.69C245.764 218.536 246.332 218.545 246.862 218.715C247.391 218.885 247.858 219.209 248.203 219.645C248.547 220.081 248.754 220.61 248.796 221.163C248.828 221.525 248.788 221.89 248.678 222.236C248.569 222.583 248.392 222.904 248.158 223.183C247.924 223.461 247.637 223.69 247.315 223.858C246.992 224.025 246.639 224.127 246.276 224.159Z" fill="#F47458"/>
<path d="M264.417 104.317L246.419 88.2806C245.251 87.2382 245.737 85.0857 247.351 84.1812L261.715 76.0602C262.635 75.541 263.671 75.5889 264.337 76.184L282.335 92.2203C283.504 93.2626 283.016 95.4051 281.405 96.3177L267.038 104.431C266.119 104.96 265.083 104.912 264.417 104.317Z" fill="#408DFF"/>
<path d="M263.561 91.5604L262.061 79.2402C262.044 78.9938 262.111 78.7489 262.25 78.5447C262.389 78.3406 262.593 78.1889 262.829 78.114C262.931 78.073 263.041 78.0562 263.151 78.0648C263.261 78.0734 263.368 78.1073 263.462 78.1637C263.557 78.2201 263.637 78.2976 263.697 78.3902C263.757 78.4827 263.794 78.5877 263.807 78.6971L265.186 90.0349L278.835 93.3296C279.279 93.4374 279.485 93.9166 279.293 94.3999C279.101 94.8831 278.583 95.1886 278.137 95.0808L263.561 91.5604Z" fill="white"/>
<path d="M28.5411 35.1243L30.4008 38.7984L34.6043 38.6626L36.3961 42.9297L40.8295 41.4062L43.0712 46.1426L47.3247 45.242L50.2263 49.4473L48.6325 50.5435L46.4628 47.4006L41.9733 48.3511L39.8196 43.7984L35.3142 45.3459L33.3344 40.6374L29.229 40.7712L27.5052 37.3647L24.8295 38.0156L24.3716 36.1366L28.5411 35.1243Z" fill="#F7CC7F"/>
<path d="M253.622 129.129L257.441 130.679L260.521 127.819L264.68 129.86L267.02 125.804L271.825 127.905L274.441 124.437L279.394 125.702L278.915 127.573L275.211 126.627L272.451 130.289L267.832 128.268L265.452 132.394L260.863 130.141L257.855 132.933L254.316 131.497L252.724 133.742L251.144 132.627L253.622 129.129Z" fill="#50BFA5"/>
</svg>
