<svg width="546" height="277" viewBox="0 0 546 277" fill="none" xmlns="http://www.w3.org/2000/svg">
<path d="M387.618 247.581V80.5659H465.147V108.013H428.181V145.281H455.757V173.694H428.181V220.334H465.556V247.628L387.618 247.581Z" fill="url(#paint0_linear)"/>
<path d="M273.004 247.593V80.5659H317.439C329.047 80.5659 338.597 81.5237 346.09 83.4392C353.583 85.3547 359.569 88.5263 364.049 92.954C368.587 97.499 371.832 103.149 373.457 109.334C375.249 115.811 376.149 123.987 376.157 133.863V194.108C376.157 204.046 375.257 212.254 373.457 218.731C371.837 224.936 368.601 230.612 364.073 235.193C359.593 239.652 353.607 242.839 346.114 244.755C338.621 246.67 329.106 247.628 317.569 247.628L273.004 247.593ZM314.31 219.39H318.176C321.001 219.47 323.824 219.181 326.573 218.53C328.454 218.089 330.115 216.999 331.259 215.457C332.298 213.999 332.993 212.329 333.293 210.57C333.639 208.085 333.79 205.577 333.745 203.069V124.69C333.791 122.197 333.64 119.705 333.293 117.236C332.993 115.531 332.296 113.918 331.259 112.525C330.087 111.042 328.43 110.01 326.573 109.605C323.818 108.996 320.997 108.727 318.176 108.804H314.31V219.39Z" fill="url(#paint1_linear)"/>
<path d="M89.939 249.909C80.3639 249.909 72.1877 248.645 65.4103 246.118C59.1098 243.924 53.5438 240.024 49.3337 234.852C45.2933 229.681 42.3674 223.73 40.7399 217.375C38.8312 209.678 37.9293 201.767 38.0565 193.839V133.282C37.9314 125.326 38.8373 117.388 40.7517 109.664C42.3844 103.311 45.3098 97.3611 49.3456 92.1868C53.5533 87.0157 59.1205 83.1186 65.4222 80.9327C72.1917 78.4056 80.3679 77.142 89.9508 77.142C96.7244 77.0385 103.482 77.8327 110.047 79.5038C115.19 80.769 120.05 82.9883 124.374 86.0461C128.112 88.8436 131.227 92.3864 133.523 96.4499C135.884 100.586 137.572 105.07 138.523 109.735C139.572 114.94 140.083 120.238 140.048 125.547V140.592H99.644V122.205C99.644 119.785 99.5731 117.848 99.4431 116.395C99.2578 114.683 98.9014 112.994 98.3792 111.353C97.9313 109.598 96.876 108.059 95.4003 107.007C93.8676 106.112 92.1364 105.611 90.362 105.549C88.5876 105.487 86.8256 105.866 85.2342 106.653C84.0503 107.283 83.0302 108.181 82.2553 109.275C81.4885 110.513 80.9557 111.882 80.6831 113.313C80.3517 114.781 80.1148 116.268 79.9738 117.765C79.8793 119.041 79.8202 120.564 79.8202 122.312V204.751C79.8202 206.499 79.8202 208.034 79.9738 209.345C80.1099 210.842 80.3629 212.327 80.7304 213.785C81.0471 215.21 81.594 216.574 82.3499 217.824C83.1025 218.945 84.1328 219.852 85.3406 220.457C86.9219 221.219 88.6664 221.581 90.4206 221.511C92.1748 221.441 93.8849 220.941 95.4003 220.055C96.8799 218.987 97.9348 217.431 98.3792 215.663C98.8975 214 99.2538 212.292 99.4431 210.561C99.5731 209.108 99.644 207.172 99.644 204.751V185.549H140.048V200.5C140.096 205.842 139.601 211.176 138.571 216.418C137.608 221.144 135.921 225.693 133.57 229.904C131.287 234.039 128.172 237.658 124.421 240.532C120.112 243.672 115.259 245.986 110.106 247.358C103.537 249.15 96.7477 250.009 89.939 249.909V249.909Z" fill="url(#paint2_linear)"/>
<path d="M233.049 246.22C226.325 248.676 218.207 249.909 208.696 249.917C199.185 249.924 191.08 248.692 184.379 246.22C178.155 244.09 172.631 240.282 168.41 235.212C164.361 230.137 161.449 224.243 159.874 217.932C158.01 210.246 157.13 202.351 157.255 194.44V132.598C157.13 124.687 158.01 116.792 159.874 109.106C161.439 102.801 164.339 96.9112 168.375 91.8378C172.592 86.7605 178.117 82.9481 184.344 80.8181C191.037 78.3614 199.142 77.1331 208.661 77.1331C218.18 77.1331 226.297 78.3614 233.014 80.8181C239.271 82.9467 244.83 86.7576 249.088 91.8378C253.161 96.9071 256.108 102.795 257.73 109.106C259.624 116.787 260.516 124.684 260.384 132.598V194.44C260.516 202.354 259.624 210.251 257.73 217.932C256.108 224.246 253.161 230.138 249.088 235.212C244.836 240.279 239.29 244.085 233.049 246.22V246.22ZM208.696 221.523C210.611 221.603 212.504 221.092 214.121 220.058C215.575 219.006 216.634 217.492 217.127 215.759C217.688 214.086 218.081 212.361 218.301 210.609C218.482 208.694 218.564 206.77 218.548 204.846V122.098C218.564 120.173 218.482 118.25 218.301 116.334C218.084 114.597 217.691 112.887 217.127 111.231C216.627 109.519 215.568 108.025 214.121 106.991C212.504 105.958 210.611 105.447 208.696 105.527C207.083 105.475 205.486 105.859 204.07 106.637C202.928 107.258 201.947 108.14 201.205 109.212C200.475 110.456 199.981 111.826 199.749 113.251C199.459 114.649 199.275 116.066 199.197 117.491C199.197 118.672 199.197 120.137 199.197 122.098V204.846C199.197 206.735 199.197 208.247 199.197 209.393C199.272 210.838 199.456 212.275 199.749 213.692C199.981 215.118 200.475 216.488 201.205 217.732C202.046 218.936 203.17 219.912 204.477 220.573C205.784 221.235 207.234 221.561 208.696 221.523V221.523Z" fill="url(#paint3_linear)"/>
<path d="M456.092 35.8235C456.092 35.8235 460.453 51.4808 462.64 54.0903C464.828 56.6998 471.808 60.4315 471.808 60.4315L469.948 63.7065C469.948 63.7065 457.219 57.1826 455.006 51.9635C453.845 49.3546 452.967 46.6295 452.386 43.8348C452.033 41.9038 450.592 37.0761 451.312 35.1581C451.797 33.8664 455.084 33.1879 456.092 35.8235Z" fill="#0254E4"/>
<g style="mix-blend-mode:multiply" opacity="0.65">
<path d="M456.092 35.8235C456.092 35.8235 460.453 51.4808 462.64 54.0903C464.828 56.6998 471.808 60.4315 471.808 60.4315L469.948 63.7065C469.948 63.7065 457.219 57.1826 455.006 51.9635C453.845 49.3546 452.967 46.6295 452.386 43.8348C452.033 41.9038 450.592 37.0761 451.312 35.1581C451.797 33.8664 455.084 33.1879 456.092 35.8235Z" fill="#00A1CC"/>
</g>
<path d="M499.767 110.599L502.975 107.611C502.975 107.611 515.822 106.672 516.582 107.794C517.341 108.916 504.39 114.996 502.739 114.879C501.089 114.762 499.989 111.826 499.767 110.599Z" fill="#292C3D"/>
<path d="M476.221 67.2957C476.221 67.2957 488.362 64.2165 489.318 66.2128C490.274 68.2091 502.924 107.613 502.924 107.613L499.716 110.601C499.716 110.601 486.188 77.3424 482.272 73.8587C478.356 70.375 474.401 68.6657 476.221 67.2957Z" fill="#F9A57E"/>
<path d="M476.221 67.2957C476.221 67.2957 488.362 64.2165 489.318 66.2128C490.274 68.2091 502.924 107.613 502.924 107.613L499.716 110.601C499.716 110.601 486.188 77.3424 482.272 73.8587C478.356 70.375 474.401 68.6657 476.221 67.2957Z" fill="#E76F59"/>
<path d="M469.944 60.0533C470.828 59.8267 471.678 59.4845 472.472 59.0355C473.1 58.6009 473.856 58.3895 474.62 58.4354C475.196 58.5136 479.858 60.4577 478.627 61.3189C478.221 61.6059 477.213 61.1101 476.807 60.9666C476.401 60.8231 475.654 60.4838 475.104 60.2359C475.615 60.2359 478.129 61.2797 477.867 61.8669C477.409 62.8977 474.842 61.5146 474.253 61.1884C474.711 61.1884 476.283 61.8538 476.283 62.4932C476.283 63.3935 474.41 62.6367 474.004 62.4932C473.741 62.3076 473.449 62.1666 473.14 62.0757C472.751 62.0794 472.365 62.15 472 62.2844C471.34 62.3759 470.67 62.3759 470.01 62.2844C469.617 62.2844 468.7 62.2844 468.517 61.9974C468.428 61.7595 468.405 61.5026 468.449 61.2528C468.492 61.003 468.602 60.7692 468.766 60.5752C469.113 60.3135 469.516 60.1349 469.944 60.0533V60.0533Z" fill="#F9A57E"/>
<path d="M469.944 60.0533C470.828 59.8267 471.678 59.4845 472.472 59.0355C473.1 58.6009 473.856 58.3895 474.62 58.4354C475.196 58.5136 479.858 60.4577 478.627 61.3189C478.221 61.6059 477.213 61.1101 476.807 60.9666C476.401 60.8231 475.654 60.4838 475.104 60.2359C475.615 60.2359 478.129 61.2797 477.867 61.8669C477.409 62.8977 474.842 61.5146 474.253 61.1884C474.711 61.1884 476.283 61.8538 476.283 62.4932C476.283 63.3935 474.41 62.6367 474.004 62.4932C473.741 62.3076 473.449 62.1666 473.14 62.0757C472.751 62.0794 472.365 62.15 472 62.2844C471.34 62.3759 470.67 62.3759 470.01 62.2844C469.617 62.2844 468.7 62.2844 468.517 61.9974C468.428 61.7595 468.405 61.5026 468.449 61.2528C468.492 61.003 468.602 60.7692 468.766 60.5752C469.113 60.3135 469.516 60.1349 469.944 60.0533V60.0533Z" fill="#E8A393"/>
<path d="M490.99 39.1123L493.858 40.2866L484.036 63.8898L481.142 62.3241L490.99 39.1123Z" fill="#292C3D"/>
<path d="M482.191 61.9194H463.503V64.8161H482.191V61.9194Z" fill="#292C3D"/>
<path d="M430.465 48.4659C432.953 47.0437 433.372 45.4649 431.997 40.2589C431.484 37.9037 431.766 35.4454 432.802 33.267C433.837 31.0887 435.566 29.3127 437.72 28.2159C440.274 27.159 442.526 26.7023 444.085 23.9754C445.643 21.2484 442.684 15.4683 447.621 11.1625C451.209 8.04415 456.369 10.5363 456.369 10.5363C457.482 9.92302 457.941 16.3686 458.019 21.2223C451.772 30.7341 453.553 43.1816 455.819 53.8415C455.882 54.0856 455.961 54.3253 456.055 54.5591C455.557 62.8053 455.164 69.6422 455.164 69.6422C455.164 69.6422 440.156 78.1102 429.954 70.8557C419.752 63.6012 425.449 51.3233 430.465 48.4659Z" fill="#292C3D"/>
<path d="M474.599 108.643L478.409 110.822C478.409 110.822 483.085 122.787 482.22 123.87C481.356 124.953 471.744 114.384 471.364 112.766C470.984 111.148 473.485 109.217 474.599 108.643Z" fill="#292C3D"/>
<path d="M469.738 66.5758C469.738 66.5758 494.228 68.2851 496.506 70.4901C498.785 72.6952 477.988 110.599 477.988 110.599L474.57 108.642C474.57 108.642 479.717 90.6096 481.053 86.4605C482.389 82.3113 484.982 77.3271 484.484 76.5964C483.986 75.8658 459.327 79.6365 459.51 72.6821C459.693 65.7277 469.738 66.5758 469.738 66.5758Z" fill="#F9A57E"/>
<path d="M457.663 25.4374C457.663 25.4374 455.043 32.4049 456.654 37.6109L448.089 35.5363C448.089 35.5363 451.586 23.8717 453.092 21.8754C454.598 19.8791 457.663 25.4374 457.663 25.4374Z" fill="#F9A57E"/>
<path d="M457.663 25.4374C457.663 25.4374 455.043 32.4049 456.654 37.6109L448.089 35.5363C448.089 35.5363 451.586 23.8717 453.092 21.8754C454.598 19.8791 457.663 25.4374 457.663 25.4374Z" fill="#E76F59"/>
<path d="M458.54 16.3425C458.54 16.3425 461.879 17.9213 462.678 19.2652C463.477 20.6091 462.77 22.4488 462.835 23.6753C463.007 24.7758 463.081 25.8891 463.058 27.0025C462.875 27.3026 461.644 27.0025 461.447 27.2765C461.251 27.5505 459.653 28.5813 459.156 29.6512C458.658 30.7211 458.003 30.8777 456.838 30.3036C455.672 29.7295 451.233 23.8971 451.18 21.1702C451.128 18.4432 455.253 15.2074 458.54 16.3425Z" fill="#F9A57E"/>
<path d="M455.723 12.6106C456.444 14.0094 457.019 15.4785 457.438 16.9946C457.595 18.2211 456.417 21.8484 455.723 22.3311C455.028 22.8139 455.618 18.2733 453.85 19.7216C452.082 21.1699 453.955 23.7272 453.85 24.2622C453.682 24.8869 453.333 25.4482 452.846 25.8754C452.359 26.3026 451.756 26.5767 451.113 26.663C449.292 26.8196 446.293 17.7905 448.271 15.5463C450.248 13.3021 453.627 12.6106 455.723 12.6106Z" fill="#292C3D"/>
<path d="M445.445 59.0867L456.8 58.2256C456.8 58.2256 462.706 64.7494 468.586 64.7494H488.466C487.698 70.0778 485.728 75.1634 482.704 79.6238C482.704 79.6238 463.662 81.0199 454.416 80.2631C445.17 79.5064 436.383 69.3683 445.445 59.0867Z" fill="#4D505E"/>
<path d="M444.382 60.4191C444.712 59.9656 445.066 59.53 445.443 59.1143L456.797 58.2532C456.797 58.2532 462.547 64.6465 468.309 64.777C461.355 65.4946 448.062 67.0343 444.382 60.4191Z" fill="#3D3848"/>
<g style="mix-blend-mode:multiply" opacity="0.32">
<path d="M483.226 66.1343C480.332 65.8603 477.516 65.1688 474.674 64.8296H487.155C485.976 65.4428 485.361 66.3431 483.226 66.1343Z" fill="#CA0045"/>
</g>
<path d="M449.178 31.595C451.445 32.5163 453.778 33.2664 456.158 33.8392C456.158 33.8392 459.825 41.9026 461.252 44.0816C462.68 46.2606 457.638 54.6241 457.324 58.2253C457.324 58.2253 454.285 61.1219 445.092 59.3474C445.118 59.3474 442.709 36.6836 449.178 31.595Z" fill="#0254E4"/>
<g style="mix-blend-mode:multiply" opacity="0.65">
<path d="M447.773 36.425C448.688 36.0834 449.691 36.0558 450.623 36.3465C451.555 36.6372 452.363 37.2296 452.92 38.0299C453.889 40.0001 452.92 43.5099 453.011 45.6367C453.06 48.1275 453.341 50.6085 453.849 53.0478C454.454 55.0826 455.475 56.9707 456.848 58.593C455.657 59.2976 452.252 60.7198 445.062 59.3498C445.062 59.3498 443.595 45.5192 446.031 37.0513C446.738 36.8295 447.354 36.5685 447.773 36.425Z" fill="#00A1CC"/>
</g>
<path d="M468.165 60.0538C469.048 59.8227 469.897 59.4807 470.693 59.0361C471.315 58.5996 472.068 58.3878 472.828 58.4359C473.417 58.5142 478.066 60.4583 476.835 61.3194C476.429 61.6065 475.421 61.1107 475.028 60.9671C474.635 60.8236 473.875 60.4844 473.325 60.2365C473.823 60.2365 476.35 61.2803 476.088 61.8674C475.617 62.8982 473.063 61.5152 472.474 61.189C472.919 61.189 474.504 61.8544 474.504 62.4937C474.504 63.394 472.618 62.6373 472.212 62.4937C471.954 62.3084 471.666 62.1673 471.361 62.0762C470.968 62.081 470.578 62.1515 470.208 62.285C469.548 62.3764 468.878 62.3764 468.218 62.285C467.838 62.285 466.908 62.285 466.738 61.9979C466.65 61.7601 466.626 61.5032 466.67 61.2534C466.714 61.0036 466.823 60.7697 466.987 60.5757C467.333 60.312 467.737 60.1332 468.165 60.0538V60.0538Z" fill="#F9A57E"/>
<path d="M468.951 59.9238L467.956 63.6685C467.956 63.6685 443.361 60.8241 442.798 56.4793C442.235 52.1344 443.793 31.9105 449.726 34.0111C455.658 36.1118 449.791 50.7774 450.721 51.9256C451.651 53.0738 468.951 59.9238 468.951 59.9238Z" fill="#0254E4"/>
<path d="M455.475 10.9145C456.365 10.2952 457.435 9.9851 458.519 10.0323C459.603 10.0794 460.641 10.4812 461.473 11.1754C464.525 13.6284 464.42 17.3209 466.934 16.9947C466.934 16.9947 465.271 21.2743 461.631 20.2566C457.99 19.2389 454.218 13.4718 455.475 10.9145Z" fill="#292C3D"/>
<path d="M25.387 51.8373C24.6847 51.5285 24.0785 51.0373 23.6321 50.4151C23.4749 50.0979 23.2517 49.8177 22.9773 49.5931C22.6728 49.326 22.3964 49.0287 22.1523 48.7059C21.9244 48.3662 21.6073 48.0954 21.2356 47.923C20.751 47.7795 20.8951 48.4058 21.0522 48.8102C21.2094 49.2147 22.4535 50.0498 22.2963 50.5195C22.1392 50.9892 20.6986 49.9193 20.4105 49.6975C19.7426 49.1886 19.8212 48.5623 19.5069 47.8708C19.3235 47.4663 19.114 47.3359 18.8521 47.7795C18.5901 48.2231 18.8521 48.5232 18.9568 48.8624C19.1994 49.5731 19.6131 50.2137 20.1617 50.7282C19.6245 50.273 19.1799 49.7194 18.8521 49.0973C18.6687 48.745 18.1318 47.114 17.5425 47.3619C16.3769 47.8578 18.6425 51.0022 19.2711 51.2762C18.7185 50.8587 18.2404 50.3514 17.8568 49.7758C17.608 49.4365 17.0579 48.6276 16.796 49.3191C16.4031 50.3499 18.3151 51.5502 19.0878 52.2418C18.4953 51.9249 17.9452 51.5347 17.4508 51.0805C16.7567 50.5325 16.5996 51.2241 17.2151 51.9156C17.523 52.2328 17.8558 52.5252 18.2104 52.7898C19.3879 53.7243 20.8434 54.2429 22.3487 54.2642C22.9642 54.3294 24.0381 55.0862 24.4703 54.773C25.3084 54.1859 25.2429 52.7115 25.387 51.8373Z" fill="#E8A393"/>
<path d="M24.5366 50.1021C24.5366 50.1021 37.8029 53.7815 39.1125 53.6902C40.4221 53.5989 43.5651 41.9473 44.8093 36.2063C44.9271 35.6714 46.6951 35.6453 48.7381 33.9621C49.5631 33.2706 52.0121 34.6015 52.824 33.9621C53.5956 34.7618 54.1081 35.7742 54.2949 36.8677C54.4817 37.9613 54.3343 39.0855 53.8717 40.0945C50.8465 46.7619 48.2535 59.5356 41.2864 59.666C32.1192 59.8487 22.7424 55.0602 22.7424 55.0602L24.5366 50.1021Z" fill="#DA395B"/>
<path d="M21.6667 51.6945C21.8981 51.3151 22.108 50.9231 22.2954 50.5203C22.4525 50.0505 21.2215 49.2155 21.0512 48.811C20.881 48.4065 20.75 47.7803 21.2346 47.9238C21.6063 48.0962 21.9234 48.367 22.1513 48.7066C22.3954 49.0295 22.6719 49.3268 22.9764 49.5939C23.2507 49.8185 23.4739 50.0987 23.6312 50.4159C23.7825 50.6582 23.9728 50.8742 24.1943 51.0552C23.398 51.4203 22.5414 51.637 21.6667 51.6945V51.6945Z" fill="#E8A393"/>
<path d="M18.2757 92.2071C18.2757 92.2071 17.0447 97.8959 15.8923 98.4308C14.7398 98.9658 2.73077 96.0301 2.03668 94.6731C1.34259 93.3161 2.32478 91.907 4.8916 92.0636C7.1965 92.1418 8.71565 93.003 10.5884 92.7159C12.2254 92.4811 13.8362 89.3757 13.8362 89.3757L18.2757 92.2071Z" fill="#292C3D"/>
<path d="M38.6948 105.15C38.6948 105.15 41.7724 110.108 41.314 111.283C40.8557 112.457 30.1562 118.654 28.7157 118.159C27.2751 117.663 26.987 115.967 28.9121 114.244C30.6277 112.705 32.3171 112.274 33.4695 110.774C34.622 109.273 33.4695 106.116 33.4695 106.116L38.6948 105.15Z" fill="#292C3D"/>
<path d="M56.6848 63.1359C56.6848 63.1359 51.8262 65.6411 49.5737 65.354C47.3211 65.067 27.9651 66.5805 25.6995 68.4333C23.4339 70.2861 32.6928 107.459 32.6928 107.459L40.3671 106.154C40.3671 106.154 37.617 78.9758 38.0753 78.754C38.5337 78.5322 50.1106 78.6105 69.8463 78.6105C74.6657 78.6105 80.0482 68.5246 73.9454 61.4658L56.6848 63.1359Z" fill="#DBDF01"/>
<g style="mix-blend-mode:multiply" opacity="0.65">
<path d="M29.043 71.4488C29.981 69.8083 30.7029 68.0541 31.1907 66.2297C37.2756 65.5275 43.4007 65.2311 49.5252 65.3425C51.7777 65.6296 56.6364 63.1244 56.6364 63.1244L57.7495 63.02C56.3613 65.0033 54.7243 66.7256 52.6945 67.1692C50.2455 67.7172 47.6918 67.8477 45.2821 68.4739C41.1176 69.5699 36.9923 71.7489 35.1327 75.885C32.6742 80.9662 30.6078 86.2266 28.9513 91.6205C27.6417 85.9839 26.3976 80.0733 25.6511 75.3892C27.1834 74.7107 28.231 72.7797 29.043 71.4488Z" fill="#CCC400"/>
</g>
<path d="M54.6834 58.9875C54.6834 58.9875 31.6475 60.2923 29.4604 62.5104C27.2734 64.7285 12.4355 90.0802 12.4355 90.0802L18.5383 94.4772C18.5383 94.4772 30.6914 76.628 36.5323 69.6867C37.8663 68.1065 39.725 67.0555 41.7707 66.7248C44.7053 66.206 47.6645 65.8358 50.6368 65.6158C53.0862 65.6224 55.4515 64.7254 57.2764 63.0976L54.6834 58.9875Z" fill="#DBDF01"/>
<path d="M48.7621 23.5495C49.4615 23.1287 50.1003 22.6151 50.661 22.0229C51.2242 24.228 52.5599 28.2728 55.1137 30.1647C55.1137 30.1647 50.5824 32.6698 46.5882 32.2654C46.5882 32.2654 46.431 26.9419 45.2786 24.4368C46.4936 24.4181 47.6871 24.1141 48.7621 23.5495V23.5495Z" fill="#F9A57E"/>
<path d="M48.7621 23.5495C49.4615 23.1287 50.1003 22.6151 50.661 22.0229C51.2242 24.228 52.5599 28.2728 55.1137 30.1647C55.1137 30.1647 50.5824 32.6698 46.5882 32.2654C46.5882 32.2654 46.431 26.9419 45.2786 24.4368C46.4936 24.4181 47.6871 24.1141 48.7621 23.5495V23.5495Z" fill="#E76F59"/>
<path d="M44.8878 9.84859C44.8878 9.84859 38.9814 10.2139 37.7111 11.8971C37.1014 12.9963 36.7578 14.2223 36.7078 15.4773C36.6578 16.7323 36.9027 17.9815 37.423 19.1255C38.4576 20.9261 37.1087 23.9792 37.3183 24.6969C37.5278 25.4145 39.3481 25.01 39.4922 25.1927C39.6362 25.3753 41.0637 28.8199 43.6043 28.5329C47.1796 28.1023 50.5191 23.8357 51.2655 21.3045C52.012 18.7732 50.3095 9.13097 44.8878 9.84859Z" fill="#F9A57E"/>
<path d="M35.1851 13.8281C35.5029 13.3538 35.7582 12.8407 35.9447 12.3015C35.9183 11.9497 35.9183 11.5964 35.9447 11.2446C36.2066 10.1617 36.1018 9.48321 38.2234 7.80006C39.234 7.11057 40.389 6.65942 41.6007 6.48082C42.8124 6.30223 44.049 6.40088 45.2167 6.76929C46.0235 7.01502 46.775 7.41376 47.4299 7.94358C47.6133 8.1132 48.2026 8.53073 48.2026 8.79168C48.2026 9.05264 47.4823 9.58759 47.299 9.82245C46.9885 10.2707 46.7127 10.7417 46.4739 11.2316C44.8238 14.1021 41.8641 17.625 38.171 15.9418C37.6775 15.7155 37.1966 15.4629 36.7304 15.185C36.6199 16.4733 36.8314 17.7688 37.3459 18.9558C36.6433 18.7185 36.0368 18.2607 35.6173 17.6511C35.221 17.1048 34.973 16.4659 34.8972 15.7961C34.8215 15.1264 34.9207 14.4485 35.1851 13.8281V13.8281Z" fill="#292C3D"/>
<path d="M46.25 9.40523C46.9503 8.82235 47.8058 8.45513 48.712 8.34837C49.3903 8.24552 50.0838 8.3593 50.6931 8.67339C51.3025 8.98748 51.7963 9.48576 52.1039 10.0968C52.5854 10.8409 52.9891 11.6323 53.3087 12.4584C53.8474 13.7168 54.1279 15.0699 54.1338 16.4379C54.1908 17.9294 53.8947 19.4134 53.2694 20.7697C52.667 21.9701 51.2003 23.6402 50.1526 23.6272C49.7466 23.6272 48.2537 21.2786 48.0965 20.5871C47.9394 19.8955 48.2537 19.7781 48.6334 19.2823C49.3013 18.4864 49.8776 17.1947 48.8692 16.4118C47.4286 15.3028 46.0535 16.5814 46.25 18.8126C46.25 18.8126 46.0404 20.1174 45.6083 20.1174C45.1761 20.1174 41.3651 15.0679 46.25 9.40523Z" fill="#292C3D"/>
<path d="M77.7477 63.6452C77.7477 63.6452 70.8723 71.0302 52.7474 65.9416C52.2723 62.8669 51.4235 59.8613 50.2198 56.9908C48.2947 52.5546 45.1779 43.8388 44.5624 39.1025C43.8683 33.766 46.5268 31.0129 46.5268 31.0129C46.5268 31.0129 49.9448 33.5442 54.1094 29.2515C57.1128 29.8158 59.95 31.0473 62.41 32.8544C64.87 34.6615 66.8896 36.9978 68.3186 39.6896C73.557 49.097 77.7477 63.6452 77.7477 63.6452Z" fill="#FF4C6B"/>
<path d="M52.8482 36.91C52.8482 36.6882 52.966 36.4534 53.0184 36.2185C57.3532 38.3322 56.8032 42.5075 55.7686 48.7965C54.9566 53.6372 52.6386 61.2831 52.1672 62.9923C51.687 60.9407 51.0342 58.9329 50.2158 56.9904C49.3253 54.9419 48.186 51.9801 47.1514 48.9269C48.6719 46.6073 49.8784 44.0979 50.7397 41.4637C51.2897 39.8849 52.4029 38.541 52.8482 36.91Z" fill="#DA395B"/>
<path d="M23.2277 47.4135L7.99705 38.3584C4.54033 41.9416 2.08432 46.3632 0.872803 51.1843L18.1596 59.2478C18.1596 59.2478 20.8574 52.9196 23.2277 47.4135Z" fill="#515151"/>
<path d="M11.4561 53.0772C15.2954 51.9091 18.5448 49.3295 20.5448 45.8618L23.2295 47.4667C20.8591 52.9728 18.1613 59.3009 18.1613 59.3009L5.5498 53.4164C7.51788 53.769 9.54178 53.6528 11.4561 53.0772V53.0772Z" fill="#515151"/>
<path d="M23.2799 56.7427C22.5168 56.8469 21.7396 56.7479 21.0274 56.4557C20.7216 56.2753 20.3836 56.1556 20.0321 56.1034C19.6336 56.0402 19.2429 55.9353 18.8665 55.7902C18.4924 55.6257 18.0813 55.5627 17.6748 55.6076C17.1903 55.7381 17.6748 56.1947 17.9891 56.4557C18.3034 56.7166 19.8356 56.7688 19.9535 57.2516C20.0714 57.7343 18.2772 57.5908 17.9236 57.5517C17.0724 57.4603 16.8105 56.8993 16.1688 56.4687C15.8021 56.2208 15.5533 56.2208 15.5794 56.7427C15.6056 57.2646 15.9592 57.3821 16.2342 57.6039C16.8164 58.0811 17.5101 58.4043 18.251 58.5433C17.5523 58.454 16.8793 58.2231 16.2735 57.8648C15.933 57.6691 14.6103 56.5601 14.2436 57.082C13.5234 58.1127 17.1248 59.5871 17.832 59.5479C17.1305 59.4657 16.4458 59.2765 15.8021 58.9869C15.4092 58.8303 14.4925 58.4259 14.6496 59.1565C14.8723 60.2395 17.1379 60.2395 18.1594 60.4613C17.4892 60.5122 16.8152 60.4727 16.1557 60.3439C15.2651 60.2395 15.5009 60.9179 16.3914 61.1789C16.7712 61.2833 17.5438 61.3746 17.701 61.4007C19.1936 61.5705 20.7004 61.24 21.9834 60.4613C22.5334 60.1873 23.843 60.2656 24.0526 59.7698C24.4585 58.7651 23.6073 57.6039 23.2799 56.7427Z" fill="#F9A57E"/>
<path d="M22.9233 56.1437L22.478 61.2453C22.478 61.2453 44.4401 62.9937 46.9545 61.4019C49.174 59.8147 50.771 57.5087 51.4727 54.8781C53.0704 50.22 59.3303 37.355 53.6859 35.3979C51.9179 34.7846 49.5738 34.7977 48.4475 37.1071C45.8283 42.3262 42.9602 53.769 42.2138 54.2518C41.1006 54.9955 22.9233 56.1437 22.9233 56.1437Z" fill="#FF4C6B"/>
<path d="M136.906 167.386C136.906 167.386 139.637 175.378 141.248 178.951C150.216 198.725 133.616 196.202 127.31 195.266C121.004 194.329 113.806 191.955 114.195 186.863C114.469 183.438 116.571 183.004 117.428 181.84C118.285 180.675 116.617 178.791 117.348 175.937C118.079 173.083 122.843 172.512 123.78 171.724C124.717 170.937 126.624 168.756 125.699 164.635C124.774 160.513 124.362 158.298 127.036 155.604C129.709 152.91 133.89 154.086 133.89 154.086L136.906 167.386Z" fill="#292C3D"/>
<path d="M168.511 198.852C167.909 198.462 165.571 199.561 163.884 200.021C162.44 200.28 160.964 200.394 159.487 200.361C159.443 201.033 159.334 201.701 159.162 202.359C160.046 202.446 160.934 202.496 161.824 202.509C162.668 202.509 164.234 202.289 164.788 202.199C165.423 202.064 166.095 202.125 166.68 202.369C168.559 203.668 169.607 203.758 169.86 203.298C169.86 203.218 168.378 202.109 167.884 201.66C168.704 202.279 170.728 203.498 171.149 203.118C171.571 202.739 169.583 201.4 168.74 200.82C169.583 201.42 171.752 202.919 172.27 202.819C173.752 202.499 169.113 199.242 168.511 198.852Z" fill="#F9A57E"/>
<path d="M176.389 202.594H153.419V205.463H176.389V202.594Z" fill="#292C3D"/>
<path d="M161.076 199.371L160.283 202.594C160.283 202.594 149.79 201.463 146.21 199.88C142.631 198.297 139.063 190.029 139.063 190.029L141.791 179.646C141.791 179.646 147.073 193.218 148.915 194.87C150.757 196.521 161.076 199.371 161.076 199.371Z" fill="#FF4C6B"/>
<path d="M202.993 163.392H159.355C158.191 163.392 157.248 164.337 157.248 165.503V191.877C157.248 193.043 158.191 193.989 159.355 193.989H202.993C204.157 193.989 205.101 193.043 205.101 191.877V165.503C205.101 164.337 204.157 163.392 202.993 163.392Z" fill="#93EAF3"/>
<path d="M159.837 191.879V165.502C159.837 164.942 160.068 164.405 160.48 164.01C160.892 163.614 161.451 163.392 162.033 163.392H159.443C158.861 163.392 158.302 163.614 157.891 164.01C157.479 164.405 157.248 164.942 157.248 165.502V191.879C157.248 192.438 157.479 192.975 157.891 193.371C158.302 193.767 158.861 193.989 159.443 193.989H162.033C161.451 193.989 160.892 193.767 160.48 193.371C160.068 192.975 159.837 192.438 159.837 191.879Z" fill="#292C3D"/>
<path d="M181.884 201.638C181.884 201.638 182.866 192.235 178.6 189.038C178.6 189.038 177.617 188.248 179.224 187.33C180.831 186.411 185.248 185.354 186.762 188.108C188.277 190.863 189.271 195.687 188.635 201.638H181.884Z" fill="#292C3D"/>
<path d="M122.793 223.63H119.922V276.219H122.793V223.63Z" fill="#AFEAF0"/>
<path d="M159.162 223.63H157.248V276.219H159.162V223.63Z" fill="#AFEAF0"/>
<path d="M164.904 220.761H115.137V225.542H164.904V220.761Z" fill="#292C3D"/>
<path d="M142.025 252.315C142.025 252.315 137.116 256.857 137.149 257.511C137.183 258.165 145.547 273.302 147.001 273.35C148.455 273.397 148.801 270.781 148.567 269.783C148.332 268.784 145.637 254.325 145.637 254.325L142.025 252.315Z" fill="#292C3D"/>
<path d="M134.459 255.183C134.459 255.183 129.446 259.77 129.493 260.355C129.54 260.94 138.78 275.263 140.306 275.263C141.832 275.263 142.114 272.717 141.844 271.823C141.574 270.928 138.322 257.041 138.322 257.041L134.459 255.183Z" fill="#292C3D"/>
<path d="M138.065 205.326C138.065 205.326 144.512 208.352 151.924 211.207C156.63 213.018 163.205 215.391 162.984 220.377C162.833 224.011 148.009 259.008 148.009 259.008L141.283 255.684C141.283 255.684 153.609 226.223 153.388 224.229C153.168 222.234 151.75 224 139.552 222.911C127.353 221.822 123.67 219.529 123.752 213.82C123.833 208.112 127.028 200.133 131.954 198.104C136.88 196.075 138.065 205.326 138.065 205.326Z" fill="#4D505E"/>
<path d="M137.952 205.258C137.952 205.258 140.396 208.328 147.75 211.169C152.418 212.972 158.216 216.269 158.205 219.441C158.205 223.058 144.511 257.096 144.511 257.096L141.145 255.418C141.145 255.418 153.375 226.094 153.156 224.108C152.937 222.123 151.531 223.88 139.428 222.796C127.325 221.712 123.671 219.43 123.752 213.748C123.832 208.065 127.002 200.124 131.889 198.104C136.777 196.084 137.952 205.258 137.952 205.258Z" fill="#3D3848"/>
<path d="M134.197 200.682C134.197 200.682 136.162 208.771 140.852 210.759C145.542 212.747 156.302 214.884 156.29 220.004C156.29 223.667 140.232 259.964 140.232 259.964L132.045 256.151C132.045 256.151 142.91 226.787 142.571 224.776C142.232 222.766 143.378 223.759 131.086 223.02C118.794 222.28 117.121 219.969 117.051 214.214C116.981 208.459 124.513 200.682 124.513 200.682C126.047 200.051 127.693 199.726 129.355 199.726C131.017 199.726 132.663 200.051 134.197 200.682V200.682Z" fill="#4D505E"/>
<path d="M137.831 166.298C137.831 166.298 135.901 174.007 139.483 177.953C139.483 177.953 144.263 184.223 136.726 185.3C129.19 186.377 130.167 176.728 130.167 176.728C130.167 176.728 131.458 166.083 129.493 161.479C129.493 161.479 134.401 164.11 137.831 166.298Z" fill="#E76F59"/>
<path d="M132.734 154.935C132.734 154.935 142.82 155.459 142.888 158.023C142.956 160.587 142.037 162.265 142.366 164.502C143.092 169.326 140.369 174.617 139.178 174.838C137.329 175.176 131.066 172.345 130.101 168.441C129.137 164.537 128.876 153.373 132.734 154.935Z" fill="#F9A57E"/>
<path d="M142.151 200.334C142.151 200.334 144.291 200.586 144.74 200.586C145.188 200.586 151.113 197.425 151.746 197.853C152.379 198.281 158.385 202.244 158.201 203.067C158.016 203.89 156.348 203.374 153.161 200.806C153.161 200.806 157.407 203.671 156.613 204.362C155.819 205.054 152.103 201.849 152.103 201.849C152.103 201.849 155.923 204.571 155.014 205.141C154.105 205.712 150.734 202.507 150.734 202.507C150.734 202.507 153.368 204.944 153.035 205.35C152.701 205.756 150.998 205.054 149.181 203.44C149.181 203.44 148.847 203.265 147.881 203.758C146.914 204.252 140.978 203.297 140.978 203.297L142.151 200.334Z" fill="#F9A57E"/>
<path d="M143.696 163.155C143.696 163.155 136.805 164.861 134.557 159.112C132.776 154.561 133.444 154.016 133.444 154.016C133.444 154.016 137.251 150.797 141.726 155.166C144.664 158.035 143.696 163.155 143.696 163.155Z" fill="#292C3D"/>
<path d="M133.861 153.83C133.861 153.83 137.66 157.209 135.559 160.425C133.653 163.313 134.912 164.868 134.508 166.82C134.234 166.693 133.989 166.508 133.79 166.278C133.591 166.049 133.442 165.779 133.353 165.487C133.157 164.587 132.868 162.295 131.668 162.634C130.467 162.973 129.358 164.458 131.668 166.364C132.018 167.108 132.169 167.932 132.104 168.753C132.039 169.574 131.761 170.364 131.298 171.041C131.298 171.041 125.167 165.709 126.945 159.711C128.723 153.713 133.861 153.83 133.861 153.83Z" fill="#292C3D"/>
<path d="M138.744 176.817C138.744 176.817 139.234 180.556 137.848 181.23C136.463 181.903 131.556 174.866 131.556 174.866C131.556 174.866 124.869 177.595 123.352 178.791C121.836 179.987 124.045 191.438 124.045 191.438C124.045 191.438 119.388 205.176 119.973 208.115C120.558 211.053 140.917 207.546 140.917 207.546C140.917 207.546 142.876 193.528 143.64 191.438C144.404 189.347 145.371 188.116 144.392 185.085C143.007 180.8 142.637 179.708 142.637 179.708C141.457 178.603 140.151 177.633 138.744 176.817V176.817Z" fill="#FF4C6B"/>
<path d="M126.409 188.977C124.919 186.951 125.815 183.581 124.244 181.496C123.766 180.872 123.278 180.259 122.777 179.646C122.393 183.004 123.941 191.18 123.941 191.18C123.941 191.18 119.401 205.117 119.972 208.098C120.542 211.078 140.389 207.52 140.389 207.52C140.389 207.52 142.077 194.997 142.892 191.71C142.379 192.476 138.364 197.424 133.963 196.729C131.414 196.352 129.377 193.053 126.409 188.977Z" fill="#DA395B"/>
<path d="M129.961 164.348C129.961 164.348 129.835 165.805 131.106 166.136C131.633 166.279 131.587 167.869 132.011 169.447C132.813 172.493 132.298 174.557 129.95 175.44C127.553 176.111 125.269 177.111 123.169 178.409C120.454 180.241 122.195 172.603 125.62 170.683C129.045 168.763 129.961 164.348 129.961 164.348Z" fill="#292C3D"/>
<path d="M192.389 205.462H177.604C177.397 205.466 177.193 205.421 177.012 205.33C176.83 205.24 176.678 205.107 176.569 204.945C176.459 204.783 176.398 204.598 176.39 204.407C176.381 204.217 176.427 204.027 176.522 203.858L177.402 202.254C177.5 202.069 177.652 201.913 177.841 201.804C178.03 201.695 178.248 201.638 178.471 201.638H191.545C191.768 201.638 191.986 201.695 192.175 201.804C192.364 201.913 192.517 202.069 192.615 202.254L193.482 203.858C193.578 204.028 193.623 204.218 193.615 204.41C193.606 204.601 193.543 204.788 193.433 204.95C193.322 205.112 193.168 205.245 192.985 205.335C192.801 205.424 192.596 205.468 192.389 205.462Z" fill="#292C3D"/>
<path d="M213.714 205.463H88.3391V209.288H213.714V205.463Z" fill="#7695A8"/>
<path d="M94.0813 207.375H93.1243V276.219H94.0813V207.375Z" fill="#7695A8"/>
<path d="M209.886 207.375H207.972V276.219H209.886V207.375Z" fill="#7695A8"/>
<path d="M143.849 200.25L143.488 204.441C143.488 204.441 119.069 204.692 115.383 204.213C111.697 203.735 110.039 198.815 112.418 194.486C114.797 190.158 121.865 178.939 124.954 178.7C128.043 178.461 129.824 182.721 127.265 187.345C124.706 191.969 120.084 196.457 121.087 197.186C122.091 197.915 143.849 200.25 143.849 200.25Z" fill="#FF4C6B"/>
<path d="M242.777 5.62451H192.308C190.916 5.62451 189.788 6.74521 189.788 8.12765V40.4118C189.788 41.7942 190.916 42.9149 192.308 42.9149H242.777C244.169 42.9149 245.297 41.7942 245.297 40.4118V8.12765C245.297 6.74521 244.169 5.62451 242.777 5.62451Z" fill="#0254E4"/>
<path d="M242.426 8.49316H192.659V40.0466H242.426V8.49316Z" fill="#C0FFE1"/>
<path d="M213.714 18.0547V29.5287L225.199 23.7882L213.714 18.0547Z" fill="#FF4C6B"/>
<path d="M519.304 161.479H512.474C512.474 161.479 511.48 170.627 509.707 171.713C509.707 171.713 507.506 182.515 515.895 182.515C526.046 182.515 522.084 171.713 522.084 171.713C520.298 170.676 519.304 161.479 519.304 161.479Z" fill="#E76F59"/>
<path d="M524.552 163.325C523.642 162.283 522.55 163.882 522.55 163.882C522.55 163.882 524.055 157.947 522.55 155.404C521.046 152.861 516.144 154.193 516.144 154.193C516.144 154.193 511.29 152.824 509.749 155.404C508.208 157.984 509.749 163.882 509.749 163.882C509.749 163.882 508.645 162.283 507.735 163.325C506.825 164.366 509.24 166.958 509.798 167.345C509.798 167.345 513.317 173.91 516.144 173.91C518.971 173.91 522.502 167.345 522.502 167.345C523.048 167.018 525.475 164.378 524.552 163.325Z" fill="#F9A57E"/>
<path d="M515.189 156.751C515.189 156.751 511.345 157.38 510.917 159.292C510.788 160.243 510.857 161.209 511.119 162.136C511.325 163.175 511.435 164.228 511.446 165.284C511.363 165.306 511.275 165.31 511.19 165.296C511.105 165.282 511.025 165.25 510.955 165.202C510.456 164.784 510.031 164.296 509.695 163.757C508.964 162.766 507.905 162.929 507.603 163.559C507.603 163.559 506.746 154.233 510.993 153.86C515.239 153.487 515.189 156.751 515.189 156.751Z" fill="#292C3D"/>
<path d="M517.103 156.751C517.103 156.751 520.889 157.38 521.382 159.292C521.506 160.244 521.433 161.209 521.167 162.136C520.96 163.175 520.85 164.228 520.839 165.284C520.924 165.306 521.014 165.31 521.101 165.296C521.189 165.282 521.271 165.25 521.344 165.202C521.837 164.778 522.262 164.291 522.606 163.757C523.338 162.766 524.385 162.929 524.688 163.558C524.688 163.558 525.547 154.233 521.306 153.86C517.065 153.487 517.103 156.751 517.103 156.751Z" fill="#292C3D"/>
<path d="M522.581 154.416C522.56 153.876 522.384 153.351 522.075 152.901C521.765 152.452 521.334 152.094 520.827 151.868C519.506 151.271 518.066 150.962 516.609 150.962C515.152 150.962 513.712 151.271 512.39 151.868C509.484 153.285 508.601 153.606 507.755 153.13C506.909 152.654 507.436 152.189 507.436 152.189C507.436 152.189 505.535 152.189 505.621 155.048C505.707 157.906 509.3 161.479 514.107 161.479C521.355 161.479 523.697 156.56 522.581 154.416Z" fill="#292C3D"/>
<path d="M522.061 171.997C521.713 180.925 516.134 180.001 516.134 180.001C516.134 180.001 510.567 180.925 510.23 171.997C510.23 171.997 501.333 174.397 497.005 177.349C498.185 182.757 498.842 188.267 498.964 193.801L504.026 213.468L516.122 214.068L528.229 213.468L533.315 193.801C533.442 188.266 534.102 182.757 535.287 177.349C530.959 174.457 522.061 171.997 522.061 171.997Z" fill="#AFEAF0"/>
<path d="M532.241 182.692C526.621 185.615 523.884 192.344 518.435 195.648C512.778 199.06 508.783 192.165 506.034 188.586C503.747 185.473 500.622 183.041 497.005 181.559C497.727 185.643 498.136 189.775 498.226 193.918L503.346 213.472L515.637 214.068L527.94 213.472L533.108 193.918C533.204 189.838 533.613 185.771 534.33 181.75C533.585 182.048 532.888 182.358 532.241 182.692Z" fill="#5AC4E0"/>
<path d="M538.158 221.646C538.158 214.766 529.599 210.244 529.599 210.244H500.79C500.79 210.244 492.219 214.766 492.219 221.646C492.311 223.432 492.544 225.208 492.915 226.958H502.519C502.134 227.664 501.774 228.31 501.498 228.86C501.414 229.028 501.318 229.183 501.234 229.339H508.184C508.701 229.339 509.697 229.554 509.553 228.789C509.337 227.7 508.665 227.078 509.325 225.917C509.667 225.442 510.11 225.048 510.623 224.762C511.135 224.477 511.704 224.307 512.29 224.266C512.514 224.254 512.738 224.254 512.962 224.266C514.463 224.266 515.963 224.266 517.476 224.266C518.04 224.297 518.6 224.39 519.144 224.541C519.636 224.625 520.272 224.625 520.549 225.116C520.825 225.804 520.995 226.53 521.053 227.269C521.056 227.962 521.004 228.654 520.897 229.339H530.644C530.038 228.574 529.477 227.775 528.963 226.946H537.474C537.842 225.2 538.071 223.428 538.158 221.646V221.646Z" fill="#0254E4"/>
<g style="mix-blend-mode:multiply" opacity="0.65">
<path d="M538.158 221.663C538.158 214.773 529.599 210.244 529.599 210.244H500.79C500.79 210.244 492.219 214.773 492.219 221.663C492.311 223.451 492.544 225.23 492.915 226.983H502.519C502.134 227.689 501.774 228.336 501.498 228.888C501.414 229.055 501.318 229.211 501.234 229.367H509.541C509.757 229.367 509.205 228.169 509.157 228.061C508.947 227.616 508.897 227.113 509.013 226.635C509.205 226.129 509.533 225.685 509.961 225.353C511.417 224.387 513.174 223.983 514.907 224.215C516.563 224.215 518.376 224.035 519.816 225.005C520.098 225.17 520.349 225.381 520.561 225.629C521.557 226.827 521.041 228.025 520.897 229.367H530.644C530.038 228.601 529.477 227.801 528.963 226.971H537.474C537.842 225.222 538.071 223.447 538.158 221.663V221.663Z" fill="#00A1CC"/>
</g>
<path d="M496.509 177.735C496.509 177.735 485.74 201.273 486.517 204.403C486.717 205.188 499.816 213.197 505.982 212.042L508.489 211.578C508.489 211.578 499.333 177.568 496.509 177.735Z" fill="#AFEAF0"/>
<path d="M535.346 177.735C535.346 177.735 546.594 201.273 545.772 204.403C545.563 205.188 531.895 213.197 525.461 212.042L522.845 211.578C522.845 211.578 532.387 177.568 535.346 177.735Z" fill="#AFEAF0"/>
<path d="M500.852 185.384C500.841 186.568 500.705 187.748 500.448 188.901C499.513 193.245 498.048 197.784 499.594 202.202C500.927 205.646 502.52 208.971 504.359 212.145C504.918 212.176 505.479 212.143 506.032 212.047L508.489 211.573C508.489 211.573 504.382 195.63 500.852 185.384Z" fill="#5AC4E0"/>
<path d="M529.183 211.961C530.043 209.993 530.46 207.87 530.404 205.733C530.257 201.419 530.233 197.105 530.306 192.732C530.306 190.865 530.392 189.057 530.502 187.296C526.838 197.235 522.845 211.571 522.845 211.571L525.446 212.032C526.687 212.219 527.951 212.195 529.183 211.961V211.961Z" fill="#5AC4E0"/>
<path d="M504.911 263.264C504.911 263.264 497.997 271.312 497.187 273.025C496.376 274.737 498.379 276.892 501.049 276.018C503.719 275.144 505.316 273.339 505.364 272.198C505.411 271.056 506.842 270.439 507.474 270.346C508.105 270.252 511.693 266.269 511.336 265.162C510.978 264.056 509.178 262.833 509.178 262.833L504.911 263.264Z" fill="#292C3D"/>
<path d="M525.898 263.264C525.898 263.264 533.271 271.312 534.136 273.025C535 274.737 532.864 276.892 530.017 276.018C527.169 275.144 525.466 273.339 525.415 272.198C525.364 271.056 523.838 270.439 523.164 270.346C522.491 270.252 518.651 266.269 519.045 265.162C519.44 264.056 521.346 262.833 521.346 262.833L525.898 263.264Z" fill="#292C3D"/>
<path d="M490.305 228.411H488.391V276.219H490.305V228.411Z" fill="#AFEAF0"/>
<path d="M542.943 228.411H541.03V276.219H542.943V228.411Z" fill="#AFEAF0"/>
<path d="M545.815 224.586H483.606V230.323H545.815V224.586Z" fill="#292C3D"/>
<path d="M507.575 221.218C506.729 219.235 506.557 215.025 500.858 215.025C489.826 215.025 492.437 223.711 492.608 225.017C494.263 237.961 502.243 263.789 502.243 263.789H513.275C513.275 263.789 509.279 232.142 508.654 227.255C508.481 225.215 508.12 223.194 507.575 221.218V221.218Z" fill="#0254E4"/>
<path d="M523.489 221.218C524.308 219.235 524.472 215.025 529.913 215.025C540.443 215.025 537.951 223.711 537.787 225.017C536.196 237.961 528.59 263.789 528.59 263.789H518.06C518.06 263.789 521.874 232.142 522.471 227.255C522.637 225.216 522.977 223.196 523.489 221.218V221.218Z" fill="#0254E4"/>
<path d="M531.459 212.156H499.876V214.068H531.459V212.156Z" fill="#292C3D"/>
<path d="M536.253 190.164H495.105C494.804 190.162 494.507 190.23 494.237 190.363C493.968 190.496 493.734 190.689 493.554 190.928C493.374 191.167 493.254 191.444 493.204 191.737C493.153 192.03 493.173 192.33 493.262 192.614C493.647 195.053 498.829 212.156 499.877 212.156H531.458C532.373 212.156 537.687 195.053 538.073 192.614C538.161 192.332 538.181 192.034 538.132 191.743C538.082 191.451 537.964 191.176 537.788 190.937C537.611 190.699 537.38 190.505 537.113 190.371C536.847 190.237 536.552 190.166 536.253 190.164Z" fill="#292C3D"/>
<path d="M518.06 202.106C518.063 202.391 517.952 202.669 517.743 202.907C517.534 203.144 517.235 203.33 516.885 203.439C516.534 203.549 516.148 203.579 515.776 203.524C515.403 203.469 515.061 203.332 514.792 203.131C514.524 202.929 514.341 202.673 514.268 202.394C514.194 202.115 514.233 201.825 514.38 201.563C514.527 201.3 514.774 201.076 515.091 200.92C515.408 200.763 515.78 200.68 516.159 200.682C516.663 200.682 517.147 200.832 517.503 201.099C517.86 201.366 518.06 201.729 518.06 202.106V202.106Z" fill="white"/>
<path d="M381.265 28.5158H356.954L343.929 39.0903L349.781 28.5158H343.809C343.319 28.5158 342.849 28.3222 342.502 27.9776C342.155 27.633 341.96 27.1657 341.96 26.6783V2.6812C341.96 2.19388 342.155 1.72652 342.502 1.38193C342.849 1.03734 343.319 0.84375 343.809 0.84375H381.265C381.756 0.84375 382.226 1.03734 382.573 1.38193C382.919 1.72652 383.114 2.19388 383.114 2.6812V26.66C383.116 26.9028 383.07 27.1437 382.979 27.3688C382.887 27.5938 382.751 27.7986 382.579 27.9711C382.407 28.1437 382.203 28.2807 381.977 28.3742C381.752 28.4677 381.51 28.5158 381.265 28.5158Z" fill="black"/>
<path d="M365.887 12.1385C365.887 14.5457 363.113 15.2581 363.113 16.192V16.5655H360.333V15.6524C360.333 14.3589 362.447 13.6188 362.447 12.1938C362.455 12.0346 362.434 11.8751 362.384 11.7252C362.334 11.5753 362.256 11.4381 362.156 11.3221C362.055 11.2062 361.934 11.1138 361.8 11.0508C361.665 10.9878 361.52 10.9554 361.374 10.9557C360.492 10.9557 360.314 11.7027 360.314 12.4429C360.304 12.6018 360.304 12.7612 360.314 12.9202H357.324C357.324 12.6919 357.273 12.4775 357.273 12.2284C357.273 9.92502 359.178 8.49316 361.717 8.49316C364.256 8.49316 365.887 9.94577 365.887 12.1385ZM363.348 20.9233H360.13V17.6446H363.348V20.9233Z" fill="white"/>
<path d="M348.844 220.758C346.042 219.584 344.012 218.592 344.496 214.143C344.547 213.203 344.797 212.283 345.228 211.445C345.658 210.606 346.262 209.868 346.998 209.276C347.569 208.939 348.064 208.486 348.45 207.946C348.835 207.407 349.103 206.794 349.237 206.145C349.813 203.535 349.08 201.396 350.337 199.008C351.594 196.62 354.567 196.724 355.916 194.35C357.068 192.288 357.605 190.018 360.238 189.222C360.686 189.046 361.178 189.01 361.648 189.121C362.117 189.232 362.541 189.484 362.862 189.842C363.183 190.201 363.386 190.649 363.444 191.126C363.501 191.603 363.411 192.086 363.184 192.51C362.526 193.618 361.944 194.768 361.443 195.955C361.373 196.5 361.418 197.054 361.573 197.582C361.729 198.109 361.992 198.599 362.346 199.021C363.747 201.409 364.455 204.24 361.757 206.719C360.133 208.18 358.902 209.433 359.714 211.821C360.644 214.548 361.115 216.218 358.64 218.618C356.78 220.419 355.065 220.276 352.982 220.406C351.11 220.537 348.674 221.332 347.155 220.093L348.844 220.758Z" fill="#8494AB"/>
<path d="M342.87 220.678C340.866 222.818 339.151 224.501 336.191 221.983C335.455 221.365 334.878 220.581 334.509 219.695C334.14 218.81 333.989 217.85 334.069 216.894C334.069 215.146 334.213 214.35 333.126 212.98C331.411 210.866 328.949 210.109 327.888 207.396C326.696 204.46 329.368 202.581 328.399 199.958C327.561 197.662 325.976 195.522 327.482 193.552C328.713 191.934 331.254 192.9 332.21 194.752C332.574 195.871 333.012 196.965 333.519 198.027C334.184 198.838 335.109 199.395 336.138 199.606C338.325 200.389 340.29 201.72 340.473 204.512C340.578 206.234 340.748 207.657 342.398 208.426C344.048 209.196 345.109 209.731 345.437 212.341C345.569 214.01 345.19 215.679 344.35 217.129C343.695 218.682 343.145 221.043 341.73 221.996L342.87 220.678Z" fill="#0254E4"/>
<path d="M350.899 217.888H350.637C350.58 217.882 350.528 217.854 350.492 217.81C350.455 217.766 350.437 217.71 350.44 217.653C350.442 217.625 350.449 217.598 350.462 217.572C350.475 217.547 350.494 217.525 350.516 217.508C350.538 217.491 350.564 217.478 350.592 217.472C350.62 217.465 350.648 217.465 350.676 217.471C352.064 217.614 353.505 216.349 354.291 215.227C354.808 214.422 354.991 213.449 354.801 212.513V211.665C354.67 209.46 354.553 207.568 356.268 205.832C357.102 205.144 357.747 204.257 358.144 203.253C358.54 202.249 358.674 201.161 358.534 200.091V199.413C358.46 198.543 358.482 197.668 358.599 196.803C358.711 196.348 358.883 195.909 359.11 195.499C359.393 195.01 359.571 194.468 359.634 193.907C359.634 193.851 359.656 193.798 359.695 193.759C359.735 193.72 359.788 193.698 359.843 193.698V193.698C359.899 193.698 359.952 193.72 359.992 193.759C360.031 193.798 360.053 193.851 360.053 193.907C359.998 194.532 359.805 195.138 359.49 195.681C359.279 196.063 359.12 196.471 359.018 196.895C358.913 197.735 358.913 198.585 359.018 199.426C359.018 199.661 359.018 199.896 359.018 200.117C359.163 201.245 359.02 202.39 358.604 203.448C358.187 204.506 357.51 205.443 356.635 206.172C355.05 207.763 355.155 209.499 355.325 211.678V212.526C355.529 213.558 355.323 214.63 354.749 215.514C354.326 216.171 353.761 216.726 353.095 217.137C352.428 217.548 351.678 217.805 350.899 217.888Z" fill="white"/>
<path d="M355.709 212.043C355.537 212.036 355.37 211.992 355.218 211.913C355.066 211.834 354.934 211.722 354.831 211.586C354.795 211.543 354.777 211.487 354.782 211.431C354.787 211.374 354.814 211.322 354.857 211.286C354.901 211.25 354.957 211.232 355.013 211.237C355.07 211.242 355.122 211.269 355.158 211.312C355.234 211.425 355.342 211.513 355.468 211.564C355.594 211.615 355.733 211.627 355.866 211.599C356.756 211.377 357.725 209.486 357.882 208.781C358.341 206.68 358.891 205.61 360.947 204.867C360.999 204.846 361.057 204.847 361.109 204.869C361.16 204.891 361.201 204.932 361.222 204.984C361.243 205.036 361.242 205.094 361.22 205.145C361.198 205.197 361.156 205.237 361.104 205.258C359.127 206.015 358.707 206.993 358.288 208.911C358.157 209.538 357.162 211.756 355.97 212.043C355.884 212.057 355.795 212.057 355.709 212.043V212.043Z" fill="white"/>
<path d="M342.99 219.61C342.602 219.614 342.219 219.519 341.877 219.336C340.397 218.566 339.716 216.283 339.114 214.274C338.896 213.401 338.589 212.553 338.197 211.742C337.323 210.128 336.069 208.749 334.544 207.724C333.676 207.17 332.955 206.416 332.442 205.526C331.929 204.635 331.639 203.635 331.597 202.609C331.455 200.77 330.9 198.986 329.973 197.39C329.953 197.37 329.937 197.347 329.926 197.321C329.915 197.295 329.909 197.268 329.909 197.24C329.909 197.212 329.915 197.184 329.926 197.158C329.937 197.133 329.953 197.109 329.973 197.09C329.993 197.07 330.016 197.054 330.042 197.043C330.068 197.032 330.096 197.026 330.124 197.026C330.152 197.026 330.18 197.032 330.205 197.043C330.231 197.054 330.255 197.07 330.274 197.09C331.249 198.751 331.831 200.612 331.977 202.531C332.005 203.503 332.273 204.453 332.758 205.297C333.242 206.141 333.927 206.853 334.753 207.371C336.321 208.442 337.617 209.863 338.538 211.52C338.933 212.359 339.248 213.233 339.481 214.13C340.057 216.061 340.712 218.24 342.034 218.932C342.304 219.068 342.6 219.146 342.902 219.162C343.204 219.177 343.507 219.13 343.789 219.023C343.841 219.006 343.898 219.011 343.947 219.035C343.996 219.059 344.033 219.102 344.051 219.153C344.061 219.18 344.065 219.208 344.063 219.236C344.061 219.265 344.053 219.292 344.04 219.317C344.026 219.342 344.007 219.363 343.984 219.38C343.961 219.397 343.935 219.409 343.907 219.414C343.615 219.53 343.305 219.596 342.99 219.61Z" fill="white"/>
<path d="M336.48 209.237C336.437 209.249 336.392 209.249 336.349 209.237C336.311 209.196 336.29 209.142 336.29 209.087C336.29 209.031 336.311 208.978 336.349 208.937C336.978 208.141 336.598 206.862 336.192 205.518C335.746 204.455 335.606 203.29 335.786 202.152C335.806 202.099 335.846 202.055 335.896 202.029C335.947 202.002 336.005 201.995 336.061 202.008C336.114 202.029 336.156 202.069 336.181 202.12C336.205 202.171 336.209 202.229 336.192 202.282C336.049 203.339 336.189 204.415 336.598 205.401C337.017 206.784 337.436 208.219 336.689 209.198C336.661 209.222 336.627 209.239 336.59 209.246C336.553 209.253 336.515 209.25 336.48 209.237V209.237Z" fill="white"/>
<path d="M338.606 212.08H338.527C338.263 211.971 338.009 211.84 337.767 211.688C337.419 211.434 337.006 211.28 336.576 211.245C336.318 211.225 336.06 211.225 335.803 211.245C335.22 211.334 334.624 211.252 334.087 211.01C332.971 210.376 331.996 209.524 331.219 208.504C331.039 208.275 330.873 208.036 330.722 207.787C330.46 207.382 329.975 206.639 329.792 206.6C329.764 206.595 329.737 206.585 329.714 206.57C329.69 206.554 329.67 206.535 329.654 206.512C329.638 206.488 329.627 206.462 329.621 206.435C329.616 206.407 329.616 206.379 329.621 206.352C329.631 206.298 329.661 206.251 329.705 206.219C329.749 206.188 329.804 206.174 329.857 206.182C330.185 206.182 330.538 206.743 331.075 207.552C331.259 207.826 331.429 208.087 331.547 208.231C332.294 209.2 333.223 210.016 334.284 210.631C334.745 210.848 335.262 210.916 335.764 210.827C336.043 210.807 336.323 210.807 336.602 210.827C337.1 210.871 337.578 211.041 337.99 211.323C338.208 211.468 338.441 211.59 338.684 211.688C338.71 211.698 338.734 211.713 338.754 211.733C338.774 211.752 338.79 211.775 338.801 211.8C338.812 211.826 338.818 211.853 338.818 211.881C338.818 211.909 338.813 211.936 338.802 211.962C338.782 211.997 338.753 212.026 338.719 212.046C338.685 212.067 338.646 212.078 338.606 212.08V212.08Z" fill="white"/>
<path d="M342.018 221.161C339.006 218.643 335.47 216.947 336.256 212.132C336.924 208.218 341.495 207.135 340.08 202.855C339.163 200.115 336.78 196.958 337.592 193.904C338.456 190.642 342.726 191.947 343.642 188.907C344.415 186.298 341.704 183.362 344.127 181.261C346.248 179.408 350.033 181.17 351.186 183.297C352.639 186.011 350.23 188.033 350.623 190.695C350.884 192.404 352.535 192.652 353.739 193.643C355.031 194.683 356.04 196.029 356.673 197.558C358.231 201.955 353.779 203.56 352.43 206.952C351.12 210.149 355.494 211.14 355.822 214.376C356.188 217.938 352.364 220.743 349.274 221.331C347.152 221.709 343.917 222.753 342.018 221.161Z" fill="#99F2A8"/>
<path d="M345.466 222.193C345.439 222.185 345.414 222.173 345.392 222.155C345.37 222.138 345.352 222.117 345.339 222.092C345.326 222.068 345.317 222.041 345.314 222.014C345.311 221.986 345.314 221.958 345.322 221.932C346.756 216.382 346.886 210.578 345.702 204.97C344.769 200.825 345.051 196.5 346.514 192.509C347.139 190.976 347.404 189.32 347.286 187.669C347.282 187.616 347.296 187.563 347.328 187.52C347.359 187.477 347.405 187.446 347.457 187.434C347.484 187.428 347.513 187.428 347.54 187.434C347.568 187.439 347.594 187.45 347.617 187.466C347.64 187.482 347.66 187.502 347.675 187.526C347.69 187.549 347.701 187.576 347.705 187.603C347.841 189.32 347.571 191.045 346.92 192.64C345.473 196.557 345.191 200.806 346.108 204.878C347.315 210.554 347.185 216.432 345.728 222.049C345.72 222.076 345.708 222.101 345.69 222.123C345.673 222.144 345.651 222.162 345.627 222.176C345.603 222.189 345.576 222.197 345.548 222.2C345.521 222.203 345.493 222.201 345.466 222.193Z" fill="white"/>
<path d="M346.002 204.918C345.951 204.918 345.901 204.9 345.863 204.866C345.824 204.833 345.799 204.786 345.793 204.735C345.789 204.708 345.791 204.68 345.798 204.653C345.805 204.626 345.818 204.601 345.835 204.58C345.852 204.558 345.873 204.539 345.897 204.526C345.922 204.512 345.948 204.504 345.976 204.5C346.944 204.339 347.84 203.886 348.542 203.203C349.245 202.519 349.72 201.638 349.905 200.677C349.905 200.442 349.905 200.195 349.905 199.921C349.983 198.616 350.075 197.05 351.018 196.28C351.274 196.086 351.569 195.947 351.882 195.873C352.196 195.798 352.522 195.791 352.838 195.85C352.887 195.862 352.929 195.889 352.96 195.928C352.991 195.967 353.007 196.015 353.007 196.065C353.007 196.114 352.991 196.163 352.96 196.202C352.929 196.241 352.887 196.268 352.838 196.28C352.578 196.224 352.31 196.224 352.05 196.281C351.79 196.337 351.545 196.448 351.332 196.606C350.546 197.259 350.455 198.746 350.376 199.947C350.376 200.221 350.376 200.482 350.376 200.716C350.18 201.774 349.661 202.745 348.889 203.497C348.118 204.249 347.133 204.745 346.068 204.918H346.002Z" fill="white"/>
<path d="M344.72 205.021C343.957 205.038 343.216 204.773 342.637 204.278C342.165 203.781 341.809 203.187 341.594 202.537C341.379 201.888 341.31 201.199 341.393 200.52C341.393 200.35 341.393 200.155 341.393 199.946C341.459 198.732 341.55 196.893 340.791 196.031C340.664 195.895 340.51 195.788 340.338 195.716C340.167 195.644 339.982 195.609 339.796 195.614C339.747 195.602 339.704 195.574 339.674 195.535C339.643 195.496 339.626 195.448 339.626 195.399C339.626 195.349 339.643 195.301 339.674 195.262C339.704 195.223 339.747 195.195 339.796 195.183V195.183C340.042 195.182 340.286 195.232 340.512 195.331C340.737 195.43 340.94 195.575 341.105 195.757C341.996 196.71 341.891 198.654 341.825 199.933C341.825 200.141 341.825 200.337 341.825 200.507C341.749 201.124 341.808 201.75 341.998 202.343C342.188 202.935 342.504 203.479 342.925 203.938C343.318 204.234 343.773 204.438 344.256 204.535C344.739 204.632 345.237 204.62 345.715 204.499C345.742 204.496 345.77 204.498 345.797 204.505C345.824 204.512 345.849 204.525 345.871 204.542C345.893 204.559 345.911 204.58 345.925 204.604C345.939 204.628 345.947 204.655 345.951 204.682C345.956 204.709 345.956 204.736 345.951 204.763C345.945 204.79 345.934 204.815 345.918 204.837C345.902 204.859 345.881 204.878 345.857 204.891C345.834 204.905 345.808 204.914 345.78 204.917C345.432 204.99 345.076 205.025 344.72 205.021Z" fill="white"/>
<path d="M347.22 218.748C346.955 218.747 346.692 218.694 346.448 218.591C346.422 218.581 346.398 218.566 346.378 218.547C346.358 218.527 346.342 218.504 346.331 218.479C346.32 218.453 346.314 218.426 346.314 218.398C346.314 218.37 346.319 218.343 346.33 218.317C346.353 218.267 346.394 218.227 346.444 218.206C346.495 218.184 346.552 218.182 346.605 218.2C347.914 218.722 349.826 217.299 350.534 216.347C350.852 215.836 351.094 215.282 351.254 214.703C351.634 213.542 352.027 212.354 353.1 212.093C353.156 212.081 353.214 212.091 353.263 212.12C353.311 212.149 353.347 212.195 353.362 212.25C353.37 212.277 353.372 212.306 353.368 212.334C353.365 212.363 353.355 212.39 353.34 212.414C353.326 212.439 353.306 212.46 353.283 212.476C353.26 212.493 353.233 212.505 353.205 212.511C352.354 212.72 352 213.816 351.66 214.846C351.489 215.476 351.219 216.075 350.861 216.621C349.971 217.774 348.665 218.537 347.22 218.748Z" fill="white"/>
<path d="M345.335 218.658C345.059 218.653 344.785 218.605 344.523 218.514C343.001 217.761 341.811 216.474 341.184 214.9C340.937 214.116 340.826 213.295 340.856 212.473C340.856 211.012 340.738 209.486 339.769 209.003C339.744 208.99 339.722 208.972 339.704 208.951C339.686 208.93 339.672 208.905 339.664 208.878C339.655 208.852 339.652 208.823 339.655 208.796C339.657 208.768 339.665 208.741 339.678 208.716C339.691 208.691 339.708 208.669 339.73 208.651C339.751 208.633 339.776 208.619 339.803 208.611C339.83 208.602 339.858 208.599 339.886 208.601C339.914 208.604 339.941 208.612 339.966 208.624C341.158 209.225 341.275 210.947 341.275 212.46C341.252 213.232 341.349 214.002 341.564 214.744C342.159 216.2 343.254 217.397 344.654 218.123C344.907 218.215 345.177 218.252 345.446 218.231C345.715 218.211 345.976 218.134 346.213 218.006C346.237 217.992 346.265 217.984 346.293 217.981C346.321 217.979 346.349 217.982 346.376 217.99C346.403 217.999 346.428 218.012 346.449 218.031C346.471 218.049 346.488 218.072 346.501 218.097C346.517 218.119 346.527 218.145 346.532 218.172C346.536 218.199 346.535 218.226 346.527 218.253C346.52 218.279 346.506 218.303 346.488 218.324C346.47 218.344 346.447 218.36 346.422 218.371C346.091 218.56 345.716 218.659 345.335 218.658V218.658Z" fill="white"/>
<path d="M331.923 219.922C330.304 224.345 329.488 229.019 329.513 233.727C329.513 248.393 336.821 260.279 345.844 260.279C354.867 260.279 362.162 248.393 362.162 233.727C362.194 229.008 361.387 224.321 359.778 219.883L331.923 219.922Z" fill="#FF4C6B"/>
<path d="M361.506 226.211C361.124 224.068 360.55 221.963 359.791 219.922H331.922C331.162 221.963 330.588 224.068 330.207 226.211H361.506Z" fill="#0254E4"/>
<defs>
<linearGradient id="paint0_linear" x1="426.587" y1="80.5659" x2="426.587" y2="247.628" gradientUnits="userSpaceOnUse">
<stop stop-color="white"/>
<stop offset="1" stop-color="white" stop-opacity="0.08"/>
</linearGradient>
<linearGradient id="paint1_linear" x1="324.581" y1="80.5659" x2="324.581" y2="247.628" gradientUnits="userSpaceOnUse">
<stop stop-color="white"/>
<stop offset="1" stop-color="white" stop-opacity="0.08"/>
</linearGradient>
<linearGradient id="paint2_linear" x1="89.0481" y1="77.1331" x2="89.0481" y2="249.917" gradientUnits="userSpaceOnUse">
<stop stop-color="white"/>
<stop offset="1" stop-color="white" stop-opacity="0.08"/>
</linearGradient>
<linearGradient id="paint3_linear" x1="208.82" y1="77.1331" x2="208.82" y2="249.917" gradientUnits="userSpaceOnUse">
<stop stop-color="white"/>
<stop offset="1" stop-color="white" stop-opacity="0.08"/>
</linearGradient>
</defs>
</svg>
