<svg width="847" height="349" viewBox="0 0 847 349" fill="none" xmlns="http://www.w3.org/2000/svg">
<path d="M514.618 315.581V148.566H592.147V176.013H555.181V213.281H582.757V241.694H555.181V288.334H592.556V315.628L514.618 315.581Z" fill="url(#paint0_linear)"/>
<path d="M400.004 315.593V148.566H444.439C456.047 148.566 465.597 149.524 473.09 151.439C480.583 153.355 486.569 156.526 491.049 160.954C495.587 165.499 498.832 171.149 500.457 177.334C502.249 183.811 503.149 191.987 503.157 201.863V262.108C503.157 272.046 502.257 280.254 500.457 286.731C498.837 292.936 495.601 298.612 491.073 303.193C486.593 307.652 480.607 310.839 473.114 312.755C465.621 314.67 456.106 315.628 444.569 315.628L400.004 315.593ZM441.31 287.39H445.176C448.001 287.47 450.824 287.181 453.573 286.53C455.454 286.089 457.115 284.999 458.259 283.457C459.298 281.999 459.993 280.329 460.293 278.57C460.639 276.085 460.79 273.577 460.745 271.069V192.69C460.791 190.197 460.64 187.705 460.293 185.236C459.993 183.531 459.296 181.918 458.259 180.525C457.087 179.042 455.43 178.01 453.573 177.605C450.818 176.996 447.997 176.727 445.176 176.804H441.31V287.39Z" fill="url(#paint1_linear)"/>
<path d="M216.939 317.909C207.364 317.909 199.188 316.645 192.41 314.118C186.11 311.924 180.544 308.024 176.334 302.852C172.293 297.681 169.367 291.73 167.74 285.375C165.831 277.678 164.929 269.767 165.056 261.839V201.282C164.931 193.326 165.837 185.388 167.752 177.664C169.384 171.311 172.31 165.361 176.346 160.187C180.553 155.016 186.12 151.119 192.422 148.933C199.192 146.406 207.368 145.142 216.951 145.142C223.724 145.039 230.482 145.833 237.047 147.504C242.19 148.769 247.05 150.988 251.374 154.046C255.112 156.844 258.227 160.386 260.523 164.45C262.884 168.586 264.572 173.07 265.523 177.735C266.572 182.94 267.083 188.238 267.048 193.547V208.592H226.644V190.205C226.644 187.785 226.573 185.848 226.443 184.395C226.258 182.683 225.901 180.994 225.379 179.353C224.931 177.598 223.876 176.059 222.4 175.007C220.868 174.112 219.136 173.611 217.362 173.549C215.588 173.487 213.826 173.866 212.234 174.653C211.05 175.283 210.03 176.181 209.255 177.275C208.489 178.513 207.956 179.882 207.683 181.313C207.352 182.781 207.115 184.268 206.974 185.765C206.879 187.041 206.82 188.564 206.82 190.312V272.751C206.82 274.499 206.82 276.034 206.974 277.345C207.11 278.842 207.363 280.327 207.73 281.785C208.047 283.21 208.594 284.574 209.35 285.824C210.102 286.945 211.133 287.852 212.341 288.457C213.922 289.219 215.666 289.581 217.421 289.511C219.175 289.441 220.885 288.941 222.4 288.055C223.88 286.987 224.935 285.431 225.379 283.663C225.898 282 226.254 280.292 226.443 278.561C226.573 277.108 226.644 275.172 226.644 272.751V253.549H267.048V268.5C267.096 273.842 266.601 279.176 265.571 284.418C264.608 289.144 262.921 293.693 260.57 297.904C258.287 302.039 255.172 305.658 251.421 308.532C247.112 311.672 242.259 313.986 237.106 315.358C230.537 317.15 223.748 318.009 216.939 317.909V317.909Z" fill="url(#paint2_linear)"/>
<path d="M360.049 314.22C353.325 316.676 345.207 317.909 335.696 317.917C326.185 317.924 318.08 316.692 311.379 314.22C305.155 312.09 299.631 308.282 295.41 303.212C291.361 298.137 288.449 292.243 286.874 285.932C285.01 278.246 284.13 270.351 284.255 262.44V200.598C284.13 192.687 285.01 184.792 286.874 177.106C288.439 170.801 291.339 164.911 295.375 159.838C299.592 154.76 305.117 150.948 311.344 148.818C318.037 146.361 326.142 145.133 335.661 145.133C345.18 145.133 353.297 146.361 360.014 148.818C366.271 150.947 371.83 154.758 376.088 159.838C380.161 164.907 383.108 170.795 384.73 177.106C386.624 184.787 387.516 192.684 387.384 200.598V262.44C387.516 270.354 386.624 278.251 384.73 285.932C383.108 292.246 380.161 298.138 376.088 303.212C371.836 308.279 366.29 312.085 360.049 314.22V314.22ZM335.696 289.523C337.611 289.603 339.504 289.092 341.121 288.058C342.575 287.006 343.634 285.492 344.127 283.759C344.688 282.086 345.081 280.361 345.301 278.609C345.482 276.694 345.564 274.77 345.548 272.846V190.098C345.564 188.173 345.482 186.25 345.301 184.334C345.084 182.597 344.691 180.887 344.127 179.231C343.627 177.519 342.568 176.025 341.121 174.991C339.504 173.958 337.611 173.447 335.696 173.527C334.083 173.475 332.486 173.859 331.07 174.637C329.928 175.258 328.947 176.14 328.205 177.212C327.475 178.456 326.981 179.826 326.749 181.251C326.459 182.649 326.275 184.066 326.197 185.491C326.197 186.672 326.197 188.137 326.197 190.098V272.846C326.197 274.735 326.197 276.247 326.197 277.393C326.272 278.838 326.456 280.275 326.749 281.692C326.981 283.118 327.475 284.488 328.205 285.732C329.046 286.936 330.17 287.912 331.477 288.573C332.784 289.235 334.234 289.561 335.696 289.523V289.523Z" fill="url(#paint3_linear)"/>
<path d="M583.092 103.824C583.092 103.824 587.453 119.481 589.64 122.09C591.828 124.7 598.808 128.431 598.808 128.431L596.948 131.706C596.948 131.706 584.219 125.183 582.006 119.964C580.845 117.355 579.967 114.63 579.386 111.835C579.033 109.904 577.592 105.076 578.312 103.158C578.797 101.866 582.084 101.188 583.092 103.824Z" fill="#0254E4"/>
<g style="mix-blend-mode:multiply" opacity="0.65">
<path d="M583.092 103.824C583.092 103.824 587.453 119.481 589.64 122.09C591.828 124.7 598.808 128.431 598.808 128.431L596.948 131.706C596.948 131.706 584.219 125.183 582.006 119.964C580.845 117.355 579.967 114.63 579.386 111.835C579.033 109.904 577.592 105.076 578.312 103.158C578.797 101.866 582.084 101.188 583.092 103.824Z" fill="#00A1CC"/>
</g>
<path d="M626.767 178.599L629.975 175.611C629.975 175.611 642.822 174.672 643.582 175.794C644.341 176.916 631.39 182.996 629.739 182.879C628.089 182.762 626.989 179.826 626.767 178.599Z" fill="#292C3D"/>
<path d="M603.221 135.296C603.221 135.296 615.362 132.216 616.318 134.213C617.274 136.209 629.924 175.613 629.924 175.613L626.716 178.601C626.716 178.601 613.188 145.342 609.272 141.859C605.356 138.375 601.401 136.666 603.221 135.296Z" fill="#F9A57E"/>
<path d="M603.221 135.296C603.221 135.296 615.362 132.216 616.318 134.213C617.274 136.209 629.924 175.613 629.924 175.613L626.716 178.601C626.716 178.601 613.188 145.342 609.272 141.859C605.356 138.375 601.401 136.666 603.221 135.296Z" fill="#E76F59"/>
<path d="M596.944 128.053C597.828 127.827 598.678 127.485 599.472 127.036C600.1 126.601 600.856 126.389 601.62 126.435C602.196 126.514 606.858 128.458 605.627 129.319C605.221 129.606 604.213 129.11 603.807 128.967C603.401 128.823 602.654 128.484 602.104 128.236C602.615 128.236 605.129 129.28 604.867 129.867C604.409 130.898 601.842 129.515 601.253 129.188C601.711 129.188 603.283 129.854 603.283 130.493C603.283 131.393 601.41 130.637 601.004 130.493C600.741 130.308 600.449 130.167 600.14 130.076C599.751 130.079 599.365 130.15 599 130.284C598.34 130.376 597.67 130.376 597.01 130.284C596.617 130.284 595.7 130.284 595.517 129.997C595.428 129.76 595.405 129.503 595.449 129.253C595.492 129.003 595.602 128.769 595.766 128.575C596.113 128.314 596.516 128.135 596.944 128.053V128.053Z" fill="#F9A57E"/>
<path d="M596.944 128.053C597.828 127.827 598.678 127.485 599.472 127.036C600.1 126.601 600.856 126.389 601.62 126.435C602.196 126.514 606.858 128.458 605.627 129.319C605.221 129.606 604.213 129.11 603.807 128.967C603.401 128.823 602.654 128.484 602.104 128.236C602.615 128.236 605.129 129.28 604.867 129.867C604.409 130.898 601.842 129.515 601.253 129.188C601.711 129.188 603.283 129.854 603.283 130.493C603.283 131.393 601.41 130.637 601.004 130.493C600.741 130.308 600.449 130.167 600.14 130.076C599.751 130.079 599.365 130.15 599 130.284C598.34 130.376 597.67 130.376 597.01 130.284C596.617 130.284 595.7 130.284 595.517 129.997C595.428 129.76 595.405 129.503 595.449 129.253C595.492 129.003 595.602 128.769 595.766 128.575C596.113 128.314 596.516 128.135 596.944 128.053V128.053Z" fill="#E8A393"/>
<path d="M617.99 107.112L620.858 108.287L611.036 131.89L608.142 130.324L617.99 107.112Z" fill="#292C3D"/>
<path d="M609.191 129.919H590.503V132.816H609.191V129.919Z" fill="#292C3D"/>
<path d="M557.465 116.466C559.953 115.044 560.372 113.465 558.997 108.259C558.484 105.904 558.766 103.445 559.802 101.267C560.837 99.0887 562.566 97.3127 564.72 96.2159C567.274 95.159 569.526 94.7023 571.085 91.9754C572.643 89.2484 569.684 83.4683 574.621 79.1625C578.209 76.0442 583.369 78.5363 583.369 78.5363C584.482 77.923 584.941 84.3686 585.019 89.2223C578.772 98.7341 580.553 111.182 582.819 121.842C582.882 122.086 582.961 122.325 583.055 122.559C582.557 130.805 582.164 137.642 582.164 137.642C582.164 137.642 567.156 146.11 556.954 138.856C546.752 131.601 552.449 119.323 557.465 116.466Z" fill="#292C3D"/>
<path d="M601.599 176.643L605.409 178.822C605.409 178.822 610.085 190.787 609.22 191.87C608.356 192.953 598.744 182.384 598.364 180.766C597.984 179.148 600.485 177.217 601.599 176.643Z" fill="#292C3D"/>
<path d="M596.738 134.576C596.738 134.576 621.228 136.285 623.506 138.49C625.785 140.695 604.988 178.599 604.988 178.599L601.57 176.642C601.57 176.642 606.717 158.61 608.053 154.46C609.389 150.311 611.982 145.327 611.484 144.596C610.986 143.866 586.327 147.637 586.51 140.682C586.693 133.728 596.738 134.576 596.738 134.576Z" fill="#F9A57E"/>
<path d="M584.663 93.4374C584.663 93.4374 582.043 100.405 583.654 105.611L575.089 103.536C575.089 103.536 578.586 91.8717 580.092 89.8754C581.598 87.8791 584.663 93.4374 584.663 93.4374Z" fill="#F9A57E"/>
<path d="M584.663 93.4374C584.663 93.4374 582.043 100.405 583.654 105.611L575.089 103.536C575.089 103.536 578.586 91.8717 580.092 89.8754C581.598 87.8791 584.663 93.4374 584.663 93.4374Z" fill="#E76F59"/>
<path d="M585.54 84.3425C585.54 84.3425 588.879 85.9213 589.678 87.2652C590.477 88.6091 589.77 90.4488 589.835 91.6753C590.007 92.7758 590.081 93.8891 590.058 95.0025C589.875 95.3026 588.644 95.0025 588.447 95.2765C588.251 95.5505 586.653 96.5813 586.156 97.6512C585.658 98.7211 585.003 98.8777 583.838 98.3036C582.672 97.7295 578.233 91.8971 578.18 89.1702C578.128 86.4432 582.253 83.2074 585.54 84.3425Z" fill="#F9A57E"/>
<path d="M582.723 80.6106C583.444 82.0094 584.019 83.4785 584.438 84.9946C584.595 86.2211 583.417 89.8484 582.723 90.3311C582.028 90.8139 582.618 86.2733 580.85 87.7216C579.082 89.1699 580.955 91.7272 580.85 92.2622C580.682 92.8869 580.333 93.4482 579.846 93.8754C579.359 94.3026 578.756 94.5767 578.113 94.663C576.292 94.8196 573.293 85.7905 575.271 83.5463C577.248 81.3021 580.627 80.6106 582.723 80.6106Z" fill="#292C3D"/>
<path d="M572.445 127.087L583.8 126.226C583.8 126.226 589.706 132.749 595.586 132.749H615.466C614.698 138.078 612.728 143.163 609.704 147.624C609.704 147.624 590.662 149.02 581.416 148.263C572.17 147.506 563.383 137.368 572.445 127.087Z" fill="#4D505E"/>
<path d="M571.382 128.419C571.712 127.966 572.066 127.53 572.443 127.114L583.797 126.253C583.797 126.253 589.547 132.647 595.309 132.777C588.355 133.495 575.062 135.034 571.382 128.419Z" fill="#3D3848"/>
<g style="mix-blend-mode:multiply" opacity="0.32">
<path d="M610.226 134.134C607.332 133.86 604.516 133.169 601.674 132.83H614.155C612.976 133.443 612.361 134.343 610.226 134.134Z" fill="#CA0045"/>
</g>
<path d="M576.178 99.595C578.445 100.516 580.778 101.266 583.158 101.839C583.158 101.839 586.825 109.903 588.252 112.082C589.68 114.261 584.638 122.624 584.324 126.225C584.324 126.225 581.285 129.122 572.092 127.347C572.118 127.347 569.709 104.684 576.178 99.595Z" fill="#0254E4"/>
<g style="mix-blend-mode:multiply" opacity="0.65">
<path d="M574.773 104.425C575.688 104.083 576.691 104.056 577.623 104.347C578.555 104.637 579.363 105.23 579.92 106.03C580.889 108 579.92 111.51 580.011 113.637C580.06 116.128 580.341 118.609 580.849 121.048C581.454 123.083 582.475 124.971 583.848 126.593C582.657 127.298 579.252 128.72 572.062 127.35C572.062 127.35 570.595 113.519 573.031 105.051C573.738 104.829 574.354 104.569 574.773 104.425Z" fill="#00A1CC"/>
</g>
<path d="M595.165 128.054C596.048 127.823 596.897 127.481 597.693 127.036C598.315 126.6 599.068 126.388 599.828 126.436C600.417 126.514 605.066 128.458 603.835 129.319C603.429 129.606 602.421 129.111 602.028 128.967C601.635 128.824 600.875 128.484 600.325 128.236C600.823 128.236 603.35 129.28 603.088 129.867C602.617 130.898 600.063 129.515 599.474 129.189C599.919 129.189 601.504 129.854 601.504 130.494C601.504 131.394 599.618 130.637 599.212 130.494C598.954 130.308 598.666 130.167 598.361 130.076C597.968 130.081 597.578 130.152 597.208 130.285C596.548 130.376 595.878 130.376 595.218 130.285C594.838 130.285 593.908 130.285 593.738 129.998C593.65 129.76 593.626 129.503 593.67 129.253C593.714 129.004 593.823 128.77 593.987 128.576C594.333 128.312 594.737 128.133 595.165 128.054V128.054Z" fill="#F9A57E"/>
<path d="M595.951 127.924L594.956 131.669C594.956 131.669 570.361 128.824 569.798 124.479C569.235 120.134 570.793 99.9105 576.726 102.011C582.658 104.112 576.791 118.777 577.721 119.926C578.651 121.074 595.951 127.924 595.951 127.924Z" fill="#0254E4"/>
<path d="M582.475 78.9145C583.365 78.2952 584.435 77.9851 585.519 78.0323C586.603 78.0794 587.641 78.4812 588.473 79.1754C591.525 81.6284 591.42 85.3209 593.934 84.9947C593.934 84.9947 592.271 89.2743 588.631 88.2566C584.99 87.2389 581.218 81.4718 582.475 78.9145Z" fill="#292C3D"/>
<path d="M152.387 119.837C151.685 119.529 151.079 119.037 150.632 118.415C150.475 118.098 150.252 117.818 149.977 117.593C149.673 117.326 149.396 117.029 149.152 116.706C148.924 116.366 148.607 116.095 148.236 115.923C147.751 115.779 147.895 116.406 148.052 116.81C148.209 117.215 149.453 118.05 149.296 118.519C149.139 118.989 147.699 117.919 147.41 117.697C146.743 117.189 146.821 116.562 146.507 115.871C146.324 115.466 146.114 115.336 145.852 115.779C145.59 116.223 145.852 116.523 145.957 116.862C146.199 117.573 146.613 118.214 147.162 118.728C146.624 118.273 146.18 117.719 145.852 117.097C145.669 116.745 145.132 115.114 144.542 115.362C143.377 115.858 145.643 119.002 146.271 119.276C145.719 118.859 145.24 118.351 144.857 117.776C144.608 117.437 144.058 116.628 143.796 117.319C143.403 118.35 145.315 119.55 146.088 120.242C145.495 119.925 144.945 119.535 144.451 119.081C143.757 118.533 143.6 119.224 144.215 119.916C144.523 120.233 144.856 120.525 145.21 120.79C146.388 121.724 147.843 122.243 149.349 122.264C149.964 122.329 151.038 123.086 151.47 122.773C152.308 122.186 152.243 120.711 152.387 119.837Z" fill="#E8A393"/>
<path d="M151.537 118.102C151.537 118.102 164.803 121.782 166.112 121.69C167.422 121.599 170.565 109.947 171.809 104.206C171.927 103.671 173.695 103.645 175.738 101.962C176.563 101.271 179.012 102.601 179.824 101.962C180.596 102.762 181.108 103.774 181.295 104.868C181.482 105.961 181.334 107.086 180.872 108.095C177.847 114.762 175.254 127.536 168.286 127.666C159.119 127.849 149.742 123.06 149.742 123.06L151.537 118.102Z" fill="#DA395B"/>
<path d="M148.667 119.695C148.898 119.315 149.108 118.923 149.295 118.52C149.453 118.051 148.221 117.215 148.051 116.811C147.881 116.407 147.75 115.78 148.235 115.924C148.606 116.096 148.923 116.367 149.151 116.707C149.395 117.029 149.672 117.327 149.976 117.594C150.251 117.818 150.474 118.099 150.631 118.416C150.783 118.658 150.973 118.874 151.194 119.055C150.398 119.42 149.541 119.637 148.667 119.695V119.695Z" fill="#E8A393"/>
<path d="M145.276 160.207C145.276 160.207 144.045 165.896 142.892 166.431C141.74 166.966 129.731 164.03 129.037 162.673C128.343 161.316 129.325 159.907 131.892 160.064C134.197 160.142 135.716 161.003 137.588 160.716C139.225 160.481 140.836 157.376 140.836 157.376L145.276 160.207Z" fill="#292C3D"/>
<path d="M165.695 173.15C165.695 173.15 168.772 178.108 168.314 179.283C167.856 180.457 157.156 186.654 155.716 186.159C154.275 185.663 153.987 183.967 155.912 182.244C157.628 180.705 159.317 180.274 160.47 178.774C161.622 177.273 160.47 174.116 160.47 174.116L165.695 173.15Z" fill="#292C3D"/>
<path d="M183.685 131.136C183.685 131.136 178.826 133.641 176.574 133.354C174.321 133.067 154.965 134.581 152.7 136.433C150.434 138.286 159.693 175.459 159.693 175.459L167.367 174.154C167.367 174.154 164.617 146.976 165.075 146.754C165.534 146.532 177.111 146.61 196.846 146.61C201.666 146.61 207.048 136.525 200.945 129.466L183.685 131.136Z" fill="#DBDF01"/>
<g style="mix-blend-mode:multiply" opacity="0.65">
<path d="M156.043 139.449C156.981 137.808 157.703 136.054 158.191 134.23C164.276 133.527 170.401 133.231 176.525 133.343C178.778 133.63 183.636 131.124 183.636 131.124L184.75 131.02C183.361 133.003 181.724 134.726 179.694 135.169C177.245 135.717 174.692 135.848 172.282 136.474C168.118 137.57 163.992 139.749 162.133 143.885C159.674 148.966 157.608 154.227 155.951 159.62C154.642 153.984 153.398 148.073 152.651 143.389C154.183 142.711 155.231 140.78 156.043 139.449Z" fill="#CCC400"/>
</g>
<path d="M181.683 126.988C181.683 126.988 158.647 128.292 156.46 130.51C154.273 132.729 139.436 158.08 139.436 158.08L145.538 162.477C145.538 162.477 157.691 144.628 163.532 137.687C164.866 136.106 166.725 135.056 168.771 134.725C171.705 134.206 174.664 133.836 177.637 133.616C180.086 133.622 182.451 132.725 184.276 131.098L181.683 126.988Z" fill="#DBDF01"/>
<path d="M175.762 91.5495C176.462 91.1287 177.1 90.6151 177.661 90.0229C178.224 92.228 179.56 96.2728 182.114 98.1647C182.114 98.1647 177.582 100.67 173.588 100.265C173.588 100.265 173.431 94.9419 172.279 92.4368C173.494 92.4181 174.687 92.1141 175.762 91.5495V91.5495Z" fill="#F9A57E"/>
<path d="M175.762 91.5495C176.462 91.1287 177.1 90.6151 177.661 90.0229C178.224 92.228 179.56 96.2728 182.114 98.1647C182.114 98.1647 177.582 100.67 173.588 100.265C173.588 100.265 173.431 94.9419 172.279 92.4368C173.494 92.4181 174.687 92.1141 175.762 91.5495V91.5495Z" fill="#E76F59"/>
<path d="M171.888 77.8486C171.888 77.8486 165.981 78.2139 164.711 79.8971C164.101 80.9963 163.758 82.2223 163.708 83.4773C163.658 84.7323 163.903 85.9815 164.423 87.1255C165.458 88.9261 164.109 91.9792 164.318 92.6969C164.528 93.4145 166.348 93.01 166.492 93.1927C166.636 93.3753 168.064 96.8199 170.604 96.5329C174.18 96.1023 177.519 91.8357 178.266 89.3045C179.012 86.7732 177.31 77.131 171.888 77.8486Z" fill="#F9A57E"/>
<path d="M162.185 81.8281C162.503 81.3538 162.758 80.8407 162.945 80.3015C162.918 79.9497 162.918 79.5964 162.945 79.2446C163.207 78.1617 163.102 77.4832 165.223 75.8001C166.234 75.1106 167.389 74.6594 168.601 74.4808C169.812 74.3022 171.049 74.4009 172.217 74.7693C173.023 75.015 173.775 75.4138 174.43 75.9436C174.613 76.1132 175.203 76.5307 175.203 76.7917C175.203 77.0526 174.482 77.5876 174.299 77.8225C173.989 78.2707 173.713 78.7417 173.474 79.2316C171.824 82.1021 168.864 85.625 165.171 83.9418C164.678 83.7155 164.197 83.4629 163.73 83.185C163.62 84.4733 163.831 85.7688 164.346 86.9558C163.643 86.7185 163.037 86.2607 162.617 85.6511C162.221 85.1048 161.973 84.4659 161.897 83.7961C161.822 83.1264 161.921 82.4485 162.185 81.8281V81.8281Z" fill="#292C3D"/>
<path d="M173.25 77.4052C173.95 76.8223 174.806 76.4551 175.712 76.3484C176.39 76.2455 177.084 76.3593 177.693 76.6734C178.302 76.9875 178.796 77.4858 179.104 78.0968C179.585 78.8409 179.989 79.6323 180.309 80.4584C180.847 81.7168 181.128 83.0699 181.134 84.4379C181.191 85.9294 180.895 87.4134 180.269 88.7697C179.667 89.9701 178.2 91.6402 177.153 91.6272C176.747 91.6272 175.254 89.2786 175.097 88.5871C174.939 87.8955 175.254 87.7781 175.633 87.2823C176.301 86.4864 176.878 85.1947 175.869 84.4118C174.429 83.3028 173.054 84.5814 173.25 86.8126C173.25 86.8126 173.04 88.1174 172.608 88.1174C172.176 88.1174 168.365 83.0679 173.25 77.4052Z" fill="#292C3D"/>
<path d="M204.748 131.645C204.748 131.645 197.872 139.03 179.747 133.942C179.272 130.867 178.424 127.861 177.22 124.991C175.295 120.555 172.178 111.839 171.562 107.102C170.868 101.766 173.527 99.0129 173.527 99.0129C173.527 99.0129 176.945 101.544 181.109 97.2515C184.113 97.8158 186.95 99.0473 189.41 100.854C191.87 102.662 193.89 104.998 195.319 107.69C200.557 117.097 204.748 131.645 204.748 131.645Z" fill="#FF4C6B"/>
<path d="M179.848 104.91C179.848 104.688 179.966 104.453 180.018 104.219C184.353 106.332 183.803 110.507 182.769 116.796C181.957 121.637 179.639 129.283 179.167 130.992C178.687 128.941 178.034 126.933 177.216 124.99C176.325 122.942 175.186 119.98 174.151 116.927C175.672 114.607 176.878 112.098 177.74 109.464C178.29 107.885 179.403 106.541 179.848 104.91Z" fill="#DA395B"/>
<path d="M150.228 115.414L134.997 106.358C131.54 109.942 129.084 114.363 127.873 119.184L145.16 127.248C145.16 127.248 147.857 120.92 150.228 115.414Z" fill="#515151"/>
<path d="M138.456 121.077C142.295 119.909 145.545 117.329 147.545 113.862L150.23 115.467C147.859 120.973 145.161 127.301 145.161 127.301L132.55 121.416C134.518 121.769 136.542 121.653 138.456 121.077V121.077Z" fill="#515151"/>
<path d="M150.28 124.743C149.517 124.847 148.74 124.748 148.027 124.456C147.722 124.275 147.384 124.156 147.032 124.103C146.634 124.04 146.243 123.935 145.867 123.79C145.492 123.626 145.081 123.563 144.675 123.608C144.19 123.738 144.675 124.195 144.989 124.456C145.303 124.717 146.836 124.769 146.954 125.252C147.071 125.734 145.277 125.591 144.924 125.552C144.072 125.46 143.81 124.899 143.169 124.469C142.802 124.221 142.553 124.221 142.579 124.743C142.606 125.265 142.959 125.382 143.234 125.604C143.816 126.081 144.51 126.404 145.251 126.543C144.552 126.454 143.879 126.223 143.274 125.865C142.933 125.669 141.61 124.56 141.244 125.082C140.523 126.113 144.125 127.587 144.832 127.548C144.13 127.466 143.446 127.276 142.802 126.987C142.409 126.83 141.492 126.426 141.65 127.157C141.872 128.239 144.138 128.239 145.159 128.461C144.489 128.512 143.815 128.473 143.156 128.344C142.265 128.239 142.501 128.918 143.391 129.179C143.771 129.283 144.544 129.375 144.701 129.401C146.194 129.571 147.7 129.24 148.983 128.461C149.533 128.187 150.843 128.266 151.053 127.77C151.459 126.765 150.607 125.604 150.28 124.743Z" fill="#F9A57E"/>
<path d="M149.923 124.144L149.478 129.245C149.478 129.245 171.44 130.994 173.955 129.402C176.174 127.815 177.771 125.509 178.473 122.878C180.07 118.22 186.33 105.355 180.686 103.398C178.918 102.785 176.574 102.798 175.447 105.107C172.828 110.326 169.96 121.769 169.214 122.252C168.101 122.995 149.923 124.144 149.923 124.144Z" fill="#FF4C6B"/>
<path d="M263.906 235.386C263.906 235.386 266.637 243.378 268.248 246.951C277.216 266.725 260.616 264.202 254.31 263.266C248.004 262.329 240.806 259.955 241.195 254.863C241.469 251.438 243.571 251.004 244.428 249.84C245.285 248.675 243.617 246.791 244.348 243.937C245.079 241.083 249.843 240.512 250.78 239.724C251.717 238.937 253.624 236.756 252.699 232.635C251.774 228.513 251.362 226.298 254.036 223.604C256.709 220.91 260.89 222.086 260.89 222.086L263.906 235.386Z" fill="#292C3D"/>
<path d="M295.511 266.852C294.909 266.462 292.571 267.561 290.884 268.021C289.44 268.28 287.964 268.394 286.487 268.361C286.443 269.033 286.334 269.701 286.162 270.359C287.046 270.446 287.934 270.496 288.824 270.509C289.668 270.509 291.234 270.289 291.788 270.199C292.423 270.064 293.095 270.125 293.68 270.369C295.559 271.668 296.607 271.758 296.86 271.298C296.86 271.218 295.378 270.109 294.884 269.66C295.704 270.279 297.728 271.498 298.149 271.118C298.571 270.739 296.583 269.4 295.74 268.82C296.583 269.42 298.752 270.919 299.27 270.819C300.752 270.499 296.113 267.242 295.511 266.852Z" fill="#F9A57E"/>
<path d="M303.389 270.594H280.419V273.463H303.389V270.594Z" fill="#292C3D"/>
<path d="M288.076 267.371L287.283 270.594C287.283 270.594 276.79 269.463 273.21 267.88C269.631 266.297 266.063 258.029 266.063 258.029L268.791 247.646C268.791 247.646 274.073 261.218 275.915 262.87C277.757 264.521 288.076 267.371 288.076 267.371Z" fill="#FF4C6B"/>
<path d="M329.993 231.392H286.355C285.191 231.392 284.248 232.337 284.248 233.503V259.877C284.248 261.043 285.191 261.989 286.355 261.989H329.993C331.157 261.989 332.101 261.043 332.101 259.877V233.503C332.101 232.337 331.157 231.392 329.993 231.392Z" fill="#93EAF3"/>
<path d="M286.837 259.879V233.502C286.837 232.942 287.068 232.405 287.48 232.01C287.892 231.614 288.451 231.392 289.033 231.392H286.443C285.861 231.392 285.302 231.614 284.891 232.01C284.479 232.405 284.248 232.942 284.248 233.502V259.879C284.248 260.438 284.479 260.975 284.891 261.371C285.302 261.767 285.861 261.989 286.443 261.989H289.033C288.451 261.989 287.892 261.767 287.48 261.371C287.068 260.975 286.837 260.438 286.837 259.879Z" fill="#292C3D"/>
<path d="M308.884 269.638C308.884 269.638 309.866 260.235 305.6 257.038C305.6 257.038 304.617 256.248 306.224 255.33C307.831 254.411 312.248 253.354 313.762 256.108C315.277 258.863 316.271 263.687 315.635 269.638H308.884Z" fill="#292C3D"/>
<path d="M249.793 291.63H246.922V344.219H249.793V291.63Z" fill="#AFEAF0"/>
<path d="M286.162 291.63H284.248V344.219H286.162V291.63Z" fill="#AFEAF0"/>
<path d="M291.904 288.761H242.137V293.542H291.904V288.761Z" fill="#292C3D"/>
<path d="M269.025 320.315C269.025 320.315 264.116 324.857 264.149 325.511C264.183 326.165 272.547 341.302 274.001 341.35C275.455 341.397 275.801 338.781 275.567 337.783C275.332 336.784 272.637 322.325 272.637 322.325L269.025 320.315Z" fill="#292C3D"/>
<path d="M261.459 323.183C261.459 323.183 256.446 327.77 256.493 328.355C256.54 328.94 265.78 343.263 267.306 343.263C268.832 343.263 269.114 340.717 268.844 339.823C268.574 338.928 265.322 325.041 265.322 325.041L261.459 323.183Z" fill="#292C3D"/>
<path d="M265.065 273.326C265.065 273.326 271.512 276.352 278.924 279.207C283.63 281.018 290.205 283.391 289.984 288.377C289.833 292.011 275.009 327.008 275.009 327.008L268.283 323.684C268.283 323.684 280.609 294.223 280.388 292.229C280.168 290.234 278.75 292 266.552 290.911C254.353 289.822 250.67 287.529 250.752 281.82C250.833 276.112 254.028 268.133 258.954 266.104C263.88 264.075 265.065 273.326 265.065 273.326Z" fill="#4D505E"/>
<path d="M264.952 273.258C264.952 273.258 267.396 276.328 274.75 279.169C279.418 280.972 285.216 284.269 285.205 287.441C285.205 291.058 271.511 325.096 271.511 325.096L268.145 323.418C268.145 323.418 280.375 294.094 280.156 292.108C279.937 290.123 278.531 291.88 266.428 290.796C254.325 289.712 250.671 287.43 250.752 281.748C250.832 276.065 254.002 268.124 258.889 266.104C263.777 264.084 264.952 273.258 264.952 273.258Z" fill="#3D3848"/>
<path d="M261.197 268.682C261.197 268.682 263.162 276.771 267.852 278.759C272.542 280.747 283.302 282.884 283.29 288.004C283.29 291.667 267.232 327.964 267.232 327.964L259.045 324.151C259.045 324.151 269.91 294.787 269.571 292.776C269.232 290.766 270.378 291.759 258.086 291.02C245.794 290.28 244.121 287.969 244.051 282.214C243.981 276.459 251.513 268.682 251.513 268.682C253.047 268.051 254.693 267.726 256.355 267.726C258.017 267.726 259.663 268.051 261.197 268.682V268.682Z" fill="#4D505E"/>
<path d="M264.831 234.298C264.831 234.298 262.901 242.007 266.483 245.953C266.483 245.953 271.263 252.223 263.726 253.3C256.19 254.377 257.167 244.728 257.167 244.728C257.167 244.728 258.458 234.083 256.493 229.479C256.493 229.479 261.401 232.11 264.831 234.298Z" fill="#E76F59"/>
<path d="M259.734 222.935C259.734 222.935 269.82 223.459 269.888 226.023C269.956 228.587 269.037 230.265 269.366 232.502C270.092 237.326 267.369 242.617 266.178 242.838C264.329 243.176 258.066 240.345 257.101 236.441C256.137 232.537 255.876 221.373 259.734 222.935Z" fill="#F9A57E"/>
<path d="M269.151 268.334C269.151 268.334 271.291 268.586 271.74 268.586C272.188 268.586 278.113 265.425 278.746 265.853C279.379 266.281 285.385 270.244 285.201 271.067C285.016 271.89 283.348 271.374 280.161 268.806C280.161 268.806 284.407 271.671 283.613 272.362C282.819 273.054 279.103 269.849 279.103 269.849C279.103 269.849 282.923 272.571 282.014 273.141C281.105 273.712 277.734 270.507 277.734 270.507C277.734 270.507 280.368 272.944 280.035 273.35C279.701 273.756 277.998 273.054 276.181 271.44C276.181 271.44 275.847 271.265 274.881 271.758C273.914 272.252 267.978 271.297 267.978 271.297L269.151 268.334Z" fill="#F9A57E"/>
<path d="M270.696 231.155C270.696 231.155 263.805 232.861 261.557 227.112C259.776 222.561 260.444 222.016 260.444 222.016C260.444 222.016 264.251 218.797 268.726 223.166C271.664 226.035 270.696 231.155 270.696 231.155Z" fill="#292C3D"/>
<path d="M260.861 221.83C260.861 221.83 264.66 225.209 262.559 228.425C260.653 231.313 261.912 232.868 261.508 234.82C261.234 234.693 260.989 234.508 260.79 234.278C260.591 234.049 260.442 233.779 260.353 233.487C260.157 232.587 259.868 230.295 258.668 230.634C257.467 230.973 256.358 232.458 258.668 234.364C259.018 235.108 259.169 235.932 259.104 236.753C259.039 237.574 258.761 238.364 258.298 239.041C258.298 239.041 252.167 233.709 253.945 227.711C255.723 221.713 260.861 221.83 260.861 221.83Z" fill="#292C3D"/>
<path d="M265.744 244.817C265.744 244.817 266.234 248.556 264.848 249.23C263.463 249.903 258.556 242.866 258.556 242.866C258.556 242.866 251.869 245.595 250.352 246.791C248.836 247.987 251.045 259.438 251.045 259.438C251.045 259.438 246.388 273.176 246.973 276.115C247.558 279.053 267.917 275.546 267.917 275.546C267.917 275.546 269.876 261.528 270.64 259.438C271.404 257.347 272.371 256.116 271.392 253.085C270.007 248.8 269.637 247.708 269.637 247.708C268.457 246.603 267.151 245.633 265.744 244.817V244.817Z" fill="#FF4C6B"/>
<path d="M253.409 256.977C251.919 254.951 252.815 251.581 251.244 249.496C250.766 248.872 250.278 248.259 249.777 247.646C249.393 251.004 250.941 259.18 250.941 259.18C250.941 259.18 246.401 273.117 246.972 276.098C247.542 279.078 267.389 275.52 267.389 275.52C267.389 275.52 269.077 262.997 269.892 259.71C269.379 260.476 265.364 265.424 260.963 264.729C258.414 264.352 256.377 261.053 253.409 256.977Z" fill="#DA395B"/>
<path d="M256.961 232.348C256.961 232.348 256.835 233.805 258.106 234.136C258.633 234.279 258.587 235.869 259.011 237.447C259.813 240.493 259.298 242.557 256.95 243.44C254.553 244.111 252.269 245.111 250.169 246.409C247.454 248.241 249.195 240.603 252.62 238.683C256.045 236.763 256.961 232.348 256.961 232.348Z" fill="#292C3D"/>
<path d="M319.389 273.462H304.604C304.397 273.466 304.193 273.421 304.012 273.33C303.83 273.24 303.678 273.107 303.569 272.945C303.459 272.783 303.398 272.598 303.39 272.407C303.381 272.217 303.427 272.027 303.522 271.858L304.402 270.254C304.5 270.069 304.652 269.913 304.841 269.804C305.03 269.695 305.248 269.638 305.471 269.638H318.545C318.768 269.638 318.986 269.695 319.175 269.804C319.364 269.913 319.517 270.069 319.615 270.254L320.482 271.858C320.578 272.028 320.623 272.218 320.615 272.41C320.606 272.601 320.543 272.788 320.433 272.95C320.322 273.112 320.168 273.245 319.985 273.335C319.801 273.424 319.596 273.468 319.389 273.462Z" fill="#292C3D"/>
<path d="M340.714 273.463H215.339V277.288H340.714V273.463Z" fill="#7695A8"/>
<path d="M221.081 275.375H220.124V344.219H221.081V275.375Z" fill="#7695A8"/>
<path d="M336.886 275.375H334.972V344.219H336.886V275.375Z" fill="#7695A8"/>
<path d="M270.849 268.25L270.488 272.441C270.488 272.441 246.069 272.692 242.383 272.213C238.697 271.735 237.039 266.815 239.418 262.486C241.797 258.158 248.865 246.939 251.954 246.7C255.043 246.461 256.824 250.721 254.265 255.345C251.706 259.969 247.084 264.457 248.087 265.186C249.091 265.915 270.849 268.25 270.849 268.25Z" fill="#FF4C6B"/>
<path d="M369.777 73.6245H319.308C317.916 73.6245 316.788 74.7452 316.788 76.1277V108.412C316.788 109.794 317.916 110.915 319.308 110.915H369.777C371.169 110.915 372.297 109.794 372.297 108.412V76.1277C372.297 74.7452 371.169 73.6245 369.777 73.6245Z" fill="#0254E4"/>
<path d="M369.426 76.4932H319.659V108.047H369.426V76.4932Z" fill="#C0FFE1"/>
<path d="M340.714 86.0547V97.5287L352.199 91.7882L340.714 86.0547Z" fill="#FF4C6B"/>
<path d="M646.304 229.479H639.474C639.474 229.479 638.48 238.627 636.707 239.713C636.707 239.713 634.506 250.515 642.895 250.515C653.046 250.515 649.084 239.713 649.084 239.713C647.298 238.676 646.304 229.479 646.304 229.479Z" fill="#E76F59"/>
<path d="M651.552 231.325C650.642 230.283 649.55 231.882 649.55 231.882C649.55 231.882 651.055 225.947 649.55 223.404C648.046 220.861 643.144 222.193 643.144 222.193C643.144 222.193 638.29 220.824 636.749 223.404C635.208 225.984 636.749 231.882 636.749 231.882C636.749 231.882 635.645 230.283 634.735 231.325C633.825 232.366 636.24 234.958 636.798 235.345C636.798 235.345 640.317 241.91 643.144 241.91C645.971 241.91 649.502 235.345 649.502 235.345C650.048 235.018 652.475 232.378 651.552 231.325Z" fill="#F9A57E"/>
<path d="M642.189 224.751C642.189 224.751 638.345 225.38 637.917 227.292C637.788 228.243 637.857 229.209 638.119 230.136C638.325 231.175 638.435 232.228 638.446 233.284C638.363 233.306 638.275 233.31 638.19 233.296C638.105 233.282 638.025 233.25 637.955 233.202C637.456 232.784 637.031 232.296 636.695 231.757C635.964 230.766 634.905 230.929 634.603 231.559C634.603 231.559 633.746 222.233 637.993 221.86C642.239 221.487 642.189 224.751 642.189 224.751Z" fill="#292C3D"/>
<path d="M644.103 224.751C644.103 224.751 647.889 225.38 648.382 227.292C648.506 228.244 648.433 229.209 648.167 230.136C647.96 231.175 647.85 232.228 647.839 233.284C647.924 233.306 648.014 233.31 648.101 233.296C648.189 233.282 648.271 233.25 648.344 233.202C648.837 232.778 649.262 232.291 649.606 231.757C650.338 230.766 651.385 230.929 651.688 231.558C651.688 231.558 652.547 222.233 648.306 221.86C644.065 221.487 644.103 224.751 644.103 224.751Z" fill="#292C3D"/>
<path d="M649.581 222.416C649.56 221.876 649.384 221.351 649.075 220.901C648.765 220.452 648.334 220.094 647.827 219.868C646.506 219.271 645.066 218.962 643.609 218.962C642.152 218.962 640.712 219.271 639.39 219.868C636.484 221.285 635.601 221.606 634.755 221.13C633.909 220.654 634.436 220.189 634.436 220.189C634.436 220.189 632.535 220.189 632.621 223.048C632.707 225.906 636.3 229.479 641.107 229.479C648.355 229.479 650.697 224.56 649.581 222.416Z" fill="#292C3D"/>
<path d="M649.061 239.997C648.713 248.925 643.134 248.001 643.134 248.001C643.134 248.001 637.567 248.925 637.23 239.997C637.23 239.997 628.333 242.397 624.005 245.349C625.185 250.757 625.842 256.267 625.964 261.801L631.026 281.468L643.122 282.068L655.229 281.468L660.315 261.801C660.442 256.266 661.102 250.757 662.287 245.349C657.959 242.457 649.061 239.997 649.061 239.997Z" fill="#AFEAF0"/>
<path d="M659.241 250.692C653.621 253.615 650.884 260.344 645.435 263.648C639.778 267.06 635.783 260.165 633.034 256.586C630.747 253.473 627.622 251.041 624.005 249.559C624.727 253.643 625.136 257.775 625.226 261.918L630.346 281.472L642.637 282.068L654.94 281.472L660.108 261.918C660.204 257.838 660.613 253.771 661.33 249.75C660.585 250.048 659.888 250.358 659.241 250.692Z" fill="#5AC4E0"/>
<path d="M665.158 289.646C665.158 282.766 656.599 278.244 656.599 278.244H627.79C627.79 278.244 619.219 282.766 619.219 289.646C619.311 291.432 619.544 293.208 619.915 294.958H629.519C629.134 295.664 628.774 296.31 628.498 296.86C628.414 297.028 628.318 297.183 628.234 297.339H635.184C635.701 297.339 636.697 297.554 636.553 296.789C636.337 295.7 635.665 295.078 636.325 293.917C636.667 293.442 637.11 293.048 637.623 292.762C638.135 292.477 638.704 292.307 639.29 292.266C639.514 292.254 639.738 292.254 639.962 292.266C641.463 292.266 642.963 292.266 644.476 292.266C645.04 292.297 645.6 292.39 646.144 292.541C646.636 292.625 647.272 292.625 647.549 293.116C647.825 293.804 647.995 294.53 648.053 295.269C648.056 295.962 648.004 296.654 647.897 297.339H657.644C657.038 296.574 656.477 295.775 655.963 294.946H664.474C664.842 293.2 665.071 291.428 665.158 289.646V289.646Z" fill="#0254E4"/>
<g style="mix-blend-mode:multiply" opacity="0.65">
<path d="M665.158 289.663C665.158 282.773 656.599 278.244 656.599 278.244H627.79C627.79 278.244 619.219 282.773 619.219 289.663C619.311 291.451 619.544 293.23 619.915 294.983H629.519C629.134 295.689 628.774 296.336 628.498 296.888C628.414 297.055 628.318 297.211 628.234 297.367H636.541C636.757 297.367 636.205 296.169 636.157 296.061C635.947 295.616 635.897 295.113 636.013 294.635C636.205 294.129 636.533 293.685 636.961 293.353C638.417 292.387 640.174 291.983 641.907 292.215C643.563 292.215 645.376 292.035 646.816 293.005C647.098 293.17 647.349 293.381 647.561 293.629C648.557 294.827 648.041 296.025 647.897 297.367H657.644C657.038 296.601 656.477 295.801 655.963 294.971H664.474C664.842 293.222 665.071 291.447 665.158 289.663V289.663Z" fill="#00A1CC"/>
</g>
<path d="M623.509 245.735C623.509 245.735 612.74 269.273 613.517 272.403C613.717 273.188 626.816 281.197 632.982 280.042L635.489 279.578C635.489 279.578 626.333 245.568 623.509 245.735Z" fill="#AFEAF0"/>
<path d="M662.346 245.735C662.346 245.735 673.594 269.273 672.772 272.403C672.563 273.188 658.895 281.197 652.461 280.042L649.845 279.578C649.845 279.578 659.387 245.568 662.346 245.735Z" fill="#AFEAF0"/>
<path d="M627.852 253.384C627.841 254.568 627.705 255.748 627.448 256.901C626.513 261.245 625.048 265.784 626.594 270.202C627.927 273.646 629.52 276.971 631.359 280.145C631.918 280.176 632.479 280.143 633.032 280.047L635.489 279.573C635.489 279.573 631.382 263.63 627.852 253.384Z" fill="#5AC4E0"/>
<path d="M656.183 279.961C657.043 277.993 657.46 275.87 657.404 273.733C657.257 269.419 657.233 265.105 657.306 260.732C657.306 258.865 657.392 257.057 657.502 255.296C653.838 265.235 649.845 279.571 649.845 279.571L652.446 280.032C653.687 280.219 654.951 280.195 656.183 279.961V279.961Z" fill="#5AC4E0"/>
<path d="M631.911 331.264C631.911 331.264 624.997 339.312 624.187 341.025C623.376 342.737 625.379 344.892 628.049 344.018C630.719 343.144 632.316 341.339 632.364 340.198C632.411 339.056 633.842 338.439 634.474 338.346C635.105 338.252 638.693 334.269 638.336 333.162C637.978 332.056 636.178 330.833 636.178 330.833L631.911 331.264Z" fill="#292C3D"/>
<path d="M652.898 331.264C652.898 331.264 660.271 339.312 661.136 341.025C662 342.737 659.864 344.892 657.017 344.018C654.169 343.144 652.466 341.339 652.415 340.198C652.364 339.056 650.838 338.439 650.164 338.346C649.491 338.252 645.651 334.269 646.045 333.162C646.44 332.056 648.346 330.833 648.346 330.833L652.898 331.264Z" fill="#292C3D"/>
<path d="M617.305 296.411H615.391V344.219H617.305V296.411Z" fill="#AFEAF0"/>
<path d="M669.943 296.411H668.03V344.219H669.943V296.411Z" fill="#AFEAF0"/>
<path d="M672.815 292.586H610.606V298.323H672.815V292.586Z" fill="#292C3D"/>
<path d="M634.575 289.218C633.729 287.235 633.557 283.025 627.858 283.025C616.826 283.025 619.437 291.711 619.608 293.017C621.263 305.961 629.243 331.789 629.243 331.789H640.275C640.275 331.789 636.279 300.142 635.654 295.255C635.481 293.215 635.12 291.194 634.575 289.218V289.218Z" fill="#0254E4"/>
<path d="M650.489 289.218C651.308 287.235 651.472 283.025 656.913 283.025C667.443 283.025 664.951 291.711 664.787 293.017C663.196 305.961 655.59 331.789 655.59 331.789H645.06C645.06 331.789 648.874 300.142 649.471 295.255C649.637 293.216 649.977 291.196 650.489 289.218V289.218Z" fill="#0254E4"/>
<path d="M658.459 280.156H626.876V282.068H658.459V280.156Z" fill="#292C3D"/>
<path d="M663.253 258.164H622.105C621.804 258.162 621.507 258.23 621.237 258.363C620.968 258.496 620.734 258.689 620.554 258.928C620.374 259.167 620.254 259.444 620.204 259.737C620.153 260.03 620.173 260.33 620.262 260.614C620.647 263.053 625.829 280.156 626.877 280.156H658.458C659.373 280.156 664.687 263.053 665.073 260.614C665.161 260.332 665.181 260.034 665.132 259.743C665.082 259.451 664.964 259.176 664.788 258.937C664.611 258.699 664.38 258.505 664.113 258.371C663.847 258.237 663.552 258.166 663.253 258.164Z" fill="#292C3D"/>
<path d="M645.06 270.106C645.063 270.391 644.952 270.669 644.743 270.907C644.534 271.144 644.235 271.33 643.885 271.439C643.534 271.549 643.148 271.579 642.776 271.524C642.403 271.469 642.061 271.332 641.792 271.131C641.524 270.929 641.341 270.673 641.268 270.394C641.194 270.115 641.233 269.825 641.38 269.563C641.527 269.3 641.774 269.076 642.091 268.92C642.408 268.763 642.78 268.68 643.159 268.682C643.663 268.682 644.147 268.832 644.503 269.099C644.86 269.366 645.06 269.729 645.06 270.106V270.106Z" fill="white"/>
<path d="M508.265 96.5158H483.954L470.929 107.09L476.781 96.5158H470.809C470.319 96.5158 469.849 96.3222 469.502 95.9776C469.155 95.633 468.96 95.1657 468.96 94.6783V70.6812C468.96 70.1939 469.155 69.7265 469.502 69.3819C469.849 69.0373 470.319 68.8438 470.809 68.8438H508.265C508.756 68.8438 509.226 69.0373 509.573 69.3819C509.919 69.7265 510.114 70.1939 510.114 70.6812V94.66C510.116 94.9028 510.07 95.1437 509.979 95.3688C509.887 95.5938 509.751 95.7986 509.579 95.9711C509.407 96.1437 509.203 96.2807 508.977 96.3742C508.752 96.4677 508.51 96.5158 508.265 96.5158Z" fill="black"/>
<path d="M492.887 80.1385C492.887 82.5457 490.113 83.2581 490.113 84.192V84.5655H487.333V83.6524C487.333 82.3589 489.447 81.6188 489.447 80.1938C489.455 80.0346 489.434 79.8751 489.384 79.7252C489.334 79.5753 489.256 79.4381 489.156 79.3221C489.055 79.2062 488.934 79.1138 488.8 79.0508C488.665 78.9878 488.52 78.9554 488.374 78.9557C487.492 78.9557 487.314 79.7027 487.314 80.4429C487.304 80.6018 487.304 80.7612 487.314 80.9202H484.324C484.324 80.6919 484.273 80.4775 484.273 80.2284C484.273 77.925 486.178 76.4932 488.717 76.4932C491.256 76.4932 492.887 77.9458 492.887 80.1385ZM490.348 88.9233H487.13V85.6446H490.348V88.9233Z" fill="white"/>
<path d="M475.844 288.758C473.042 287.584 471.012 286.592 471.496 282.143C471.547 281.203 471.797 280.283 472.228 279.445C472.658 278.606 473.262 277.868 473.998 277.276C474.569 276.939 475.064 276.486 475.45 275.946C475.835 275.407 476.103 274.794 476.237 274.145C476.813 271.535 476.08 269.396 477.337 267.008C478.594 264.62 481.567 264.724 482.916 262.35C484.068 260.288 484.605 258.018 487.238 257.222C487.686 257.046 488.178 257.01 488.648 257.121C489.117 257.232 489.541 257.484 489.862 257.842C490.183 258.201 490.386 258.649 490.444 259.126C490.501 259.603 490.411 260.086 490.184 260.51C489.526 261.618 488.944 262.768 488.443 263.955C488.373 264.5 488.418 265.054 488.573 265.582C488.729 266.109 488.992 266.599 489.346 267.021C490.747 269.409 491.455 272.24 488.757 274.719C487.133 276.18 485.902 277.433 486.714 279.821C487.644 282.548 488.115 284.218 485.64 286.618C483.78 288.419 482.065 288.276 479.982 288.406C478.11 288.537 475.674 289.332 474.155 288.093L475.844 288.758Z" fill="#8494AB"/>
<path d="M469.87 288.678C467.866 290.818 466.151 292.501 463.191 289.983C462.455 289.365 461.878 288.581 461.509 287.695C461.14 286.81 460.989 285.85 461.069 284.894C461.069 283.146 461.213 282.35 460.126 280.98C458.411 278.866 455.949 278.109 454.888 275.396C453.696 272.46 456.368 270.581 455.399 267.958C454.561 265.662 452.976 263.522 454.482 261.552C455.713 259.934 458.254 260.9 459.21 262.752C459.574 263.871 460.012 264.965 460.519 266.027C461.184 266.838 462.109 267.395 463.138 267.606C465.325 268.389 467.29 269.72 467.473 272.512C467.578 274.234 467.748 275.657 469.398 276.426C471.048 277.196 472.109 277.731 472.437 280.341C472.569 282.01 472.19 283.679 471.35 285.129C470.695 286.682 470.145 289.043 468.73 289.996L469.87 288.678Z" fill="#0254E4"/>
<path d="M477.899 285.888H477.637C477.58 285.882 477.528 285.854 477.492 285.81C477.455 285.766 477.437 285.71 477.44 285.653C477.442 285.625 477.449 285.598 477.462 285.572C477.475 285.547 477.494 285.525 477.516 285.508C477.538 285.491 477.564 285.478 477.592 285.472C477.62 285.465 477.648 285.465 477.676 285.471C479.064 285.614 480.505 284.349 481.291 283.227C481.808 282.422 481.991 281.449 481.801 280.513V279.665C481.67 277.46 481.553 275.568 483.268 273.832C484.102 273.144 484.747 272.257 485.144 271.253C485.54 270.249 485.674 269.161 485.534 268.091V267.413C485.46 266.543 485.482 265.668 485.599 264.803C485.711 264.348 485.883 263.909 486.11 263.499C486.393 263.01 486.571 262.468 486.634 261.907C486.634 261.851 486.656 261.798 486.695 261.759C486.735 261.72 486.788 261.698 486.843 261.698V261.698C486.899 261.698 486.952 261.72 486.992 261.759C487.031 261.798 487.053 261.851 487.053 261.907C486.998 262.532 486.805 263.138 486.49 263.681C486.279 264.063 486.12 264.471 486.018 264.895C485.913 265.735 485.913 266.585 486.018 267.426C486.018 267.661 486.018 267.896 486.018 268.117C486.163 269.245 486.02 270.39 485.604 271.448C485.187 272.506 484.51 273.443 483.635 274.172C482.05 275.763 482.155 277.499 482.325 279.678V280.526C482.529 281.558 482.323 282.63 481.749 283.514C481.326 284.171 480.761 284.726 480.095 285.137C479.428 285.548 478.678 285.805 477.899 285.888Z" fill="white"/>
<path d="M482.709 280.043C482.537 280.036 482.37 279.992 482.218 279.913C482.066 279.834 481.934 279.722 481.831 279.586C481.795 279.543 481.777 279.487 481.782 279.431C481.787 279.374 481.814 279.322 481.857 279.286C481.901 279.25 481.957 279.232 482.013 279.237C482.07 279.242 482.122 279.269 482.158 279.312C482.234 279.425 482.342 279.513 482.468 279.564C482.594 279.615 482.733 279.627 482.866 279.599C483.756 279.377 484.725 277.486 484.882 276.781C485.341 274.68 485.891 273.61 487.947 272.867C487.999 272.846 488.057 272.847 488.109 272.869C488.16 272.891 488.201 272.932 488.222 272.984C488.243 273.036 488.242 273.094 488.22 273.145C488.198 273.197 488.156 273.237 488.104 273.258C486.127 274.015 485.707 274.993 485.288 276.911C485.157 277.538 484.162 279.756 482.97 280.043C482.884 280.057 482.795 280.057 482.709 280.043V280.043Z" fill="white"/>
<path d="M469.99 287.61C469.602 287.614 469.219 287.519 468.877 287.336C467.397 286.566 466.716 284.283 466.114 282.274C465.896 281.401 465.589 280.553 465.197 279.742C464.323 278.128 463.069 276.749 461.544 275.724C460.676 275.17 459.955 274.416 459.442 273.526C458.929 272.635 458.639 271.635 458.597 270.609C458.455 268.77 457.9 266.986 456.973 265.39C456.953 265.37 456.937 265.347 456.926 265.321C456.915 265.295 456.909 265.268 456.909 265.24C456.909 265.212 456.915 265.184 456.926 265.158C456.937 265.133 456.953 265.109 456.973 265.09C456.993 265.07 457.016 265.054 457.042 265.043C457.068 265.032 457.096 265.026 457.124 265.026C457.152 265.026 457.18 265.032 457.205 265.043C457.231 265.054 457.255 265.07 457.274 265.09C458.249 266.751 458.831 268.612 458.977 270.531C459.005 271.503 459.273 272.453 459.758 273.297C460.242 274.141 460.927 274.853 461.753 275.371C463.321 276.442 464.617 277.863 465.538 279.52C465.933 280.359 466.248 281.233 466.481 282.13C467.057 284.061 467.712 286.24 469.034 286.932C469.304 287.068 469.6 287.146 469.902 287.162C470.204 287.177 470.507 287.13 470.789 287.023C470.841 287.006 470.898 287.011 470.947 287.035C470.996 287.059 471.033 287.102 471.051 287.153C471.061 287.18 471.065 287.208 471.063 287.236C471.061 287.265 471.053 287.292 471.04 287.317C471.026 287.342 471.007 287.363 470.984 287.38C470.961 287.397 470.935 287.409 470.907 287.414C470.615 287.53 470.305 287.596 469.99 287.61Z" fill="white"/>
<path d="M463.48 277.237C463.437 277.249 463.392 277.249 463.349 277.237C463.311 277.196 463.29 277.142 463.29 277.087C463.29 277.031 463.311 276.978 463.349 276.937C463.978 276.141 463.598 274.862 463.192 273.518C462.746 272.455 462.606 271.29 462.786 270.152C462.806 270.099 462.846 270.055 462.896 270.029C462.947 270.002 463.005 269.995 463.061 270.008C463.114 270.029 463.156 270.069 463.181 270.12C463.205 270.171 463.209 270.229 463.192 270.282C463.049 271.339 463.189 272.415 463.598 273.401C464.017 274.784 464.436 276.219 463.689 277.198C463.661 277.222 463.627 277.239 463.59 277.246C463.553 277.253 463.515 277.25 463.48 277.237V277.237Z" fill="white"/>
<path d="M465.606 280.08H465.527C465.263 279.971 465.009 279.84 464.767 279.688C464.419 279.434 464.006 279.28 463.576 279.245C463.318 279.225 463.06 279.225 462.803 279.245C462.22 279.334 461.624 279.252 461.087 279.01C459.971 278.376 458.996 277.524 458.219 276.504C458.039 276.275 457.873 276.036 457.722 275.787C457.46 275.382 456.975 274.639 456.792 274.6C456.764 274.595 456.737 274.585 456.714 274.57C456.69 274.554 456.67 274.535 456.654 274.512C456.638 274.488 456.627 274.462 456.621 274.435C456.616 274.407 456.616 274.379 456.621 274.352C456.631 274.298 456.661 274.251 456.705 274.219C456.749 274.188 456.804 274.174 456.857 274.182C457.185 274.182 457.538 274.743 458.075 275.552C458.259 275.826 458.429 276.087 458.547 276.231C459.294 277.2 460.223 278.016 461.284 278.631C461.745 278.848 462.262 278.916 462.764 278.827C463.043 278.807 463.323 278.807 463.602 278.827C464.1 278.871 464.578 279.041 464.99 279.323C465.208 279.468 465.441 279.59 465.684 279.688C465.71 279.698 465.734 279.713 465.754 279.733C465.774 279.752 465.79 279.775 465.801 279.8C465.812 279.826 465.818 279.853 465.818 279.881C465.818 279.909 465.813 279.936 465.802 279.962C465.782 279.997 465.753 280.026 465.719 280.046C465.685 280.067 465.646 280.078 465.606 280.08V280.08Z" fill="white"/>
<path d="M469.018 289.161C466.006 286.643 462.47 284.947 463.256 280.132C463.924 276.218 468.495 275.135 467.08 270.855C466.163 268.115 463.78 264.958 464.592 261.904C465.456 258.642 469.726 259.947 470.642 256.907C471.415 254.298 468.704 251.362 471.127 249.261C473.248 247.408 477.033 249.17 478.186 251.297C479.639 254.011 477.23 256.033 477.623 258.695C477.884 260.404 479.535 260.652 480.739 261.643C482.031 262.683 483.04 264.029 483.673 265.558C485.231 269.955 480.779 271.56 479.43 274.952C478.12 278.149 482.494 279.14 482.822 282.376C483.188 285.938 479.364 288.743 476.274 289.331C474.152 289.709 470.917 290.753 469.018 289.161Z" fill="#99F2A8"/>
<path d="M472.466 290.193C472.439 290.185 472.414 290.173 472.392 290.155C472.37 290.138 472.352 290.117 472.339 290.092C472.326 290.068 472.317 290.041 472.314 290.014C472.311 289.986 472.314 289.958 472.322 289.932C473.756 284.382 473.886 278.578 472.702 272.97C471.769 268.825 472.051 264.5 473.514 260.509C474.139 258.976 474.404 257.32 474.286 255.669C474.282 255.616 474.296 255.563 474.328 255.52C474.359 255.477 474.405 255.446 474.457 255.434C474.484 255.428 474.513 255.428 474.54 255.434C474.568 255.439 474.594 255.45 474.617 255.466C474.64 255.482 474.66 255.502 474.675 255.526C474.69 255.549 474.701 255.576 474.705 255.603C474.841 257.32 474.571 259.045 473.92 260.64C472.473 264.557 472.191 268.806 473.108 272.878C474.315 278.554 474.185 284.432 472.728 290.049C472.72 290.076 472.708 290.101 472.69 290.123C472.673 290.144 472.651 290.162 472.627 290.176C472.603 290.189 472.576 290.197 472.548 290.2C472.521 290.203 472.493 290.201 472.466 290.193Z" fill="white"/>
<path d="M473.002 272.918C472.951 272.918 472.901 272.9 472.863 272.866C472.824 272.833 472.799 272.786 472.793 272.735C472.789 272.708 472.791 272.68 472.798 272.653C472.805 272.626 472.818 272.601 472.835 272.58C472.852 272.558 472.873 272.539 472.897 272.526C472.922 272.512 472.948 272.504 472.976 272.5C473.944 272.339 474.84 271.886 475.542 271.203C476.245 270.519 476.72 269.638 476.905 268.677C476.905 268.442 476.905 268.195 476.905 267.921C476.983 266.616 477.075 265.05 478.018 264.28C478.274 264.086 478.569 263.947 478.882 263.873C479.196 263.798 479.522 263.791 479.838 263.85C479.887 263.862 479.929 263.889 479.96 263.928C479.991 263.967 480.007 264.015 480.007 264.065C480.007 264.114 479.991 264.163 479.96 264.202C479.929 264.241 479.887 264.268 479.838 264.28C479.578 264.224 479.31 264.224 479.05 264.281C478.79 264.337 478.545 264.448 478.332 264.606C477.546 265.259 477.455 266.746 477.376 267.947C477.376 268.221 477.376 268.482 477.376 268.716C477.18 269.774 476.661 270.745 475.889 271.497C475.118 272.249 474.133 272.745 473.068 272.918H473.002Z" fill="white"/>
<path d="M471.72 273.021C470.957 273.038 470.216 272.773 469.637 272.278C469.165 271.781 468.809 271.187 468.594 270.537C468.379 269.888 468.31 269.199 468.393 268.52C468.393 268.35 468.393 268.155 468.393 267.946C468.459 266.732 468.55 264.893 467.791 264.031C467.664 263.895 467.51 263.788 467.338 263.716C467.167 263.644 466.982 263.609 466.796 263.614C466.747 263.602 466.704 263.574 466.674 263.535C466.643 263.496 466.626 263.448 466.626 263.399C466.626 263.349 466.643 263.301 466.674 263.262C466.704 263.223 466.747 263.195 466.796 263.183V263.183C467.042 263.182 467.286 263.232 467.512 263.331C467.737 263.43 467.94 263.575 468.105 263.757C468.996 264.71 468.891 266.654 468.825 267.933C468.825 268.141 468.825 268.337 468.825 268.507C468.749 269.124 468.808 269.75 468.998 270.343C469.188 270.935 469.504 271.479 469.925 271.938C470.318 272.234 470.773 272.438 471.256 272.535C471.739 272.632 472.237 272.62 472.715 272.499C472.742 272.496 472.77 272.498 472.797 272.505C472.824 272.512 472.849 272.525 472.871 272.542C472.893 272.559 472.911 272.58 472.925 272.604C472.939 272.628 472.947 272.655 472.951 272.682C472.956 272.709 472.956 272.736 472.951 272.763C472.945 272.79 472.934 272.815 472.918 272.837C472.902 272.859 472.881 272.878 472.857 272.891C472.834 272.905 472.808 272.914 472.78 272.917C472.432 272.99 472.076 273.025 471.72 273.021Z" fill="white"/>
<path d="M474.22 286.748C473.955 286.747 473.692 286.694 473.448 286.591C473.422 286.581 473.398 286.566 473.378 286.547C473.358 286.527 473.342 286.504 473.331 286.479C473.32 286.453 473.314 286.426 473.314 286.398C473.314 286.37 473.319 286.343 473.33 286.317C473.353 286.267 473.394 286.227 473.444 286.206C473.495 286.184 473.552 286.182 473.605 286.2C474.914 286.722 476.826 285.299 477.534 284.347C477.852 283.836 478.094 283.282 478.254 282.703C478.634 281.542 479.027 280.354 480.1 280.093C480.156 280.081 480.214 280.091 480.263 280.12C480.311 280.149 480.347 280.195 480.362 280.25C480.37 280.277 480.372 280.306 480.368 280.334C480.365 280.363 480.355 280.39 480.34 280.414C480.326 280.439 480.306 280.46 480.283 280.476C480.26 280.493 480.233 280.505 480.205 280.511C479.354 280.72 479 281.816 478.66 282.846C478.489 283.476 478.219 284.075 477.861 284.621C476.971 285.774 475.665 286.537 474.22 286.748Z" fill="white"/>
<path d="M472.335 286.658C472.059 286.653 471.785 286.605 471.523 286.514C470.001 285.761 468.811 284.474 468.184 282.9C467.937 282.116 467.826 281.295 467.856 280.473C467.856 279.012 467.738 277.486 466.769 277.003C466.744 276.99 466.722 276.972 466.704 276.951C466.686 276.93 466.672 276.905 466.664 276.878C466.655 276.852 466.652 276.823 466.655 276.796C466.657 276.768 466.665 276.741 466.678 276.716C466.691 276.691 466.708 276.669 466.73 276.651C466.751 276.633 466.776 276.619 466.803 276.611C466.83 276.602 466.858 276.599 466.886 276.601C466.914 276.604 466.941 276.612 466.966 276.624C468.158 277.225 468.275 278.947 468.275 280.46C468.252 281.232 468.349 282.002 468.564 282.744C469.159 284.2 470.254 285.397 471.654 286.123C471.907 286.215 472.177 286.252 472.446 286.231C472.715 286.211 472.976 286.134 473.213 286.006C473.237 285.992 473.265 285.984 473.293 285.981C473.321 285.979 473.349 285.982 473.376 285.99C473.403 285.999 473.428 286.012 473.449 286.031C473.471 286.049 473.488 286.072 473.501 286.097C473.517 286.119 473.527 286.145 473.532 286.172C473.536 286.199 473.535 286.226 473.527 286.253C473.52 286.279 473.506 286.303 473.488 286.324C473.47 286.344 473.447 286.36 473.422 286.371C473.091 286.56 472.716 286.659 472.335 286.658V286.658Z" fill="white"/>
<path d="M458.923 287.922C457.304 292.345 456.488 297.019 456.513 301.727C456.513 316.393 463.821 328.279 472.844 328.279C481.867 328.279 489.162 316.393 489.162 301.727C489.194 297.008 488.387 292.321 486.778 287.883L458.923 287.922Z" fill="#FF4C6B"/>
<path d="M488.506 294.211C488.124 292.068 487.55 289.963 486.791 287.922H458.922C458.162 289.963 457.588 292.068 457.207 294.211H488.506Z" fill="#0254E4"/>
<defs>
<linearGradient id="paint0_linear" x1="553.587" y1="148.566" x2="553.587" y2="315.628" gradientUnits="userSpaceOnUse">
<stop stop-color="white"/>
<stop offset="1" stop-color="white" stop-opacity="0.08"/>
</linearGradient>
<linearGradient id="paint1_linear" x1="451.581" y1="148.566" x2="451.581" y2="315.628" gradientUnits="userSpaceOnUse">
<stop stop-color="white"/>
<stop offset="1" stop-color="white" stop-opacity="0.08"/>
</linearGradient>
<linearGradient id="paint2_linear" x1="216.048" y1="145.133" x2="216.048" y2="317.917" gradientUnits="userSpaceOnUse">
<stop stop-color="white"/>
<stop offset="1" stop-color="white" stop-opacity="0.08"/>
</linearGradient>
<linearGradient id="paint3_linear" x1="335.82" y1="145.133" x2="335.82" y2="317.917" gradientUnits="userSpaceOnUse">
<stop stop-color="white"/>
<stop offset="1" stop-color="white" stop-opacity="0.08"/>
</linearGradient>
</defs>
</svg>
