<svg width="29" height="29" viewBox="0 0 29 29" fill="none" xmlns="http://www.w3.org/2000/svg">
<path d="M28.3468 14.1734C28.3468 6.34482 22.002 0 14.1734 0C6.34482 0 0 6.34482 0 14.1734C0 22.002 6.34482 28.3468 14.1734 28.3468C14.2565 28.3468 14.3395 28.3468 14.4226 28.3413V17.3126H11.3775V13.7637H14.4226V11.1505C14.4226 8.12203 16.2717 6.47215 18.9735 6.47215C20.2691 6.47215 21.3819 6.56627 21.703 6.61057V9.77744H19.8428C18.3756 9.77744 18.0877 10.475 18.0877 11.4993V13.7582H21.6034L21.1438 17.3071H18.0877V27.7987C24.0117 26.099 28.3468 20.6456 28.3468 14.1734Z" fill="white"/>
</svg>
