<?xml version="1.0" encoding="UTF-8"?>
<svg width="676px" height="453px" viewBox="0 0 676 453" version="1.1" xmlns="http://www.w3.org/2000/svg" xmlns:xlink="http://www.w3.org/1999/xlink">
    <!-- Generator: Sketch 63.1 (92452) - https://sketch.com -->
    <title>graphics</title>
    <desc>Created with Sketch.</desc>
    <g id="Landing" stroke="none" stroke-width="1" fill="none" fill-rule="evenodd">
        <g id="Landing-page" transform="translate(-872.000000, -163.000000)">
            <g id="graphics" transform="translate(872.000000, 163.000000)">
                <path d="M17,276 L20,276 L20,279 L17,279 L17,276 Z M17,294 L20,294 L20,297 L17,297 L17,294 Z M17,311 L20,311 L20,314 L17,314 L17,311 Z M17,328 L20,328 L20,331 L17,331 L17,328 Z M17,346 L20,346 L20,349 L17,349 L17,346 Z M17,363 L20,363 L20,366 L17,366 L17,363 Z M17,380 L20,380 L20,383 L17,383 L17,380 Z M17,398 L20,398 L20,401 L17,401 L17,398 Z M17,415 L20,415 L20,418 L17,418 L17,415 Z M17,432 L20,432 L20,435 L17,435 L17,432 Z M17,450 L20,450 L20,453 L17,453 L17,450 Z M0,276 L3,276 L3,279 L0,279 L0,276 Z M0,294 L3,294 L3,297 L0,297 L0,294 Z M0,311 L3,311 L3,314 L0,314 L0,311 Z M0,328 L3,328 L3,331 L0,331 L0,328 Z M0,346 L3,346 L3,349 L0,349 L0,346 Z M0,363 L3,363 L3,366 L0,366 L0,363 Z M0,380 L3,380 L3,383 L0,383 L0,380 Z M0,398 L3,398 L3,401 L0,401 L0,398 Z M0,415 L3,415 L3,418 L0,418 L0,415 Z M0,432 L3,432 L3,435 L0,435 L0,432 Z M0,450 L3,450 L3,453 L0,453 L0,450 Z M35,276 L38,276 L38,279 L35,279 L35,276 Z M35,294 L38,294 L38,297 L35,297 L35,294 Z M35,311 L38,311 L38,314 L35,314 L35,311 Z M35,328 L38,328 L38,331 L35,331 L35,328 Z M35,346 L38,346 L38,349 L35,349 L35,346 Z M35,363 L38,363 L38,366 L35,366 L35,363 Z M35,380 L38,380 L38,383 L35,383 L35,380 Z M35,398 L38,398 L38,401 L35,401 L35,398 Z M35,415 L38,415 L38,418 L35,418 L35,415 Z M35,432 L38,432 L38,435 L35,435 L35,432 Z M35,450 L38,450 L38,453 L35,453 L35,450 Z M52,259 L55,259 L55,262 L52,262 L52,259 Z M52,276 L55,276 L55,279 L52,279 L52,276 Z M52,294 L55,294 L55,297 L52,297 L52,294 Z M52,311 L55,311 L55,314 L52,314 L52,311 Z M52,328 L55,328 L55,331 L52,331 L52,328 Z M52,346 L55,346 L55,349 L52,349 L52,346 Z M52,363 L55,363 L55,366 L52,366 L52,363 Z M52,380 L55,380 L55,383 L52,383 L52,380 Z M52,398 L55,398 L55,401 L52,401 L52,398 Z M52,415 L55,415 L55,418 L52,418 L52,415 Z M52,432 L55,432 L55,435 L52,435 L52,432 Z M52,450 L55,450 L55,453 L52,453 L52,450 Z M70,259 L73,259 L73,262 L70,262 L70,259 Z M70,276 L73,276 L73,279 L70,279 L70,276 Z M70,294 L73,294 L73,297 L70,297 L70,294 Z M70,311 L73,311 L73,314 L70,314 L70,311 Z M70,328 L73,328 L73,331 L70,331 L70,328 Z M70,346 L73,346 L73,349 L70,349 L70,346 Z M70,363 L73,363 L73,366 L70,366 L70,363 Z M70,380 L73,380 L73,383 L70,383 L70,380 Z M70,398 L73,398 L73,401 L70,401 L70,398 Z M70,415 L73,415 L73,418 L70,418 L70,415 Z M70,432 L73,432 L73,435 L70,435 L70,432 Z M70,450 L73,450 L73,453 L70,453 L70,450 Z M87,259 L90,259 L90,262 L87,262 L87,259 Z M87,276 L90,276 L90,279 L87,279 L87,276 Z M87,294 L90,294 L90,297 L87,297 L87,294 Z M87,311 L90,311 L90,314 L87,314 L87,311 Z M87,328 L90,328 L90,331 L87,331 L87,328 Z M87,346 L90,346 L90,349 L87,349 L87,346 Z M87,363 L90,363 L90,366 L87,366 L87,363 Z M87,380 L90,380 L90,383 L87,383 L87,380 Z M87,398 L90,398 L90,401 L87,401 L87,398 Z M87,415 L90,415 L90,418 L87,418 L87,415 Z M87,432 L90,432 L90,435 L87,435 L87,432 Z M87,450 L90,450 L90,453 L87,453 L87,450 Z M104,259 L107,259 L107,262 L104,262 L104,259 Z M104,276 L107,276 L107,279 L104,279 L104,276 Z M104,294 L107,294 L107,297 L104,297 L104,294 Z M104,311 L107,311 L107,314 L104,314 L104,311 Z M104,328 L107,328 L107,331 L104,331 L104,328 Z M104,346 L107,346 L107,349 L104,349 L104,346 Z M104,363 L107,363 L107,366 L104,366 L104,363 Z M104,380 L107,380 L107,383 L104,383 L104,380 Z M104,398 L107,398 L107,401 L104,401 L104,398 Z M104,415 L107,415 L107,418 L104,418 L104,415 Z M104,432 L107,432 L107,435 L104,435 L104,432 Z M104,450 L107,450 L107,453 L104,453 L104,450 Z M122,259 L125,259 L125,262 L122,262 L122,259 Z M122,276 L125,276 L125,279 L122,279 L122,276 Z M122,294 L125,294 L125,297 L122,297 L122,294 Z M122,311 L125,311 L125,314 L122,314 L122,311 Z M122,328 L125,328 L125,331 L122,331 L122,328 Z M122,346 L125,346 L125,349 L122,349 L122,346 Z M122,363 L125,363 L125,366 L122,366 L122,363 Z M122,380 L125,380 L125,383 L122,383 L122,380 Z M122,398 L125,398 L125,401 L122,401 L122,398 Z M122,415 L125,415 L125,418 L122,418 L122,415 Z M122,432 L125,432 L125,435 L122,435 L122,432 Z M122,450 L125,450 L125,453 L122,453 L122,450 Z" id="Shape" fill="#8680FF" fill-rule="nonzero"></path>
                <path d="M69.3999996,85 L638.6,85 C642.134623,85 645,87.8653774 645,91.3999996 L645,419.6 C645,423.134623 642.134623,426 638.6,426 L69.3999996,426 C65.8653774,426 63,423.134623 63,419.6 L63,91.3999996 C63,87.8653774 65.8653774,85 69.3999996,85 Z" id="Path" stroke-opacity="0.48" stroke="#58677A" stroke-width="1.5999999"></path>
                <path d="M586,35 L589,35 L589,38 L586,38 L586,35 Z M603,35 L606,35 L606,38 L603,38 L603,35 Z M621,35 L624,35 L624,38 L621,38 L621,35 Z M638,35 L641,35 L641,38 L638,38 L638,35 Z M655,35 L658,35 L658,38 L655,38 L655,35 Z M673,35 L676,35 L676,38 L673,38 L673,35 Z M586,0 L589,0 L589,3 L586,3 L586,0 Z M603,0 L606,0 L606,3 L603,3 L603,0 Z M621,0 L624,0 L624,3 L621,3 L621,0 Z M638,0 L641,0 L641,3 L638,3 L638,0 Z M655,0 L658,0 L658,3 L655,3 L655,0 Z M673,0 L676,0 L676,3 L673,3 L673,0 Z M586,17 L589,17 L589,20 L586,20 L586,17 Z M603,17 L606,17 L606,20 L603,20 L603,17 Z M621,17 L624,17 L624,20 L621,20 L621,17 Z M638,17 L641,17 L641,20 L638,20 L638,17 Z M655,17 L658,17 L658,20 L655,20 L655,17 Z M673,17 L676,17 L676,20 L673,20 L673,17 Z M586,52 L589,52 L589,55 L586,55 L586,52 Z M603,52 L606,52 L606,55 L603,55 L603,52 Z M621,52 L624,52 L624,55 L621,55 L621,52 Z M638,52 L641,52 L641,55 L638,55 L638,52 Z M655,52 L658,52 L658,55 L655,55 L655,52 Z M673,52 L676,52 L676,55 L673,55 L673,52 Z M586,69 L589,69 L589,72 L586,72 L586,69 Z M603,69 L606,69 L606,72 L603,72 L603,69 Z M621,69 L624,69 L624,72 L621,72 L621,69 Z M638,69 L641,69 L641,72 L638,72 L638,69 Z M655,69 L658,69 L658,72 L655,72 L655,69 Z M673,69 L676,69 L676,72 L673,72 L673,69 Z M586,87 L589,87 L589,90 L586,90 L586,87 Z M603,87 L606,87 L606,90 L603,90 L603,87 Z M621,87 L624,87 L624,90 L621,90 L621,87 Z M638,87 L641,87 L641,90 L638,90 L638,87 Z M655,87 L658,87 L658,90 L655,90 L655,87 Z M673,87 L676,87 L676,90 L673,90 L673,87 Z M586,104 L589,104 L589,107 L586,107 L586,104 Z M603,104 L606,104 L606,107 L603,107 L603,104 Z M621,104 L624,104 L624,107 L621,107 L621,104 Z M638,104 L641,104 L641,107 L638,107 L638,104 Z M655,104 L658,104 L658,107 L655,107 L655,104 Z M673,104 L676,104 L676,107 L673,107 L673,104 Z M586,121 L589,121 L589,124 L586,124 L586,121 Z M603,121 L606,121 L606,124 L603,124 L603,121 Z M621,121 L624,121 L624,124 L621,124 L621,121 Z M638,121 L641,121 L641,124 L638,124 L638,121 Z M655,121 L658,121 L658,124 L655,124 L655,121 Z M673,121 L676,121 L676,124 L673,124 L673,121 Z M586,139 L589,139 L589,142 L586,142 L586,139 Z M603,139 L606,139 L606,142 L603,142 L603,139 Z M621,139 L624,139 L624,142 L621,142 L621,139 Z M638,139 L641,139 L641,142 L638,142 L638,139 Z M655,139 L658,139 L658,142 L655,142 L655,139 Z M673,139 L676,139 L676,142 L673,142 L673,139 Z" id="Shape" fill-opacity="0.54" fill="#546E7A" fill-rule="nonzero"></path>
            </g>
        </g>
    </g>
</svg>