<svg width="28" height="28" viewBox="8 8 35 35" fill="none" xmlns="http://www.w3.org/2000/svg">
<path d="M40.5469 22.4999H28.7891C28.3594 20.3905 26.3281 19.0233 24.2187 19.453C22.6953 19.7655 21.4844 20.9374 21.1719 22.4999H9.45313C9.0625 22.4999 8.78906 22.8124 8.75 23.203V38.6327C8.75 39.0233 9.0625 39.3358 9.45313 39.3358H40.5469C40.9375 39.3358 41.25 39.0233 41.25 38.6327V23.203C41.2109 22.8124 40.9375 22.4999 40.5469 22.4999ZM25 20.7811C26.4062 20.7811 27.5 21.9139 27.5 23.2811C27.5 24.6874 26.3672 25.7811 25 25.7811C23.5937 25.7811 22.5 24.6483 22.5 23.2811C22.5 21.7577 23.7891 20.7811 25 20.7811ZM39.8828 37.9296H10.1563V23.8671H21.1719C21.4844 25.9764 23.4766 27.4217 25.5859 27.1092C27.2656 26.8358 28.5547 25.5467 28.8281 23.8671H39.8438L39.8828 37.9296Z" fill="black"/>
<path d="M14.6094 29.1406H13.3203V35.3906H17.7734V34.3359H14.6094V29.1406Z" fill="black"/>
<path d="M20.2734 29.1016H21.5625V35.3906H20.2734V29.1016Z" fill="black"/>
<path d="M26.7188 33.75L25.1172 29.1016H23.75L25.9766 35.3906H27.3438L29.6094 29.1016H28.2422L26.7188 33.75Z" fill="black"/>
<path d="M36.6797 34.3359H33.1641V32.6172H36.3281V31.5625H33.1641V30.1562H36.5625V29.1016H31.875V35.3906H36.6797V34.3359Z" fill="black"/>
<path d="M19.1387 17.4219C18.8652 17.6953 18.8652 18.125 19.1387 18.3984C19.4121 18.6719 19.8418 18.6719 20.1152 18.3984C22.8105 15.7031 27.1855 15.7031 29.8808 18.3984C30.1543 18.6719 30.584 18.6719 30.8574 18.3984C31.1308 18.125 31.1308 17.6953 30.8574 17.4219C27.6152 14.2187 22.3809 14.2187 19.1387 17.4219Z" fill="black"/>
<path d="M17.0723 15.3516C21.4473 10.9375 28.5566 10.9375 32.9316 15.3516C33.2051 15.625 33.6348 15.625 33.9082 15.3516C34.1816 15.0781 34.1816 14.6484 33.9082 14.375C28.9863 9.45312 21.0176 9.45312 16.0957 14.375C15.8223 14.6484 15.8223 15.0781 16.0957 15.3516C16.4473 15.7031 16.877 15.5078 17.0723 15.3516Z" fill="black"/>
</svg>
