<svg width="28" height="28" viewBox="0 0 28 28" fill="none" xmlns="http://www.w3.org/2000/svg">
<path d="M25.3203 1.03053C23.8098 0.365969 21.8288 0 19.7422 0C15.4721 0 11.5391 1.56795 11.5391 4.10156C11.5391 4.73545 11.5391 9.66405 11.5391 10.2564C10.7302 10.0208 9.88537 9.89844 9.02344 9.89844C6.61872 9.89844 4.3528 10.8487 2.64305 12.5742C0.938656 14.2943 0 16.568 0 18.9766C0 23.9521 4.04791 28 9.02344 28C10.6838 28 12.2801 27.5538 13.6751 26.7182C15.2008 27.5367 17.3749 28 19.7422 28C21.8288 28 23.8098 27.634 25.3203 26.9695C27.0483 26.2093 28 25.1186 28 23.8984C28 23.3875 28 4.62306 28 4.10156C28 2.88138 27.0483 1.79074 25.3203 1.03053ZM9.02344 26.3594C4.95255 26.3594 1.64062 23.0474 1.64062 18.9766C1.64062 14.8755 4.95255 11.5391 9.02344 11.5391C13.1245 11.5391 16.4609 14.8755 16.4609 18.9766C16.4609 23.0474 13.1245 26.3594 9.02344 26.3594ZM26.3594 23.8984C26.3594 24.9018 23.7816 26.3594 19.7422 26.3594C18.0238 26.3594 16.4005 26.084 15.1687 25.6014C15.2556 25.5216 15.3415 25.4405 15.4259 25.357C16.1645 24.625 16.7606 23.791 17.2014 22.8879C18.0164 23.0136 18.8678 23.0781 19.7422 23.0781C21.8992 23.0781 24.5742 22.6588 26.3594 21.4911V23.8984ZM26.3594 18.9766C26.3594 19.98 23.7816 21.4375 19.7422 21.4375C19.073 21.4375 18.4206 21.3957 17.792 21.3147C17.9958 20.5609 18.1016 19.7765 18.1016 18.9766C18.1016 18.6545 18.084 18.3349 18.0504 18.0186C18.603 18.0733 19.1685 18.1016 19.7422 18.1016C21.8994 18.1016 24.5741 17.6822 26.3594 16.5146V18.9766ZM26.3594 14C26.3594 15.0034 23.7816 16.4609 19.7422 16.4609C19.0439 16.4609 18.3608 16.4153 17.7038 16.3265C17.278 14.9455 16.5185 13.6744 15.4661 12.6101C16.7344 12.9804 18.2075 13.1797 19.7422 13.1797C21.8994 13.1797 24.5741 12.7603 26.3594 11.5927V14ZM26.3594 9.07812C26.3594 10.0815 23.7816 11.5391 19.7422 11.5391C17.8824 11.5391 16.1468 11.2229 14.8549 10.6487C13.8216 10.1895 13.1797 9.58765 13.1797 9.07812V6.62785C14.9556 7.79193 17.6078 8.20312 19.7422 8.20312C21.8994 8.20312 24.5741 7.78378 26.3594 6.61615V9.07812ZM19.7422 6.5625C15.7349 6.5625 13.1797 5.12668 13.1797 4.10156C13.1797 3.07327 15.7422 1.64062 19.7422 1.64062C23.7816 1.64062 26.3594 3.09816 26.3594 4.10156C26.3594 5.10497 23.7816 6.5625 19.7422 6.5625Z" fill="black"/>
</svg>
