<svg width="28" height="28" viewBox="0 0 32 32" fill="none" xmlns="http://www.w3.org/2000/svg">
<path d="M20.8696 6.95652H30.6087C31.376 6.95652 32 6.33252 32 5.56522V1.3913C32 0.624 31.376 0 30.6087 0H20.8696C20.1023 0 19.4783 0.624 19.4783 1.3913V2.78261H16C15.616 2.78261 15.3043 3.09426 15.3043 3.47826V15.3043H12.5217V13.913C12.5217 13.1457 11.8977 12.5217 11.1304 12.5217H1.3913C0.624 12.5217 0 13.1457 0 13.913V18.087C0 18.8543 0.624 19.4783 1.3913 19.4783H11.1304C11.8977 19.4783 12.5217 18.8543 12.5217 18.087V16.6957H15.3043V28.5217C15.3043 28.9057 15.616 29.2174 16 29.2174H19.4783V30.6087C19.4783 31.376 20.1023 32 20.8696 32H30.6087C31.376 32 32 31.376 32 30.6087V26.4348C32 25.6675 31.376 25.0435 30.6087 25.0435H20.8696C20.1023 25.0435 19.4783 25.6675 19.4783 26.4348V27.8261H16.6957V16.6957H19.4783V18.087C19.4783 18.8543 20.1023 19.4783 20.8696 19.4783H30.6087C31.376 19.4783 32 18.8543 32 18.087V13.913C32 13.1457 31.376 12.5217 30.6087 12.5217H20.8696C20.1023 12.5217 19.4783 13.1457 19.4783 13.913V15.3043H16.6957V4.17391H19.4783V5.56522C19.4783 6.33252 20.1023 6.95652 20.8696 6.95652ZM20.8696 1.3913L30.6087 1.39061V5.56522H20.8696V1.3913ZM11.1304 18.087H1.3913V13.913L11.1304 13.9123V18.087ZM20.8696 26.4348L30.6087 26.4341V30.6087H20.8696V26.4348ZM20.8696 13.913L30.6087 13.9123V18.087H20.8696V13.913Z" fill="black"/>
</svg>
