<svg width="52px" height="52px" viewBox="0 0 52 52" version="1.1" xmlns="http://www.w3.org/2000/svg" xmlns:xlink="http://www.w3.org/1999/xlink">
    <defs>
        <rect id="path-1" x="0" y="0" width="46" height="46" rx="4"></rect>
        <filter x="-10.9%" y="-8.7%" width="121.7%" height="121.7%" filterUnits="objectBoundingBox" id="filter-3">
            <feOffset dx="0" dy="1" in="SourceAlpha" result="shadowOffsetOuter1"></feOffset>
            <feGaussianBlur stdDeviation="1.5" in="shadowOffsetOuter1" result="shadowBlurOuter1"></feGaussianBlur>
            <feComposite in="shadowBlurOuter1" in2="SourceAlpha" operator="out" result="shadowBlurOuter1"></feComposite>
            <feColorMatrix values="0 0 0 0 0   0 0 0 0 0   0 0 0 0 0  0 0 0 0.04 0" type="matrix" in="shadowBlurOuter1"></feColorMatrix>
        </filter>
        <path d="M19.83625,22.754375 C19.83625,23.2915869 19.4007536,23.7270833 18.8635417,23.7270833 C18.3263297,23.7270833 17.8908333,23.2915869 17.8908333,22.754375 L17.8908333,20.8089583 C17.8908333,19.1973224 16.5843442,17.8908333 14.9727083,17.8908333 L7.19104167,17.8908333 C5.57940573,17.8908333 4.27291667,19.1973224 4.27291667,20.8089583 L4.27291667,22.754375 C4.27291667,23.2915869 3.83742031,23.7270833 3.30020833,23.7270833 C2.76299635,23.7270833 2.3275,23.2915869 2.3275,22.754375 L2.3275,20.8089583 C2.3275,18.1228985 4.50498177,15.9454167 7.19104167,15.9454167 L14.9727083,15.9454167 C17.6587682,15.9454167 19.83625,18.1228985 19.83625,20.8089583 L19.83625,22.754375 Z M11.081875,14 C8.39581511,14 6.21833333,11.8225182 6.21833333,9.13645833 C6.21833333,6.45039844 8.39581511,4.27291667 11.081875,4.27291667 C13.7679348,4.27291667 15.9454167,6.45039844 15.9454167,9.13645833 C15.9454167,11.8225182 13.7679348,14 11.081875,14 Z M11.081875,12.0545833 C12.6935109,12.0545833 14,10.7480943 14,9.13645833 C14,7.5248224 12.6935109,6.21833333 11.081875,6.21833333 C9.47023906,6.21833333 8.16375,7.5248224 8.16375,9.13645833 C8.16375,10.7480943 9.47023906,12.0545833 11.081875,12.0545833 Z M25.6725,22.754375 C25.6725,23.2915869 25.2370036,23.7270833 24.6997917,23.7270833 C24.1625797,23.7270833 23.7270833,23.2915869 23.7270833,22.754375 L23.7270836,20.7665839 C23.7260808,19.3924165 22.8204607,18.1982939 21.5334514,17.8586306 C21.0140246,17.7215451 20.7040757,17.1893367 20.8411611,16.6699098 C20.9782465,16.1504829 21.510455,15.840534 22.0298819,15.9776194 C24.1765307,16.5441561 25.6708574,18.5145289 25.6725,20.7658742 L25.6725,22.754375 Z M17.6416742,6.18588092 C17.1223852,6.04827411 16.8129706,5.51575483 16.9505774,4.99646582 C17.0881842,4.47717681 17.6207035,4.16776226 18.1399925,4.30536907 C20.2885025,4.87470446 21.7816667,6.86559009 21.7816667,9.13645833 C21.7816667,11.4073266 20.2885025,13.3982122 18.1399925,13.9675476 C17.6207035,14.1051544 17.0881842,13.7957399 16.9505774,13.2764508 C16.8129706,12.7571618 17.1223852,12.2246426 17.6416742,12.0870357 C18.9274075,11.7463282 19.83625,10.5345382 19.83625,9.13645833 C19.83625,7.73837848 18.9274075,6.52658844 17.6416742,6.18588092 Z" id="path-4"></path>
    </defs>
    <g id="Client-Side" stroke="none" stroke-width="1" fill="none" fill-rule="evenodd">
        <g id="0-1-1-Subscription-Modal" transform="translate(-791.000000, -358.000000)">
            <g id="conformation-modals" transform="translate(567.000000, 217.000000)">
                <g id="Group-2" transform="translate(24.000000, 143.000000)">
                    <g id="Group-Copy" transform="translate(203.000000, 0.000000)">
                        <g id="icon">
                            <mask id="mask-2" fill="white">
                                <use xlink:href="#path-1"></use>
                            </mask>
                            <g id="Rectangle">
                                <use fill="black" fill-opacity="1" filter="url(#filter-3)" xlink:href="#path-1"></use>
                                <rect stroke="#3F51B5" stroke-width="2" stroke-linejoin="square" fill="#3F51B5" fill-rule="evenodd" x="1" y="1" width="44" height="44" rx="4"></rect>
                            </g>
                            <g id="icons/ic/users(custom)" mask="url(#mask-2)">
                                <g transform="translate(9.000000, 9.000000)">
                                    <mask id="mask-5" fill="white">
                                        <use xlink:href="#path-4"></use>
                                    </mask>
                                    <g id="icons/ic/users(custom)" stroke="none" fill="none" fill-rule="nonzero"></g>
                                    <g id="ic/color/white" stroke="none" fill="none" mask="url(#mask-5)" fill-rule="evenodd">
                                        <rect id="BG" fill="#FFFFFF" x="0" y="0" width="28" height="28"></rect>
                                    </g>
                                </g>
                            </g>
                        </g>
                    </g>
                </g>
            </g>
        </g>
    </g>
</svg>