<svg width="20" height="20" viewBox="0 0 20 20" fill="none" xmlns="http://www.w3.org/2000/svg">
<path d="M19.6532 9.82659C19.6532 4.39894 15.2542 0 9.82659 0C4.39894 0 0 4.39894 0 9.82659C0 15.2542 4.39894 19.6532 9.82659 19.6532C9.88417 19.6532 9.94175 19.6532 9.99932 19.6493V12.003H7.88814V9.54254H9.99932V7.73076C9.99932 5.6311 11.2814 4.48722 13.1546 4.48722C14.0528 4.48722 14.8243 4.55248 15.047 4.58318V6.77881H13.7572C12.74 6.77881 12.5404 7.26247 12.5404 7.97259V9.5387H14.9779L14.6593 11.9992H12.5404V19.2732C16.6476 18.0947 19.6532 14.3138 19.6532 9.82659Z" fill="black"/>
</svg>
