<svg width="20" height="20" viewBox="0 0 20 20" fill="none" xmlns="http://www.w3.org/2000/svg">
<path d="M11.7083 9.82667C11.7083 10.8655 10.8662 11.7075 9.8274 11.7075C8.78861 11.7075 7.94653 10.8655 7.94653 9.82667C7.94653 8.78787 8.78861 7.9458 9.8274 7.9458C10.8662 7.9458 11.7083 8.78787 11.7083 9.82667Z" fill="black"/>
<path d="M14.2258 6.49922C14.1353 6.25421 13.9911 6.03245 13.8037 5.85042C13.6216 5.66299 13.4 5.51875 13.1549 5.42833C12.956 5.35111 12.6574 5.2592 12.1072 5.23416C11.5121 5.20702 11.3337 5.20117 9.82706 5.20117C8.32029 5.20117 8.14186 5.20687 7.54689 5.23401C6.99675 5.2592 6.69792 5.35111 6.49925 5.42833C6.25409 5.51875 6.03233 5.66299 5.85045 5.85042C5.66302 6.03245 5.51878 6.25406 5.42821 6.49922C5.35099 6.69804 5.25908 6.99688 5.23404 7.54701C5.2069 8.14198 5.20105 8.32041 5.20105 9.82718C5.20105 11.3338 5.2069 11.5122 5.23404 12.1073C5.25908 12.6575 5.35099 12.9562 5.42821 13.155C5.51878 13.4001 5.66287 13.6218 5.8503 13.8038C6.03233 13.9912 6.25394 14.1355 6.4991 14.2259C6.69792 14.3032 6.99675 14.3952 7.54689 14.4202C8.14186 14.4473 8.32014 14.453 9.82691 14.453C11.3338 14.453 11.5123 14.4473 12.1071 14.4202C12.6572 14.3952 12.956 14.3032 13.1549 14.2259C13.647 14.036 14.0359 13.6471 14.2258 13.155C14.303 12.9562 14.3949 12.6575 14.4201 12.1073C14.4472 11.5122 14.4529 11.3338 14.4529 9.82718C14.4529 8.32041 14.4472 8.14198 14.4201 7.54701C14.395 6.99688 14.3031 6.69804 14.2258 6.49922ZM9.82706 12.7245C8.22673 12.7245 6.92943 11.4274 6.92943 9.82703C6.92943 8.2267 8.22673 6.92955 9.82706 6.92955C11.4272 6.92955 12.7245 8.2267 12.7245 9.82703C12.7245 11.4274 11.4272 12.7245 9.82706 12.7245ZM12.8391 7.49213C12.4651 7.49213 12.162 7.18895 12.162 6.815C12.162 6.44104 12.4651 6.13786 12.8391 6.13786C13.213 6.13786 13.5162 6.44104 13.5162 6.815C13.5161 7.18895 13.213 7.49213 12.8391 7.49213Z" fill="black"/>
<path d="M9.82659 0C4.40034 0 0 4.40034 0 9.82659C0 15.2528 4.40034 19.6532 9.82659 19.6532C15.2528 19.6532 19.6532 15.2528 19.6532 9.82659C19.6532 4.40034 15.2528 0 9.82659 0ZM15.4352 12.1529C15.4079 12.7536 15.3124 13.1637 15.1729 13.5227C14.8798 14.2806 14.2806 14.8798 13.5227 15.1729C13.1638 15.3124 12.7536 15.4077 12.1531 15.4352C11.5514 15.4626 11.3591 15.4692 9.82674 15.4692C8.29419 15.4692 8.10211 15.4626 7.50024 15.4352C6.89973 15.4077 6.48948 15.3124 6.13067 15.1729C5.75402 15.0312 5.41305 14.8092 5.13116 14.522C4.84417 14.2403 4.62211 13.8992 4.48041 13.5227C4.34097 13.1638 4.24545 12.7536 4.21816 12.1531C4.19043 11.5512 4.18398 11.359 4.18398 9.82659C4.18398 8.29419 4.19043 8.10196 4.21802 7.50024C4.2453 6.89958 4.34067 6.48948 4.48011 6.13052C4.62181 5.75402 4.84402 5.4129 5.13116 5.13116C5.4129 4.84402 5.75402 4.62196 6.13052 4.48026C6.48948 4.34082 6.89958 4.24545 7.50024 4.21802C8.10196 4.19058 8.29419 4.18398 9.82659 4.18398C11.359 4.18398 11.5512 4.19058 12.1529 4.21816C12.7536 4.24545 13.1637 4.34082 13.5227 4.48011C13.8992 4.62181 14.2403 4.84402 14.5222 5.13116C14.8092 5.41305 15.0314 5.75402 15.1729 6.13052C15.3125 6.48948 15.4079 6.89958 15.4353 7.50024C15.4628 8.10196 15.4692 8.29419 15.4692 9.82659C15.4692 11.359 15.4628 11.5512 15.4352 12.1529Z" fill="black"/>
</svg>
