<svg width="20" height="20" viewBox="0 0 20 20" fill="none" xmlns="http://www.w3.org/2000/svg">
<path d="M9.82659 0C4.40034 0 0 4.40034 0 9.82659C0 15.2528 4.40034 19.6532 9.82659 19.6532C15.2528 19.6532 19.6532 15.2528 19.6532 9.82659C19.6532 4.40034 15.2528 0 9.82659 0ZM6.9711 14.855H4.57788V7.65498H6.9711V14.855ZM5.77456 6.67181H5.75897C4.95588 6.67181 4.43648 6.11898 4.43648 5.42805C4.43648 4.72152 4.97177 4.18398 5.79046 4.18398C6.60914 4.18398 7.11294 4.72152 7.12854 5.42805C7.12854 6.11898 6.60914 6.67181 5.77456 6.67181ZM15.6006 14.855H13.2076V11.0032C13.2076 10.0352 12.8611 9.37497 11.9952 9.37497C11.3341 9.37497 10.9404 9.82029 10.7673 10.2502C10.7041 10.404 10.6886 10.619 10.6886 10.8342V14.855H8.29554C8.29554 14.855 8.32687 8.33047 8.29554 7.65498H10.6886V8.67444C11.0066 8.18383 11.5757 7.486 12.8454 7.486C14.4199 7.486 15.6006 8.51505 15.6006 10.7265V14.855Z" fill="black"/>
</svg>
