<svg width="20" height="20" viewBox="0 0 20 20" fill="none" xmlns="http://www.w3.org/2000/svg">
<circle cx="9.825" cy="9.825" r="9.825" fill="black"/>
<path d="M14.7526 5.50195H5.6829C5.53403 5.50195 5.39465 5.53855 5.26855 5.59888L10.1963 10.5266L11.3007 9.46516C11.3007 9.46516 11.3008 9.46505 11.3008 9.465C11.3009 9.46496 11.3009 9.46492 11.3009 9.46492L15.1671 5.59897C15.041 5.5386 14.9015 5.50195 14.7526 5.50195Z" fill="white"/>
<path d="M15.6231 6.05493L11.9849 9.693L15.623 13.3311C15.6833 13.205 15.7199 13.0657 15.7199 12.9168V6.46913C15.7199 6.32034 15.6834 6.18098 15.6231 6.05493Z" fill="white"/>
<path d="M4.81299 6.05469C4.75267 6.18078 4.71606 6.32016 4.71606 6.46904V12.9167C4.71606 13.0655 4.75262 13.2049 4.81291 13.3309L8.45117 9.69286L4.81299 6.05469Z" fill="white"/>
<path d="M11.529 10.149L10.4244 11.2105C10.3614 11.2735 10.2789 11.305 10.1964 11.305C10.114 11.305 10.0315 11.2735 9.96851 11.2105L8.90689 10.1489L5.26855 13.787C5.39467 13.8474 5.53413 13.884 5.68305 13.884H14.7528C14.9016 13.884 15.041 13.8474 15.1671 13.7871L11.529 10.149Z" fill="white"/>
</svg>
