<svg width="20" height="20" viewBox="0 0 20 20" fill="none" xmlns="http://www.w3.org/2000/svg">
<path d="M9.82659 19.6532C15.255 19.6532 19.6532 15.255 19.6532 9.82659C19.6532 4.39822 15.255 0 9.82659 0C4.39822 0 0 4.39822 0 9.82659C0 15.255 4.39822 19.6532 9.82659 19.6532ZM4.49648 9.61368L13.971 5.96065C14.4107 5.80178 14.7948 6.06792 14.6523 6.73285L14.6531 6.73203L13.0399 14.3321C12.9203 14.8709 12.6001 15.0019 12.1522 14.7481L9.69557 12.9375L8.51065 14.0791C8.37963 14.2101 8.26908 14.3206 8.01522 14.3206L8.18965 11.8206L12.7426 7.70732C12.9408 7.5329 12.6984 7.43464 12.4372 7.60824L6.81065 11.1507L4.38512 10.3941C3.85858 10.227 3.84711 9.86754 4.49648 9.61368Z" fill="black"/>
</svg>
