<svg width="20" height="20" viewBox="0 0 20 20" fill="none" xmlns="http://www.w3.org/2000/svg">
<path d="M9.82659 0C4.40034 0 0 4.40034 0 9.82659C0 15.2528 4.40034 19.6532 9.82659 19.6532C15.2528 19.6532 19.6532 15.2528 19.6532 9.82659C19.6532 4.40034 15.2528 0 9.82659 0ZM14.3133 7.66173C14.3177 7.75844 14.3197 7.85561 14.3197 7.95322C14.3197 10.9336 12.0511 14.3704 7.90239 14.3706H7.90254H7.90239C6.62863 14.3706 5.44334 13.9972 4.44518 13.3574C4.62166 13.3783 4.80129 13.3886 4.98317 13.3886C6.03996 13.3886 7.01248 13.0282 7.78453 12.4231C6.79717 12.4048 5.96469 11.7527 5.6774 10.8565C5.8149 10.8829 5.95629 10.8973 6.10129 10.8973C6.30716 10.8973 6.50658 10.8696 6.69611 10.8179C5.66405 10.6112 4.88661 9.69914 4.88661 8.60696C4.88661 8.59677 4.88661 8.58762 4.88691 8.57818C5.19084 8.74716 5.5384 8.84882 5.90846 8.86022C5.30285 8.45612 4.90475 7.76534 4.90475 6.98279C4.90475 6.56955 5.01646 6.1824 5.21018 5.84908C6.32245 7.21385 7.98471 8.11141 9.85928 8.20572C9.82059 8.04048 9.80065 7.86835 9.80065 7.69142C9.80065 6.4463 10.8108 5.43614 12.0564 5.43614C12.7052 5.43614 13.2911 5.71039 13.7027 6.14882C14.2166 6.04746 14.6991 5.85973 15.135 5.60138C14.9663 6.12783 14.6088 6.56955 14.1431 6.8489C14.5994 6.79432 15.0342 6.67331 15.4383 6.49368C15.1365 6.94606 14.7537 7.3434 14.3133 7.66173Z" fill="black"/>
</svg>
