<svg width="20" height="20" viewBox="0 0 20 20" fill="none" xmlns="http://www.w3.org/2000/svg">
<circle cx="9.82547" cy="9.82547" r="9.82547" fill="black"/>
<path d="M15.1246 12.3332C14.9972 12.7934 14.6239 13.1562 14.1504 13.2802C13.2854 13.5103 9.82543 13.5103 9.82543 13.5103C9.82543 13.5103 6.36552 13.5103 5.50053 13.2889C5.03619 13.1651 4.65375 12.7933 4.52632 12.3332C4.29871 11.4925 4.29871 9.74894 4.29871 9.74894C4.29871 9.74894 4.29871 7.99665 4.52632 7.16473C4.65383 6.70454 5.02708 6.34166 5.50061 6.21772C6.37463 5.98763 9.82551 5.98763 9.82551 5.98763C9.82551 5.98763 13.2854 5.98763 14.1504 6.20895C14.6239 6.33281 14.9972 6.69569 15.1247 7.15587C15.3523 7.99665 15.3523 9.74009 15.3523 9.74009C15.3523 9.74009 15.3614 11.4925 15.1246 12.3332Z" fill="white"/>
<path d="M8.75134 7.98313L11.5148 9.74865L8.75134 11.5142V7.98313Z" fill="black"/>
</svg>
