<svg width="54" height="59" viewBox="0 0 54 59" fill="none" xmlns="http://www.w3.org/2000/svg">
<g clip-path="url(#clip0)" filter="url(#filter0_d)">
<path d="M14.722 23.4911C15.0395 24.4867 15.796 25.1306 16.4634 25.699C16.8175 26.0005 17.1519 26.2852 17.3526 26.5659C17.5582 26.8536 17.7238 27.2702 17.8992 27.7113C18.2236 28.5273 18.5912 29.4522 19.4117 30.0601C20.2251 30.663 21.1991 30.7346 22.0582 30.7979C22.5286 30.8325 22.9728 30.8653 23.3131 30.9778C23.6266 31.0814 23.9894 31.3135 24.3736 31.5591C25.1142 32.0327 25.9537 32.5694 26.998 32.5694C28.0423 32.5694 28.8817 32.0327 29.6224 31.5591C30.0065 31.3134 30.3695 31.0814 30.6829 30.9778C31.0231 30.8653 31.4674 30.8326 31.9378 30.798C32.7971 30.7347 33.7708 30.663 34.5845 30.0601C35.4049 29.4522 35.7725 28.5273 36.0969 27.7113C36.2723 27.2702 36.4378 26.8536 36.6435 26.5659C36.8441 26.2852 37.1786 26.0005 37.5327 25.699C38.2001 25.1308 38.9566 24.4867 39.274 23.4912C39.58 22.5319 39.348 21.5748 39.1434 20.7303C39.0285 20.256 38.9199 19.8079 38.9199 19.4302C38.9199 19.0525 39.0285 18.6045 39.1434 18.1301C39.348 17.2857 39.58 16.3285 39.2741 15.3694C38.9566 14.3738 38.2001 13.7298 37.5327 13.1616C37.1786 12.8601 36.8441 12.5753 36.6435 12.2947C36.4378 12.007 36.2723 11.5903 36.0969 11.1492C35.7725 10.3332 35.4049 9.40836 34.5844 8.8003C33.7708 8.19756 32.7969 8.12583 31.9378 8.06256C31.4674 8.02794 31.0231 7.99517 30.683 7.88273C30.3696 7.77909 30.0066 7.54707 29.6225 7.30148C28.8818 6.82788 28.0424 6.29102 26.998 6.29102C25.9537 6.29102 25.1142 6.82777 24.3736 7.30148C23.9894 7.54718 23.6265 7.77909 23.3131 7.88273C22.9729 7.99527 22.5287 8.02794 22.0583 8.06256C21.199 8.12583 20.2252 8.19756 19.4116 8.80041C18.5912 9.40836 18.2236 10.3332 17.8992 11.1492C17.7238 11.5903 17.5582 12.007 17.3526 12.2947C17.1519 12.5753 16.8175 12.8601 16.4634 13.1616C15.796 13.7298 15.0396 14.3739 14.7221 15.3694C14.4161 16.3286 14.648 17.2858 14.8527 18.1302C14.9676 18.6046 15.0762 19.0527 15.0762 19.4303C15.0762 19.808 14.9676 20.2561 14.8527 20.7304C14.648 21.5748 14.4161 22.5319 14.722 23.4911ZM16.9224 17.6103C16.7728 16.993 16.6315 16.4099 16.7496 16.0396C16.8776 15.6382 17.3407 15.2439 17.831 14.8265C18.2685 14.454 18.7211 14.0687 19.0764 13.5718C19.4361 13.0684 19.6594 12.5067 19.8753 11.9634C20.1135 11.3641 20.3387 10.7979 20.6661 10.5552C20.9869 10.3176 21.5821 10.2737 22.2122 10.2273C22.7888 10.1848 23.3851 10.1409 23.9717 9.94697C24.5366 9.7602 25.0302 9.44461 25.5075 9.13933C26.0528 8.79064 26.5679 8.46128 26.9982 8.46128C27.4286 8.46128 27.9437 8.79064 28.489 9.13933C28.9664 9.44461 29.4599 9.7602 30.0249 9.94697C30.6114 10.1409 31.2076 10.1847 31.7843 10.2273C32.4144 10.2737 33.0096 10.3176 33.3303 10.5551C33.6578 10.7978 33.883 11.364 34.1212 11.9633C34.3371 12.5066 34.5604 13.0684 34.9201 13.5717C35.2754 14.0686 35.7278 14.4539 36.1655 14.8265C36.6558 15.2439 37.1188 15.6382 37.2469 16.0396C37.3649 16.4099 37.2237 16.9929 37.0741 17.6102C36.9403 18.1625 36.7886 18.7886 36.7886 19.4302C36.7886 20.0718 36.9403 20.6979 37.0741 21.2503C37.2237 21.8675 37.365 22.4506 37.2469 22.8209C37.1189 23.2224 36.6558 23.6166 36.1655 24.034C35.728 24.4066 35.2754 24.7918 34.9202 25.2889C34.5604 25.7922 34.3371 26.3539 34.1212 26.8972C33.883 27.4966 33.6578 28.0626 33.3304 28.3054C33.0095 28.5431 32.4143 28.5869 31.7842 28.6334C31.2076 28.6758 30.6114 28.7197 30.0249 28.9137C29.4599 29.1004 28.9663 29.416 28.489 29.7213C27.9437 30.0699 27.4286 30.3993 26.9982 30.3993C26.5677 30.3993 26.0528 30.0699 25.5075 29.7213C25.0301 29.416 24.5366 29.1004 23.9717 28.9137C23.3851 28.7197 22.7888 28.6759 22.2122 28.6334C21.5821 28.587 20.9869 28.5431 20.6662 28.3055C20.3386 28.0628 20.1135 27.4967 19.8753 26.8973C19.6594 26.354 19.4361 25.7922 19.0762 25.289C18.7211 24.7919 18.2686 24.4068 17.831 24.0342C17.3407 23.6168 16.8777 23.2226 16.7496 22.821C16.6316 22.4508 16.7728 21.8678 16.9224 21.2505C17.0562 20.6981 17.2079 20.072 17.2079 19.4305C17.2079 18.7891 17.0562 18.1627 16.9224 17.6103Z" fill="#E6E6E6"/>
<path d="M48.9869 39.051L40.8398 30.7557C40.9728 30.4625 41.1112 30.1981 41.2646 29.9835C41.5592 29.5714 42.052 29.1519 42.5737 28.7077C43.5619 27.8663 44.682 26.9126 45.153 25.4356C45.607 24.0121 45.2636 22.5949 44.9606 21.3445C44.7912 20.6454 44.6312 19.9851 44.6312 19.4302C44.6312 18.8753 44.7912 18.2151 44.9607 17.516C45.2636 16.2657 45.6069 14.8486 45.1531 13.4249C44.6821 11.9478 43.562 10.9942 42.5737 10.1527C42.0519 9.70854 41.5591 9.28899 41.2646 8.87693C40.9628 8.45455 40.7187 7.84063 40.4602 7.19047C39.9799 5.98227 39.4356 4.61292 38.2182 3.71076C37.0111 2.81619 35.5691 2.71006 34.2967 2.61629C33.6037 2.56529 32.9489 2.51699 32.4493 2.35182C31.9892 2.19967 31.4546 1.85782 30.8885 1.49589C29.7917 0.794829 28.5487 0 26.9994 0C25.4499 0 24.2069 0.794829 23.1103 1.49611C22.5442 1.85804 22.0097 2.19989 21.5496 2.35204C21.05 2.51721 20.3952 2.5654 19.7022 2.61651C18.4298 2.71017 16.9877 2.81641 15.7806 3.71087C14.563 4.61302 14.0187 5.98249 13.5384 7.19068C13.2801 7.84074 13.036 8.45466 12.7341 8.87703C12.4396 9.28899 11.9468 9.70865 11.425 10.1528C10.4369 10.9942 9.31666 11.9479 8.84566 13.4251C8.39171 14.8486 8.73513 16.2657 9.03815 17.5161C9.20752 18.2152 9.3675 18.8754 9.3675 19.4303C9.3675 19.9851 9.20752 20.6455 9.03804 21.3445C8.73513 22.5948 8.39171 24.012 8.84566 25.4355C9.31666 26.9126 10.4369 27.8663 11.425 28.7077C11.9469 29.1519 12.4396 29.5714 12.7341 29.9835C12.8875 30.1981 13.0259 30.4623 13.1588 30.7553L5.01133 39.0509C4.61238 39.457 4.45325 40.0471 4.59245 40.6038C4.73165 41.1604 5.14883 41.6011 5.68997 41.7635L11.7419 43.5791L13.5251 49.7411C13.6846 50.2921 14.1174 50.7167 14.6641 50.8585C14.7948 50.8925 14.9272 50.909 15.0587 50.909C15.4774 50.909 15.8857 50.7413 16.1892 50.4321L26.9995 39.4263L37.8088 50.4321C38.1125 50.7413 38.5206 50.909 38.9393 50.909C39.0707 50.909 39.2034 50.8925 39.3339 50.8585C39.8806 50.7168 40.3133 50.2921 40.4729 49.7411L42.2561 43.5791L48.308 41.7635C48.8492 41.6011 49.2662 41.1604 49.4056 40.6038C49.5449 40.0471 49.3858 39.4572 48.9869 39.051ZM11.8869 24.43C11.7146 23.89 11.9225 23.0323 12.1425 22.1243C12.3405 21.3071 12.565 20.3808 12.565 19.4303C12.565 18.4798 12.3406 17.5535 12.1425 16.7362C11.9225 15.8281 11.7146 14.9704 11.8869 14.4304C12.0738 13.8444 12.755 13.2644 13.4762 12.6504C14.1236 12.0992 14.793 11.5292 15.3195 10.7928C15.8526 10.0469 16.183 9.21585 16.5025 8.41212C16.853 7.53036 17.1841 6.69755 17.6622 6.34322C18.1303 5.99638 19.0058 5.93191 19.9329 5.86365C20.7859 5.80082 21.6679 5.73592 22.5373 5.44855C23.3744 5.1717 24.1047 4.70483 24.811 4.25327C25.613 3.74027 26.3707 3.25572 26.9994 3.25572C27.628 3.25572 28.3857 3.74017 29.1879 4.25316C29.8941 4.70473 30.6245 5.1717 31.4618 5.44855C32.3308 5.73592 33.213 5.80093 34.066 5.86365C34.993 5.93191 35.8686 5.99649 36.3366 6.34322C36.8147 6.69744 37.1458 7.53025 37.4963 8.41201C37.8158 9.21585 38.1462 10.0469 38.6794 10.7928C39.2057 11.5292 39.8753 12.0992 40.5227 12.6504C41.2439 13.2644 41.9251 13.8445 42.112 14.4304C42.2841 14.9705 42.0764 15.8282 41.8564 16.7362C41.6584 17.5535 41.4339 18.4798 41.4339 19.4303C41.4339 20.3808 41.6582 21.307 41.8563 22.1243C42.0763 23.0323 42.2842 23.8901 42.1119 24.4302C41.9249 25.0163 41.2437 25.5962 40.5226 26.2102C39.8753 26.7614 39.2058 27.3314 38.6794 28.0679C38.1462 28.8136 37.8158 29.6448 37.4964 30.4487C37.1458 31.3304 36.8148 32.1632 36.3367 32.5174C35.8686 32.8643 34.9931 32.9287 34.0659 32.997C33.2129 33.0598 32.3308 33.1247 31.4617 33.4121C30.6245 33.689 29.8941 34.1559 29.1879 34.6075C28.3857 35.1205 27.6279 35.6049 26.9994 35.6049C26.3708 35.6049 25.6129 35.1204 24.8107 34.6074C24.1045 34.1558 23.3742 33.689 22.537 33.4121C21.6679 33.1247 20.7857 33.0598 19.9327 32.997C19.0058 32.9287 18.1301 32.8643 17.662 32.5174C17.184 32.1632 16.8529 31.3304 16.5024 30.4487C16.1829 29.6449 15.8525 28.8138 15.3194 28.068C14.793 27.3315 14.1235 26.7615 13.4761 26.2104C12.7549 25.5961 12.0738 25.0161 11.8869 24.43ZM15.8317 46.1923L14.5631 41.8084C14.4097 41.278 14.0022 40.8634 13.4814 40.7071L9.17575 39.4153L14.6068 33.8855C14.9171 34.3545 15.2946 34.7897 15.7807 35.1498C16.9878 36.0444 18.4298 36.1505 19.7022 36.2441C20.3952 36.2952 21.05 36.3434 21.5495 36.5086C22.0096 36.6608 22.5442 37.0026 23.1103 37.3645C23.3884 37.5423 23.6759 37.726 23.9754 37.9014L15.8317 46.1923ZM40.5169 40.707C39.9959 40.8632 39.5887 41.278 39.4352 41.8083L38.1666 46.1922L30.0236 37.9012C30.323 37.7259 30.6105 37.5422 30.8886 37.3644C31.4546 37.0025 31.9892 36.6607 32.4493 36.5085C32.949 36.3433 33.6037 36.2952 34.2968 36.244C35.5691 36.1503 37.0112 36.0441 38.2183 35.1497C38.7042 34.7896 39.0817 34.3545 39.3919 33.8856L44.8227 39.4152L40.5169 40.707Z" fill="#E6E6E6"/>
</g>
<defs>
<filter id="filter0_d" x="-2" y="0" width="58" height="58.9091" filterUnits="userSpaceOnUse" color-interpolation-filters="sRGB">
<feFlood flood-opacity="0" result="BackgroundImageFix"/>
<feColorMatrix in="SourceAlpha" type="matrix" values="0 0 0 0 0 0 0 0 0 0 0 0 0 0 0 0 0 0 127 0"/>
<feOffset dy="4"/>
<feGaussianBlur stdDeviation="2"/>
<feColorMatrix type="matrix" values="0 0 0 0 0 0 0 0 0 0 0 0 0 0 0 0 0 0 0.25 0"/>
<feBlend mode="normal" in2="BackgroundImageFix" result="effect1_dropShadow"/>
<feBlend mode="normal" in="SourceGraphic" in2="effect1_dropShadow" result="shape"/>
</filter>
<clipPath id="clip0">
<rect width="50" height="50.9091" fill="white" transform="translate(2)"/>
</clipPath>
</defs>
</svg>
