<svg width="50" height="51" viewBox="0 0 50 51" fill="none" xmlns="http://www.w3.org/2000/svg">
<g clip-path="url(#clip0)">
<path d="M12.7249 23.4911C13.0424 24.4867 13.7989 25.1306 14.4663 25.699C14.8204 26.0005 15.1549 26.2852 15.3556 26.5659C15.5612 26.8536 15.7267 27.2702 15.9021 27.7113C16.2265 28.5273 16.5941 29.4522 17.4146 30.0601C18.2281 30.663 19.202 30.7346 20.0611 30.7979C20.5315 30.8325 20.9757 30.8653 21.3161 30.9778C21.6295 31.0814 21.9924 31.3135 22.3765 31.5591C23.1172 32.0327 23.9566 32.5694 25.001 32.5694C26.0452 32.5694 26.8847 32.0327 27.6253 31.5591C28.0095 31.3134 28.3724 31.0814 28.6859 30.9778C29.0261 30.8653 29.4703 30.8326 29.9407 30.798C30.8 30.7347 31.7738 30.663 32.5874 30.0601C33.4078 29.4522 33.7754 28.5273 34.0998 27.7113C34.2752 27.2702 34.4408 26.8536 34.6465 26.5659C34.8471 26.2852 35.1815 26.0005 35.5356 25.699C36.203 25.1308 36.9595 24.4867 37.2769 23.4912C37.5829 22.5319 37.351 21.5748 37.1463 20.7303C37.0314 20.256 36.9228 19.8079 36.9228 19.4302C36.9228 19.0525 37.0314 18.6045 37.1463 18.1301C37.351 17.2857 37.5829 16.3285 37.277 15.3694C36.9595 14.3738 36.203 13.7298 35.5356 13.1616C35.1815 12.8601 34.8471 12.5753 34.6465 12.2947C34.4408 12.007 34.2752 11.5903 34.0998 11.1492C33.7754 10.3332 33.4078 9.40836 32.5873 8.8003C31.7738 8.19756 30.7999 8.12583 29.9407 8.06256C29.4703 8.02794 29.0261 7.99517 28.686 7.88273C28.3725 7.77909 28.0096 7.54707 27.6254 7.30148C26.8848 6.82788 26.0453 6.29102 25.001 6.29102C23.9566 6.29102 23.1172 6.82777 22.3765 7.30148C21.9924 7.54718 21.6294 7.77909 21.3161 7.88273C20.9759 7.99527 20.5316 8.02794 20.0612 8.06256C19.2019 8.12583 18.2282 8.19756 17.4145 8.80041C16.5941 9.40836 16.2265 10.3332 15.9021 11.1492C15.7267 11.5903 15.5612 12.007 15.3556 12.2947C15.1549 12.5753 14.8204 12.8601 14.4663 13.1616C13.7989 13.7298 13.0426 14.3739 12.725 15.3694C12.419 16.3286 12.651 17.2858 12.8556 18.1302C12.9705 18.6046 13.0791 19.0527 13.0791 19.4303C13.0791 19.808 12.9705 20.2561 12.8556 20.7304C12.651 21.5748 12.419 22.5319 12.7249 23.4911ZM14.9253 17.6103C14.7757 16.993 14.6344 16.4099 14.7525 16.0396C14.8805 15.6382 15.3436 15.2439 15.8339 14.8265C16.2715 14.454 16.724 14.0687 17.0793 13.5718C17.439 13.0684 17.6623 12.5067 17.8782 11.9634C18.1165 11.3641 18.3416 10.7979 18.669 10.5552C18.9898 10.3176 19.585 10.2737 20.2151 10.2273C20.7918 10.1848 21.388 10.1409 21.9747 9.94697C22.5396 9.7602 23.0332 9.44461 23.5105 9.13933C24.0558 8.79064 24.5708 8.46128 25.0012 8.46128C25.4316 8.46128 25.9466 8.79064 26.4919 9.13933C26.9693 9.44461 27.4628 9.7602 28.0278 9.94697C28.6143 10.1409 29.2106 10.1847 29.7872 10.2273C30.4173 10.2737 31.0125 10.3176 31.3332 10.5551C31.6608 10.7978 31.8859 11.364 32.1241 11.9633C32.34 12.5066 32.5633 13.0684 32.9231 13.5717C33.2783 14.0686 33.7308 14.4539 34.1684 14.8265C34.6587 15.2439 35.1217 15.6382 35.2498 16.0396C35.3678 16.4099 35.2266 16.9929 35.0771 17.6102C34.9432 18.1625 34.7915 18.7886 34.7915 19.4302C34.7915 20.0718 34.9432 20.6979 35.0771 21.2503C35.2266 21.8675 35.3679 22.4506 35.2498 22.8209C35.1218 23.2224 34.6587 23.6166 34.1684 24.034C33.7309 24.4066 33.2783 24.7918 32.9232 25.2889C32.5633 25.7922 32.34 26.3539 32.1241 26.8972C31.8859 27.4966 31.6608 28.0626 31.3333 28.3054C31.0124 28.5431 30.4172 28.5869 29.7871 28.6334C29.2106 28.6758 28.6143 28.7197 28.0278 28.9137C27.4628 29.1004 26.9692 29.416 26.4919 29.7213C25.9466 30.0699 25.4316 30.3993 25.0012 30.3993C24.5707 30.3993 24.0558 30.0699 23.5105 29.7213C23.0331 29.416 22.5396 29.1004 21.9747 28.9137C21.388 28.7197 20.7918 28.6759 20.2151 28.6334C19.585 28.587 18.9898 28.5431 18.6691 28.3055C18.3416 28.0628 18.1165 27.4967 17.8782 26.8973C17.6623 26.354 17.439 25.7922 17.0792 25.289C16.724 24.7919 16.2716 24.4068 15.8339 24.0342C15.3436 23.6168 14.8806 23.2226 14.7525 22.821C14.6345 22.4508 14.7757 21.8678 14.9253 21.2505C15.0592 20.6981 15.2108 20.072 15.2108 19.4305C15.2108 18.7891 15.0592 18.1627 14.9253 17.6103Z" fill="#E6E6E6"/>
<path d="M46.9879 39.051L38.8408 30.7557C38.9738 30.4625 39.1122 30.1981 39.2656 29.9835C39.5602 29.5714 40.053 29.1519 40.5747 28.7077C41.5628 27.8663 42.683 26.9126 43.154 25.4356C43.608 24.0121 43.2646 22.5949 42.9616 21.3445C42.7922 20.6454 42.6322 19.9851 42.6322 19.4302C42.6322 18.8753 42.7922 18.2151 42.9617 17.516C43.2646 16.2657 43.6079 14.8486 43.1541 13.4249C42.6831 11.9478 41.563 10.9942 40.5747 10.1527C40.0528 9.70854 39.5601 9.28899 39.2656 8.87693C38.9638 8.45455 38.7197 7.84063 38.4612 7.19047C37.9809 5.98227 37.4366 4.61292 36.2192 3.71076C35.0121 2.81619 33.5701 2.71006 32.2977 2.61629C31.6046 2.56529 30.9499 2.51699 30.4503 2.35182C29.9902 2.19967 29.4555 1.85782 28.8895 1.49589C27.7927 0.794829 26.5497 0 25.0004 0C23.4509 0 22.2079 0.794829 21.1112 1.49611C20.5452 1.85804 20.0106 2.19989 19.5506 2.35204C19.0509 2.51721 18.3962 2.5654 17.7032 2.61651C16.4307 2.71017 14.9886 2.81641 13.7815 3.71087C12.564 4.61302 12.0197 5.98249 11.5394 7.19068C11.281 7.84074 11.037 8.45466 10.7351 8.87703C10.4406 9.28899 9.94775 9.70865 9.42601 10.1528C8.43786 10.9942 7.31764 11.9479 6.84663 13.4251C6.39268 14.8486 6.7361 16.2657 7.03913 17.5161C7.20849 18.2152 7.36848 18.8754 7.36848 19.4303C7.36848 19.9851 7.20849 20.6455 7.03902 21.3445C6.7361 22.5948 6.39268 24.012 6.84663 25.4355C7.31764 26.9126 8.43786 27.8663 9.42601 28.7077C9.94786 29.1519 10.4406 29.5714 10.7351 29.9835C10.8885 30.1981 11.0268 30.4623 11.1597 30.7553L3.01231 39.0509C2.61336 39.457 2.45423 40.0471 2.59343 40.6038C2.73263 41.1604 3.14981 41.6011 3.69094 41.7635L9.74289 43.5791L11.5261 49.7411C11.6855 50.2921 12.1184 50.7167 12.6651 50.8585C12.7957 50.8925 12.9282 50.909 13.0596 50.909C13.4784 50.909 13.8866 50.7413 14.1902 50.4321L25.0005 39.4263L35.8098 50.4321C36.1134 50.7413 36.5215 50.909 36.9403 50.909C37.0716 50.909 37.2043 50.8925 37.3349 50.8585C37.8816 50.7168 38.3143 50.2921 38.4739 49.7411L40.2571 43.5791L46.309 41.7635C46.8502 41.6011 47.2672 41.1604 47.4065 40.6038C47.5458 40.0471 47.3868 39.4572 46.9879 39.051ZM9.88785 24.43C9.71561 23.89 9.92345 23.0323 10.1434 22.1243C10.3415 21.3071 10.566 20.3808 10.566 19.4303C10.566 18.4798 10.3416 17.5535 10.1434 16.7362C9.92345 15.8281 9.71561 14.9704 9.88785 14.4304C10.0748 13.8444 10.756 13.2644 11.4772 12.6504C12.1246 12.0992 12.794 11.5292 13.3205 10.7928C13.8536 10.0469 14.184 9.21585 14.5034 8.41212C14.854 7.53036 15.1851 6.69755 15.6632 6.34322C16.1312 5.99638 17.0067 5.93191 17.9339 5.86365C18.7869 5.80082 19.6689 5.73592 20.5382 5.44855C21.3754 5.1717 22.1057 4.70483 22.8119 4.25327C23.614 3.74027 24.3717 3.25572 25.0004 3.25572C25.629 3.25572 26.3867 3.74017 27.1889 4.25316C27.8951 4.70473 28.6254 5.1717 29.4628 5.44855C30.3318 5.73592 31.214 5.80093 32.067 5.86365C32.994 5.93191 33.8696 5.99649 34.3376 6.34322C34.8156 6.69744 35.1468 7.53025 35.4973 8.41201C35.8168 9.21585 36.1472 10.0469 36.6804 10.7928C37.2067 11.5292 37.8763 12.0992 38.5237 12.6504C39.2449 13.2644 39.9261 13.8445 40.113 14.4304C40.2851 14.9705 40.0774 15.8282 39.8574 16.7362C39.6593 17.5535 39.4349 18.4798 39.4349 19.4303C39.4349 20.3808 39.6592 21.307 39.8573 22.1243C40.0773 23.0323 40.2852 23.8901 40.1129 24.4302C39.9259 25.0163 39.2447 25.5962 38.5236 26.2102C37.8763 26.7614 37.2068 27.3314 36.6804 28.0679C36.1472 28.8136 35.8168 29.6448 35.4974 30.4487C35.1468 31.3304 34.8157 32.1632 34.3377 32.5174C33.8696 32.8643 32.9941 32.9287 32.0669 32.997C31.2139 33.0598 30.3318 33.1247 29.4627 33.4121C28.6254 33.689 27.8951 34.1559 27.1889 34.6075C26.3867 35.1205 25.6289 35.6049 25.0004 35.6049C24.3718 35.6049 23.6139 35.1204 22.8117 34.6074C22.1055 34.1558 21.3752 33.689 20.538 33.4121C19.6689 33.1247 18.7867 33.0598 17.9337 32.997C17.0067 32.9287 16.1311 32.8643 15.663 32.5174C15.185 32.1632 14.8539 31.3304 14.5033 30.4487C14.1839 29.6449 13.8535 28.8138 13.3203 28.068C12.794 27.3315 12.1245 26.7615 11.477 26.2104C10.7559 25.5961 10.0748 25.0161 9.88785 24.43ZM13.8327 46.1923L12.5641 41.8084C12.4106 41.278 12.0032 40.8634 11.4824 40.7071L7.17673 39.4153L12.6078 33.8855C12.9181 34.3545 13.2956 34.7897 13.7816 35.1498C14.9887 36.0444 16.4307 36.1505 17.7032 36.2441C18.3962 36.2952 19.0509 36.3434 19.5505 36.5086C20.0105 36.6608 20.5452 37.0026 21.1112 37.3645C21.3893 37.5423 21.6769 37.726 21.9764 37.9014L13.8327 46.1923ZM38.5179 40.707C37.9969 40.8632 37.5896 41.278 37.4362 41.8083L36.1676 46.1922L28.0246 37.9012C28.324 37.7259 28.6115 37.5422 28.8896 37.3644C29.4555 37.0025 29.9902 36.6607 30.4503 36.5085C30.95 36.3433 31.6046 36.2952 32.2978 36.244C33.5701 36.1503 35.0122 36.0441 36.2193 35.1497C36.7052 34.7896 37.0827 34.3545 37.3929 33.8856L42.8237 39.4152L38.5179 40.707Z" fill="#E6E6E6"/>
</g>
<defs>
<clipPath id="clip0">
<rect width="50" height="50.9091" fill="white"/>
</clipPath>
</defs>
</svg>
