<svg width="51" height="51" viewBox="0 0 51 51" fill="none" xmlns="http://www.w3.org/2000/svg">
<g clip-path="url(#clip0)">
<path d="M1.81818 44.1233C1.66479 44.2136 1.49085 44.2628 1.31302 44.2664L1.31287 44.2664C0.739412 44.2765 0.266352 43.8196 0.256342 43.2462L-0.294713 11.6763C-0.304723 11.1028 0.152106 10.6297 0.725567 10.6197L4.00653 10.5625L3.98758 9.47676C3.96079 9.00073 4.2616 8.56739 4.71717 8.42631L4.71844 8.42592L4.71844 8.42594C7.03817 7.77457 9.43253 7.42646 11.8417 7.39035M1.81818 44.1233C1.81779 44.1235 1.81747 44.1237 1.81722 44.1238L1.79408 44.0795L1.81949 44.1226C1.81905 44.1228 1.81862 44.1231 1.81818 44.1233ZM1.81818 44.1233C1.82012 44.1223 1.82376 44.1203 1.82911 44.1173C2.22477 43.8989 11.9089 38.5536 25.5294 41.7363L25.5291 41.7378L25.5417 41.7376L25.6899 41.735L25.7759 41.7335M25.7759 41.7335C25.8579 41.7417 25.9405 41.7401 26.0221 41.7288L26.0222 41.7292L26.0284 41.7275C32.9078 39.8547 38.8385 40.2228 43.0567 41.0698C45.1657 41.4933 46.8466 42.0365 48.0036 42.4792C48.5821 42.7005 49.0295 42.8967 49.3339 43.0401C49.4862 43.1118 49.6025 43.1702 49.6815 43.212C49.721 43.2329 49.7509 43.2495 49.7711 43.2613C49.7757 43.264 49.7797 43.2664 49.7831 43.2684C49.7873 43.271 49.7907 43.2731 49.7932 43.2749L49.7939 43.2753M25.7759 41.7335C25.7749 41.7334 25.7739 41.7333 25.7729 41.7332L25.778 41.6834M25.7759 41.7335L25.7789 41.7334L25.778 41.6834M49.7939 43.2753L49.7965 43.2791L49.8067 43.2847C50.1312 43.4646 50.5271 43.4577 50.8451 43.2666C51.1612 43.0767 51.353 42.7333 51.3488 42.3645L51.3488 42.3642L50.7977 10.7943C50.7877 10.2209 50.3148 9.76404 49.7412 9.77405L49.7411 9.77405L49.7411 9.77405L49.7411 9.77405L49.741 9.77405L49.741 9.77405L49.7409 9.77405L49.7409 9.77405L49.7409 9.77406L49.7408 9.77406L49.7408 9.77406L49.7407 9.77406L49.7407 9.77406L49.7407 9.77406L49.7406 9.77406L49.7406 9.77406L49.7405 9.77406L49.7405 9.77406L49.7405 9.77406L49.7404 9.77406L49.7404 9.77406L49.7403 9.77406L49.7403 9.77406L49.7403 9.77407L49.7402 9.77407L49.7402 9.77407L49.7402 9.77407L49.7401 9.77407L49.7401 9.77407L49.74 9.77407L49.74 9.77407L49.74 9.77407L49.7399 9.77407L49.7399 9.77407L49.7398 9.77407L49.7398 9.77407L49.7398 9.77407L49.7397 9.77407L49.7397 9.77408L49.7396 9.77408L49.7396 9.77408L49.7396 9.77408L49.7395 9.77408L49.7395 9.77408L49.7394 9.77408L49.7394 9.77408L49.7394 9.77408L49.7393 9.77408L49.7393 9.77408L49.7393 9.77408L49.7392 9.77408L49.7392 9.77408L49.7391 9.77409L49.7391 9.77409L49.7391 9.77409L49.739 9.77409L49.739 9.77409L49.7389 9.77409L49.7389 9.77409L49.7389 9.77409L49.7388 9.77409L49.7388 9.77409L49.7387 9.77409L49.7387 9.77409L49.7387 9.77409L49.7386 9.77409L49.7386 9.77409L49.7386 9.7741L49.7385 9.7741L49.7385 9.7741L49.7384 9.7741L49.7384 9.7741L49.7384 9.7741L49.7383 9.7741L49.7383 9.7741L49.7382 9.7741L49.7382 9.7741L49.7382 9.7741L49.7381 9.7741L49.7381 9.7741L49.738 9.7741L49.738 9.7741L49.738 9.77411L49.7379 9.77411L49.7379 9.77411L49.7379 9.77411L49.7378 9.77411L49.7378 9.77411L49.7377 9.77411L49.7377 9.77411L49.7377 9.77411L49.7376 9.77411L49.7376 9.77411L49.7375 9.77411L49.7375 9.77411L49.7375 9.77411L49.7374 9.77412L49.7374 9.77412L49.7373 9.77412L49.7373 9.77412L49.7373 9.77412L49.7372 9.77412L49.7372 9.77412L49.7371 9.77412L49.7371 9.77412L49.7371 9.77412L49.737 9.77412L49.737 9.77412L49.737 9.77412L49.7369 9.77412L49.7369 9.77412L49.7368 9.77413L49.7368 9.77413L49.7368 9.77413L49.7367 9.77413L49.7367 9.77413L49.7366 9.77413L49.7366 9.77413L49.7366 9.77413L49.7365 9.77413L49.7365 9.77413L49.7365 9.77413L49.7364 9.77413L49.7364 9.77413L49.7363 9.77413L49.7363 9.77413L49.7363 9.77414L49.7362 9.77414L49.7362 9.77414L49.7361 9.77414L49.7361 9.77414L49.7361 9.77414L49.736 9.77414L49.736 9.77414L49.7359 9.77414L49.7359 9.77414L49.7359 9.77414L49.7358 9.77414L49.7358 9.77414L49.7358 9.77414L49.7357 9.77414L49.7357 9.77415L49.7356 9.77415L49.7356 9.77415L49.7356 9.77415L49.7355 9.77415L49.7355 9.77415L49.7354 9.77415L49.7354 9.77415L49.7354 9.77415L49.7353 9.77415L49.7353 9.77415L49.7353 9.77415L49.7352 9.77415L49.7352 9.77415L49.7351 9.77415L49.7351 9.77416L49.7351 9.77416L49.735 9.77416L49.735 9.77416L49.7349 9.77416L49.7349 9.77416L49.7349 9.77416L49.7348 9.77416L49.7348 9.77416L49.7348 9.77416L49.7347 9.77416L49.7347 9.77416L49.7346 9.77416L49.7346 9.77416L49.7346 9.77417L49.7345 9.77417L49.7345 9.77417L49.7344 9.77417L49.7344 9.77417L49.7344 9.77417L49.7343 9.77417L49.7343 9.77417L49.7343 9.77417L49.7342 9.77417L49.7342 9.77417L49.7341 9.77417L49.7341 9.77417L49.7341 9.77417L49.734 9.77417L49.734 9.77418L49.7339 9.77418L49.7339 9.77418L49.7339 9.77418L49.7338 9.77418L49.7338 9.77418L49.7338 9.77418L49.7337 9.77418L49.7337 9.77418L49.7336 9.77418L49.7336 9.77418L49.7336 9.77418L49.7335 9.77418L49.7335 9.77418L49.7334 9.77418L49.7334 9.77419L49.7334 9.77419L49.7333 9.77419L49.7333 9.77419L49.7333 9.77419L49.7332 9.77419L49.7332 9.77419L49.7331 9.77419L49.7331 9.77419L49.7331 9.77419L49.733 9.77419L49.733 9.77419L49.733 9.77419L49.7329 9.77419L49.7329 9.77419L49.7328 9.7742L49.7328 9.7742L49.7328 9.7742L49.7327 9.7742L49.7327 9.7742L49.7326 9.7742L49.7326 9.7742L49.7326 9.7742L49.7325 9.7742L49.7325 9.7742L49.7325 9.7742L49.7324 9.7742L49.7324 9.7742L49.7323 9.7742L49.7323 9.7742L49.7323 9.7742L49.7322 9.77421L49.7322 9.77421L49.7322 9.77421L49.7321 9.77421L49.7321 9.77421L49.732 9.77421L49.732 9.77421L49.732 9.77421L49.7319 9.77421L49.7319 9.77421L49.7319 9.77421L49.7318 9.77421L49.7318 9.77421L49.7317 9.77421L49.7317 9.77421L49.7317 9.77422L49.7316 9.77422L49.7316 9.77422L49.7316 9.77422L49.7315 9.77422L49.7315 9.77422L49.7314 9.77422L49.7314 9.77422L49.7314 9.77422L49.7313 9.77422L49.7313 9.77422L46.4306 9.83184M49.7939 43.2753L49.7969 43.2774M49.7939 43.2753L49.7899 43.2695C49.7927 43.2736 49.7956 43.2763 49.7969 43.2774M46.4306 9.83184L46.4114 8.73628M46.4306 9.83184L46.3806 9.83271M46.4306 9.83184L46.4314 9.88183L49.7322 9.82421L49.742 9.82404C50.288 9.81451 50.7382 10.2494 50.7477 10.7952L51.2988 42.3651C51.3028 42.7161 51.1203 43.043 50.8194 43.2238C50.5167 43.4057 50.1399 43.4122 49.831 43.241C49.7701 43.1531 39.7918 37.9289 26.0152 41.6793C25.9366 41.6902 25.857 41.6916 25.778 41.6834M46.4114 8.73628C46.4216 8.2596 46.1058 7.837 45.6456 7.7119L45.6456 7.71189L45.6443 7.71157C43.3033 7.14156 40.8982 6.87723 38.4892 6.92521C34.5417 6.99413 29.1746 7.97339 25.2517 12.0783C21.2161 8.0728 15.779 7.32163 11.8417 7.39035M46.4114 8.73628C46.4114 8.73661 46.4114 8.73693 46.4114 8.73726L46.3614 8.73614M46.4114 8.73628L46.4114 8.73527L46.3614 8.73614M11.8417 7.39035C11.8418 7.39035 11.8418 7.39035 11.8418 7.39035L11.8425 7.44034L11.8417 7.39035C11.8417 7.39035 11.8417 7.39035 11.8417 7.39035ZM46.3614 8.73614L46.3806 9.83271M46.3614 8.73614C46.3715 8.28202 46.0709 7.8793 45.6325 7.76015L46.3806 9.83271M46.3806 9.83271L25.5408 41.6876L25.6891 41.685L25.778 41.6834M49.7969 43.2774C49.7976 43.278 49.7978 43.2781 49.7971 43.2775L49.7969 43.2774ZM39.543 37.2708C36.7502 37.2681 33.9762 37.7207 31.3299 38.6101C31.4169 38.5986 31.5038 38.5874 31.5908 38.5765M39.543 37.2708L49.2836 40.7643C49.2668 40.7578 49.25 40.7513 49.2333 40.7448M39.543 37.2708C41.6246 37.2461 43.7052 37.3717 45.7686 37.6466M39.543 37.2708L45.7686 37.6466M31.5908 38.5765C31.5075 38.6036 31.4243 38.6311 31.3412 38.659C37.3894 37.8592 43.5429 38.5946 49.2341 40.7988L49.2333 40.7448M31.5908 38.5765C34.158 37.7424 36.8417 37.3182 39.543 37.3208L39.5436 37.3208C41.6227 37.2961 43.7009 37.4215 45.7619 37.6962M31.5908 38.5765C37.5581 37.8305 43.6199 38.5744 49.2333 40.7448M49.2333 40.7448L48.7686 11.8685L46.5063 11.908M46.5063 11.908L46.938 36.6369C46.938 36.637 46.938 36.6371 46.938 36.6372L46.938 36.6375L46.888 36.6383L46.5063 11.908ZM46.5063 11.908L45.7619 37.6962M45.7619 37.6962C45.762 37.6962 45.762 37.6962 45.762 37.6962L45.7686 37.6466M45.7619 37.6962L45.7686 37.6466M5.70686 38.4052L5.70688 38.4052C7.74385 38.0577 9.80301 37.8567 11.8687 37.8039L11.8692 37.8038C14.5567 37.7103 17.241 38.0409 19.8237 38.7826C13.8463 38.2507 7.8274 39.2051 2.30442 41.564L1.8004 12.6883L4.06272 12.6488L4.49454 37.3879C4.49822 37.9614 4.96599 38.4233 5.53946 38.4198C5.59554 38.4195 5.65155 38.4146 5.70686 38.4052ZM11.8322 35.7369L11.8321 35.7369C10.0512 35.7721 8.2743 35.9164 6.51117 36.1692L6.05893 10.2608C7.95999 9.80531 9.90456 9.55582 11.8591 9.51692C15.5459 9.45259 20.6353 10.2111 24.2285 14.1147L24.6858 38.6244C22.5757 37.3169 18.5383 35.6199 11.8322 35.7369ZM44.3588 9.59232L44.811 35.5005C43.0502 35.3072 41.2792 35.2215 39.5079 35.244L39.5076 35.244C32.839 35.3604 28.8539 37.1983 26.7626 38.5791L26.3349 14.0781C29.7905 10.0905 34.8499 9.11563 38.5362 9.05127C40.4909 9.02292 42.4429 9.20428 44.3588 9.59232Z" fill="white" stroke="white" stroke-width="0.1"/>
</g>
<defs>
<clipPath id="clip0">
<rect width="51" height="51" fill="white"/>
</clipPath>
</defs>
</svg>
