<svg width="51" height="51" viewBox="0 0 51 51" fill="none" xmlns="http://www.w3.org/2000/svg">
<g clip-path="url(#clip0)">
<path d="M1.81805 44.1233C1.66467 44.2136 1.49073 44.2628 1.3129 44.2664L1.31275 44.2664C0.73929 44.2765 0.26623 43.8196 0.25622 43.2462L-0.294835 11.6763C-0.304845 11.1028 0.151984 10.6297 0.725445 10.6197L4.00641 10.5625L3.98745 9.47676C3.96066 9.00073 4.26148 8.56739 4.71705 8.42631L4.71831 8.42592L4.71832 8.42594C7.03805 7.77457 9.4324 7.42646 11.8416 7.39035M1.81805 44.1233C1.81767 44.1235 1.81735 44.1237 1.8171 44.1238L1.79396 44.0795L1.81937 44.1226C1.81893 44.1228 1.81849 44.1231 1.81805 44.1233ZM1.81805 44.1233C1.81999 44.1223 1.82364 44.1203 1.82899 44.1173C2.22465 43.8989 11.9088 38.5536 25.5293 41.7363L25.5289 41.7378L25.5416 41.7376L25.6898 41.735L25.7758 41.7335M25.7758 41.7335C25.8578 41.7417 25.9403 41.7401 26.022 41.7288L26.022 41.7292L26.0283 41.7275C32.9077 39.8547 38.8384 40.2228 43.0565 41.0698C45.1656 41.4933 46.8465 42.0365 48.0034 42.4792C48.5819 42.7005 49.0294 42.8967 49.3338 43.0401C49.486 43.1118 49.6024 43.1702 49.6814 43.212C49.7209 43.2329 49.7508 43.2495 49.771 43.2613C49.7756 43.264 49.7796 43.2664 49.783 43.2684C49.7872 43.271 49.7906 43.2731 49.7931 43.2749L49.7938 43.2753M25.7758 41.7335C25.7748 41.7334 25.7738 41.7333 25.7728 41.7332L25.7779 41.6834M25.7758 41.7335L25.7788 41.7334L25.7779 41.6834M49.7938 43.2753L49.7964 43.2791L49.8066 43.2847C50.1311 43.4646 50.527 43.4577 50.845 43.2666C51.1611 43.0767 51.3529 42.7333 51.3486 42.3645L51.3486 42.3642L50.7976 10.7943C50.7876 10.2209 50.3146 9.76404 49.741 9.77405L49.741 9.77405L49.741 9.77405L49.7409 9.77405L49.7409 9.77405L49.7409 9.77405L49.7408 9.77405L49.7408 9.77405L49.7407 9.77406L49.7407 9.77406L49.7407 9.77406L49.7406 9.77406L49.7406 9.77406L49.7405 9.77406L49.7405 9.77406L49.7405 9.77406L49.7404 9.77406L49.7404 9.77406L49.7403 9.77406L49.7403 9.77406L49.7403 9.77406L49.7402 9.77406L49.7402 9.77406L49.7401 9.77407L49.7401 9.77407L49.7401 9.77407L49.74 9.77407L49.74 9.77407L49.74 9.77407L49.7399 9.77407L49.7399 9.77407L49.7398 9.77407L49.7398 9.77407L49.7398 9.77407L49.7397 9.77407L49.7397 9.77407L49.7396 9.77407L49.7396 9.77407L49.7396 9.77408L49.7395 9.77408L49.7395 9.77408L49.7394 9.77408L49.7394 9.77408L49.7394 9.77408L49.7393 9.77408L49.7393 9.77408L49.7393 9.77408L49.7392 9.77408L49.7392 9.77408L49.7391 9.77408L49.7391 9.77408L49.7391 9.77408L49.739 9.77409L49.739 9.77409L49.7389 9.77409L49.7389 9.77409L49.7389 9.77409L49.7388 9.77409L49.7388 9.77409L49.7387 9.77409L49.7387 9.77409L49.7387 9.77409L49.7386 9.77409L49.7386 9.77409L49.7385 9.77409L49.7385 9.77409L49.7385 9.77409L49.7384 9.7741L49.7384 9.7741L49.7384 9.7741L49.7383 9.7741L49.7383 9.7741L49.7382 9.7741L49.7382 9.7741L49.7382 9.7741L49.7381 9.7741L49.7381 9.7741L49.738 9.7741L49.738 9.7741L49.738 9.7741L49.7379 9.7741L49.7379 9.7741L49.7378 9.77411L49.7378 9.77411L49.7378 9.77411L49.7377 9.77411L49.7377 9.77411L49.7376 9.77411L49.7376 9.77411L49.7376 9.77411L49.7375 9.77411L49.7375 9.77411L49.7375 9.77411L49.7374 9.77411L49.7374 9.77411L49.7373 9.77411L49.7373 9.77412L49.7373 9.77412L49.7372 9.77412L49.7372 9.77412L49.7371 9.77412L49.7371 9.77412L49.7371 9.77412L49.737 9.77412L49.737 9.77412L49.737 9.77412L49.7369 9.77412L49.7369 9.77412L49.7368 9.77412L49.7368 9.77412L49.7368 9.77412L49.7367 9.77413L49.7367 9.77413L49.7366 9.77413L49.7366 9.77413L49.7366 9.77413L49.7365 9.77413L49.7365 9.77413L49.7364 9.77413L49.7364 9.77413L49.7364 9.77413L49.7363 9.77413L49.7363 9.77413L49.7363 9.77413L49.7362 9.77413L49.7362 9.77413L49.7361 9.77414L49.7361 9.77414L49.7361 9.77414L49.736 9.77414L49.736 9.77414L49.7359 9.77414L49.7359 9.77414L49.7359 9.77414L49.7358 9.77414L49.7358 9.77414L49.7357 9.77414L49.7357 9.77414L49.7357 9.77414L49.7356 9.77414L49.7356 9.77414L49.7356 9.77415L49.7355 9.77415L49.7355 9.77415L49.7354 9.77415L49.7354 9.77415L49.7354 9.77415L49.7353 9.77415L49.7353 9.77415L49.7352 9.77415L49.7352 9.77415L49.7352 9.77415L49.7351 9.77415L49.7351 9.77415L49.7351 9.77415L49.735 9.77415L49.735 9.77416L49.7349 9.77416L49.7349 9.77416L49.7349 9.77416L49.7348 9.77416L49.7348 9.77416L49.7347 9.77416L49.7347 9.77416L49.7347 9.77416L49.7346 9.77416L49.7346 9.77416L49.7346 9.77416L49.7345 9.77416L49.7345 9.77416L49.7344 9.77417L49.7344 9.77417L49.7344 9.77417L49.7343 9.77417L49.7343 9.77417L49.7342 9.77417L49.7342 9.77417L49.7342 9.77417L49.7341 9.77417L49.7341 9.77417L49.7341 9.77417L49.734 9.77417L49.734 9.77417L49.7339 9.77417L49.7339 9.77417L49.7339 9.77418L49.7338 9.77418L49.7338 9.77418L49.7337 9.77418L49.7337 9.77418L49.7337 9.77418L49.7336 9.77418L49.7336 9.77418L49.7336 9.77418L49.7335 9.77418L49.7335 9.77418L49.7334 9.77418L49.7334 9.77418L49.7334 9.77418L49.7333 9.77418L49.7333 9.77419L49.7333 9.77419L49.7332 9.77419L49.7332 9.77419L49.7331 9.77419L49.7331 9.77419L49.7331 9.77419L49.733 9.77419L49.733 9.77419L49.7329 9.77419L49.7329 9.77419L49.7329 9.77419L49.7328 9.77419L49.7328 9.77419L49.7328 9.77419L49.7327 9.7742L49.7327 9.7742L49.7326 9.7742L49.7326 9.7742L49.7326 9.7742L49.7325 9.7742L49.7325 9.7742L49.7325 9.7742L49.7324 9.7742L49.7324 9.7742L49.7323 9.7742L49.7323 9.7742L49.7323 9.7742L49.7322 9.7742L49.7322 9.7742L49.7321 9.7742L49.7321 9.77421L49.7321 9.77421L49.732 9.77421L49.732 9.77421L49.732 9.77421L49.7319 9.77421L49.7319 9.77421L49.7318 9.77421L49.7318 9.77421L49.7318 9.77421L49.7317 9.77421L49.7317 9.77421L49.7317 9.77421L49.7316 9.77421L49.7316 9.77421L49.7315 9.77422L49.7315 9.77422L49.7315 9.77422L49.7314 9.77422L49.7314 9.77422L49.7314 9.77422L49.7313 9.77422L49.7313 9.77422L49.7312 9.77422L49.7312 9.77422L49.7312 9.77422L46.4304 9.83184M49.7938 43.2753L49.7968 43.2774M49.7938 43.2753L49.7897 43.2695C49.7926 43.2736 49.7955 43.2763 49.7968 43.2774M46.4304 9.83184L46.4113 8.73628M46.4304 9.83184L46.3804 9.83271M46.4304 9.83184L46.4313 9.88183L49.732 9.82421L49.7419 9.82404C50.2879 9.81451 50.7381 10.2494 50.7476 10.7952L51.2986 42.3651C51.3027 42.7161 51.1201 43.043 50.8193 43.2238C50.5166 43.4057 50.1397 43.4122 49.8309 43.241C49.77 43.1531 39.7917 37.9289 26.0151 41.6793C25.9365 41.6902 25.8569 41.6916 25.7779 41.6834M46.4113 8.73628C46.4215 8.2596 46.1057 7.837 45.6455 7.7119L45.6455 7.71189L45.6442 7.71157C43.3032 7.14156 40.8981 6.87723 38.4891 6.92521C34.5415 6.99413 29.1745 7.97339 25.2516 12.0783C21.216 8.0728 15.7789 7.32163 11.8416 7.39035M46.4113 8.73628C46.4113 8.73661 46.4113 8.73693 46.4113 8.73726L46.3613 8.73614M46.4113 8.73628L46.4113 8.73527L46.3613 8.73614M11.8416 7.39035C11.8416 7.39035 11.8417 7.39035 11.8417 7.39035L11.8424 7.44034L11.8416 7.39035C11.8416 7.39035 11.8416 7.39035 11.8416 7.39035ZM46.3613 8.73614L46.3804 9.83271M46.3613 8.73614C46.3714 8.28202 46.0707 7.8793 45.6324 7.76015L46.3804 9.83271M46.3804 9.83271L25.5407 41.6876L25.6889 41.685L25.7779 41.6834M49.7968 43.2774C49.7975 43.278 49.7977 43.2781 49.797 43.2775L49.7968 43.2774ZM39.5429 37.2708C36.7501 37.2681 33.9761 37.7207 31.3298 38.6101C31.4167 38.5986 31.5037 38.5874 31.5907 38.5765M39.5429 37.2708L49.2835 40.7643C49.2667 40.7578 49.2499 40.7513 49.2331 40.7448M39.5429 37.2708C41.6244 37.2461 43.705 37.3717 45.7685 37.6466M39.5429 37.2708L45.7685 37.6466M31.5907 38.5765C31.5074 38.6036 31.4242 38.6311 31.3411 38.659C37.3893 37.8592 43.5428 38.5946 49.234 40.7988L49.2331 40.7448M31.5907 38.5765C34.1578 37.7424 36.8415 37.3182 39.5428 37.3208L39.5435 37.3208C41.6226 37.2961 43.7008 37.4215 45.7618 37.6962M31.5907 38.5765C37.558 37.8305 43.6197 38.5744 49.2331 40.7448M49.2331 40.7448L48.7685 11.8685L46.5062 11.908M46.5062 11.908L46.9379 36.6369C46.9379 36.637 46.9379 36.6371 46.9379 36.6372L46.9379 36.6375L46.8879 36.6383L46.5062 11.908ZM46.5062 11.908L45.7618 37.6962M45.7618 37.6962C45.7618 37.6962 45.7618 37.6962 45.7619 37.6962L45.7685 37.6466M45.7618 37.6962L45.7685 37.6466M5.70673 38.4052L5.70676 38.4052C7.74373 38.0577 9.80289 37.8567 11.8686 37.8039L11.869 37.8038C14.5566 37.7103 17.2409 38.0409 19.8236 38.7826C13.8461 38.2507 7.82728 39.2051 2.3043 41.564L1.80027 12.6883L4.0626 12.6488L4.49442 37.3879C4.4981 37.9614 4.96587 38.4233 5.53934 38.4198C5.59541 38.4195 5.65143 38.4146 5.70673 38.4052ZM11.8321 35.7369L11.832 35.7369C10.0511 35.7721 8.27418 35.9164 6.51104 36.1692L6.05881 10.2608C7.95987 9.80531 9.90444 9.55582 11.859 9.51692C15.5457 9.45259 20.6352 10.2111 24.2283 14.1147L24.6857 38.6244C22.5756 37.3169 18.5382 35.6199 11.8321 35.7369ZM44.3587 9.59232L44.8109 35.5005C43.05 35.3072 41.279 35.2215 39.5077 35.244L39.5075 35.244C32.8389 35.3604 28.8538 37.1983 26.7624 38.5791L26.3348 14.0781C29.7903 10.0905 34.8498 9.11563 38.5361 9.05127C40.4907 9.02292 42.4428 9.20428 44.3587 9.59232Z" fill="white" stroke="white" stroke-width="0.1"/>
</g>
<defs>
<clipPath id="clip0">
<rect width="51" height="51" fill="white"/>
</clipPath>
</defs>
</svg>
