<svg width="51" height="51" viewBox="0 0 51 51" fill="none" xmlns="http://www.w3.org/2000/svg">
<g clip-path="url(#clip0)">
<path d="M1.81671 44.1235C1.66332 44.2137 1.48939 44.2629 1.31155 44.2666L1.31141 44.2666C0.737947 44.2766 0.264887 43.8197 0.254877 43.2463L-0.296178 11.6764C-0.306188 11.1029 0.150641 10.6299 0.724102 10.6199L4.00506 10.5626L3.98611 9.47688C3.95932 9.00086 4.26014 8.56751 4.7157 8.42643L4.71697 8.42604L4.71698 8.42606C7.0367 7.77469 9.43106 7.42658 11.8403 7.39047M1.81671 44.1235C1.81633 44.1237 1.816 44.1238 1.81575 44.1239L1.79262 44.0796L1.81803 44.1227C1.81759 44.1229 1.81715 44.1232 1.81671 44.1235ZM1.81671 44.1235C1.81865 44.1224 1.82229 44.1204 1.82764 44.1174C2.2233 43.899 11.9074 38.5537 25.528 41.7364L25.5276 41.7379L25.5402 41.7377L25.6885 41.7351L25.7745 41.7336M25.7745 41.7336C25.8564 41.7418 25.939 41.7402 26.0206 41.7289L26.0207 41.7294L26.0269 41.7277C32.9064 39.8549 38.8371 40.2229 43.0552 41.0699C45.1643 41.4934 46.8451 42.0367 48.0021 42.4793C48.5806 42.7007 49.028 42.8968 49.3325 43.0402C49.4847 43.1119 49.601 43.1704 49.68 43.2121C49.7196 43.233 49.7494 43.2496 49.7697 43.2614C49.7742 43.2641 49.7782 43.2665 49.7816 43.2686C49.7859 43.2711 49.7892 43.2733 49.7918 43.275L49.7924 43.2754M25.7745 41.7336C25.7734 41.7335 25.7724 41.7334 25.7714 41.7333L25.7766 41.6836M25.7745 41.7336L25.7774 41.7335L25.7766 41.6836M49.7924 43.2754L49.7951 43.2792L49.8053 43.2849C50.1298 43.4648 50.5257 43.4578 50.8437 43.2667C51.1598 43.0769 51.3515 42.7335 51.3473 42.3646L51.3473 42.3644L50.7962 10.7945C50.7862 10.221 50.3133 9.76416 49.7397 9.77417L49.7397 9.77417L49.7396 9.77417L49.7396 9.77417L49.7395 9.77417L49.7395 9.77418L49.7395 9.77418L49.7394 9.77418L49.7394 9.77418L49.7394 9.77418L49.7393 9.77418L49.7393 9.77418L49.7392 9.77418L49.7392 9.77418L49.7392 9.77418L49.7391 9.77418L49.7391 9.77418L49.739 9.77418L49.739 9.77418L49.739 9.77418L49.7389 9.77419L49.7389 9.77419L49.7388 9.77419L49.7388 9.77419L49.7388 9.77419L49.7387 9.77419L49.7387 9.77419L49.7386 9.77419L49.7386 9.77419L49.7386 9.77419L49.7385 9.77419L49.7385 9.77419L49.7385 9.77419L49.7384 9.77419L49.7384 9.77419L49.7383 9.7742L49.7383 9.7742L49.7383 9.7742L49.7382 9.7742L49.7382 9.7742L49.7381 9.7742L49.7381 9.7742L49.7381 9.7742L49.738 9.7742L49.738 9.7742L49.7379 9.7742L49.7379 9.7742L49.7379 9.7742L49.7378 9.7742L49.7378 9.77421L49.7378 9.77421L49.7377 9.77421L49.7377 9.77421L49.7376 9.77421L49.7376 9.77421L49.7376 9.77421L49.7375 9.77421L49.7375 9.77421L49.7374 9.77421L49.7374 9.77421L49.7374 9.77421L49.7373 9.77421L49.7373 9.77421L49.7372 9.77421L49.7372 9.77422L49.7372 9.77422L49.7371 9.77422L49.7371 9.77422L49.737 9.77422L49.737 9.77422L49.737 9.77422L49.7369 9.77422L49.7369 9.77422L49.7369 9.77422L49.7368 9.77422L49.7368 9.77422L49.7367 9.77422L49.7367 9.77422L49.7367 9.77422L49.7366 9.77423L49.7366 9.77423L49.7365 9.77423L49.7365 9.77423L49.7365 9.77423L49.7364 9.77423L49.7364 9.77423L49.7363 9.77423L49.7363 9.77423L49.7363 9.77423L49.7362 9.77423L49.7362 9.77423L49.7362 9.77423L49.7361 9.77423L49.7361 9.77424L49.736 9.77424L49.736 9.77424L49.736 9.77424L49.7359 9.77424L49.7359 9.77424L49.7358 9.77424L49.7358 9.77424L49.7358 9.77424L49.7357 9.77424L49.7357 9.77424L49.7356 9.77424L49.7356 9.77424L49.7356 9.77424L49.7355 9.77424L49.7355 9.77425L49.7355 9.77425L49.7354 9.77425L49.7354 9.77425L49.7353 9.77425L49.7353 9.77425L49.7353 9.77425L49.7352 9.77425L49.7352 9.77425L49.7351 9.77425L49.7351 9.77425L49.7351 9.77425L49.735 9.77425L49.735 9.77425L49.7349 9.77425L49.7349 9.77426L49.7349 9.77426L49.7348 9.77426L49.7348 9.77426L49.7348 9.77426L49.7347 9.77426L49.7347 9.77426L49.7346 9.77426L49.7346 9.77426L49.7346 9.77426L49.7345 9.77426L49.7345 9.77426L49.7344 9.77426L49.7344 9.77426L49.7344 9.77426L49.7343 9.77427L49.7343 9.77427L49.7343 9.77427L49.7342 9.77427L49.7342 9.77427L49.7341 9.77427L49.7341 9.77427L49.7341 9.77427L49.734 9.77427L49.734 9.77427L49.7339 9.77427L49.7339 9.77427L49.7339 9.77427L49.7338 9.77427L49.7338 9.77427L49.7338 9.77428L49.7337 9.77428L49.7337 9.77428L49.7336 9.77428L49.7336 9.77428L49.7336 9.77428L49.7335 9.77428L49.7335 9.77428L49.7334 9.77428L49.7334 9.77428L49.7334 9.77428L49.7333 9.77428L49.7333 9.77428L49.7333 9.77428L49.7332 9.77429L49.7332 9.77429L49.7331 9.77429L49.7331 9.77429L49.7331 9.77429L49.733 9.77429L49.733 9.77429L49.7329 9.77429L49.7329 9.77429L49.7329 9.77429L49.7328 9.77429L49.7328 9.77429L49.7328 9.77429L49.7327 9.77429L49.7327 9.77429L49.7326 9.7743L49.7326 9.7743L49.7326 9.7743L49.7325 9.7743L49.7325 9.7743L49.7324 9.7743L49.7324 9.7743L49.7324 9.7743L49.7323 9.7743L49.7323 9.7743L49.7323 9.7743L49.7322 9.7743L49.7322 9.7743L49.7321 9.7743L49.7321 9.7743L49.7321 9.77431L49.732 9.77431L49.732 9.77431L49.7319 9.77431L49.7319 9.77431L49.7319 9.77431L49.7318 9.77431L49.7318 9.77431L49.7318 9.77431L49.7317 9.77431L49.7317 9.77431L49.7316 9.77431L49.7316 9.77431L49.7316 9.77431L49.7315 9.77431L49.7315 9.77432L49.7315 9.77432L49.7314 9.77432L49.7314 9.77432L49.7313 9.77432L49.7313 9.77432L49.7313 9.77432L49.7312 9.77432L49.7312 9.77432L49.7311 9.77432L49.7311 9.77432L49.7311 9.77432L49.731 9.77432L49.731 9.77432L49.731 9.77432L49.7309 9.77433L49.7309 9.77433L49.7308 9.77433L49.7308 9.77433L49.7308 9.77433L49.7307 9.77433L49.7307 9.77433L49.7307 9.77433L49.7306 9.77433L49.7306 9.77433L49.7305 9.77433L49.7305 9.77433L49.7305 9.77433L49.7304 9.77433L49.7304 9.77433L49.7303 9.77434L49.7303 9.77434L49.7303 9.77434L49.7302 9.77434L49.7302 9.77434L49.7302 9.77434L49.7301 9.77434L49.7301 9.77434L49.73 9.77434L49.73 9.77434L49.73 9.77434L49.7299 9.77434L49.7299 9.77434L49.7299 9.77434L49.7298 9.77434L46.4291 9.83196M49.7924 43.2754L49.7954 43.2775M49.7924 43.2754L49.7884 43.2696C49.7912 43.2737 49.7942 43.2764 49.7954 43.2775M46.4291 9.83196L46.41 8.73641M46.4291 9.83196L46.3791 9.83283M46.4291 9.83196L46.43 9.88195L49.7307 9.82434L49.7406 9.82416C50.2866 9.81463 50.7367 10.2495 50.7462 10.7953L51.2973 42.3652C51.3013 42.7163 51.1188 43.0431 50.8179 43.2239C50.5152 43.4058 50.1384 43.4124 49.8295 43.2411C49.7687 43.1532 39.7903 37.929 26.0138 41.6794C25.9351 41.6903 25.8556 41.6917 25.7766 41.6836M46.41 8.73641C46.4201 8.25972 46.1044 7.83712 45.6442 7.71203L45.6442 7.71201L45.6429 7.71169C43.3018 7.14168 40.8968 6.87735 38.4878 6.92534C34.5402 6.99425 29.1731 7.97351 25.2502 12.0785C21.2146 8.07292 15.7775 7.32175 11.8403 7.39047M46.41 8.73641C46.41 8.73673 46.41 8.73705 46.4099 8.73738L46.36 8.73627M46.41 8.73641L46.4099 8.73539L46.36 8.73627M11.8403 7.39047C11.8403 7.39047 11.8403 7.39047 11.8403 7.39047L11.8411 7.44046L11.8402 7.39047C11.8402 7.39047 11.8403 7.39047 11.8403 7.39047ZM46.36 8.73627L46.3791 9.83283M46.36 8.73627C46.3701 8.28215 46.0694 7.87943 45.631 7.76027L46.3791 9.83283M46.3791 9.83283L25.5393 41.6877L25.6876 41.6851L25.7766 41.6836M49.7954 43.2775C49.7962 43.2781 49.7963 43.2782 49.7956 43.2776L49.7954 43.2775ZM39.5415 37.2709C36.7487 37.2682 33.9747 37.7208 31.3284 38.6102C31.4154 38.5987 31.5024 38.5875 31.5894 38.5766M39.5415 37.2709L49.2821 40.7645C49.2653 40.7579 49.2486 40.7514 49.2318 40.745M39.5415 37.2709C41.6231 37.2462 43.7037 37.3718 45.7671 37.6467M39.5415 37.2709L45.7671 37.6467M31.5894 38.5766C31.506 38.6037 31.4228 38.6312 31.3398 38.6591C37.388 37.8594 43.5415 38.5947 49.2327 40.7989L49.2318 40.745M31.5894 38.5766C34.1565 37.7425 36.8402 37.3183 39.5415 37.3209L39.5421 37.3209C41.6213 37.2962 43.6995 37.4217 45.7605 37.6963M31.5894 38.5766C37.5566 37.8306 43.6184 38.5745 49.2318 40.745M49.2318 40.745L48.7671 11.8686L46.5049 11.9081M46.5049 11.9081L46.9365 36.637C46.9365 36.6371 46.9365 36.6372 46.9365 36.6373L46.9365 36.6376L46.8865 36.6385L46.5049 11.9081ZM46.5049 11.9081L45.7605 37.6963M45.7605 37.6963C45.7605 37.6963 45.7605 37.6963 45.7605 37.6963L45.7671 37.6467M45.7605 37.6963L45.7671 37.6467M5.70539 38.4053L5.70541 38.4053C7.74239 38.0578 9.80155 37.8568 11.8672 37.804L11.8677 37.804C14.5552 37.7104 17.2396 38.041 19.8222 38.7827C13.8448 38.2508 7.82594 39.2053 2.30296 41.5641L1.79893 12.6884L4.06126 12.6489L4.49308 37.3881C4.49676 37.9615 4.96453 38.4235 5.538 38.4199C5.59407 38.4196 5.65009 38.4147 5.70539 38.4053ZM11.8308 35.7371L11.8306 35.7371C10.0498 35.7722 8.27284 35.9165 6.5097 36.1693L6.05747 10.261C7.95852 9.80543 9.9031 9.55594 11.8577 9.51704C15.5444 9.45271 20.6338 10.2112 24.227 14.1148L24.6843 38.6246C22.5742 37.3171 18.5368 35.62 11.8308 35.7371ZM44.3574 9.59245L44.8096 35.5006C43.0487 35.3073 41.2777 35.2216 39.5064 35.2441L39.5062 35.2441C32.8375 35.3605 28.8525 37.1985 26.7611 38.5792L26.3334 14.0782C29.789 10.0907 34.8484 9.11575 38.5348 9.05139C40.4894 9.02304 42.4415 9.2044 44.3574 9.59245Z" fill="white" stroke="white" stroke-width="0.1"/>
</g>
<defs>
<clipPath id="clip0">
<rect width="51" height="51" fill="white"/>
</clipPath>
</defs>
</svg>
