<svg width="51" height="51" viewBox="0 0 51 51" fill="none" xmlns="http://www.w3.org/2000/svg">
<g clip-path="url(#clip0)">
<path d="M33.8327 21.1856V21.1942C34.1875 21.2203 34.5345 21.3156 34.8538 21.4753C35.2329 21.665 35.5626 21.9403 35.8169 22.2796C36.0711 22.6188 36.2428 23.0125 36.3185 23.4296C36.3942 23.8467 36.3716 24.2757 36.2528 24.6826L36.0608 24.6265L36.2528 24.6826L34.2669 31.4783L34.2667 31.4791C34.0992 32.0444 33.754 32.5407 33.2822 32.8944C32.8105 33.2481 32.2373 33.4404 31.6477 33.4427L31.6469 33.4427H22.2298V34.7965V34.7966H22.0298C22.0299 34.8882 22.0119 34.9789 21.9768 35.0635C21.9418 35.1481 21.8905 35.225 21.8257 35.2898C21.7609 35.3545 21.6841 35.4059 21.5994 35.4409L21.6759 35.6257C21.567 35.6708 21.4503 35.6939 21.3324 35.6939M33.8327 21.1856L22.0314 19.8317C22.0314 19.7401 22.0135 19.6494 21.9784 19.5648C21.9434 19.4802 21.892 19.4033 21.8273 19.3385C21.7625 19.2738 21.6856 19.2224 21.601 19.1874C21.5164 19.1524 21.4257 19.1344 21.3341 19.1344V18.9344H21.334H15.5293C15.2913 18.9344 15.0631 19.029 14.8948 19.1972C14.7266 19.3655 14.632 19.5937 14.632 19.8317V34.7966C14.632 35.0346 14.7266 35.2628 14.8948 35.4311C15.0631 35.5993 15.2913 35.6939 15.5293 35.6939H21.3324M33.8327 21.1856H33.6327H29.6025V18.8707V18.8705C29.6015 17.9254 29.2256 17.0193 28.5573 16.351C27.8891 15.6827 26.983 15.3069 26.0379 15.3059L26.0378 15.3059C25.839 15.3057 25.6459 15.3717 25.4886 15.4933C25.3314 15.6148 25.2191 15.7851 25.1692 15.9775C25.1692 15.9775 25.1691 15.9776 25.1691 15.9776L23.8151 21.1856H22.2314V19.8318L33.8327 21.1856ZM21.3324 35.6939L21.3325 35.4939V35.6939H21.3324ZM20.4369 33.8993H16.4266V20.7278H20.4369V33.8993ZM34.5305 24.1775L32.5444 30.9734C32.5444 30.9736 32.5443 30.9737 32.5443 30.9739C32.4868 31.1676 32.3685 31.3377 32.2068 31.4589C32.0451 31.5801 31.8487 31.6461 31.6466 31.647C31.6464 31.647 31.6463 31.647 31.6461 31.647L22.2314 31.647V22.9801H24.5105C24.7091 22.9801 24.9022 22.9142 25.0593 22.7926C25.2164 22.671 25.3287 22.5008 25.3786 22.3085C25.3786 22.3085 25.3786 22.3084 25.3786 22.3084L26.6992 17.2286C26.9932 17.3474 27.2513 17.5435 27.445 17.7977C27.6801 18.1061 27.8076 18.4831 27.808 18.8709V22.0829C27.808 22.3208 27.9025 22.5491 28.0708 22.7173C28.239 22.8856 28.4673 22.9801 28.7052 22.9801H33.6327C33.7779 22.9801 33.9212 23.0139 34.0511 23.0789C34.181 23.1438 34.2939 23.2381 34.3811 23.3543C34.4682 23.4705 34.527 23.6054 34.553 23.7483C34.5789 23.8912 34.5712 24.0381 34.5305 24.1775Z" fill="white" stroke="white" stroke-width="0.4"/>
<path d="M47.3838 12.2917L47.384 12.2918C47.5417 12.3705 47.6727 12.494 47.7607 12.6467C47.8486 12.7995 47.8895 12.9749 47.8783 13.1508M47.3838 12.2917L47.2803 19.6625M47.3838 12.2917L41.5908 9.40898L38.7081 3.616L38.7076 3.61497M47.3838 12.2917L38.7076 3.61497M47.8783 13.1508L47.6787 13.1381L47.8784 13.1503L47.8783 13.1508ZM47.8783 13.1508L47.484 19.608M47.484 19.608L47.4472 19.5522L47.2803 19.6625M47.484 19.608L51.0511 25.0044M47.484 19.608L47.4799 19.6747L47.2803 19.6625M47.2803 19.6625L51.0511 25.0044M51.0511 25.0044L50.8846 25.1151L51.0514 25.0049L51.0511 25.0044ZM51.0511 25.0044C51.1487 25.1511 51.2008 25.3234 51.2011 25.4995C51.2014 25.6757 51.1498 25.8481 51.0527 25.9951L51.0526 25.9952L47.4852 31.3921M51.0511 25.0044L47.6799 37.8619L47.8796 37.8496L47.4852 31.3921M47.4852 31.3921L47.4811 31.3253L47.2815 31.3375L47.4483 31.4478L47.4852 31.3921ZM47.3836 38.7076C47.5415 38.6292 47.6727 38.506 47.7609 38.3534C47.8491 38.2008 47.8904 38.0257 47.8796 37.8498L41.4408 41.4415M47.3836 38.7076L47.3838 38.7076L47.2947 38.5285L47.3836 38.7076ZM47.3836 38.7076L41.59 41.5907M41.59 41.5907L41.6199 41.5306L41.4408 41.4415M41.59 41.5907L38.7081 47.3832L38.7072 47.385C38.6275 47.5413 38.5042 47.6712 38.3522 47.759C38.2003 47.8468 38.0261 47.8887 37.8509 47.8796L37.8491 47.8795L31.391 47.4851M41.59 41.5907L41.5299 41.6206L41.4408 41.4415M41.4408 41.4415L31.391 47.4851M31.391 47.4851L31.4467 47.4482L31.3364 47.2814L31.3242 47.481L31.391 47.4851ZM31.391 47.4851L25.9945 51.0529L25.9944 51.053C25.8477 51.1499 25.6756 51.2016 25.4997 51.2016C25.3238 51.2016 25.1518 51.1499 25.005 51.053L25.0049 51.0529L19.6081 47.4851M31.391 47.4851L3.3215 37.8612L3.1219 37.8485C3.1219 37.8486 3.12189 37.8487 3.12188 37.8488C3.11076 38.0246 3.1517 38.1998 3.23958 38.3525C3.32752 38.5053 3.45855 38.6288 3.6163 38.7075L3.61649 38.7076L9.40947 41.5903M19.6081 47.4851L19.6748 47.481L19.6626 47.2814L19.5523 47.4482L19.6081 47.4851ZM19.6081 47.4851L13.1504 47.8795L13.1499 47.8795C12.9741 47.8898 12.7992 47.8483 12.6468 47.7602C12.4943 47.672 12.3711 47.5411 12.2923 47.3836L12.2922 47.3833L9.40947 41.5903M9.40947 41.5903L9.46954 41.6202L9.55864 41.4411L9.37958 41.5302L9.40947 41.5903ZM38.7076 3.61497C38.6284 3.45812 38.5052 3.32774 38.3531 3.23979C38.201 3.15183 38.0266 3.11011 37.8511 3.11971L37.8499 3.11979M38.7076 3.61497L37.8499 3.11979M37.8499 3.11979L31.3921 3.51415M37.8499 3.11979L31.3921 3.51415M19.8104 45.6718V45.6721H19.853C19.853 45.6721 19.853 45.6721 19.8531 45.6721C20.029 45.6721 20.2011 45.7238 20.3478 45.8208C20.3479 45.8208 20.3479 45.8209 20.3479 45.8209L25.5001 49.2267L30.6533 45.8207C30.6533 45.8206 30.6534 45.8206 30.6535 45.8205C30.8158 45.7129 31.0087 45.6612 31.2031 45.6733L37.3659 46.0505L40.1169 40.5199C40.2038 40.3448 40.3457 40.2029 40.5208 40.116L46.051 37.3642L45.6746 31.2015C45.6746 31.2015 45.6746 31.2014 45.6746 31.2014C45.6624 31.0071 45.7139 30.8142 45.8213 30.6519C45.8214 30.6519 45.8214 30.6518 45.8214 30.6518L49.2272 25.4996L45.8214 20.3467L19.8104 45.6718ZM19.8104 45.6718L19.7982 45.6725M19.8104 45.6718L19.7982 45.6725M19.7982 45.6725L13.6352 46.0493M19.7982 45.6725L13.6352 46.0493M19.7981 5.32599L19.7974 5.32596L13.6344 4.94876L10.8833 10.4794L19.7981 5.32599ZM19.7981 5.32599C19.9918 5.33722 20.184 5.28571 20.3462 5.1791L20.3466 5.17883M19.7981 5.32599L20.3466 5.17883M20.3466 5.17883L25.5001 1.77257L30.6524 5.17842L30.6527 5.17864M20.3466 5.17883L30.6527 5.17864M30.6527 5.17864C30.8151 5.28549 31.0076 5.33704 31.2016 5.32558L31.202 5.32556M30.6527 5.17864L31.202 5.32556M31.202 5.32556L37.3651 4.94875M31.202 5.32556L37.3651 4.94875M31.3921 3.51415L25.995 -0.0516206C25.9949 -0.051643 25.9949 -0.0516656 25.9949 -0.0516879C25.8481 -0.14874 25.6761 -0.200488 25.5001 -0.200488C25.3242 -0.200488 25.1521 -0.148728 25.0053 -0.0516525C25.0053 -0.0516419 25.0053 -0.0516312 25.0053 -0.0516206L19.6089 3.51614L13.1523 3.12188C13.1521 3.12186 13.1518 3.12184 13.1515 3.12182C12.9755 3.10986 12.7998 3.15042 12.6469 3.23838C12.4937 3.32641 12.3702 3.45796 12.292 3.61632C12.292 3.61641 12.2919 3.6165 12.2919 3.61658L9.41066 9.40977L3.61661 12.2916C3.6166 12.2916 3.6166 12.2916 3.61659 12.2916C3.61657 12.2916 3.61655 12.2916 3.61653 12.2917C3.4587 12.3701 3.3275 12.4933 3.23931 12.6459C3.15112 12.7984 3.10986 12.9736 3.12068 13.1495C3.12068 13.1495 3.12068 13.1496 3.12068 13.1496L3.51504 19.6072L-0.0511323 25.0048C-0.0511539 25.0048 -0.0511761 25.0049 -0.0511977 25.0049M31.3921 3.51415L-0.0511977 25.0049M-0.0511977 25.0049C-0.148252 25.1516 -0.2 25.3237 -0.2 25.4996M-0.0511977 25.0049L-0.2 25.4996M-0.2 25.4996C-0.2 25.6756 -0.148243 25.8477 -0.0511735 25.9944M-0.2 25.4996L-0.0511735 25.9944M-0.0511735 25.9944C-0.05116 25.9944 -0.0511459 25.9944 -0.0511323 25.9945L-0.0511735 25.9944ZM13.6352 46.0493L10.884 40.5193C10.7971 40.3444 10.6553 40.2027 10.4804 40.1157L4.94924 37.365L5.32563 31.2023C5.32563 31.2022 5.32563 31.2022 5.32564 31.2021L5.32565 31.2019L5.12602 31.1897M13.6352 46.0493L1.77305 25.4996M5.12602 31.1897C5.13552 31.0389 5.09551 30.889 5.01207 30.763M5.12602 31.1897L4.74153 37.485L5.12602 31.1897ZM5.01207 30.763L5.17892 30.6527L5.17884 30.6526L5.01207 30.763ZM5.01207 30.763L1.53331 25.4996M1.53331 25.4996L1.70015 25.6099L1.77305 25.4996M1.53331 25.4996L1.70016 25.3894L1.77305 25.4996M1.53331 25.4996L1.77305 25.4996M1.77305 25.4996L5.17884 20.3475C5.28629 20.1852 5.33783 19.9922 5.32564 19.7979L1.77305 25.4996ZM4.94923 13.6351L5.32563 19.7978L4.94923 13.6351ZM4.94923 13.6351L10.4794 10.8832L4.94923 13.6351ZM37.3651 4.94875L40.1162 10.4787C40.1162 10.4787 40.1162 10.4788 40.1162 10.4788C40.2032 10.6537 40.3449 10.7954 40.5198 10.8823L46.051 13.6343L45.6746 19.797C45.6746 19.797 45.6746 19.797 45.6746 19.7971C45.6624 19.9913 45.7139 20.1842 45.8213 20.3465L37.3651 4.94875ZM3.51623 31.3913L3.55309 31.447L3.71994 31.3367L3.52031 31.3246L3.51623 31.3913ZM10.4797 10.8831C10.6546 10.7963 10.7964 10.6545 10.8832 10.4796L10.4797 10.8831Z" fill="white" stroke="white" stroke-width="0.4"/>
<path d="M25.5022 7.86836H25.502C22.0148 7.86836 18.6059 8.90244 15.7063 10.8398C12.8068 12.7772 10.5469 15.5309 9.21245 18.7527C7.87795 21.9744 7.52879 25.5196 8.20911 28.9398C8.88943 32.36 10.5687 35.5016 13.0345 37.9675C15.5003 40.4333 18.642 42.1125 22.0622 42.7929C25.4824 43.4732 29.0275 43.124 32.2493 41.7895C35.4711 40.455 38.2247 38.1951 40.1621 35.2956C42.0995 32.3961 43.1336 28.9872 43.1336 25.5V25.4998C43.1283 20.8253 41.269 16.3437 37.9636 13.0384C34.6582 9.73299 30.1767 7.87369 25.5022 7.86836ZM25.5017 41.3371C22.3695 41.3371 19.3077 40.4082 16.7033 38.6681C14.0989 36.9279 12.0691 34.4545 10.8704 31.5606C9.67171 28.6667 9.35808 25.4824 9.96916 22.4103C10.5802 19.3382 12.0886 16.5163 14.3034 14.3015C16.5183 12.0866 19.3402 10.5783 22.4123 9.9672C25.4844 9.35612 28.6687 9.66975 31.5626 10.8684C34.4564 12.0671 36.9298 14.097 38.67 16.7014C40.4102 19.3057 41.339 22.3676 41.3391 25.4998C41.3339 29.6985 39.6636 33.7238 36.6947 36.6927C33.7257 39.6617 29.7004 41.3319 25.5017 41.3371Z" fill="white" stroke="white" stroke-width="0.4"/>
</g>
<defs>
<clipPath id="clip0">
<rect width="51" height="51" fill="white"/>
</clipPath>
</defs>
</svg>
