<svg width="51" height="51" viewBox="0 0 51 51" fill="none" xmlns="http://www.w3.org/2000/svg">
<g clip-path="url(#clip0)">
<path d="M33.8337 21.1857V21.1943C34.1885 21.2204 34.5355 21.3157 34.8548 21.4755C35.2339 21.6651 35.5636 21.9405 35.8178 22.2797C36.0721 22.6189 36.2438 23.0126 36.3195 23.4297C36.3951 23.8468 36.3726 24.2758 36.2537 24.6827L36.0618 24.6266L36.2537 24.6827L34.2679 31.4785L34.2677 31.4792C34.1002 32.0445 33.755 32.5408 33.2832 32.8945C32.8115 33.2482 32.2383 33.4405 31.6487 33.4428L31.6479 33.4428H22.2308V34.7966V34.7967H22.0308C22.0308 34.8883 22.0128 34.979 21.9778 35.0636C21.9428 35.1482 21.8914 35.2251 21.8267 35.2899C21.7619 35.3546 21.685 35.406 21.6004 35.441L21.6769 35.6258C21.568 35.6709 21.4513 35.6941 21.3334 35.694M33.8337 21.1857L22.0324 19.8318C22.0324 19.7402 22.0144 19.6495 21.9794 19.5649C21.9444 19.4803 21.893 19.4034 21.8283 19.3387C21.7635 19.2739 21.6866 19.2225 21.602 19.1875C21.5174 19.1525 21.4267 19.1345 21.3351 19.1346V18.9346H21.335H15.5303C15.2923 18.9346 15.0641 19.0291 14.8958 19.1974C14.7275 19.3656 14.633 19.5938 14.633 19.8318V34.7967C14.633 35.0347 14.7275 35.2629 14.8958 35.4312C15.0641 35.5995 15.2923 35.694 15.5303 35.694H21.3334M33.8337 21.1857H33.6337H29.6035V18.8708V18.8706C29.6025 17.9255 29.2266 17.0194 28.5583 16.3511C27.89 15.6829 26.984 15.307 26.0389 15.306L26.0388 15.306C25.84 15.3059 25.6468 15.3718 25.4896 15.4934C25.3324 15.6149 25.22 15.7853 25.1701 15.9776C25.1701 15.9777 25.1701 15.9777 25.1701 15.9777L23.8161 21.1857H22.2324V19.8319L33.8337 21.1857ZM21.3334 35.694L21.3335 35.494V35.694H21.3334ZM20.4378 33.8995H16.4275V20.7279H20.4378V33.8995ZM34.5314 24.1777L32.5454 30.9735C32.5454 30.9737 32.5453 30.9739 32.5453 30.974C32.4878 31.1678 32.3694 31.3378 32.2078 31.459C32.0461 31.5803 31.8496 31.6462 31.6475 31.6471C31.6474 31.6471 31.6472 31.6471 31.6471 31.6471L22.2324 31.6471V22.9803H24.5115C24.7101 22.9803 24.9032 22.9143 25.0603 22.7927C25.2174 22.6711 25.3297 22.5009 25.3796 22.3086C25.3796 22.3086 25.3796 22.3085 25.3796 22.3085L26.7002 17.2287C26.9942 17.3475 27.2523 17.5436 27.446 17.7978C27.6811 18.1062 27.8086 18.4832 27.8089 18.871V22.083C27.8089 22.321 27.9035 22.5492 28.0717 22.7175C28.24 22.8857 28.4682 22.9803 28.7062 22.9803H33.6337C33.7789 22.9802 33.9222 23.014 34.052 23.079C34.1819 23.1439 34.2949 23.2382 34.382 23.3544C34.4691 23.4706 34.528 23.6055 34.5539 23.7484C34.5799 23.8913 34.5722 24.0383 34.5314 24.1777Z" fill="white" stroke="white" stroke-width="0.4"/>
<path d="M47.3838 12.2918L47.384 12.2919C47.5417 12.3706 47.6727 12.4941 47.7607 12.6469C47.8486 12.7997 47.8895 12.975 47.8783 13.1509M47.3838 12.2918L47.2803 19.6626M47.3838 12.2918L41.5908 9.4091L38.7081 3.61612L38.7076 3.61509M47.3838 12.2918L38.7076 3.61509M47.8783 13.1509L47.6787 13.1382L47.8784 13.1504L47.8783 13.1509ZM47.8783 13.1509L47.484 19.6081M47.484 19.6081L47.4472 19.5524L47.2803 19.6626M47.484 19.6081L51.0511 25.0045M47.484 19.6081L47.4799 19.6748L47.2803 19.6626M47.2803 19.6626L51.0511 25.0045M51.0511 25.0045L50.8846 25.1153L51.0514 25.005L51.0511 25.0045ZM51.0511 25.0045C51.1487 25.1513 51.2008 25.3235 51.2011 25.4997C51.2014 25.6758 51.1498 25.8482 51.0527 25.9953L51.0526 25.9953L47.4852 31.3922M51.0511 25.0045L47.6799 37.8621L47.8796 37.8498L47.4852 31.3922M47.4852 31.3922L47.4811 31.3255L47.2815 31.3377L47.4483 31.4479L47.4852 31.3922ZM47.3836 38.7078C47.5415 38.6294 47.6727 38.5061 47.7609 38.3535C47.8491 38.201 47.8904 38.0258 47.8796 37.8499L41.4408 41.4416M47.3836 38.7078L47.3838 38.7077L47.2947 38.5287L47.3836 38.7078ZM47.3836 38.7078L41.59 41.5908M41.59 41.5908L41.6199 41.5307L41.4408 41.4416M41.59 41.5908L38.7081 47.3834L38.7072 47.3851C38.6275 47.5415 38.5042 47.6714 38.3522 47.7591C38.2003 47.8469 38.0261 47.8888 37.8509 47.8797L37.8491 47.8796L31.391 47.4852M41.59 41.5908L41.5299 41.6207L41.4408 41.4416M41.4408 41.4416L31.391 47.4852M31.391 47.4852L31.4467 47.4484L31.3364 47.2815L31.3242 47.4812L31.391 47.4852ZM31.391 47.4852L25.9945 51.053L25.9944 51.0531C25.8477 51.15 25.6756 51.2017 25.4997 51.2017C25.3238 51.2017 25.1518 51.15 25.005 51.0531L25.0049 51.053L19.6081 47.4852M31.391 47.4852L3.3215 37.8613L3.1219 37.8486C3.1219 37.8487 3.12189 37.8488 3.12188 37.8489C3.11076 38.0247 3.1517 38.1999 3.23958 38.3526C3.32752 38.5054 3.45855 38.6289 3.6163 38.7076L3.61649 38.7077L9.40947 41.5904M19.6081 47.4852L19.6748 47.4812L19.6626 47.2815L19.5523 47.4484L19.6081 47.4852ZM19.6081 47.4852L13.1504 47.8796L13.1499 47.8796C12.9741 47.8899 12.7992 47.8484 12.6468 47.7603C12.4943 47.6721 12.3711 47.5412 12.2923 47.3838L12.2922 47.3834L9.40947 41.5904M9.40947 41.5904L9.46954 41.6203L9.55864 41.4412L9.37958 41.5303L9.40947 41.5904ZM38.7076 3.61509C38.6284 3.45824 38.5052 3.32787 38.3531 3.23991C38.201 3.15195 38.0266 3.11023 37.8511 3.11983L37.8499 3.11991M38.7076 3.61509L37.8499 3.11991M37.8499 3.11991L31.3921 3.51427M37.8499 3.11991L31.3921 3.51427M19.8104 45.6719V45.6723H19.853C19.853 45.6723 19.853 45.6723 19.8531 45.6723C20.029 45.6722 20.2011 45.7239 20.3478 45.821C20.3479 45.821 20.3479 45.821 20.3479 45.821L25.5001 49.2268L30.6533 45.8208C30.6533 45.8207 30.6534 45.8207 30.6535 45.8206C30.8158 45.713 31.0087 45.6613 31.2031 45.6734L37.3659 46.0506L40.1169 40.52C40.2038 40.3449 40.3457 40.203 40.5208 40.1162L46.051 37.3643L45.6746 31.2016C45.6746 31.2016 45.6746 31.2015 45.6746 31.2015C45.6624 31.0073 45.7139 30.8143 45.8213 30.652C45.8214 30.652 45.8214 30.652 45.8214 30.6519L49.2272 25.4997L45.8214 20.3468L19.8104 45.6719ZM19.8104 45.6719L19.7982 45.6726M19.8104 45.6719L19.7982 45.6726M19.7982 45.6726L13.6352 46.0494M19.7982 45.6726L13.6352 46.0494M19.7981 5.32612L19.7974 5.32608L13.6344 4.94888L10.8833 10.4795L19.7981 5.32612ZM19.7981 5.32612C19.9918 5.33734 20.184 5.28583 20.3462 5.17923L20.3466 5.17895M19.7981 5.32612L20.3466 5.17895M20.3466 5.17895L25.5001 1.77269L30.6524 5.17854L30.6527 5.17876M20.3466 5.17895L30.6527 5.17876M30.6527 5.17876C30.8151 5.28562 31.0076 5.33716 31.2016 5.32571L31.202 5.32568M30.6527 5.17876L31.202 5.32568M31.202 5.32568L37.3651 4.94888M31.202 5.32568L37.3651 4.94888M31.3921 3.51427L25.995 -0.0514986C25.9949 -0.0515209 25.9949 -0.0515435 25.9949 -0.0515659C25.8481 -0.148618 25.6761 -0.200366 25.5001 -0.200366C25.3242 -0.200366 25.1521 -0.148606 25.0053 -0.0515304C25.0053 -0.0515199 25.0053 -0.0515091 25.0053 -0.0514986L19.6089 3.51626L13.1523 3.122C13.1521 3.12198 13.1518 3.12197 13.1515 3.12195C12.9755 3.10999 12.7998 3.15055 12.6469 3.2385C12.4937 3.32653 12.3702 3.45808 12.292 3.61644C12.292 3.61653 12.2919 3.61662 12.2919 3.61671L9.41066 9.40989L3.61661 12.2917C3.6166 12.2917 3.6166 12.2917 3.61659 12.2917C3.61657 12.2918 3.61655 12.2918 3.61653 12.2918C3.4587 12.3702 3.3275 12.4934 3.23931 12.646C3.15112 12.7986 3.10986 12.9737 3.12068 13.1496C3.12068 13.1497 3.12068 13.1497 3.12068 13.1497L3.51504 19.6073L-0.0511323 25.0049C-0.0511539 25.0049 -0.0511761 25.005 -0.0511977 25.005M31.3921 3.51427L-0.0511977 25.005M-0.0511977 25.005C-0.148252 25.1518 -0.2 25.3238 -0.2 25.4998M-0.0511977 25.005L-0.2 25.4998M-0.2 25.4998C-0.2 25.6757 -0.148243 25.8478 -0.0511735 25.9945M-0.2 25.4998L-0.0511735 25.9945M-0.0511735 25.9945C-0.05116 25.9946 -0.0511459 25.9946 -0.0511323 25.9946L-0.0511735 25.9945ZM13.6352 46.0494L10.884 40.5195C10.7971 40.3445 10.6553 40.2028 10.4804 40.1158L4.94924 37.3651L5.32563 31.2024C5.32563 31.2023 5.32563 31.2023 5.32564 31.2022L5.32565 31.202L5.12602 31.1898M13.6352 46.0494L1.77305 25.4998M5.12602 31.1898C5.13552 31.039 5.09551 30.8892 5.01207 30.7631M5.12602 31.1898L4.74153 37.4852L5.12602 31.1898ZM5.01207 30.7631L5.17892 30.6528L5.17884 30.6527L5.01207 30.7631ZM5.01207 30.7631L1.53331 25.4998M1.53331 25.4998L1.70015 25.61L1.77305 25.4998M1.53331 25.4998L1.70016 25.3895L1.77305 25.4998M1.53331 25.4998L1.77305 25.4998M1.77305 25.4998L5.17884 20.3476C5.28629 20.1853 5.33783 19.9923 5.32564 19.7981L1.77305 25.4998ZM4.94923 13.6352L5.32563 19.7979L4.94923 13.6352ZM4.94923 13.6352L10.4794 10.8833L4.94923 13.6352ZM37.3651 4.94888L40.1162 10.4788C40.1162 10.4789 40.1162 10.4789 40.1162 10.4789C40.2032 10.6538 40.3449 10.7955 40.5198 10.8825L46.051 13.6344L45.6746 19.7971C45.6746 19.7971 45.6746 19.7972 45.6746 19.7972C45.6624 19.9914 45.7139 20.1844 45.8213 20.3467L37.3651 4.94888ZM3.51623 31.3914L3.55309 31.4472L3.71994 31.3369L3.52031 31.3247L3.51623 31.3914ZM10.4797 10.8832C10.6546 10.7964 10.7964 10.6547 10.8832 10.4797L10.4797 10.8832Z" fill="white" stroke="white" stroke-width="0.4"/>
<path d="M25.5002 7.86836H25.5C22.0128 7.86836 18.6039 8.90244 15.7044 10.8398C12.8049 12.7772 10.545 15.5309 9.2105 18.7527C7.876 21.9744 7.52683 25.5196 8.20715 28.9398C8.88748 32.36 10.5667 35.5016 13.0326 37.9675C15.4984 40.4333 18.64 42.1125 22.0602 42.7929C25.4804 43.4732 29.0256 43.124 32.2473 41.7895C35.4691 40.455 38.2228 38.1951 40.1602 35.2956C42.0976 32.3961 43.1316 28.9872 43.1316 25.5V25.4998C43.1263 20.8253 41.267 16.3437 37.9616 13.0384C34.6563 9.73299 30.1747 7.87369 25.5002 7.86836ZM25.4998 41.3371C22.3676 41.3371 19.3057 40.4082 16.7014 38.6681C14.097 36.9279 12.0671 34.4545 10.8684 31.5606C9.66975 28.6667 9.35613 25.4824 9.9672 22.4103C10.5783 19.3382 12.0866 16.5163 14.3015 14.3015C16.5163 12.0866 19.3382 10.5783 22.4103 9.9672C25.4824 9.35612 28.6668 9.66975 31.5606 10.8684C34.4545 12.0671 36.9279 14.097 38.6681 16.7014C40.4082 19.3057 41.3371 22.3676 41.3371 25.4998C41.3319 29.6985 39.6617 33.7238 36.6927 36.6927C33.7238 39.6617 29.6985 41.3319 25.4998 41.3371Z" fill="white" stroke="white" stroke-width="0.4"/>
</g>
<defs>
<clipPath id="clip0">
<rect width="51" height="51" fill="white"/>
</clipPath>
</defs>
</svg>
