<svg width="51" height="51" viewBox="0 0 51 51" fill="none" xmlns="http://www.w3.org/2000/svg">
<g clip-path="url(#clip0)">
<path d="M23.7785 18.9603V10.1147C25.8481 9.58295 27.382 7.7013 27.382 5.46802C27.382 2.82296 25.2302 0.671143 22.5852 0.671143C19.9403 0.671143 17.7885 2.82296 17.7885 5.46802C17.7885 7.7013 19.3224 9.58279 21.3918 10.1145V18.9602C18.8819 19.3379 16.7507 20.8878 15.5754 23.0329L10.3263 18.9524C10.4547 18.591 10.5252 18.2023 10.5252 17.7975C10.5252 15.8898 8.97307 14.3377 7.06534 14.3377C5.1576 14.3377 3.60547 15.8898 3.60547 17.7975C3.60547 19.7053 5.1576 21.2574 7.06534 21.2574C7.69732 21.2574 8.28969 21.0862 8.80012 20.7891L14.7334 25.4016C14.6459 25.8743 14.5978 26.3606 14.5978 26.8583C14.5978 28.6308 15.1789 30.2696 16.1595 31.5961L9.45088 38.3047C8.98485 38.7707 8.98485 39.5264 9.45088 39.9922C9.68398 40.2252 9.98947 40.3418 10.2948 40.3418C10.6001 40.3418 10.9056 40.2253 11.1387 39.9922L17.8473 33.2836C18.8702 34.0399 20.079 34.5584 21.3918 34.7561V43.6214C20.0703 44.1086 19.1253 45.3805 19.1253 46.869C19.1253 48.7768 20.6774 50.3289 22.5852 50.3289C24.4929 50.3289 26.045 48.7768 26.045 46.869C26.045 45.3804 25.1001 44.1084 23.7785 43.6214V34.7562C27.6188 34.1785 30.5725 30.857 30.5725 26.8584C30.5725 22.8595 27.6186 19.538 23.7785 18.9603ZM7.06534 18.8709C6.47344 18.8709 5.99213 18.3894 5.99213 17.7977C5.99213 17.206 6.47344 16.7245 7.06534 16.7245C7.65723 16.7245 8.13854 17.206 8.13854 17.7977C8.13854 18.3894 7.65707 18.8709 7.06534 18.8709ZM20.175 5.46802C20.175 4.13897 21.2561 3.05781 22.585 3.05781C23.9139 3.05781 24.9952 4.13897 24.9952 5.46802C24.9952 6.79707 23.9139 7.87823 22.585 7.87823C21.2561 7.87823 20.175 6.79707 20.175 5.46802ZM22.5852 47.9422C21.9933 47.9422 21.512 47.4607 21.512 46.869C21.512 46.3511 21.8806 45.9177 22.3694 45.8176C22.4394 45.8305 22.5113 45.8381 22.5852 45.8381C22.659 45.8381 22.7309 45.8305 22.8009 45.8176C23.2897 45.9177 23.6584 46.3511 23.6584 46.869C23.6584 47.4607 23.1769 47.9422 22.5852 47.9422ZM22.5852 32.4588C19.497 32.4588 16.9846 29.9463 16.9846 26.8581C16.9846 26.3131 17.0643 25.7866 17.2101 25.2882C17.2179 25.2635 17.2252 25.239 17.2312 25.214C17.9353 22.9257 20.0688 21.2574 22.5852 21.2574C25.6734 21.2574 28.1859 23.7699 28.1859 26.8581C28.1859 29.9464 25.6734 32.4588 22.5852 32.4588Z" fill="white"/>
<path d="M46.2044 15.2672C43.5593 15.2672 41.4075 17.419 41.4075 20.0641C41.4075 20.1874 41.4137 20.3091 41.4229 20.43L32.793 23.3725C32.1692 23.5851 31.8358 24.2633 32.0486 24.8871C32.2177 25.3833 32.6813 25.6957 33.1779 25.6957C33.3057 25.6957 33.4355 25.675 33.5631 25.6315L42.1927 22.6893C43.0506 23.9959 44.528 24.8611 46.2045 24.8611C48.8494 24.8611 51.0012 22.7093 51.0012 20.0642C51.0011 17.4192 48.8493 15.2672 46.2044 15.2672ZM46.2044 22.4745C44.8753 22.4745 43.7941 21.3933 43.7941 20.0642C43.7941 18.7352 44.8755 17.654 46.2044 17.654C47.5332 17.654 48.6144 18.7352 48.6144 20.0642C48.6144 21.3931 47.5332 22.4745 46.2044 22.4745Z" fill="white"/>
<path d="M4.79688 39.8478C2.15182 39.8478 0 41.9998 0 44.6447C0 47.2897 2.15182 49.4415 4.79688 49.4415C7.44178 49.4415 9.5936 47.2897 9.5936 44.6447C9.59376 41.9998 7.44178 39.8478 4.79688 39.8478ZM4.79688 47.055C3.46782 47.055 2.38666 45.9739 2.38666 44.6448C2.38666 43.3158 3.46798 42.2346 4.79688 42.2346C6.12577 42.2346 7.20693 43.3158 7.20693 44.6448C7.20709 45.9737 6.12593 47.055 4.79688 47.055Z" fill="white"/>
</g>
<defs>
<clipPath id="clip0">
<rect width="51" height="51" fill="white"/>
</clipPath>
</defs>
</svg>
