<svg width="65" height="65" viewBox="0 0 65 65" fill="none" xmlns="http://www.w3.org/2000/svg">
<path d="M63.3667 2.48225C63.2271 1.97897 62.8338 1.58595 62.3308 1.44621C56.9073 -0.0590369 51.0328 0.233828 45.3421 2.29267C40.9326 3.8881 36.6441 6.56258 33.5762 9.63067L28.9486 14.2582L12.1842 16.8769C11.8726 16.9255 11.5846 17.0719 11.3615 17.2949L0.639366 28.017C0.221795 28.4348 0.0905411 29.0596 0.304982 29.6098C0.519422 30.16 1.03908 30.5313 1.62898 30.5561L12.2056 31.0009L9.5548 33.6517C8.97368 34.2328 8.97368 35.1751 9.5548 35.7564L11.102 37.3035L6.4809 44.3869C6.09637 44.9763 6.17717 45.7544 6.67495 46.2522L18.5609 58.138C19.0586 58.6356 19.8368 58.7169 20.4264 58.332L27.5095 53.7108L29.0567 55.258C29.6378 55.839 30.5801 55.839 31.1614 55.258L33.8122 52.6072L34.257 63.1835C34.2818 63.7736 34.6531 64.2931 35.2033 64.5075C35.3789 64.576 35.5619 64.6091 35.7435 64.6091C36.131 64.6091 36.5117 64.4575 36.796 64.1733L47.5182 53.4511C47.7413 53.228 47.8876 52.9399 47.9364 52.6285L50.5552 35.8641L55.1826 31.2366C58.2505 28.1687 60.9251 23.8802 62.5206 19.4708C64.5791 13.7803 64.8718 7.90562 63.3667 2.48225ZM19.8115 55.1794L9.63352 45.0014L13.2528 39.454L18.2536 44.4547L17.6654 45.0428C17.0842 45.6239 17.0842 46.5662 17.6654 47.1475C18.2466 47.7285 19.1888 47.7285 19.7701 47.1475L20.3582 46.5594L25.359 51.5601L19.8115 55.1794ZM53.0778 29.1323L48.1072 34.1029C48.1066 34.1035 48.106 34.1041 48.1054 34.1047L42.9336 39.2766C42.3524 39.8577 42.3524 40.8 42.9336 41.3813C43.5147 41.9622 44.457 41.9622 45.0382 41.3813L46.985 39.4345L45.0705 51.6899L37.0882 59.6724L36.6709 49.7486L40.8292 45.5903C41.4103 45.0092 41.4103 44.0669 40.8292 43.4856C40.2481 42.9047 39.3058 42.9047 38.7245 43.4856L34.1082 48.102C34.1056 48.1045 34.1033 48.1069 34.1007 48.1094L30.1089 52.1011L28.782 50.7741C28.7668 50.7585 28.7516 50.7431 28.7358 50.7281L22.4626 44.4547L40.4609 26.4566C41.042 25.8755 41.0421 24.9332 40.4609 24.3519C39.8799 23.7711 38.9376 23.7709 38.3563 24.3519L20.3581 42.3503L14.0845 36.0768C14.0697 36.0613 14.0545 36.0461 14.0389 36.0311L12.7119 34.704L16.7037 30.7122C16.7062 30.7098 16.7086 30.7074 16.711 30.7049L21.3273 26.0886C21.9086 25.5075 21.9086 24.5652 21.3273 23.9839C20.7463 23.4029 19.8039 23.4029 19.2228 23.9839L15.0645 28.1422L5.14068 27.7248L13.1231 19.7424L25.3785 17.8281L23.4317 19.7747L25.5362 21.8794L30.6924 16.7231C30.7036 16.7123 30.7148 16.7013 30.7256 16.6899L35.6805 11.735C39.8217 7.594 49.6547 1.45827 60.7114 4.10135C63.3545 15.1582 57.2188 24.9914 53.0778 29.1323Z" fill="#1D006E"/>
</svg>
