<svg width="81" height="62" viewBox="0 0 81 62" fill="none" xmlns="http://www.w3.org/2000/svg">
<path d="M77.7053 17.185L46.0471 1.71972C43.3179 0.355144 38.6783 0.355144 35.9492 1.71972L3.56312 17.185C1.28882 18.2766 0.924927 19.8232 0.924927 20.6419C0.924927 21.4607 1.28882 22.9162 3.56312 24.0988L6.20131 25.3725V39.928C4.56381 40.5648 3.38117 42.2023 3.38117 44.0217C3.38117 45.8412 4.56381 47.4787 6.11033 48.1155L2.01659 61.1245H13.4791L9.38533 48.1155C11.0228 47.4787 12.1145 45.8412 12.1145 44.0217C12.1145 42.1113 10.9319 40.5648 9.29435 39.928V26.919L14.1159 29.2843V48.2064C14.1159 48.4794 14.2068 48.7523 14.3888 49.0252C14.8436 49.571 23.304 61.1245 40.5887 61.1245C57.8734 61.1245 66.3338 49.48 66.6977 49.0252C66.8797 48.7523 66.9706 48.4794 66.9706 48.2064V29.3752L77.7053 24.0988C79.9796 23.0072 80.3435 21.4607 80.3435 20.6419C80.2525 19.8232 79.9796 18.2766 77.7053 17.185ZM64.0595 47.7516C62.604 49.571 54.7804 58.3043 40.5887 58.3043C26.3971 58.3043 18.5735 49.571 17.118 47.7516V30.5579L35.9492 39.5641C37.3137 40.2009 39.1332 40.5648 40.9526 40.5648C42.863 40.5648 44.6825 40.2009 46.0471 39.4731L64.0595 30.6488V47.7516ZM76.4317 21.5516L65.5151 26.919C65.0602 26.919 64.6963 27.1009 64.5144 27.4648L44.7735 37.0169C42.863 38.0176 39.1332 38.0176 37.1318 37.0169L12.8423 25.3725L40.7707 22.0975C41.5894 22.0065 42.1353 21.2787 42.0443 20.5509C41.9533 19.7322 41.2255 19.1864 40.4978 19.2773L8.11172 23.0982L4.83672 21.5516C4.01798 21.1877 3.83603 20.7329 3.83603 20.7329C3.83603 20.6419 4.01798 20.278 4.83672 19.9141L37.2228 4.35791C38.2235 3.90305 39.588 3.63014 40.9526 3.63014C42.4082 3.63014 43.8637 3.90305 44.7735 4.35791L76.4317 19.8232C77.2505 20.187 77.4324 20.5509 77.4324 20.7329C77.4324 20.7329 77.1595 21.1877 76.4317 21.5516Z" fill="#1D006E"/>
</svg>
