<svg width="84" height="84" viewBox="0 0 84 84" fill="none" xmlns="http://www.w3.org/2000/svg">
<g clip-path="url(#clip0)">
<path d="M78.7501 84H40.2501C37.3556 84 35.0001 81.6445 35.0001 78.75C35.0001 77.721 35.2836 76.7585 35.8226 75.9535L55.0306 44.52C55.9371 42.9765 57.6556 42 59.5001 42C61.3446 42 63.0631 42.9765 63.9836 44.548L83.2161 76.02C83.7166 76.7585 84.0001 77.721 84.0001 78.75C84.0001 81.6445 81.6446 84 78.7501 84ZM59.5001 45.5C58.8911 45.5 58.3311 45.815 58.0371 46.3155L38.7696 77.8435C38.5771 78.1305 38.5001 78.421 38.5001 78.75C38.5001 79.7125 39.2876 80.5 40.2501 80.5H78.7501C79.7126 80.5 80.5001 79.7125 80.5001 78.75C80.5001 78.421 80.4231 78.1305 80.2726 77.91L60.9806 46.3435C60.6691 45.815 60.1091 45.5 59.5001 45.5Z" fill="black"/>
<path d="M59.5 70C58.534 70 57.75 69.216 57.75 68.25V54.25C57.75 53.284 58.534 52.5 59.5 52.5C60.466 52.5 61.25 53.284 61.25 54.25V68.25C61.25 69.216 60.466 70 59.5 70Z" fill="black"/>
<path d="M59.5 77C60.4665 77 61.25 76.2165 61.25 75.25C61.25 74.2835 60.4665 73.5 59.5 73.5C58.5335 73.5 57.75 74.2835 57.75 75.25C57.75 76.2165 58.5335 77 59.5 77Z" fill="black"/>
<path d="M29.75 73.5H8.75C3.9235 73.5 0 69.5765 0 64.75V19.25C0 14.4235 3.9235 10.5 8.75 10.5H15.75C16.716 10.5 17.5 11.284 17.5 12.25C17.5 13.216 16.716 14 15.75 14H8.75C5.8555 14 3.5 16.3555 3.5 19.25V64.75C3.5 67.6445 5.8555 70 8.75 70H29.75C30.716 70 31.5 70.784 31.5 71.75C31.5 72.716 30.716 73.5 29.75 73.5Z" fill="black"/>
<path d="M57.75 35C56.784 35 56 34.216 56 33.25V19.25C56 16.3555 53.6445 14 50.75 14H43.75C42.784 14 42 13.216 42 12.25C42 11.284 42.784 10.5 43.75 10.5H50.75C55.5765 10.5 59.5 14.4235 59.5 19.25V33.25C59.5 34.216 58.716 35 57.75 35Z" fill="black"/>
<path d="M40.2501 21H19.2501C16.3556 21 14.0001 18.6445 14.0001 15.75V8.75C14.0001 7.784 14.7841 7 15.7501 7H21.1751C21.9871 3.01 25.5256 0 29.7501 0C33.9746 0 37.5131 3.01 38.3251 7H43.7501C44.7161 7 45.5001 7.784 45.5001 8.75V15.75C45.5001 18.6445 43.1446 21 40.2501 21ZM17.5001 10.5V15.75C17.5001 16.7125 18.2876 17.5 19.2501 17.5H40.2501C41.2126 17.5 42.0001 16.7125 42.0001 15.75V10.5H36.7501C35.7841 10.5 35.0001 9.716 35.0001 8.75C35.0001 5.8555 32.6446 3.5 29.7501 3.5C26.8556 3.5 24.5001 5.8555 24.5001 8.75C24.5001 9.716 23.7161 10.5 22.7501 10.5H17.5001Z" fill="black"/>
<path d="M47.25 31.501H12.25C11.284 31.501 10.5 30.717 10.5 29.751C10.5 28.785 11.284 28.001 12.25 28.001H47.25C48.216 28.001 49 28.785 49 29.751C49 30.717 48.216 31.501 47.25 31.501Z" fill="black"/>
<path d="M47.25 42.001H12.25C11.284 42.001 10.5 41.217 10.5 40.251C10.5 39.285 11.284 38.501 12.25 38.501H47.25C48.216 38.501 49 39.285 49 40.251C49 41.217 48.216 42.001 47.25 42.001Z" fill="black"/>
<path d="M40.25 52.501H12.25C11.284 52.501 10.5 51.717 10.5 50.751C10.5 49.785 11.284 49.001 12.25 49.001H40.25C41.216 49.001 42 49.785 42 50.751C42 51.717 41.216 52.501 40.25 52.501Z" fill="black"/>
</g>
<defs>
<clipPath id="clip0">
<rect width="84" height="84" fill="white"/>
</clipPath>
</defs>
</svg>
